<?xml version="1.0" encoding="UTF-8"?><svg id="Layer_2" xmlns="http://www.w3.org/2000/svg" viewBox="0 0 256.02 349.7"><defs><style>.cls-1{fill:#e05e26;fill-rule:evenodd;}</style></defs><g id="Layer_1-2"><path class="cls-1" d="M192.49,127.36c13.46,7.96,4.14,12.56-1.07,20.96-2.25,3.63-5.37,7.78-7.06,11.26,.28-7.16,4.09-13.2-1.26-19.86-4.62-5.74-4.83-1.63-2.62-20.61,1.92-12.82,2.14,1.64,2.48,2.13,2.87,4.21,3.89,3.64,9.53,6.12m-19.14,38.96c-.14-.1-2.73-1.46-3.55-2.94-3.11-5.62-.27-2.98,2.84-3.41,1.69-.23,1.38-1.26,.71,6.35Zm-22.05-28.3l11.69,17.3c14.61,21.75,10.6,18.23,4.48,25.93,2.13,8.07,3.99,1.1,.28,12.41l-38.4-8.6,21.95-47.04Zm-57.14,98.08l-9.33,1.53c8.84-7.04,17.04-22.34,17.28-22.58,1.55-1.52,4.58-1.82,4.35,.31-.28,2.73-10.3,17.6-12.3,20.73Zm4.53-1.42l9.08-18.84c3.9,.27,5.4,1.42,7.05,3.3,2.09,2.38,2.82,2.42,1.7,5.55-2.45,6.86-10.5,8.8-17.83,9.99ZM158.23,0h1.98l-7.13,133.87,8.86,16.5c3.37,5.74,8.41,9.94,14.22,4.86,.43,5.95-.9,4.14-.7,8.23,.18,3.53-.81,.7,.72,3.11,4.22-7.51-.5-13.45-1.35-20.21l4.08-36.44c.17-1.56-2.49-4.95-3.54-6.13-5.5-6.19-5.82-8.76-4.78-14.1,1.31-6.71,7.91-31.75,7.69-34.81-.38-5.52-4.58-7.06,.81-19.85,.69-1.64,2.92-4.75,4.27-5.41,.22-.11,.15-.47,.21-.73,1.27-4.85,.38-12.95,.85-18.32l.09-10.57h1.7l-.36,29.81c5.16,3.33,3.4,1.39,5.47,9.9,1.77,7.29,1.37,7.85,.24,15.11-2.75,8.93-2.46,27.3,.91,36.04,1.42,2.76,10.94,8.85,14.76,9.83,5.89-20.56,31.44-29.95,42.88-9.97l3.95,7.28c1.13,1.9-.08,10.7-1.01,12.87-1.9,4.46-3.46,3-7.25,7.16,.18,1.99,.93,4.31,1.88,6.59,7.38,17.48,4.93,11.06,6.13,31.08,1.09,18.19,5.29,12.02-1.97,36.51-1.81,6.11-2.49,12.41-3.17,19.13-9.61,32.23-12.81,22.02-22.67,19.81-5.67,14.84-5.3,8.43-16.41,14.8l2.33,9.04c3.11,25.66-14.63,19.38-18.61,23.06-3.18,3.64-.85,1.19-2.66,6.62-1.12,3.37-.47,2.06-2.09,5.51-5.9,12.52,.38,.42-5.5,4.66-.8,8.87-3.85,8.14-2.11,19.17-3.82-2.22-4.63-2.11-5.8-1.51-3.18,1.63-3.68,11.84,.6,11.38,5.93-.64,2.62-1.78,6.44-5.67-.58,7.84-1.91,8.28-10.18,7.12-1.55-8.98,.98-12.93,2.96-19-10.57,2.75-5.5,1.31-13.41-2.1-6.83-2.95-7.74,.84-11.16-5.59,6.1-.6,2.59,3.26,4-3.11,5.23-.67,.75-.25,.68-5.42,6.21-11.05-1.06-8.52-5.85-15.54,2.2-5.02,4.9-7.44,7.55-10.81-16.55-6.81-10.7,4.41-30.26,3.76-6.04-.2-12.6-.14-17.62-2.4-19.35-8.71-17.74,1.1-20.95,17.88-1.5,7.82-3.2,10.17-7.09,16.2-4.1,4.48-27.66,31.58-26.67,36.89-6.79,2.67-.97,.47-3,4.79-4.57,.61-5.88,1.15-6.5,3.45-1.01,3.75,.58,3.37-3.9,4.77-7.91,2.46-6.1-2.83-14.34-7.65l-22.9-14.6c-3.82-2.43-3.87-1.85-3.31-6.77,1.11-9.73,7.59-6.5,17.81-4.98,4.06,2.09,9.36,3.9,14.47,3.81,10.01-.16,10.01,.16,14.12-6.7,6.48-2.54,23.72-59.39,30.26-69.74-10.91,8.84-23.21,11.43-32.59,14.79-.64,.23-.69,3.02-1.31,3.26-.68,.26-1.92-2.02-2.56-1.74,.74,8.12,.24,2.95-6.66,4.87l-2.28,3.4c-3.2,4.71-11.63,2.1-12.49-2.64-.58-3.21-.76-5.39-.77-10.82,0-3.27-1.51-11.2-1.45-17.89,.04-3.85-1.01-8.2,.65-10.11,1.41-1.62,10.01,.93,11.92,4.49,1.48,2.76,1.46,5.31,3.05,11.82,15.46,2.63,27.32-18.1,38.23-29.13,9.27-9.37,11.76-10.3,16.99-16.73,7.46-9.18,5.96-12.39,24.08-12.1l14.85,.24,24-52.94L158.23,0Zm16.4,294.46c.86-2.67,.62-2.7,1.84-4.63,2.98-4.69,.57-1.84,3.57-3.01-1.05,5.95,0,5.74-5.42,7.63Z"/></g></svg>