<svg xmlns="http://www.w3.org/2000/svg" viewBox="0 0 640.99 1250.21"><defs><style>.cls-1{fill:#9c4722;}.cls-1,.cls-2{fill-rule:evenodd;}.cls-2{fill:#e05e26;}.cls-3{fill:#fff;}</style></defs><g id="Layer_2" data-name="Layer 2"><g id="Layer_1-2" data-name="Layer 1"><path class="cls-1" d="M503.1,829.24c24.39,14.43,7.5,22.77-2,38-4.08,6.57-9.74,14.09-12.8,20.4.5-13,7.42-23.93-2.29-36-8.37-10.41-8.75-2.95-4.75-37.35,3.49-23.24,3.89,3,4.5,3.86,5.21,7.63,7.06,6.59,17.29,11.09m-34.71,70.63c-.25-.19-4.95-2.66-6.43-5.33-5.65-10.18-.5-5.39,5.14-6.17C470.17,887.94,469.6,886.07,468.39,899.87Zm-40-51.31,21.18,31.36c26.48,39.43,19.23,33.05,8.12,47,3.87,14.63,7.22,2,.51,22.49l-69.6-15.59ZM324.86,1026.34,308,1029.12c16-12.76,30.89-40.5,31.32-40.92,2.81-2.76,8.29-3.3,7.89.57C346.64,993.71,328.48,1020.67,324.86,1026.34Zm8.22-2.57,16.46-34.14c7.06.48,9.78,2.58,12.78,6,3.79,4.32,5.11,4.38,3.08,10C361,1018.1,346.36,1021.63,333.08,1023.77ZM465.59,0h3.68l-37.6,841.05L447.73,871c6.1,10.41,15.24,18,25.77,8.81.77,10.78-1.64,7.49-1.27,14.92.32,6.39-1.46,1.26,1.3,5.64,7.65-13.62-.91-24.39-2.45-36.64l7.4-66c.32-2.82-4.51-9-6.41-11.1-10-11.22-10.56-15.88-8.67-25.57,2.37-12.16,14.33-57.55,14-63.1-.7-10-8.31-12.8,1.46-36,1.25-3,5.29-8.61,7.74-9.81.39-.19.27-.86.38-1.31,2.3-8.8.69-23.48,1.55-33.2L508.18,0h3L491.08,652.43c9.36,6,6.16,2.52,9.92,18,3.21,13.21,2.49,14.23.43,27.38-5,16.19-4.45,49.49,1.65,65.32,2.57,5,19.84,16,26.75,17.83,10.68-37.28,57-54.3,77.74-18.09L614.72,776c2,3.44-.15,19.39-1.83,23.33-3.44,8.1-6.26,5.43-13.14,13a42.37,42.37,0,0,0,3.42,11.93c13.38,31.68,8.94,20,11.11,56.33,2,33,9.58,21.78-3.58,66.18-3.29,11.08-4.51,22.5-5.74,34.68-17.42,58.42-23.23,39.92-41.1,35.92-10.27,26.9-9.6,15.28-29.75,26.83l4.23,16.39c3.66,30.25-8.66,36-19.71,38.18H426.85a25.68,25.68,0,0,1-2.15-2.73c4-9.11,8.89-13.49,13.68-19.59-30-12.35-19.39,8-54.84,6.8-10.94-.36-22.83-.24-31.93-4.34-29.91-13.45-32.19-2.51-35.82,19.86H269c9.78-26.29,19.22-52.38,24.64-60.94-19.78,16-42.07,20.72-59.08,26.81-1.16.42-1.25,5.48-2.36,5.91s-3.48-3.66-4.64-3.14c1.35,14.72.43,5.34-12.07,8.82l-4.13,6.17a9.84,9.84,0,0,1-3.32,3.06v-69c2.16,4.62,2.32,9.39,5,20.35,28,4.77,49.52-32.81,69.29-52.8,16.8-17,21.31-18.67,30.79-30.33,13.53-16.64,10.81-22.45,43.65-21.93l26.91.43,43.51-96Z"/><path class="cls-2" d="M525.83,847.19c24.39,14.42,7.5,22.76-2,38-4.08,6.57-9.73,14.09-12.8,20.4.5-13,7.42-23.93-2.29-36-8.37-10.41-8.75-3-4.74-37.35,3.48-23.25,3.88,3,4.5,3.86,5.21,7.63,7.05,6.59,17.28,11.09m-34.7,70.63c-.26-.19-5-2.66-6.44-5.33-5.64-10.18-.49-5.4,5.15-6.18C492.9,905.89,492.33,904,491.13,917.82Zm-40-51.31,21.19,31.36c26.47,39.43,19.22,33,8.11,47,3.87,14.63,7.23,2,.51,22.49l-69.6-15.59ZM347.6,1044.29l-16.91,2.78c16-12.76,30.88-40.5,31.31-40.92,2.81-2.76,8.3-3.3,7.89.57C369.38,1011.66,351.22,1038.62,347.6,1044.29Zm8.22-2.57,16.45-34.14c7.07.48,9.78,2.57,12.78,6,3.79,4.31,5.11,4.38,3.08,10C383.68,1036.05,369.09,1039.57,355.82,1041.72ZM485.89,0h3.59L454.41,859l16,29.9c6.1,10.4,15.25,18,25.77,8.8.77,10.78-1.64,7.5-1.27,14.92.32,6.4-1.46,1.27,1.3,5.65,7.65-13.62-.91-24.39-2.45-36.64l7.41-66c.31-2.83-4.51-9-6.42-11.11-10-11.21-10.55-15.87-8.67-25.56,2.37-12.16,14.34-57.55,13.95-63.1-.69-10-8.31-12.8,1.46-36,1.26-3,5.3-8.61,7.74-9.81.4-.2.27-.86.39-1.31,2.29-8.8.69-23.48,1.54-33.21L526.31,0h3.09L513.81,670.38c9.36,6,6.17,2.52,9.92,18,3.21,13.21,2.49,14.23.43,27.38-5,16.19-4.45,49.49,1.66,65.32,2.57,5,19.83,16,26.75,17.82,10.67-37.27,57-54.29,77.73-18.08l7.15,13.2c2,3.45-.15,19.4-1.82,23.34-3.44,8.09-6.27,5.43-13.15,13a42.37,42.37,0,0,0,3.42,11.93c13.38,31.68,8.94,20,11.11,56.33,2,33,9.58,21.78-3.58,66.18-3.28,11.08-4.5,22.5-5.74,34.68-17.42,58.42-23.22,39.91-41.09,35.91-10.27,26.91-9.61,15.28-29.76,26.84l4.23,16.39c5.64,46.5-26.53,35.13-33.74,41.79-5.75,6.6-1.54,2.16-4.81,12-2,6.11-.85,3.74-3.79,10-10.68,22.7.68.76-10,8.46-1.44,16.08-7,14.76-3.83,34.74-6.92-4-8.4-3.82-10.52-2.74-5.77,3-6.67,21.46,1.1,20.62,10.74-1.16,4.74-3.23,11.68-10.28-1.06,14.21-3.47,15-18.46,12.91-2.82-16.28,1.77-23.43,5.36-34.45-19.15,5-10,2.37-24.3-3.81-12.38-5.34-14,1.51-20.24-10.14,11.05-1.1,4.69,5.91,7.24-5.64,9.48-1.21,1.36-.46,1.24-9.83,11.26-20-1.92-15.45-10.6-28.17,4-9.1,8.88-13.48,13.68-19.58-30-12.35-19.39,8-54.85,6.8-10.94-.36-22.83-.25-31.93-4.34-35.07-15.78-32.15,2-38,32.41-2.71,14.17-5.81,18.44-12.85,29.37-7.43,8.12-50.14,57.24-48.34,66.86-12.3,4.83-1.76.85-5.45,8.67-8.28,1.1-10.66,2.08-11.78,6.25-1.82,6.8,1.05,6.12-7.06,8.64-14.34,4.46-11.06-5.13-26-13.86l-41.5-26.47c-6.92-4.41-7-3.36-6-12.27,2-17.63,13.77-11.79,32.29-9,7.36,3.79,17,7.07,26.23,6.92,18.13-.3,18.14.29,25.59-12.15,11.74-4.61,43-107.65,54.85-126.42-19.77,16-42.07,20.71-59.08,26.81-1.16.42-1.25,5.48-2.36,5.91s-3.48-3.66-4.64-3.15c1.35,14.72.43,5.35-12.07,8.83l-4.13,6.16c-5.8,8.54-21.07,3.81-22.63-4.79-1.05-5.82-1.38-9.76-1.4-19.62,0-5.92-2.75-20.3-2.62-32.43.07-7-1.84-14.87,1.18-18.33,2.57-2.93,18.14,1.69,21.62,8.14,2.69,5,2.65,9.62,5.53,21.42,28,4.77,49.52-32.81,69.29-52.81,16.8-17,21.31-18.66,30.8-30.32,13.53-16.64,10.8-22.46,43.64-21.94l26.91.43,43.51-96Zm7.58,1150.08c1.56-4.84,1.12-4.88,3.34-8.38,5.41-8.5,1-3.33,6.48-5.45C501.39,1147,503.3,1146.65,493.47,1150.08Z"/><path class="cls-3" d="M44.73,439.39v9.41H22.89a2.05,2.05,0,0,0-1,.28,3.88,3.88,0,0,0-.92.67,3.46,3.46,0,0,0-.72,1,2.4,2.4,0,0,0-.24,1v32.69a2.2,2.2,0,0,0,.28,1,3.13,3.13,0,0,0,.76.91,4.17,4.17,0,0,0,1,.64,2.78,2.78,0,0,0,1.11.24H45.53v9.49H11.88a12.61,12.61,0,0,1-2.67-.28,12,12,0,0,1-2.51-.84,11.53,11.53,0,0,1-2.07-1.31,10.37,10.37,0,0,1-1.76-1.8,16.64,16.64,0,0,1-1.24-2,10.55,10.55,0,0,1-.91-2.39,18.08,18.08,0,0,1-.52-2.4A17.78,17.78,0,0,1,0,483V453.5a17.88,17.88,0,0,1,.2-2.71,21.61,21.61,0,0,1,.52-2.47,23,23,0,0,1,1.07-2.55,14.1,14.1,0,0,1,1.32-2.16A18.94,18.94,0,0,1,4.58,442a7.84,7.84,0,0,1,1.64-1.2,8.88,8.88,0,0,1,2.35-1.07,9.26,9.26,0,0,1,2.59-.36Z"/><path class="cls-3" d="M101.91,469.13v27.43H84.84l-1.19-4.47a2.86,2.86,0,0,1-.28.84c-.14.24-.26.47-.36.68a4,4,0,0,1-.56.84c-.21.24-.43.46-.64.67a5.42,5.42,0,0,1-4,1.44H60a12.82,12.82,0,0,1-2.59-.24,8.6,8.6,0,0,1-2.11-.72,6.38,6.38,0,0,1-1.8-1.23,8.59,8.59,0,0,1-1.31-1.72,8.76,8.76,0,0,1-1-2.35,19.16,19.16,0,0,1-.52-2.59c-.1-.91-.17-1.81-.2-2.71s0-1.76,0-2.55v-2.4a21.82,21.82,0,0,1,.16-2.55c.11-.85.26-1.69.44-2.51a11.63,11.63,0,0,1,.76-2.27,8.91,8.91,0,0,1,1.4-2,6.2,6.2,0,0,1,2-1.47,8.49,8.49,0,0,1,2.15-.72,13.45,13.45,0,0,1,2.63-.24H79.82a2.14,2.14,0,0,0,1.11-.32,3.83,3.83,0,0,0,1-.87,2.52,2.52,0,0,0,.52-.8,2.36,2.36,0,0,0,.2-.88,2.13,2.13,0,0,0-.24-1,2.35,2.35,0,0,0-.64-.79,3.36,3.36,0,0,0-.88-.64,2.06,2.06,0,0,0-1-.24H53.66v-8.21H90.34a14.28,14.28,0,0,1,3,.28,9.91,9.91,0,0,1,2.48.83A7.5,7.5,0,0,1,98,457.09,9.34,9.34,0,0,1,99.51,459a11.05,11.05,0,0,1,1.08,2,12.91,12.91,0,0,1,.68,2.19,17.79,17.79,0,0,1,.52,3C101.87,467.27,101.91,468.23,101.91,469.13Zm-19.3,7.26H73.2a2.62,2.62,0,0,0-1.24.31,4.9,4.9,0,0,0-1.07.8,6,6,0,0,0-.72,1.08,2.47,2.47,0,0,0-.32,1.15v6a2.06,2.06,0,0,0,.2.84,7.41,7.41,0,0,0,.44.84,4,4,0,0,0,1,.72,2.11,2.11,0,0,0,1,.32h7.66a1.8,1.8,0,0,0,.87-.28,4.41,4.41,0,0,0,.88-.68,2.56,2.56,0,0,0,.52-.76,2.06,2.06,0,0,0,.2-.84Z"/><path class="cls-3" d="M128.46,454.54v42.18H109.24V454.54Zm-19.06-15h18.9v10.92H109.4Z"/><path class="cls-3" d="M153.5,496.72H134v-42H153.5v3.74a5.4,5.4,0,0,1,1-1.19,3.4,3.4,0,0,1,.6-.6,4.29,4.29,0,0,1,.68-.44l1-.6a4.72,4.72,0,0,1,.95-.43c.37-.11.73-.2,1.08-.28a4.4,4.4,0,0,1,1-.12h11.56v11.64H161.15a11.62,11.62,0,0,0-2.79.32,8.43,8.43,0,0,0-2.31.87,3.56,3.56,0,0,0-1,.6,4.55,4.55,0,0,0-.72.84,2.68,2.68,0,0,0-.67,1.08,3.87,3.87,0,0,0-.2,1.31Z"/><path class="cls-3" d="M196.32,465.38v31.34H176.86V454.78h40.75a10.84,10.84,0,0,1,5.42,1.35,9.75,9.75,0,0,1,3.59,3.27,11.33,11.33,0,0,1,1,1.88,14.47,14.47,0,0,1,.8,2.27,18.93,18.93,0,0,1,.48,2.55,26,26,0,0,1,.16,2.87v27.75h-19.3V465.46a2.62,2.62,0,0,0-.2-1.07,2.28,2.28,0,0,0-.52-.76,2.17,2.17,0,0,0-.91-.56,3.31,3.31,0,0,0-1-.16h-8.37a2.7,2.7,0,0,0-.88.16,2.06,2.06,0,0,0-.8.48,2,2,0,0,0-.56.72A2.56,2.56,0,0,0,196.32,465.38Z"/><path class="cls-3" d="M280.76,454.78v7.73H255.08a2,2,0,0,0-.6.12,5,5,0,0,0-.67.28,1.53,1.53,0,0,0-.52.4.85.85,0,0,0-.2.56v2.31a.64.64,0,0,0,.24.52,3,3,0,0,0,.56.36,3.81,3.81,0,0,0,.67.24,3.39,3.39,0,0,0,.68.08h18.9a11.09,11.09,0,0,1,1.79.15,15.56,15.56,0,0,1,1.72.4,8.81,8.81,0,0,1,1.63.8,7.91,7.91,0,0,1,1.4,1.12,7.1,7.1,0,0,1,1,1.27,10.08,10.08,0,0,1,1.23,3.43,14.26,14.26,0,0,1,.16,2.23v9.81a11.53,11.53,0,0,1-.2,2.15,9.63,9.63,0,0,1-.6,2,6.4,6.4,0,0,1-.87,1.63c-.38.51-.75,1-1.12,1.4a12.8,12.8,0,0,1-1.51,1.15,15.55,15.55,0,0,1-1.6.92,9.85,9.85,0,0,1-2.27.68,13.67,13.67,0,0,1-2.27.2h-37v-7.58h27.43a1.56,1.56,0,0,0,.67-.16,2,2,0,0,0,.6-.39,1.11,1.11,0,0,0,.48-.48,1.38,1.38,0,0,0,.16-.64v-2.31a1.13,1.13,0,0,0-.64-1,2.42,2.42,0,0,0-.64-.36,1.76,1.76,0,0,0-.63-.12h-18.9a12.59,12.59,0,0,1-2.27-.2,9.93,9.93,0,0,1-2.28-.68,8.09,8.09,0,0,1-1.39-.79,5.15,5.15,0,0,1-1.16-1.12,6.67,6.67,0,0,1-.84-1.23,10.66,10.66,0,0,1-.59-1.4,9.39,9.39,0,0,1-.24-1.36,12.08,12.08,0,0,1-.08-1.51V464.19a8,8,0,0,1,.24-2,10.62,10.62,0,0,1,.64-1.79,14.47,14.47,0,0,1,1-1.52,7,7,0,0,1,1.28-1.27,9,9,0,0,1,1.55-1.12,11.63,11.63,0,0,1,1.72-.8,17,17,0,0,1,2.31-.63,11.78,11.78,0,0,1,2.31-.24Z"/><path class="cls-3" d="M20.81,537.53v22.8H35.88v-22.8H55.74v57.09H35.88v-24.8H20.81v24.8H.8V537.53Z"/><path class="cls-3" d="M103.1,552.6a15.51,15.51,0,0,1,2.71.24,9.37,9.37,0,0,1,2.63.88A6.51,6.51,0,0,1,110.2,555a9.81,9.81,0,0,1,1.43,1.84,14.73,14.73,0,0,1,.72,1.67,10.67,10.67,0,0,1,.48,1.91,23.87,23.87,0,0,1,.16,2.87V578.2H80.54v4.54a3.1,3.1,0,0,0,.31,1.32,3.56,3.56,0,0,0,.88,1.15,4.52,4.52,0,0,0,1.2.88,2.84,2.84,0,0,0,1.27.32h26.88v8.21H71a16,16,0,0,1-2.51-.2,6.89,6.89,0,0,1-2.28-.76,5.9,5.9,0,0,1-1.75-1.11A8,8,0,0,1,63,590.79a6.6,6.6,0,0,1-.79-1.71,18.85,18.85,0,0,1-.56-2.19,14.26,14.26,0,0,1-.24-1.72c0-.61-.08-1.26-.08-1.95v-18.9c0-.64,0-1.25.08-1.83s.1-1.15.16-1.68a16.14,16.14,0,0,1,.64-2.51,9.31,9.31,0,0,1,.95-2,7.55,7.55,0,0,1,1.48-1.76,6.22,6.22,0,0,1,1.87-1.11,9.49,9.49,0,0,1,2.08-.6,12.84,12.84,0,0,1,2.23-.2Zm-8.85,17.46v-6.62a2.05,2.05,0,0,0-.2-.83,3.9,3.9,0,0,0-.52-.84,2.66,2.66,0,0,0-.71-.64,1.57,1.57,0,0,0-.8-.24H82.77a1.34,1.34,0,0,0-.76.24,4.5,4.5,0,0,0-.68.56,4.33,4.33,0,0,0-.52.84,2,2,0,0,0-.19.83v6.7Z"/><path class="cls-3" d="M139.62,552.52V594.7H120.4V552.52Zm-19.06-15h18.9v10.92h-18.9Z"/><path class="cls-3" d="M195.12,598.85a12.3,12.3,0,0,1-.2,2.19,9.38,9.38,0,0,1-.6,2,9.2,9.2,0,0,1-.83,1.92,16,16,0,0,1-1.16,1.67A12.47,12.47,0,0,1,191,608.1a13.83,13.83,0,0,1-1.43,1.11,11.65,11.65,0,0,1-2,.92,6,6,0,0,1-2,.36H146.64v-8.13h25.51a3.89,3.89,0,0,0,1.76-.36,3.32,3.32,0,0,0,1.2-1,3.9,3.9,0,0,0,.71-1.28,4.42,4.42,0,0,0,.24-1.43v-3.67H154.13a10.49,10.49,0,0,1-2.51-.28,9.57,9.57,0,0,1-2.11-.76,10.52,10.52,0,0,1-1.79-1.11,8.43,8.43,0,0,1-1.48-1.44,8.57,8.57,0,0,1-1.12-1.59,17.07,17.07,0,0,1-1.47-4.27,15.51,15.51,0,0,1-.2-2.43v-18.5a12.59,12.59,0,0,1,.16-2,13.26,13.26,0,0,1,.48-2.08,11.16,11.16,0,0,1,.83-2,15.72,15.72,0,0,1,1.16-1.83,10.91,10.91,0,0,1,1.6-1.72,8.2,8.2,0,0,1,1.91-1.23,10.48,10.48,0,0,1,2-.76,8.88,8.88,0,0,1,2.27-.28h41.23Zm-21.45-38h-9.49a.92.92,0,0,0-.6.24,1.69,1.69,0,0,0-.44.64,2.84,2.84,0,0,0-.23.76,3.69,3.69,0,0,0-.08.75V584a1.9,1.9,0,0,0,.2.83,2.49,2.49,0,0,0,1.27,1.4,1.74,1.74,0,0,0,.84.24h8.77a1.6,1.6,0,0,0,.76-.2,1.75,1.75,0,0,0,.59-.52,1.9,1.9,0,0,0,.48-.72,2,2,0,0,0,.16-.79V563.44a2,2,0,0,0-.2-.91,2.42,2.42,0,0,0-.51-.76,2.86,2.86,0,0,0-.72-.64A1.54,1.54,0,0,0,173.67,560.89Z"/><path class="cls-3" d="M201.42,594.62V537.37H220.8v15.31h21.29a11.41,11.41,0,0,1,2.63.28,8.55,8.55,0,0,1,2.23.84,11.53,11.53,0,0,1,1.91,1.27,11,11,0,0,1,1.6,1.6,19.25,19.25,0,0,1,1.19,1.87,9.75,9.75,0,0,1,.88,2,20.8,20.8,0,0,1,.76,2.75,14.5,14.5,0,0,1,.28,2.75V594.7h-19.3V563.12a1.78,1.78,0,0,0-.2-.79,2.45,2.45,0,0,0-.52-.72,4.47,4.47,0,0,0-.79-.52,1.85,1.85,0,0,0-.8-.2h-9.25a1.25,1.25,0,0,0-.76.28,2.45,2.45,0,0,0-.6.68,5,5,0,0,0-.4.84,2.56,2.56,0,0,0-.15.83v31.1Z"/><path class="cls-3" d="M283.47,543.59v9.09h15.39v8.13H283.47v23.45a2.71,2.71,0,0,0,.12.79,2.21,2.21,0,0,0,.36.72,1.68,1.68,0,0,0,.72.52,3.11,3.11,0,0,0,1.19.2h14v8.13H274.38a12.26,12.26,0,0,1-3.07-.36,10.27,10.27,0,0,1-2.51-1,13.58,13.58,0,0,1-1.48-1.2,12.09,12.09,0,0,1-1.23-1.36,13.47,13.47,0,0,1-1-1.83,10.62,10.62,0,0,1-.68-2q-.15-.79-.24-1.56c-.05-.5-.08-1-.08-1.55v-23H255.8v-8.13h8.13v-9.09Z"/><path class="cls-3" d="M48.24,635.59V645H21.53a1.79,1.79,0,0,0-.76.16,3.91,3.91,0,0,0-.68.4,1.94,1.94,0,0,0-.51.56,1.25,1.25,0,0,0-.2.71v4.23a1.53,1.53,0,0,0,.12.6,4,4,0,0,0,.35.6,3.69,3.69,0,0,0,.8.71,1.67,1.67,0,0,0,1,.32H39.15a17.12,17.12,0,0,1,2.19.16,14.74,14.74,0,0,1,2.2.48,10,10,0,0,1,2.11.88,12.55,12.55,0,0,1,1.87,1.27,14.06,14.06,0,0,1,1.2,1.36,8.4,8.4,0,0,1,1,1.59,8.78,8.78,0,0,1,.59,1.92,11.69,11.69,0,0,1,.2,2.31v17.46a17.27,17.27,0,0,1-.08,1.76,16.81,16.81,0,0,1-.23,1.67,11.61,11.61,0,0,1-.68,2.23,13.85,13.85,0,0,1-1,1.92,9.62,9.62,0,0,1-5.74,4,12.45,12.45,0,0,1-3,.36H1.83v-9.49H28.47a2.87,2.87,0,0,0,1-.16,4.12,4.12,0,0,0,.88-.39A2.45,2.45,0,0,0,31,682a1.37,1.37,0,0,0,.28-.84v-5a1.54,1.54,0,0,0-.24-.8,1.78,1.78,0,0,0-.64-.64,2.14,2.14,0,0,0-.76-.48,2.59,2.59,0,0,0-.83-.16H9.49a10.15,10.15,0,0,1-2.11-.2,18.46,18.46,0,0,1-1.8-.43A9.75,9.75,0,0,1,4,672.71a6.75,6.75,0,0,1-1.28-1,7.84,7.84,0,0,1-1.12-1.39A8.25,8.25,0,0,1,.8,668.6a11.25,11.25,0,0,1-.64-3.91V646.83a12.68,12.68,0,0,1,.16-2,12.9,12.9,0,0,1,.48-2.07,11.25,11.25,0,0,1,.83-2,16.61,16.61,0,0,1,1.16-1.83,10.18,10.18,0,0,1,1.28-1.36,9,9,0,0,1,1.59-1.11,10.14,10.14,0,0,1,1.88-.64,8.91,8.91,0,0,1,2.11-.24Z"/><path class="cls-3" d="M107.09,665.09v27.43H90l-1.19-4.46a2.6,2.6,0,0,1-.28.84c-.13.23-.25.46-.36.67a4,4,0,0,1-.56.84c-.21.24-.42.47-.64.68a5.46,5.46,0,0,1-4,1.43H65.23a12.86,12.86,0,0,1-2.6-.24,8.19,8.19,0,0,1-2.11-.71,6,6,0,0,1-1.79-1.24,8.21,8.21,0,0,1-1.32-1.71,9.17,9.17,0,0,1-1-2.36,18.8,18.8,0,0,1-.51-2.59c-.11-.9-.18-1.8-.2-2.71s0-1.75,0-2.55V676a19.84,19.84,0,0,1,.16-2.55,23.7,23.7,0,0,1,.44-2.52,11,11,0,0,1,.75-2.27,8.85,8.85,0,0,1,1.4-2,6.49,6.49,0,0,1,2-1.48,8.62,8.62,0,0,1,2.15-.71,13.49,13.49,0,0,1,2.64-.24H85a2.27,2.27,0,0,0,1.12-.32,3.83,3.83,0,0,0,1-.88,2.26,2.26,0,0,0,.52-.8,2.35,2.35,0,0,0,.2-.87,2.13,2.13,0,0,0-.24-1,2.29,2.29,0,0,0-.64-.8,3.37,3.37,0,0,0-.87-.64,2.13,2.13,0,0,0-1-.24H58.85V650.5H95.53a15.16,15.16,0,0,1,3,.28,10.41,10.41,0,0,1,2.47.84,7.48,7.48,0,0,1,2.19,1.43A10.1,10.1,0,0,1,104.7,655a11.21,11.21,0,0,1,1.07,2,13.5,13.5,0,0,1,.68,2.19,16.86,16.86,0,0,1,.52,3C107.05,663.23,107.09,664.19,107.09,665.09Zm-19.3,7.26H78.38a2.62,2.62,0,0,0-1.23.32,4.45,4.45,0,0,0-1.08.8,5.56,5.56,0,0,0-.72,1.07A2.51,2.51,0,0,0,75,675.7v6a2.1,2.1,0,0,0,.2.84,9.28,9.28,0,0,0,.44.83,4.46,4.46,0,0,0,1,.72,2.14,2.14,0,0,0,1,.32h7.65a1.73,1.73,0,0,0,.88-.28,3.79,3.79,0,0,0,.87-.68,2.34,2.34,0,0,0,.52-.75,2.1,2.1,0,0,0,.2-.84Z"/><path class="cls-3" d="M153.26,635.59v8h-14a4.6,4.6,0,0,0-.87.08,2,2,0,0,0-.64.24,1.42,1.42,0,0,0-.6.72,2.77,2.77,0,0,0-.12.8v5h15.39v8.13H137.07v33.89H117.53V658.63h-8v-8h8V646.2c0-.54,0-1.07.08-1.6a9,9,0,0,1,.32-1.59,13.75,13.75,0,0,1,.64-2,8.57,8.57,0,0,1,1-1.87,11.3,11.3,0,0,1,1.31-1.4,7.7,7.7,0,0,1,3.67-1.87,11.24,11.24,0,0,1,2.43-.24Z"/><path class="cls-3" d="M199.82,650.58a15.62,15.62,0,0,1,2.72.24,9.48,9.48,0,0,1,2.63.88,6.86,6.86,0,0,1,1.75,1.27,10.66,10.66,0,0,1,1.44,1.84,16.75,16.75,0,0,1,.71,1.67,10,10,0,0,1,.48,1.92,23.76,23.76,0,0,1,.16,2.87v14.91H177.26v4.54a3,3,0,0,0,.32,1.32,3.31,3.31,0,0,0,.87,1.15,4.46,4.46,0,0,0,1.2.88,2.88,2.88,0,0,0,1.28.32H207.8v8.21H167.69a14.92,14.92,0,0,1-2.51-.2,7.06,7.06,0,0,1-2.27-.75,6.19,6.19,0,0,1-1.76-1.12,7.84,7.84,0,0,1-1.43-1.75,6.69,6.69,0,0,1-.8-1.72,20.47,20.47,0,0,1-.56-2.19,14,14,0,0,1-.24-1.72c-.05-.61-.08-1.26-.08-1.95V662.3c0-.64,0-1.25.08-1.83s.11-1.14.16-1.68a16.14,16.14,0,0,1,.64-2.51,9.09,9.09,0,0,1,1-2,7.28,7.28,0,0,1,1.47-1.76,6.66,6.66,0,0,1,1.87-1.11,9.49,9.49,0,0,1,2.08-.6,12.84,12.84,0,0,1,2.23-.2ZM191,668v-6.61a1.91,1.91,0,0,0-.2-.84,4.1,4.1,0,0,0-.51-.84,3.07,3.07,0,0,0-.72-.64,1.54,1.54,0,0,0-.8-.24h-9.25a1.34,1.34,0,0,0-.76.24,4.42,4.42,0,0,0-.67.56,3.75,3.75,0,0,0-.52.84,1.91,1.91,0,0,0-.2.84V668Z"/><path class="cls-3" d="M239.61,641.57v9.09H255v8.13H239.61v23.45a2.71,2.71,0,0,0,.12.79,2.21,2.21,0,0,0,.36.72,1.6,1.6,0,0,0,.72.52,3.2,3.2,0,0,0,1.2.2h14v8.13H230.52a12.31,12.31,0,0,1-3.07-.36,10,10,0,0,1-2.51-1,12.38,12.38,0,0,1-1.47-1.2,11.21,11.21,0,0,1-1.24-1.35,17.14,17.14,0,0,1-1-1.84,10.59,10.59,0,0,1-.67-2,14.77,14.77,0,0,1-.24-1.56,13.07,13.07,0,0,1-.08-1.55v-23h-8.3v-8.13h8.14v-9.09Z"/><path class="cls-3" d="M281.08,650.58v31.26a2.39,2.39,0,0,0,.16.84,1.86,1.86,0,0,0,.48.75,2,2,0,0,0,.79.72,2,2,0,0,0,.88.24h8.69a1.34,1.34,0,0,0,.72-.2,1.72,1.72,0,0,0,.56-.6,2.18,2.18,0,0,0,.36-.75,3,3,0,0,0,.12-.76V650.82H313V698.5a9.07,9.07,0,0,1-.16,1.68c-.1.58-.24,1.17-.4,1.75a11.59,11.59,0,0,1-.75,1.68,12.73,12.73,0,0,1-1,1.51,8.39,8.39,0,0,1-1.28,1.32,9,9,0,0,1-1.59,1.07,10.3,10.3,0,0,1-1.87.64,9.45,9.45,0,0,1-2.2.24H264.17v-8.13H291a3.58,3.58,0,0,0,1.19-.2,3.39,3.39,0,0,0,1-.52,2.88,2.88,0,0,0,.52-.72,2,2,0,0,0,.2-.87v-5.27H273a10.82,10.82,0,0,1-2.71-.32,9.4,9.4,0,0,1-2.39-1,10.45,10.45,0,0,1-2-1.52,14,14,0,0,1-1.72-2,11,11,0,0,1-1-1.76,14.36,14.36,0,0,1-.76-2,14.93,14.93,0,0,1-.48-2.15,15.91,15.91,0,0,1-.16-2.31V650.58Z"/><path class="cls-3" d="M11.89,762.52v19.63H3V762.52Zm-8.87-7h8.8v5.09H3Z"/><path class="cls-3" d="M23.1,767.57v14.58H14V762.63H33a5,5,0,0,1,2.52.63,4.5,4.5,0,0,1,1.67,1.52,5.52,5.52,0,0,1,.48.88,6.84,6.84,0,0,1,.37,1.05,8.36,8.36,0,0,1,.23,1.19,11.42,11.42,0,0,1,.07,1.34v12.91h-9V767.6a1.28,1.28,0,0,0-.09-.5,1.45,1.45,0,0,0-.24-.35,1.13,1.13,0,0,0-.43-.26,1.56,1.56,0,0,0-.46-.07h-3.9a1.31,1.31,0,0,0-.41.07,1,1,0,0,0-.37.22.93.93,0,0,0-.26.34A1.21,1.21,0,0,0,23.1,767.57Z"/><path class="cls-3" d="M65,755.54v26.61H46c-.52,0-.92,0-1.21,0a3,3,0,0,1-.65-.15.87.87,0,0,1-.29-.17.48.48,0,0,0-.15-.11,4.74,4.74,0,0,1-1.6-1.26,4.57,4.57,0,0,1-.52-.82,6.71,6.71,0,0,1-.37-.89,6.83,6.83,0,0,1-.22-1,5.59,5.59,0,0,1-.08-.91v-8.68a7.31,7.31,0,0,1,.1-1.26,5.3,5.3,0,0,1,.28-1.11,4.45,4.45,0,0,1,.44-.93,8.54,8.54,0,0,1,.56-.78,4.55,4.55,0,0,1,.8-.65A4.24,4.24,0,0,1,44,763a8.13,8.13,0,0,1,1-.36,2.89,2.89,0,0,1,.6-.09.63.63,0,0,1,.28,0l.11,0H55.9v-7.05ZM54.9,766.42h-4a.72.72,0,0,0-.39.13,1.47,1.47,0,0,0-.35.31,1.69,1.69,0,0,0-.24.41,1.2,1.2,0,0,0-.09.45v9.42a1.09,1.09,0,0,0,.09.41.85.85,0,0,0,.28.37,1.27,1.27,0,0,0,.35.3,1,1,0,0,0,.43.11H54.9a.6.6,0,0,0,.37-.13,2.42,2.42,0,0,0,.34-.28,1.52,1.52,0,0,0,.24-.41,1.09,1.09,0,0,0,.09-.41v-9.46a1.13,1.13,0,0,0-.09-.41,1.47,1.47,0,0,0-.24-.4,1.07,1.07,0,0,0-.34-.3A.64.64,0,0,0,54.9,766.42Z"/><path class="cls-3" d="M76.8,762.56v14.69a.72.72,0,0,0,.11.39,1.38,1.38,0,0,0,.26.36,2.55,2.55,0,0,0,.39.24.92.92,0,0,0,.39.09h4a1.18,1.18,0,0,0,.39-.08.8.8,0,0,0,.35-.22,1.86,1.86,0,0,0,.26-.31.59.59,0,0,0,.11-.36V762.59h9v19.56h-19A5,5,0,0,1,72,782a4.89,4.89,0,0,1-1-.35,5,5,0,0,1-.89-.61,5.95,5.95,0,0,1-1.35-1.67,7.72,7.72,0,0,1-.47-1,9.56,9.56,0,0,1-.24-1.06,6.41,6.41,0,0,1-.09-1.06V762.56Z"/><path class="cls-3" d="M116.17,762.63v3.6h-12a.88.88,0,0,0-.28.06,1.44,1.44,0,0,0-.31.13.94.94,0,0,0-.25.18.41.41,0,0,0-.09.26v1.08a.3.3,0,0,0,.11.24,1.67,1.67,0,0,0,.26.17,1.73,1.73,0,0,0,.32.11,1.76,1.76,0,0,0,.31,0h8.8a4.73,4.73,0,0,1,.83.07,7.92,7.92,0,0,1,.8.18,3.86,3.86,0,0,1,.76.38,3.23,3.23,0,0,1,.65.52,3.48,3.48,0,0,1,.47.59,4.61,4.61,0,0,1,.35.74,3.9,3.9,0,0,1,.22.85,6.86,6.86,0,0,1,.08,1v4.57a5.38,5.38,0,0,1-.1,1,4.33,4.33,0,0,1-.28.93,2.92,2.92,0,0,1-.4.76c-.18.23-.35.45-.52.65a6,6,0,0,1-.71.54,6.94,6.94,0,0,1-.74.42,4.61,4.61,0,0,1-1.06.32,6.41,6.41,0,0,1-1.06.09H95.17v-3.52h12.76a.83.83,0,0,0,.32-.08.91.91,0,0,0,.27-.18.51.51,0,0,0,.23-.23.62.62,0,0,0,.07-.29v-1.08a.55.55,0,0,0-.07-.28.57.57,0,0,0-.23-.2,1,1,0,0,0-.29-.17.79.79,0,0,0-.3,0H99.14a5.51,5.51,0,0,1-1.06-.1,4.57,4.57,0,0,1-1.06-.31,4.7,4.7,0,0,1-.65-.37,2.67,2.67,0,0,1-.54-.52,3.27,3.27,0,0,1-.39-.58,4.06,4.06,0,0,1-.27-.65,5.86,5.86,0,0,1-.12-.63c0-.22,0-.46,0-.7V767a3.59,3.59,0,0,1,.11-1,5.11,5.11,0,0,1,.29-.83,6.89,6.89,0,0,1,.49-.71,3.3,3.3,0,0,1,.59-.59,4.54,4.54,0,0,1,.72-.52A5.23,5.23,0,0,1,98,763a9.55,9.55,0,0,1,1.08-.3,5.8,5.8,0,0,1,1.07-.11Z"/><path class="cls-3" d="M131.09,758.36v4.23h7.16v3.79h-7.16v10.91a1.57,1.57,0,0,0,0,.37,1.2,1.2,0,0,0,.17.34,1,1,0,0,0,.33.24,1.53,1.53,0,0,0,.56.09h6.53v3.78H126.86a5.8,5.8,0,0,1-1.43-.16,4.54,4.54,0,0,1-1.17-.47,6.4,6.4,0,0,1-.69-.55,5.59,5.59,0,0,1-.57-.63,7.17,7.17,0,0,1-.47-.86,4.62,4.62,0,0,1-.31-.93,6,6,0,0,1-.11-.72,5.58,5.58,0,0,1,0-.72V766.38h-3.86v-3.79H122v-4.23Z"/><path class="cls-3" d="M150.83,782.15h-9.06V762.59h9.06v1.75a2.47,2.47,0,0,1,.48-.56,1.85,1.85,0,0,1,.28-.28,2.36,2.36,0,0,1,.32-.2c.14-.1.29-.19.44-.28a3,3,0,0,1,.45-.2c.17-.05.34-.1.5-.13a1.88,1.88,0,0,1,.46-.06h5.38v5.42h-4.75a5.33,5.33,0,0,0-1.3.15,3.62,3.62,0,0,0-1.07.41,1.42,1.42,0,0,0-.45.27,3.09,3.09,0,0,0-.33.39,1.26,1.26,0,0,0-.32.51,2,2,0,0,0-.09.61Z"/><path class="cls-3" d="M171.24,762.52v19.63H162.3V762.52Zm-8.87-7h8.8v5.09h-8.8Z"/><path class="cls-3" d="M196.92,769.31v12.77H189l-.56-2.08a1.12,1.12,0,0,1-.13.39l-.17.31a1.56,1.56,0,0,1-.26.39,3,3,0,0,1-.29.32,2.57,2.57,0,0,1-1.86.67h-8.27a6.32,6.32,0,0,1-1.21-.11,4,4,0,0,1-1-.34,3.11,3.11,0,0,1-.84-.57,4.32,4.32,0,0,1-1.07-1.9,7.54,7.54,0,0,1-.25-1.2c0-.42-.08-.84-.09-1.26s0-.82,0-1.19V774.4a9.39,9.39,0,0,1,.08-1.19,11,11,0,0,1,.2-1.17,6.27,6.27,0,0,1,.35-1.06,4.38,4.38,0,0,1,.65-.94,2.87,2.87,0,0,1,1-.69,4.2,4.2,0,0,1,1-.34,6.62,6.62,0,0,1,1.23-.11h9.2a1,1,0,0,0,.52-.15,1.76,1.76,0,0,0,.48-.4,1.18,1.18,0,0,0,.24-.37,1.16,1.16,0,0,0,.1-.41,1,1,0,0,0-.12-.45,1.06,1.06,0,0,0-.29-.37,2,2,0,0,0-.41-.3,1.06,1.06,0,0,0-.45-.11H174.47v-3.82h17.07a6.57,6.57,0,0,1,1.37.13,4.86,4.86,0,0,1,1.15.39,3.35,3.35,0,0,1,1,.67,4.38,4.38,0,0,1,.73.89,6.5,6.5,0,0,1,.5.94,6.4,6.4,0,0,1,.31,1,6.94,6.94,0,0,1,.24,1.41C196.9,768.45,196.92,768.89,196.92,769.31Zm-9,3.38h-4.38a1.22,1.22,0,0,0-.58.15,2.23,2.23,0,0,0-.5.37,3.09,3.09,0,0,0-.33.5,1.1,1.1,0,0,0-.15.54V777a1,1,0,0,0,.09.39,3.58,3.58,0,0,0,.21.39,2.2,2.2,0,0,0,.44.33,1,1,0,0,0,.49.15h3.56a.81.81,0,0,0,.41-.13,2,2,0,0,0,.4-.31,1.36,1.36,0,0,0,.25-.36.92.92,0,0,0,.09-.39Z"/><path class="cls-3" d="M209.28,755.54v26.61h-9.06V755.54Z"/><path class="cls-3" d="M239.93,782.15h-9.06V762.59h9.06v1.75a2.47,2.47,0,0,1,.48-.56,1.85,1.85,0,0,1,.28-.28,2.36,2.36,0,0,1,.32-.2c.14-.1.29-.19.44-.28a3,3,0,0,1,.45-.2c.17-.05.34-.1.5-.13a1.88,1.88,0,0,1,.46-.06h5.38v5.42h-4.75a5.33,5.33,0,0,0-1.3.15,3.62,3.62,0,0,0-1.07.41,1.42,1.42,0,0,0-.45.27,3.09,3.09,0,0,0-.33.39,1.26,1.26,0,0,0-.32.51,2,2,0,0,0-.09.61Z"/><path class="cls-3" d="M270.25,762.63a7,7,0,0,1,1,.08,5.38,5.38,0,0,1,.94.22,3.13,3.13,0,0,1,.8.39,3.52,3.52,0,0,1,.69.61,4.6,4.6,0,0,1,.54.87,5.73,5.73,0,0,1,.39,1.17c.05.27.08.57.11.87s0,.65,0,1v9.24a9.36,9.36,0,0,1,0,1.1,7,7,0,0,1-.17.95,5.79,5.79,0,0,1-.37,1,2.63,2.63,0,0,1-.52.74,2.58,2.58,0,0,1-.61.58,4.24,4.24,0,0,1-.72.39,5,5,0,0,1-1,.26,7.51,7.51,0,0,1-1.05.07H255a6.45,6.45,0,0,1-1.17-.11,4.2,4.2,0,0,1-1.1-.37,5.57,5.57,0,0,1-.78-.52,4.25,4.25,0,0,1-.67-.67,6.32,6.32,0,0,1-.46-.81,4.27,4.27,0,0,1-.31-1,5.06,5.06,0,0,1-.12-.65c0-.23,0-.48,0-.76v-9.42c0-.35,0-.67,0-1s.07-.58.12-.85a6.2,6.2,0,0,1,.37-1.15,3,3,0,0,1,.52-.86,3.17,3.17,0,0,1,.72-.66,3.37,3.37,0,0,1,.8-.41,5.49,5.49,0,0,1,.91-.22,5.69,5.69,0,0,1,.91-.08Zm-5.42,3.86h-4.9a.42.42,0,0,0-.24.11.7.7,0,0,0-.2.26,1.75,1.75,0,0,0-.12.32,1.71,1.71,0,0,0,0,.31v9.61a.81.81,0,0,0,.11.43,1.18,1.18,0,0,0,.26.35,1,1,0,0,0,.35.3.89.89,0,0,0,.39.11h4.27a.89.89,0,0,0,.39-.11,1.52,1.52,0,0,0,.35-.26,1,1,0,0,0,.28-.35,1,1,0,0,0,.09-.39v-9.65a.84.84,0,0,0-.09-.37,1.12,1.12,0,0,0-.24-.33,1.42,1.42,0,0,0-.34-.25A.75.75,0,0,0,264.83,766.49Z"/><path class="cls-3" d="M296.67,762.59a4.85,4.85,0,0,1,1.06.12,4.35,4.35,0,0,1,1,.33,4.05,4.05,0,0,1,1.37,1,4.48,4.48,0,0,1,.78,1.06,5.57,5.57,0,0,1,.52,1.39c.07.33.13.67.17,1s.05.74.05,1.14v7.6c0,.4,0,.78-.05,1.14a10.33,10.33,0,0,1-.17,1,9.14,9.14,0,0,1-.43,1.11,5.16,5.16,0,0,1-.54.93,3.4,3.4,0,0,1-.66.7,5.57,5.57,0,0,1-.78.52,4.88,4.88,0,0,1-1.15.39,5.42,5.42,0,0,1-1.19.13H286.54v7.39h-9V762.59Zm-5.05,3.86h-4.19a.58.58,0,0,0-.35.13,1.48,1.48,0,0,0-.28.28,1.29,1.29,0,0,0-.22.39,1.18,1.18,0,0,0-.08.39v9.65a.75.75,0,0,0,.09.33,1.42,1.42,0,0,0,.25.34,1.12,1.12,0,0,0,.33.24.84.84,0,0,0,.37.09h4.12a.73.73,0,0,0,.35-.09l.32-.2a2.06,2.06,0,0,0,.24-.39,1,1,0,0,0,.09-.39v-9.73a.87.87,0,0,0-.09-.37,1.27,1.27,0,0,0-.24-.33,1.16,1.16,0,0,0-.34-.24A.82.82,0,0,0,291.62,766.45Z"/><path class="cls-3" d="M323.57,762.56a6.88,6.88,0,0,1,1.27.11,4.28,4.28,0,0,1,1.22.41,3.1,3.1,0,0,1,.82.59,4.7,4.7,0,0,1,.66.85,6.81,6.81,0,0,1,.34.78,4.83,4.83,0,0,1,.22.89,11.54,11.54,0,0,1,.07,1.34v6.94h-15.1v2.11a1.45,1.45,0,0,0,.15.62,1.55,1.55,0,0,0,.41.54,2.27,2.27,0,0,0,.55.4,1.33,1.33,0,0,0,.6.15h12.5v3.82H308.62a7.49,7.49,0,0,1-1.17-.09,3.39,3.39,0,0,1-1.06-.35,2.67,2.67,0,0,1-.81-.52,3.47,3.47,0,0,1-.67-.82,2.89,2.89,0,0,1-.37-.79,8.13,8.13,0,0,1-.26-1,6,6,0,0,1-.11-.79,8.84,8.84,0,0,1,0-.91V768a7.81,7.81,0,0,1,0-.85c0-.27,0-.53.07-.78a6.67,6.67,0,0,1,.3-1.17,4.63,4.63,0,0,1,.44-1,3.43,3.43,0,0,1,.69-.81,3,3,0,0,1,.87-.52,4.76,4.76,0,0,1,1-.28,6,6,0,0,1,1-.09Zm-4.12,8.12V767.6a1,1,0,0,0-.09-.39,1.73,1.73,0,0,0-.24-.38,1.15,1.15,0,0,0-.33-.3.68.68,0,0,0-.37-.11h-4.31a.58.58,0,0,0-.35.11,1.92,1.92,0,0,0-.32.26,1.58,1.58,0,0,0-.24.39.92.92,0,0,0-.09.39v3.11Z"/><path class="cls-3" d="M25.88,814.91v12.77H17.94l-.56-2.08a1,1,0,0,1-.13.39l-.16.31a1.89,1.89,0,0,1-.26.39l-.3.32a3.47,3.47,0,0,1-.85.52,3.38,3.38,0,0,1-1,.15H6.4a6.32,6.32,0,0,1-1.21-.11,4.19,4.19,0,0,1-1-.34,2.91,2.91,0,0,1-.83-.57,4.2,4.2,0,0,1-1.08-1.9,8.79,8.79,0,0,1-.24-1.2Q2,822.93,2,822.3c0-.42,0-.82,0-1.19V820A9.39,9.39,0,0,1,2,818.81c0-.4.12-.79.2-1.17a5.5,5.5,0,0,1,.36-1.06,4.33,4.33,0,0,1,.65-1,3,3,0,0,1,.94-.68,4.2,4.2,0,0,1,1-.34,6.7,6.7,0,0,1,1.23-.11h9.2a1,1,0,0,0,.52-.15,1.51,1.51,0,0,0,.48-.4,1.41,1.41,0,0,0,.25-.37,1.13,1.13,0,0,0,.09-.41,1.06,1.06,0,0,0-.11-.45,1.22,1.22,0,0,0-.3-.37,1.73,1.73,0,0,0-.41-.3,1,1,0,0,0-.44-.11H3.43v-3.82H20.5a6.51,6.51,0,0,1,1.37.13,4.86,4.86,0,0,1,1.15.39,3.52,3.52,0,0,1,1,.67,4.68,4.68,0,0,1,.72.89,5.65,5.65,0,0,1,.5.94,6.45,6.45,0,0,1,.32,1,8.66,8.66,0,0,1,.24,1.41C25.86,814.05,25.88,814.49,25.88,814.91Zm-9,3.38H12.52a1.16,1.16,0,0,0-.57.15,1.86,1.86,0,0,0-.5.37,2.58,2.58,0,0,0-.34.5,1.1,1.1,0,0,0-.15.54v2.78a.87.87,0,0,0,.1.39,3.55,3.55,0,0,0,.2.39,2,2,0,0,0,.45.33,1,1,0,0,0,.48.15h3.56a.81.81,0,0,0,.41-.13,2,2,0,0,0,.41-.31,1.13,1.13,0,0,0,.24-.36.92.92,0,0,0,.09-.39Z"/><path class="cls-3" d="M48,808.23v3.82H39a1.33,1.33,0,0,0-.6.15,1.91,1.91,0,0,0-.51.37,1.74,1.74,0,0,0-.41.5,1.16,1.16,0,0,0-.15.54v8.83a1,1,0,0,0,.17.54,1.81,1.81,0,0,0,.39.47,1.75,1.75,0,0,0,1.15.44H48v3.86H33.53a6.1,6.1,0,0,1-1.41-.15,4.88,4.88,0,0,1-1.15-.41,6,6,0,0,1-.91-.66,3.55,3.55,0,0,1-.73-.86,5.7,5.7,0,0,1-.46-.81,5.62,5.62,0,0,1-.32-.89q-.11-.45-.18-.93a6,6,0,0,1-.08-.93V814a6.05,6.05,0,0,1,.1-1.09,5.72,5.72,0,0,1,.28-1.1,6,6,0,0,1,.46-1.07,5.3,5.3,0,0,1,.65-1,6,6,0,0,1,.74-.68,4.2,4.2,0,0,1,.93-.54,3.86,3.86,0,0,1,.83-.22,6,6,0,0,1,.95-.08Z"/><path class="cls-3" d="M69.93,808.23v3.82H61a1.26,1.26,0,0,0-.59.15,2,2,0,0,0-.52.37,1.74,1.74,0,0,0-.41.5,1.16,1.16,0,0,0-.15.54v8.83a1,1,0,0,0,.17.54,1.81,1.81,0,0,0,.39.47,2,2,0,0,0,.55.33,1.81,1.81,0,0,0,.6.11h8.94v3.86H55.46a6.1,6.1,0,0,1-1.41-.15,4.88,4.88,0,0,1-1.15-.41,6.6,6.6,0,0,1-.91-.66,3.55,3.55,0,0,1-.73-.86,5.7,5.7,0,0,1-.46-.81,4.72,4.72,0,0,1-.31-.89,9,9,0,0,1-.19-.93,6,6,0,0,1-.07-.93V814a7.06,7.06,0,0,1,.09-1.09,5.72,5.72,0,0,1,.28-1.1,6.76,6.76,0,0,1,.46-1.07,5.87,5.87,0,0,1,.65-1,6,6,0,0,1,.74-.68,4.2,4.2,0,0,1,.93-.54,4,4,0,0,1,.84-.22,5.77,5.77,0,0,1,.94-.08Z"/><path class="cls-3" d="M91.64,808.16a6.71,6.71,0,0,1,1.26.11,4.35,4.35,0,0,1,1.23.41,3.23,3.23,0,0,1,.81.59,4.74,4.74,0,0,1,.67.85,6.76,6.76,0,0,1,.33.78,4.83,4.83,0,0,1,.23.89,11.42,11.42,0,0,1,.07,1.34v6.94H81.14v2.11a1.45,1.45,0,0,0,.15.62,1.41,1.41,0,0,0,.4.53,2.11,2.11,0,0,0,.56.41,1.32,1.32,0,0,0,.59.15H95.35v3.82H76.68a7.46,7.46,0,0,1-1.16-.09,3.31,3.31,0,0,1-1.06-.35,2.85,2.85,0,0,1-.82-.52,3.68,3.68,0,0,1-.67-.82,3.5,3.5,0,0,1-.37-.8,9.42,9.42,0,0,1-.26-1c0-.24-.08-.51-.11-.79s0-.59,0-.91v-8.8c0-.29,0-.58,0-.85s0-.53.08-.78a7.7,7.7,0,0,1,.29-1.17,4.65,4.65,0,0,1,.45-.95,3.4,3.4,0,0,1,.68-.81,2.88,2.88,0,0,1,.88-.52,4.49,4.49,0,0,1,1-.28,6.09,6.09,0,0,1,1-.09Zm-4.12,8.12V813.2a1,1,0,0,0-.09-.39,2.06,2.06,0,0,0-.24-.39,1.17,1.17,0,0,0-.34-.29.64.64,0,0,0-.37-.11h-4.3a.61.61,0,0,0-.36.11,1.86,1.86,0,0,0-.31.26,1.58,1.58,0,0,0-.24.39.94.94,0,0,0-.1.39v3.11Z"/><path class="cls-3" d="M120.29,808.23v3.6h-12a.83.83,0,0,0-.28.06,1.44,1.44,0,0,0-.31.13.94.94,0,0,0-.25.18.41.41,0,0,0-.09.26v1.08a.3.3,0,0,0,.11.24,1.67,1.67,0,0,0,.26.17,1.73,1.73,0,0,0,.32.11l.31,0h8.8a4.76,4.76,0,0,1,.83.08,7.92,7.92,0,0,1,.8.18,3.86,3.86,0,0,1,.76.38,3.23,3.23,0,0,1,.65.52,3.48,3.48,0,0,1,.47.59,4.61,4.61,0,0,1,.35.74,3.9,3.9,0,0,1,.22.85,6.89,6.89,0,0,1,.07,1V823a5.47,5.47,0,0,1-.09,1,4.33,4.33,0,0,1-.28.93,3.25,3.25,0,0,1-.4.76c-.18.23-.35.45-.52.65a6,6,0,0,1-.71.54,6.94,6.94,0,0,1-.74.42,4.61,4.61,0,0,1-1.06.32,6.41,6.41,0,0,1-1.06.09H99.28v-3.52h12.77a.83.83,0,0,0,.32-.08.91.91,0,0,0,.27-.18.51.51,0,0,0,.23-.23.62.62,0,0,0,.07-.29v-1.08a.55.55,0,0,0-.07-.28.57.57,0,0,0-.23-.2,1.1,1.1,0,0,0-.29-.17.79.79,0,0,0-.3-.05h-8.79a6.44,6.44,0,0,1-1.06-.1,4.57,4.57,0,0,1-1.06-.31,4.7,4.7,0,0,1-.65-.37,2.67,2.67,0,0,1-.54-.52,3.27,3.27,0,0,1-.39-.58,5.3,5.3,0,0,1-.28-.65,5.89,5.89,0,0,1-.11-.63c0-.22,0-.46,0-.7v-5.2a3.54,3.54,0,0,1,.11-1,5.11,5.11,0,0,1,.29-.83,6.89,6.89,0,0,1,.49-.71,3.3,3.3,0,0,1,.59-.59,4.12,4.12,0,0,1,.72-.52,5.23,5.23,0,0,1,.8-.37,9.55,9.55,0,0,1,1.08-.3,5.8,5.8,0,0,1,1.07-.11Z"/><path class="cls-3" d="M145.34,808.23v3.6h-12a.83.83,0,0,0-.28.06,1.79,1.79,0,0,0-.32.13.76.76,0,0,0-.24.18.41.41,0,0,0-.09.26v1.08a.3.3,0,0,0,.11.24,1.67,1.67,0,0,0,.26.17,1.73,1.73,0,0,0,.32.11l.31,0h8.8a4.76,4.76,0,0,1,.83.08,7.92,7.92,0,0,1,.8.18,3.86,3.86,0,0,1,.76.38,3.23,3.23,0,0,1,.65.52,3,3,0,0,1,.46.59,4.27,4.27,0,0,1,.58,1.59,6.89,6.89,0,0,1,.07,1V823a5.47,5.47,0,0,1-.09,1,4.33,4.33,0,0,1-.28.93,3,3,0,0,1-.41.76c-.17.23-.34.45-.52.65a5.22,5.22,0,0,1-.7.54,8.09,8.09,0,0,1-.74.42,4.61,4.61,0,0,1-1.06.32,6.41,6.41,0,0,1-1.06.09H124.33v-3.52H137.1a.75.75,0,0,0,.31-.08.85.85,0,0,0,.28-.18.51.51,0,0,0,.23-.23.77.77,0,0,0,.07-.29v-1.08a.68.68,0,0,0-.07-.28.57.57,0,0,0-.23-.2,1.28,1.28,0,0,0-.29-.17.79.79,0,0,0-.3-.05h-8.8a6.32,6.32,0,0,1-1.05-.1,4.44,4.44,0,0,1-1.06-.31,4.7,4.7,0,0,1-.65-.37,2.67,2.67,0,0,1-.54-.52,3.27,3.27,0,0,1-.39-.58,5.3,5.3,0,0,1-.28-.65,5.89,5.89,0,0,1-.11-.63c0-.22,0-.46,0-.7v-5.2a3.53,3.53,0,0,1,.12-1,5.11,5.11,0,0,1,.29-.83,6.89,6.89,0,0,1,.49-.71,3.3,3.3,0,0,1,.59-.59,4.12,4.12,0,0,1,.72-.52,5.23,5.23,0,0,1,.8-.37,9.55,9.55,0,0,1,1.08-.3,5.8,5.8,0,0,1,1.07-.11Z"/><path class="cls-3" d="M188.57,804.67a7.07,7.07,0,0,1-.09,1c-.07.39-.16.81-.28,1.26a9.43,9.43,0,0,1-.32,1.21c-.13.4-.29.82-.46,1.24a10.16,10.16,0,0,1-.52,1.17c-.2.38-.4.75-.59,1.09a10.86,10.86,0,0,1-.76,1,3.68,3.68,0,0,1-.8.71l-3.45-3.45A4,4,0,0,0,182,809a4.45,4.45,0,0,0,.43-1.06,4.15,4.15,0,0,0,.07-1.11,2.2,2.2,0,0,0-.29-1,1.9,1.9,0,0,0-.69-.69,2.22,2.22,0,0,0-.87-.28,2.55,2.55,0,0,0-.54.06,2.09,2.09,0,0,0-1,.46,1.12,1.12,0,0,0-.33.45c0,.07-.07.17-.13.29a1.49,1.49,0,0,0-.15.45,2.41,2.41,0,0,0,0,.63,3.36,3.36,0,0,0,.17.85,3.55,3.55,0,0,0,.54.93,8.63,8.63,0,0,0,1.05,1.15l8.06,7.53,3.41-3.82,3.34,3.38L192,821l1.85,1.71,3-.08v5.24h-6.64l-2.31-2.08-.27.29a1.69,1.69,0,0,1-.28.26l-.28.24a3.19,3.19,0,0,1-.32.28,4.11,4.11,0,0,1-1,.67,2.73,2.73,0,0,1-1.22.26H173.61a3.62,3.62,0,0,1-1-.15,5.9,5.9,0,0,1-1-.41,5,5,0,0,1-.78-.44,7.46,7.46,0,0,1-.7-.56,6.41,6.41,0,0,1-.69-.78,6.33,6.33,0,0,1-.54-.81,7.12,7.12,0,0,1-.35-.89,3.09,3.09,0,0,1-.13-.89v-6.39a5.19,5.19,0,0,1,.15-1.24,4.17,4.17,0,0,1,.45-1.13,3.93,3.93,0,0,1,.52-.76,3.52,3.52,0,0,1,.66-.62,3.89,3.89,0,0,1,1-.46,3.51,3.51,0,0,1,1.18-.13l2,0-2.45-3.56a2.62,2.62,0,0,1-.36-.83,8.51,8.51,0,0,1-.13-.86,6,6,0,0,1,0-.85c0-.28,0-.54,0-.76a4.62,4.62,0,0,1,.25-1.26,3.51,3.51,0,0,1,.53-1,4.91,4.91,0,0,1,.77-.74,3.74,3.74,0,0,1,1-.56,5.33,5.33,0,0,1,1.13-.34,7.83,7.83,0,0,1,1.32-.11h6l1,0,1,.06c.42,0,.81.12,1.18.2a6.35,6.35,0,0,1,1,.35,4.69,4.69,0,0,1,.89.54,2.57,2.57,0,0,1,.67.73,3.89,3.89,0,0,1,.3.72A3.49,3.49,0,0,1,188.57,804.67Zm-10.76,11.76-.6.47a6.52,6.52,0,0,0-.55.5,6.22,6.22,0,0,0-.6.68,4.42,4.42,0,0,0-.44.76,2.72,2.72,0,0,0-.19,1.36,2.85,2.85,0,0,0,.74,1.5,2.21,2.21,0,0,0,.41.39,6.23,6.23,0,0,0,.6.41,6.42,6.42,0,0,0,.68.37,4.27,4.27,0,0,0,.62.24,2,2,0,0,0,.52,0c.22,0,.47,0,.76-.07l.91-.15a5.8,5.8,0,0,0,1-.28,6.37,6.37,0,0,0,1-.37,3.93,3.93,0,0,0,.85-.52Z"/><path class="cls-3" d="M230,804v4.23h7.16V812H230v10.91a1.57,1.57,0,0,0,.05.37.94.94,0,0,0,.17.33.8.8,0,0,0,.33.25,1.53,1.53,0,0,0,.56.09h6.53v3.78H225.72a5.8,5.8,0,0,1-1.43-.16,4.4,4.4,0,0,1-1.17-.47,6.4,6.4,0,0,1-.69-.55,5.59,5.59,0,0,1-.57-.63,7.17,7.17,0,0,1-.47-.86,4.62,4.62,0,0,1-.31-.93,6,6,0,0,1-.11-.72,5.58,5.58,0,0,1,0-.72V812h-3.86v-3.79h3.78V804Z"/><path class="cls-3" d="M249.69,827.75h-9.06V808.19h9.06v1.75a2.47,2.47,0,0,1,.48-.56,1.85,1.85,0,0,1,.28-.28l.31-.2.45-.28a3,3,0,0,1,.45-.2c.17,0,.34-.1.5-.13a1.88,1.88,0,0,1,.46-.06H258v5.42h-4.75a5.33,5.33,0,0,0-1.3.15,3.62,3.62,0,0,0-1.07.41,1.42,1.42,0,0,0-.45.27,3.09,3.09,0,0,0-.33.39,1.26,1.26,0,0,0-.32.51,1.91,1.91,0,0,0-.09.61Z"/><path class="cls-3" d="M284.09,814.91v12.77h-7.94l-.56-2.08a1.12,1.12,0,0,1-.13.39l-.17.31a1.56,1.56,0,0,1-.26.39c-.09.11-.19.22-.29.32a2.57,2.57,0,0,1-1.86.67h-8.27a6.32,6.32,0,0,1-1.21-.11,4,4,0,0,1-1-.34,3.11,3.11,0,0,1-.84-.57,4.32,4.32,0,0,1-1.07-1.9,7.54,7.54,0,0,1-.25-1.2c0-.42-.08-.84-.09-1.26s0-.82,0-1.19V820a9.39,9.39,0,0,1,.08-1.19,11,11,0,0,1,.2-1.17,6.27,6.27,0,0,1,.35-1.06,4.7,4.7,0,0,1,.65-1,3,3,0,0,1,.95-.68,4.2,4.2,0,0,1,1-.34,6.62,6.62,0,0,1,1.23-.11h9.2a1,1,0,0,0,.52-.15,1.76,1.76,0,0,0,.48-.4,1.18,1.18,0,0,0,.24-.37,1.16,1.16,0,0,0,.1-.41,1,1,0,0,0-.12-.45,1.06,1.06,0,0,0-.29-.37,2,2,0,0,0-.41-.3,1.06,1.06,0,0,0-.45-.11H261.64v-3.82h17.07a6.57,6.57,0,0,1,1.37.13,5,5,0,0,1,1.15.39,3.35,3.35,0,0,1,1,.67,4.38,4.38,0,0,1,.73.89,6.5,6.5,0,0,1,.5.94,6.4,6.4,0,0,1,.31,1,6.94,6.94,0,0,1,.24,1.41C284.07,814.05,284.09,814.49,284.09,814.91Zm-9,3.38h-4.38a1.22,1.22,0,0,0-.58.15,2.23,2.23,0,0,0-.5.37,3.09,3.09,0,0,0-.33.5,1.1,1.1,0,0,0-.15.54v2.78a1,1,0,0,0,.09.39,3.58,3.58,0,0,0,.21.39,2.2,2.2,0,0,0,.44.33,1,1,0,0,0,.49.15H274a.81.81,0,0,0,.41-.13,2,2,0,0,0,.4-.31,1.36,1.36,0,0,0,.25-.36.92.92,0,0,0,.09-.39Z"/><path class="cls-3" d="M296.45,808.12v19.63H287.5V808.12Zm-8.87-7h8.79v5.09h-8.79Z"/><path class="cls-3" d="M307.65,813.17v14.58h-9V808.23h19a5.08,5.08,0,0,1,2.53.63,4.65,4.65,0,0,1,1.67,1.52,5.52,5.52,0,0,1,.48.88,6.84,6.84,0,0,1,.37,1,8.39,8.39,0,0,1,.22,1.19,11.36,11.36,0,0,1,.08,1.34v12.91h-9V813.2a1.28,1.28,0,0,0-.09-.5,1.21,1.21,0,0,0-.24-.35,1.06,1.06,0,0,0-.43-.26,1.51,1.51,0,0,0-.46-.07h-3.9a1.21,1.21,0,0,0-.4.07,1,1,0,0,0-.38.22,1.09,1.09,0,0,0-.37.86Z"/><path class="cls-3" d="M335.3,808.12v19.63h-8.94V808.12Zm-8.87-7h8.8v5.09h-8.8Z"/><path class="cls-3" d="M346.51,813.17v14.58h-9.06V808.23h19a5,5,0,0,1,2.52.63,4.57,4.57,0,0,1,1.67,1.52,5.52,5.52,0,0,1,.48.88,6.84,6.84,0,0,1,.37,1,8.36,8.36,0,0,1,.23,1.19c0,.42.07.87.07,1.34v12.91h-9V813.2a1.28,1.28,0,0,0-.09-.5,1.48,1.48,0,0,0-.25-.35,1,1,0,0,0-.42-.26,1.58,1.58,0,0,0-.47-.07h-3.89a1.26,1.26,0,0,0-.41.07.91.91,0,0,0-.37.22.93.93,0,0,0-.26.34A1.08,1.08,0,0,0,346.51,813.17Z"/><path class="cls-3" d="M388.29,829.68a5.69,5.69,0,0,1-.09,1,4.76,4.76,0,0,1-.28.95,4.21,4.21,0,0,1-.39.89,6.78,6.78,0,0,1-.54.78,5,5,0,0,1-.63.67,5.16,5.16,0,0,1-.67.51,4.53,4.53,0,0,1-.92.43,2.91,2.91,0,0,1-.93.17H365.73v-3.79h11.88a1.8,1.8,0,0,0,.81-.16,1.59,1.59,0,0,0,.56-.47,1.63,1.63,0,0,0,.33-.59,2,2,0,0,0,.11-.67v-1.71h-10.2a4.82,4.82,0,0,1-1.17-.13,4,4,0,0,1-1-.35,5.13,5.13,0,0,1-.84-.52,4,4,0,0,1-.69-.67,3.88,3.88,0,0,1-.51-.74,5,5,0,0,1-.38-.85,5.75,5.75,0,0,1-.31-1.13,7.4,7.4,0,0,1-.09-1.14v-8.6a6,6,0,0,1,.07-.93,6.77,6.77,0,0,1,.22-1,5.39,5.39,0,0,1,.39-.93,7.61,7.61,0,0,1,.54-.85,5.13,5.13,0,0,1,.74-.8,4,4,0,0,1,.89-.57,4.51,4.51,0,0,1,.95-.35,4.05,4.05,0,0,1,1.06-.13h19.18Zm-10-17.66h-4.42a.36.36,0,0,0-.27.11.7.7,0,0,0-.21.29,1.17,1.17,0,0,0-.11.36,2.5,2.5,0,0,0,0,.35v9.65a.87.87,0,0,0,.1.39,2.06,2.06,0,0,0,.24.39,1.59,1.59,0,0,0,.35.26.89.89,0,0,0,.39.11h4.08a.73.73,0,0,0,.35-.09.85.85,0,0,0,.28-.25.94.94,0,0,0,.23-.33,1.21,1.21,0,0,0,.07-.37V813.2a1,1,0,0,0-.09-.42,1.61,1.61,0,0,0-.24-.36,1.31,1.31,0,0,0-.34-.29A.66.66,0,0,0,378.31,812Z"/></g></g></svg>