<svg xmlns="http://www.w3.org/2000/svg" xmlns:xlink="http://www.w3.org/1999/xlink" viewBox="0 0 723.23 163.77"><defs><style>.cls-1,.cls-12{fill:none;}.cls-2,.cls-3{fill:#94a3b7;}.cls-3{fill-rule:evenodd;}.cls-4{clip-path:url(#clip-path);}.cls-5{clip-path:url(#clip-path-2);}.cls-6{clip-path:url(#clip-path-3);}.cls-7{clip-path:url(#clip-path-4);}.cls-8{clip-path:url(#clip-path-5);}.cls-9{clip-path:url(#clip-path-6);}.cls-10{clip-path:url(#clip-path-7);}.cls-11{clip-path:url(#clip-path-8);}.cls-12{stroke:#94a3b7;stroke-miterlimit:10;stroke-width:1.5px;}</style><clipPath id="clip-path"><rect class="cls-1" x="294" y="46.77" width="26.21" height="23.03"/></clipPath><clipPath id="clip-path-2"><rect class="cls-1" x="316.93" y="46.77" width="19.65" height="23.03"/></clipPath><clipPath id="clip-path-3"><rect class="cls-1" x="467.61" y="36.95" width="36.03" height="32.86"/></clipPath><clipPath id="clip-path-4"><rect class="cls-1" x="500.37" y="46.77" width="22.93" height="23.03"/></clipPath><clipPath id="clip-path-5"><rect class="cls-1" x="520.02" y="46.77" width="26.21" height="23.03"/></clipPath><clipPath id="clip-path-6"><rect class="cls-1" x="539.68" y="46.77" width="22.93" height="23.03"/></clipPath><clipPath id="clip-path-7"><rect class="cls-1" x="641.22" y="46.77" width="19.65" height="23.03"/></clipPath><clipPath id="clip-path-8"><rect class="cls-1" x="680.53" y="40.22" width="15.43" height="29.48"/></clipPath></defs><g id="Layer_2" data-name="Layer 2"><g id="Layer_1-2" data-name="Layer 1"><path class="cls-2" d="M75.3,131.26a1.41,1.41,0,0,1-.59.57"/><path class="cls-2" d="M80.54,90.35a1.08,1.08,0,0,0,1.08-1.09,1.09,1.09,0,1,0-1.08,1.09"/><path class="cls-2" d="M130.11,66.34h-12V45.21h12Zm0,10c-.21,2.27-1,4.18-2.58,5.24l-9.43,5.65V67.42h12ZM117,66.34H106V45.21H117Zm0,21.56-4.35,2.6h-.08a1.8,1.8,0,0,1-1.15.41,1.85,1.85,0,0,1-1.16-.42L106,87.9V67.42H117ZM101.48,58.6h3.42v7.74h-3.42Zm3.42,28.67-9.43-5.65c-1.58-1.06-2.36-3-2.56-5.24v-9h12ZM97.05,53.36H92.91V45.21h4.14Zm1-5.1.47-.49-.29-.57.64.08.37-.68.38.67.64-.07-.29.57.49.49-.63.13v.68l-.59-.43-.57.43v-.68ZM101,56.79c0-.21-.31-.26-.42-.26-.37,0-.51.6-.83.63s-.39,0-.39-.26.46-.36.66-.54c-2.56,0-2.61,1.17-3,1.17-.67,0,.56-1.23.92-1.59-.52-.07-.83-.71-1.39-1,.25-.39.41-.23.75.05,0-.28.21-.59.79-.59,1.16,0,.82,1.11,1,1.11s0-1.11.75-1.11c1.15,0,2.56,2.92,1.28,2.92-.55,0-.12-.43-.12-.5M98.27,63l.64.08.37-.68.38.66.64-.06-.29.57.49.5-.63.12v.7l-.59-.45-.57.45v-.7l-.62-.12.47-.5ZM93.6,55.14l.63.07.38-.68.38.67.64-.06-.3.56.48.5-.61.13V57l-.59-.43L94,57v-.67l-.62-.13.48-.5Zm-.69,3.46h4.14v7.74H92.91Zm9.52-2.4.47-.5-.29-.56.64.07.37-.68.38.67.64-.06-.3.56.49.5-.62.13V57l-.59-.43L103,57v-.67Zm2.47-2.84h-3.42V45.21h3.42Zm26.31-9.22H91.8l0,31.84c0,3.07,1.3,5.76,3.09,6.58l15.16,9.06a1.84,1.84,0,0,0,1.38.61,1.8,1.8,0,0,0,1.23-.47l15.39-9.2c1.81-.82,3.1-3.51,3.1-6.58l0-31.84"/><path class="cls-2" d="M104.26,74.71c-.07-.13-1.5.49-1.09.45,0-.43.85-1.3,1.19-1.62-.06-.5-.7-.06-1.38.3,2.25-3.21.81-1.89-.45-1.66,2-2.16,1.49-2.12,0-1.46,1.17-.92,1.41-2,1.24-2.33-1.09,1.45-2.1,1.23-2.1,2.57a5.52,5.52,0,0,1-.76,2.83c-.59.63-.14-2.38-1.68-2.38-.5,0-1.65,0-2,.56.32,0,.78.81.78,1.12s.3,1.2-.23,1.2-1.12-1.11-1.12-1.64-.06-.41-.06-1.16c0-1.28-2.07-3.06-2.91-3.06,0,.88,1.16,1.09,1.16,2.23-.49,0-1.19-.92-1.19-.36s.73.68.73,1.18-.84-.18-.84.34.47.38.57.85c-.33-.09-.64-.06-.7.12s.1.35.36.49c-.12.11-.23.38-.23,1.13,0,2.5,1.58,3.68,2.73,3.68.84,0,.7-.57.8-.86,0,.43.45-.2.45.54s-.8.44-.8,1.1c0,.9,1.26,0,1.26,1a11,11,0,0,1-.16,1.65c0,.31,1.33-.45,1.24-.59.32.12.31,1,.9,1,.37,0,.46-1,.77-1-.18,0,1.17.89,1.17.46,0-1.17-.47-.67-.47-1.48s1.63-.59,1.37-1-.36-.13-.52-.68c0,.1-1.28-1.87.26-.85s1.81-2.48,1.72-2.66"/><path class="cls-2" d="M146.3,83A1.15,1.15,0,1,0,145,81.89,1.23,1.23,0,0,0,146.3,83"/><path class="cls-2" d="M141.07,86.15A1.23,1.23,0,0,0,142.36,85a1.3,1.3,0,0,0-2.59,0,1.23,1.23,0,0,0,1.3,1.14"/><path class="cls-2" d="M78.77,93.34a1.15,1.15,0,1,0-1.29-1.15,1.22,1.22,0,0,0,1.29,1.15"/><path class="cls-2" d="M82.81,93.69a1.15,1.15,0,1,0-1.3-1.15,1.23,1.23,0,0,0,1.3,1.15"/><path class="cls-2" d="M195,39.33a8.11,8.11,0,0,1,1,8.58c-.75-.07-.61-1-.75-1.59-1.37-2.56-2.47-5.81-1.24-8.73.89.14.56,1.26,1,1.74"/><path class="cls-2" d="M30.4,42.44a12.31,12.31,0,0,0,0,5.47c-.34.34-.28-.35-.61-.27-2.69-1.93-1.45-5.75-2.13-8.45a.52.52,0,0,1,.68-.14,5,5,0,0,1,2.06,3.39"/><path class="cls-2" d="M200.86,42.65c.41.77-.34,1.52-.89,1.88a1.8,1.8,0,0,1-1.72-.77,1.58,1.58,0,0,1,.84-1.8,1.77,1.77,0,0,1,1.77.69"/><path class="cls-2" d="M26.21,45.71a2.05,2.05,0,0,1-.9,1.51c-.41,0-1,0-1.3-.34a1.32,1.32,0,0,1-.29-1.46A1.65,1.65,0,0,1,25,44.8c.48.2,1,.34,1.17.91"/><path class="cls-2" d="M203.55,46.88a1.6,1.6,0,0,1,0,1.1,1.56,1.56,0,0,1-1.85.63,1.88,1.88,0,0,1-.77-1.18,2.14,2.14,0,0,1,1.18-1.25,2.18,2.18,0,0,1,1.44.7"/><path class="cls-2" d="M199.62,47c.55.27.14,1,.07,1.38-.35.34-.82.89-1.44.69-.34-.35-.75-.35-.89-.83a1.54,1.54,0,0,1,1-1.59,1.64,1.64,0,0,1,1.3.35"/><path class="cls-2" d="M194.61,48c0,.76.06,1.73-.82,1.87a1.31,1.31,0,0,1-1.59-1,1.66,1.66,0,0,1,1-1.66,1.88,1.88,0,0,1,1.38.76"/><path class="cls-2" d="M33.7,48.33c.21.69-.48,1.1-.89,1.44A1.34,1.34,0,0,1,31.44,49c-.49-.49.14-.9.27-1.31a1.27,1.27,0,0,1,2,.62"/><path class="cls-2" d="M29.58,48.53a1.42,1.42,0,0,1-.76,1.32,1.22,1.22,0,0,1-1.37-.63,1.15,1.15,0,0,1,.62-1.58c.75-.28,1.23.41,1.51.89"/><path class="cls-2" d="M178,48.81a14.66,14.66,0,0,1,1.39,5c-.29,1.31.2,3-.77,3.94-1-.35-1-1.53-1.65-2.15-1.23-2.42-.13-5.26.28-7.62.55-.2.55.49.75.83"/><path class="cls-2" d="M26.33,49.65c.22.83-.41,1.24-.88,1.72-.82.21-1.37-.41-1.73-1a1.74,1.74,0,0,1,.91-1.65,1.71,1.71,0,0,1,1.7.9"/><path class="cls-2" d="M188.84,51.66a10,10,0,0,1,.34,6.64l-.42.34c-1-1.87-2.33-3.59-2.82-5.6a9,9,0,0,1,.84-4c.48-.33.75.08,1,.49a2.73,2.73,0,0,0,1.1,2.09"/><path class="cls-2" d="M197.49,50.4a1.77,1.77,0,0,1-1,1.66,1.22,1.22,0,0,1-1.58-.83,1.51,1.51,0,0,1,.76-1.66c.76-.41,1.51.28,1.85.83"/><path class="cls-2" d="M29.65,52.55a1.5,1.5,0,0,1-1,1.32c-.55.42-1-.28-1.44-.49a1.62,1.62,0,0,1,0-1.58c.21-.43.69-.43,1.1-.57.62.35,1.24.63,1.38,1.32"/><path class="cls-2" d="M32.67,52.21c.28.69-.48,1-.76,1.38-.82.28-1.23-.35-1.58-.83-.13-.7.28-1.1.76-1.53.82-.2,1.23.35,1.58,1"/><path class="cls-2" d="M199.43,52c-.08.9-1.46,1.79-1.59,2.7a7,7,0,0,1-4.26,3.88,3.27,3.27,0,0,1-1.58.89c-.14-1.38,1.1-2.62,1.85-3.87a10.15,10.15,0,0,1,5.58-3.6"/><path class="cls-2" d="M28.27,54.91a25.27,25.27,0,0,0,2.81,3.25.55.55,0,0,1-.47.69c-3.37-.21-5.65-3.66-7.3-6.08.22-.77,1.12-.14,1.59-.22,1.17.91,2.48,1.18,3.37,2.36"/><path class="cls-2" d="M200.39,55.88a8.89,8.89,0,0,1-4.27,7.47c-.76.28-1.58,1-2.33.55,1.44-3,3.65-5.39,6.05-8"/><path class="cls-2" d="M187.19,57.89a1.71,1.71,0,0,1-1.17,2c-.77.06-1.24-.57-1.59-1.12a1.46,1.46,0,0,1,1-1.52,1.14,1.14,0,0,1,.82-.2c.42.14.61.48,1,.83"/><path class="cls-2" d="M24.49,58.5a40.08,40.08,0,0,1,3.71,3.26c-.88.63-2,.07-3,.07C22.84,61,21.27,59,18.86,58.3c.07-.76.95-.49,1.43-.69,1.51-.15,2.76.56,4.2.89"/><path class="cls-2" d="M98.1,38c-3.85-1.53-6.38,2.48-10.31,2-.47.27-.33.76-.61,1.12-.21.2-.55.06-.76-.08-.2-1.66-.75-3.19-1-4.78-.41-.68-.2-1.66-.55-2.35-2.2-6,5.35-1.46,6.87-5,1.31-3-2.54-3.39-3.71-5.52v-.91c-1.1-1.1-2.26-1.45-3-2.91a9.87,9.87,0,0,0,.22-5.33c-.06-.41-.34-1-1-.77-1.32,1.8-2.28,3.26-3.52,5a36.18,36.18,0,0,0-4-3c-1-.14-2-1.17-3.17-.75a1,1,0,0,0,.21,1c.07,2.7,1.44,4.85,3.37,6.78l.2,1c-1.24,2.84-.89,6.09-1.24,9.14a50.7,50.7,0,0,1-14.9,21c-3.92,4.43-8.6,8.72-9.22,14.81-.2,1,.13,2.15-.62,2.85A23.59,23.59,0,0,1,45,67.92c-3.16-2.22-7.69-1.93-9.76-6-.82-1.6.22-3.19,1-4.36,2.34-2.22,2-6.17.77-8.86-.29-.08-.36.27-.55.33C36.24,53.18,33,56,34.25,60.51c.27,1.32,1,2.15,1.3,3.39A9.83,9.83,0,0,1,34,63.56c-1.51-.21-3-.84-4.59-.62-3.16,1.45-7.5-.34-10,2.56-.4.06-1,.14-.81.76,1.49,0,2.94.42,4.45.34,2.42.42,4-1.59,5.64-2.48H29c.69-.69,1.86-.28,2.76-.42,4.33.48,7.69,2.56,11.26,4.7v.29c-1.38.62-2.95,1-4.32,1.79-1.59,1.17-3.37,2.7-3.85,4.64-1.1,1.73.34,3.25,1,4.71.06.69.14,1.51.74,1.79,2.2-2.35.14-5.26.48-8,.55-2.07,2.49-3,4.48-3.59,3.92-1.67,6.73,1.52,9.88,3.32-.06,3.19.36,6.24-.33,9.35a8.6,8.6,0,0,1-3.23.48c-5.44.41-9.7,3.39-14.58,5.06-2.19.76-4.8.69-7,1.52,1.71.48,3.49-.14,5.29-.21,6.73-1,11.89-6.16,19.17-5.27l.14.22A16.4,16.4,0,0,1,47.73,89c-.22-.76-.28-1.39-1-1.8a1.29,1.29,0,0,0-1.59.55.9.9,0,0,0,0,1,2.26,2.26,0,0,0,1.51,1c-.14.63-.91.89-1.3,1.46-1.92,3.25-5.84,1.93-8.12,4.22-.34.49-1.57.75-1,1.52a10.35,10.35,0,0,0,7.07-1.8c2.56-2.84,5.24-5.54,7.77-8.24a8.27,8.27,0,0,1-1.5,6.31,7.59,7.59,0,0,0-1.85-1,1.65,1.65,0,0,0-1.24,1.39,3.94,3.94,0,0,0,1,1.38c-2.33,1.67-5.28,1.8-8,2.56a131.56,131.56,0,0,1-15,1.1c-2.41-.14-5.16.71-7.43,0-2.62.49-5.42-.33-7.55,1.12-.28.34.06.69.06,1,3.17,2.09,7.49.43,11.08,1H47.79c2-.07,4-.14,5.57-1,3.5-2,5.42-5.6,7.21-9.13A13.88,13.88,0,0,0,62,87.51a6,6,0,0,1,5.16-4.22A32.12,32.12,0,0,1,66,93.82c-.42,2.21-1.87,4.36-1,6.7.21,1.11,1.38,1.11,2.27,1.26,8.32-.15,16.63-.49,25.43.14a22.29,22.29,0,0,0,4.67.69c.14-.21.62-.28.41-.69a2.58,2.58,0,0,0-1.65-2c-.13-.41-.74-.27-1-.55-4.41-2.49-9.71-1.18-14.85-1.1-2.67.27-5.36.76-7.63-.77-1-1.24-.28-5.19-.28-5.19,0-1.56,3.79-12.47,4.26-13.36a12.11,12.11,0,0,0,.42-3.19,13.15,13.15,0,0,0,.41-4.71c.29-2.21,1.37-4.28,2.13-6.43.42-1,.75-2.15,1.16-3.19a10.43,10.43,0,0,1,1.38-3.61c2.24,1.44,4.44,1.4,5.52,3.93l1,5.77c0,.35.28,1,.75.63,1.78-1.18,1.23-3.81,1.23-5.6.41-2.15-1.09-3.19-1.7-5.06a8,8,0,0,1-1.28-2C87.41,54,84.08,53,84.83,51.09c.43-1.58.84-3,2.35-3.94a.73.73,0,0,1,.34.49l.82-.57.09-5.79c2.23,0,5.54.28,7.82.28.61.2,1.1.69,1.78.75l.55-.75,5.58-1.09c-2.37.26-3.8-2.45-6.06-2.45"/><path class="cls-2" d="M104.16,40.47a3.52,3.52,0,0,0,.51-.1"/><path class="cls-2" d="M44.29,59.75a1.52,1.52,0,0,1-1,1.59c-.55-.2-1-.27-1.31-.83-.26-.76.41-1.31,1-1.59.55.14,1.23.21,1.37.83"/><path class="cls-2" d="M39.82,59.75a1.53,1.53,0,0,1,.27,1.59c-.47.42-1.24.76-1.65.22s-.83-.91-.47-1.46,1.29-.9,1.85-.35"/><path class="cls-2" d="M135.51,60.51a.23.23,0,0,0,.05.1"/><path class="cls-2" d="M187.86,61.69c.29.76-.33,1.31-.88,1.6-.69-.21-1.59-.35-1.59-1.26a1.34,1.34,0,0,1,1-1,1.31,1.31,0,0,1,1.43.69"/><path class="cls-2" d="M191.51,61.56c.21.34.69.89.14,1.24a2.42,2.42,0,0,0-.68.55,1.35,1.35,0,0,1-1.66-.83c-.14-.76.49-1.1,1-1.45.48-.14.82.21,1.16.49"/><path class="cls-2" d="M22.56,62.38a1.35,1.35,0,0,1-1.84.91,2.58,2.58,0,0,1-.55-.91,1.27,1.27,0,0,1,.75-1.18,1.67,1.67,0,0,1,1.64,1.18"/><path class="cls-2" d="M45.73,63.56c-.07.55-.69,1-1.16,1.31-.69.08-1.18-.48-1.53-1a1.4,1.4,0,0,1,.84-1.38,1.54,1.54,0,0,1,1.85,1"/><path class="cls-2" d="M41.68,63.07a1.08,1.08,0,0,1,.2,1.11c-.42.35-1,1-1.71.57-.43-.36-.9-.63-.76-1.34a3,3,0,0,1,1-.81c.55-.15.84.2,1.25.47"/><path class="cls-2" d="M202,63.9a1.84,1.84,0,0,1-.88,1.32,1.36,1.36,0,0,1-1.53-.35c-.41-.14-.27-.69-.27-1a2.37,2.37,0,0,1,1.31-.9,2.53,2.53,0,0,1,1.37,1"/><path class="cls-2" d="M206.43,64.53a1.73,1.73,0,0,1-1.3,1.25c-.41-.08-1.17-.22-1-.84a1.22,1.22,0,0,1,.63-1.1,1.2,1.2,0,0,1,1.71.69"/><path class="cls-2" d="M30.4,65.5a1.35,1.35,0,0,1-.82,1.66c-.48.27-1-.07-1.31-.34a1.2,1.2,0,0,1-.34-1.38c.13-.63.76-.49,1.17-.77a1.69,1.69,0,0,1,1.3.83"/><path class="cls-2" d="M33.77,66.11c.2.57-.41.77-.55,1.18a1.1,1.1,0,0,1-1.23.14c-.49-.41-1-1-.55-1.66.55-1,2-.47,2.33.34"/><path class="cls-2" d="M198,65.77c.07.69-.53,1.19-.94,1.6a1.21,1.21,0,0,1-1.4-.83,1.45,1.45,0,0,1,.77-1.32,1.48,1.48,0,0,1,1.57.55"/><path class="cls-2" d="M203.62,66.88c-.16.63-.07,1.32-.76,1.73a1.93,1.93,0,0,1-1.65-.27,1.28,1.28,0,0,1-.28-1.46,1.63,1.63,0,0,1,1.66-.83c.48.28.62.63,1,.83"/><path class="cls-2" d="M27.79,68.34c.27.55-.34.69-.55,1a1.37,1.37,0,0,1-1.38-.14c-.47-.27-.27-1-.2-1.31.62-1.17,1.85-.34,2.13.49"/><path class="cls-2" d="M199.29,69.66c.27.06.14.47.06.61-1.65.83-4.12,1-5.56-.28A21.86,21.86,0,0,0,191,68.47c.36-.9,1.59-.83,2.49-1,2,.28,3.57,2.15,5.78,2.23"/><path class="cls-2" d="M31.09,69c.13.55-.28.76-.41,1.18-.28.41-.84.27-1.16.14A1.15,1.15,0,1,1,31.09,69"/><path class="cls-2" d="M37.15,69.44A1.25,1.25,0,0,1,36.44,71c-.47.29-.88-.12-1.29-.2-.36-.49-1-1-.36-1.6.63-1,1.87-.47,2.36.28"/><path class="cls-2" d="M116.61,72.37c-.13,1.38-2.42-.19-2.1,1.65a10.55,10.55,0,0,0,1.38,3.88c.64.92.32,2.37.26,3.48a6.33,6.33,0,0,1-2.61,2.24c-2-.21-4.84,1-5.75-1.45a9.63,9.63,0,0,1-1.11-3.29c.19-.12.46-.12.65-.33,0-.46-.53-.73-.46-1.19,2.23-.38-.91-2.35,1-2.48,1.58,1.64,4.12,1.11,5.49,2.89a5.76,5.76,0,0,0,1,.85c-.26-1.64-1-3.29-1.31-5.06a2.27,2.27,0,0,1,.78-2.3c1.18-.94,2.16.39,2.82,1.11"/><path class="cls-2" d="M43.19,71.94c.2.69-.35,1.11-.76,1.44-.61.28-1-.41-1.24-.75-.21-.69.28-1,.69-1.38a1.49,1.49,0,0,1,1.31.69"/><path class="cls-2" d="M85.59,72.63a9.45,9.45,0,0,1-.83,7.75c-.05.56.14,1.45-.62,1.38-1.85-2.56-.47-6.15.29-8.85.14-.69,1-1,1.16-.28"/><path class="cls-2" d="M144.44,74a7.76,7.76,0,0,1,.12,6.43l-.53.55A15.2,15.2,0,0,1,142.44,76a15.89,15.89,0,0,0,.82-3.66c1-.22.89,1,1.18,1.59"/><path class="cls-2" d="M48.55,74.7c-.41.83-1.58,1-2.34,1.6a8.26,8.26,0,0,1-6.12,1.18,7.44,7.44,0,0,1,7.84-3.25c.14.27.48.14.62.47"/><path class="cls-2" d="M20.29,77.2C22.84,79,23.53,81.48,25,84c.21.28.9.34.62.91-.55.4-1.1-.43-1.86-.29a7.62,7.62,0,0,1-4.2-7.12c0-.28.41-.28.69-.28"/><path class="cls-2" d="M141.75,79.34c.06.7-.06,1.39-.61,1.59a1.24,1.24,0,0,1-1.59-.83c-.21-.49.2-.76.34-1.1a1.23,1.23,0,0,1,1.86.34"/><path class="cls-2" d="M170.76,83a36.18,36.18,0,0,1,.47-3.8,2.39,2.39,0,0,0,.28-1.44c1.65-2.22,5-1.52,7.63-1.33,1,.56,2.34.5,3.44.77a2.59,2.59,0,0,1,1.73-.35c2.19-1.18.74-3.74.88-5.75L184.37,69a10.89,10.89,0,0,1-.56-1.39c-.41-.48-.68-1.38-1.09-1.87-1.16-3-3.44-4.77-5.36-7.19-3.51-4.57-9-7.14-14.51-8.93s-10.93.55-15.8,2.29A4,4,0,0,1,144.36,49a13.56,13.56,0,0,1,1.32-7.33c.2-1.74,1.37-3.06,1.84-4.65,1.24-3.87,2.55-7.67,2.83-11.9.14-2.56-1.79-4.36-3.71-5.47a3.76,3.76,0,0,0-3.79.76c-.88,1.87-2.82,3.11-4.47,4-.14,1.19,1.31.42,1.78.83,1.51.28,3.23-.2,4.48.77.14,2.76-1.44,5.05-2.89,7.13-2.33,3.46-4.81,7-6.26,10.8l-.27-.27.34,16.91c2.18,3.65,4.92,7.81,9,9.19,2.22,1.79,5,3.93,7.91,2.34,1.59-.49,1.72,1.74,2.48,2.64.82,2.56-1,4.35-1.17,6.7L152,85.29c-2.05,4-3.91,8.31-7.08,11.71-1,0-1.65,1.1-2.69,1.17-.55.76-1.65.21-2.33.48-2.12.91-5.15.35-6.6,2.36a1,1,0,0,0,.55.36c4.2.06,8.87.33,13.35.14a1.67,1.67,0,0,0,1.08-1.33c-.61-1.18.22-2.22.76-3.11.35-1.67,1.46-2.7,1.93-4.29,1.45-2.84,3.1-5.62,4.67-8.44l2.13-3.47A26,26,0,0,1,159.89,77a8.94,8.94,0,0,0,1.24-1.87c.08-.69-.28-1-.69-1.46.49-.48,1.24-.34,1.87-.48,1.72,1,3.49,2.7,3.84,4.58l.61,1.79.29.83-.14,2.29.26,2.14c.36,3.33-.26,6.72-.6,10-1.17,4-5.78,3.6-9.08,4.51-.82.55-2.4.27-2.4,1.65,4,.83,8.65.36,12.92.28.67-.28.81-.9,1.16-1.52.14-.9,1-1.67.75-2.64-.75-1,0-2.48-.26-3.8a2.11,2.11,0,0,0,0-1.32c.55-2,.41-4.42.82-6.37"/><path class="cls-2" d="M204.58,80.32c-2.21,3.11-4.53,6.64-8.39,7.75-.28,0-.56.14-.69-.22,2.34-2.49,3.59-6.37,7.22-7.26a2.26,2.26,0,0,1,1.86-.27"/><path class="cls-2" d="M16.93,83.71c-.35.27-.06.89-.68,1a1.09,1.09,0,0,1-1.44-.62,1.21,1.21,0,0,1,.88-1.52c.56.28,1.11.47,1.24,1.18"/><path class="cls-2" d="M36.72,84.67c.21.62-.47.62-.81.77a7.52,7.52,0,0,1-7.91-2c0-.27,0-.55.28-.63,2.8.69,6.1.14,8.44,1.87"/><path class="cls-2" d="M20.72,83.77a1.88,1.88,0,0,1,.12,1,1.51,1.51,0,0,1-1.71.63,2.38,2.38,0,0,1-.9-.91,1.68,1.68,0,0,1,1.17-1.31,2.15,2.15,0,0,1,1.32.55"/><path class="cls-2" d="M85.12,84.12c.14.61-.41,1-.84,1.32a1.39,1.39,0,0,1-1.44-.55,1,1,0,0,1,.49-1.32c.61-.14,1.57-.07,1.79.55"/><path class="cls-2" d="M207.19,84.4c.2.69-.43,1-.89,1.44a1.54,1.54,0,0,1-1.32-.2c-.06-.35-.47-.63-.33-1.1a1.44,1.44,0,0,1,1.58-.83,7.88,7.88,0,0,1,1,.69"/><path class="cls-2" d="M211.73,84.12c.41.61.06,1.11-.28,1.6a1,1,0,0,1-1.24.41c-.41-.41-1-.63-1-1.24s.62-1,1-1.18c.69-.28,1,.41,1.52.41"/><path class="cls-2" d="M14.05,86.13c.06.48-.35.76-.49,1.17-.34.14-.69.43-1.1.29a2,2,0,0,1-1-1.12,1.78,1.78,0,0,1,1.24-1.38,1.8,1.8,0,0,1,1.38,1"/><path class="cls-2" d="M158.79,86.13a1.94,1.94,0,0,1,.07.89c-.41.57-1,1-1.64.71-.41-.43-.9-.84-.69-1.46a1.34,1.34,0,0,1,2.26-.14"/><path class="cls-2" d="M25.11,87.16c-.15.49-.35,1-1,1s-.84-.5-1.17-.77c0-.62-.08-1.25.55-1.6a1.27,1.27,0,0,1,1.58,1.32"/><path class="cls-2" d="M18.52,87.3a1.5,1.5,0,0,1-.69,1.53,1.61,1.61,0,0,1-1.86-1,1.92,1.92,0,0,1,1.24-1.58c.62,0,1,.69,1.31,1"/><path class="cls-2" d="M163.34,87.16a1.4,1.4,0,0,1-.76,1.68c-.83.27-1.51-.42-1.87-1,.36-.57.41-1.32,1.24-1.46a1.6,1.6,0,0,1,1.39.75"/><path class="cls-2" d="M21.74,87.44c.21.49-.2.7-.35,1-.34,0-.55.41-.95.28-.27-.34-.82-.48-.9-1-.06-.69.42-1,.9-1.32a1.27,1.27,0,0,1,1.3,1"/><path class="cls-2" d="M203.41,88a2.19,2.19,0,0,1-1.16,1.12c-.55.14-.9-.35-1.31-.57s-.22-.88-.08-1.24a1.39,1.39,0,0,1,2.55.69"/><path class="cls-2" d="M208.63,88.28A1.78,1.78,0,0,1,207,89.45c-.61-.28-1.3-.76-.83-1.58.28-.28.42-.57.83-.63a1.32,1.32,0,0,1,1.65,1"/><path class="cls-2" d="M176,88.76c.34.9-.48,1.18-1,1.59a3.14,3.14,0,0,1-1.31-.55,1.61,1.61,0,0,1,1-1.81,1.69,1.69,0,0,1,1.37.77"/><path class="cls-2" d="M157.08,89.59c.34.14.2.62.14.84-.41.26-1,1-1.59.55a1.18,1.18,0,0,1-.68-1.32,1.28,1.28,0,0,1,2.13-.07"/><path class="cls-2" d="M160.93,90.08a1,1,0,0,1-.55,1.1c-.49.49-1-.06-1.52-.2a1.15,1.15,0,0,1-.07-1,1.53,1.53,0,0,1,.9-.56c.48.14,1,.14,1.24.7"/><path class="cls-2" d="M44.29,90.14c.41.41-.08.9-.14,1.32a1.36,1.36,0,0,1-1.72.35c-.69-.28-.61-1.18-.49-1.73.41-.14.41-.63,1-.63a2.43,2.43,0,0,1,1.37.69"/><path class="cls-2" d="M183.33,90.43c.15.69-.55,1-1,1.1-.83.28-1.24-.35-1.59-.9,0-.42.41-.69.55-1,1-.42,1.59.29,2.06.84"/><path class="cls-2" d="M179.62,90.43c.29.69-.48,1-.75,1.38a1.38,1.38,0,0,1-1.51-.28c-.35-.21-.35-.63-.35-1,.41-.35.62-.76,1.1-.9a1.76,1.76,0,0,1,1.51.84"/><path class="cls-2" d="M210.63,91.24c.14,1-1.1.49-1.59.77-2.88,1.73-6.6.42-9.34-.62.2-.9,1.24-.55,1.79-.9,2.94-1.87,6,.42,8.92.55"/><path class="cls-2" d="M22.5,90.43l-.27.47c-2.55,1.53-5.85,2.57-8.87,1.6l-.28-.42a12.45,12.45,0,0,1,9.21-1.87"/><path class="cls-2" d="M190.35,90.9a1.57,1.57,0,0,1-.68,1.32,1.4,1.4,0,0,1-1.81-.76c-.19-.56.36-1.11.91-1.32.48,0,1.31.07,1.58.76"/><path class="cls-2" d="M34.8,91.18c-.28.55-.14,1.11-.83,1.38a1.47,1.47,0,0,1-1.71-.89c-.21-.77.34-1,.69-1.32.82-.41,1.45.22,1.85.83"/><path class="cls-2" d="M29.92,91.53c.2.48-.21.75-.35,1.11a1.26,1.26,0,0,1-1.37.2c-.47-.42-1-.89-.77-1.66a4.07,4.07,0,0,1,1.12-.75c.61.14,1.24.41,1.37,1.1"/><path class="cls-2" d="M195.16,93.11a1.48,1.48,0,0,1-1.1,1.26,1.63,1.63,0,0,1-1.31-.69,1.09,1.09,0,0,1,.28-1.32c.13-.21.62-.21.89-.35a1.49,1.49,0,0,1,1.24,1.1"/><path class="cls-2" d="M24.84,92.36c.2.55-.28.75-.35,1.17a10,10,0,0,1-1.51,3c-1.32,1.58-3.16,1.58-5,2.07L17.68,98a18.1,18.1,0,0,1,7-5.82"/><path class="cls-2" d="M191.73,93.88c.13.83-.56,1-1,1.32a1.57,1.57,0,0,1-1.37-.83c-.21-.77.48-1,.9-1.39a1.4,1.4,0,0,1,1.51.9"/><path class="cls-2" d="M32.74,93.88c-.07.14.07.28.21.35-.06.76-.63,1-1.05,1.31a1.83,1.83,0,0,1-1.5-.69,1.14,1.14,0,0,1,.68-1.58c.63-.08,1.45,0,1.66.61"/><path class="cls-2" d="M204.37,96c.69-.08.82-.91,1.57-1a1.67,1.67,0,0,1,1.65.75c.29.82-.34,1.25-.88,1.59s-1.52-.41-1.46.49a2.14,2.14,0,0,1,1,1.38c-.15.28-.62.22-.82.08-2-.84-4.14-2.22-5-4.29-.26-.63-1.58-1.11-.83-1.66,2-.14,3.65,1.44,4.75,2.7"/><path class="cls-2" d="M211,93.82a1,1,0,0,1-.07,1.31c-.34.7-1.37.41-2,.35-.33-.35-.69-.69-.55-1.25a2.18,2.18,0,0,1,1-.9,1.9,1.9,0,0,1,1.58.49"/><path class="cls-2" d="M186,97.55a9.66,9.66,0,0,1,1.51,2.77c-.14.21-.48.14-.63.14-2.32-1.32-5.34-2.77-6.24-5.53-.2-.28-.75-.63-.69-1.13,1.78-.33,3.51,1,4.75,2,.48.69,1,1,1.3,1.8"/><path class="cls-2" d="M28.89,94.92c.27.62-.28,1.11-.62,1.39a1.59,1.59,0,0,1-1.58-.56c-.48-.76.41-1.38,1-1.66.55-.07.9.48,1.24.83"/><path class="cls-2" d="M194.61,96.52c.06.41-.48.69-.68,1-.55.07-1.11.28-1.59-.21-.14-.34-.47-.89-.06-1.24.75-1,1.85-.2,2.33.49"/><path class="cls-2" d="M211.73,97.48a1.65,1.65,0,0,1-1,1.74,1.83,1.83,0,0,1-1.65-.63c-.35-.41-.08-.83,0-1.32a1.7,1.7,0,0,1,1.78-.47,3.31,3.31,0,0,1,.83.68"/><path class="cls-2" d="M164.17,107c0,.84-1.53.62-2.14,1.25-2.14,1.11-4.67,1.11-7.22,1v-.42a10.26,10.26,0,0,1,9.36-1.87"/><path class="cls-2" d="M63.88,110a1.35,1.35,0,0,1-1,1.19,1.31,1.31,0,0,1-1.16-.69c-.29-.83.4-1.18.89-1.52a1.61,1.61,0,0,1,1.31,1"/><path class="cls-2" d="M163,110.77a2,2,0,0,1-1,1.6c-.63.13-1-.22-1.53-.49-.34-.28-.12-.76-.2-1.11a1.48,1.48,0,0,1,2.75,0"/><path class="cls-2" d="M176.67,111.05c-1.72,1.12-3.65,2.42-5.91,2.42l-3.71-.06-.35-.29c2.28-2.76,6.4-2.76,10-2.48"/><path class="cls-2" d="M45,112.72a1.24,1.24,0,0,1-2.34.69,1.26,1.26,0,0,1,.56-1.6c.76-.48,1.5.36,1.78.91"/><path class="cls-2" d="M48.48,113.41c.21.34-.14.55-.28.89-.41.21-1,.35-1.29,0a.85.85,0,0,1-.42-1.18c.2-.4.61-.34.82-.61a2,2,0,0,1,1.17.9"/><path class="cls-2" d="M22.16,120.39c-.7.83-1.79-.2-2.54-.62-2.42-1.39-2.35-4.09-4.75-5.67.27-.83.89.06,1.37-.08a9.4,9.4,0,0,0,1.44.77c2.35,1.32,2.9,3.53,4.48,5.6"/><path class="cls-2" d="M113.23,119.07a6.2,6.2,0,0,0-.76,2.44l-.28.14c.21-1.05-.82-1.67-.55-2.78-.55-.83-.55-1.87-1-2.76-.63-1.12.54-1.6,1-2.36,1,.41,1.31,1.32,2,2.15.41,1.18-.49,2.07-.41,3.17M222.51,93.53a5.48,5.48,0,0,0-5.15-2.84,4.76,4.76,0,0,0-3.85,2.84,3.5,3.5,0,0,0,1.31,3.81,1,1,0,0,0,1.37-.35c.35-.9-.62-.9-.75-1.59a2.28,2.28,0,0,1,.75-2.42c.69-.69,1.86-.35,2.68-.35a4.92,4.92,0,0,1,2.07,2,5.6,5.6,0,0,1,0,3.66,6.17,6.17,0,0,1-4.27,3.47c-5.7.83-68.32.55-68.32.55-7.36.69-15.74-1.39-22.07,2.49-2.88,1.38-4.33,4.57-5.08,7.41a48.37,48.37,0,0,0-5.36,5.46l-.22-.2c.35-1.67,1.11-3.12,1.46-4.77,1-1.4,1-3.27,1.78-4.79,2.61-4.22,5.09-8.51,9.15-11.49,1.71-2.28,4.74-1.87,7.34-1.87a18.39,18.39,0,0,0,9.56,1.4.68.68,0,0,0,.2-.5c-1-.9-2.53-1.24-3.63-2.14-2.76-1.32-5.37.41-8.25.2-.14-.14-.27-.2-.21-.42a41.36,41.36,0,0,1,8.52-4.57,60.07,60.07,0,0,1,7.49-3c1,0,2-.91,3-.29l3.63-1c.13.08.28.28.55.22,3.1-1.05,7-.08,10.52-.14l.49.41,3.29.83c1.24.14,1.79,1.6,3.09,1.66.69-1-.75-1.38-1.1-2a7.57,7.57,0,0,1,4.61.7l-.68.76c-.42.76.2,1.32.82,1.59s.82-.2,1.18-.35c.88-.62-.09-1.24.2-1.8a66.2,66.2,0,0,1,14.64,4.16c1.29.42,2.53,1.38,4,1.32A18.1,18.1,0,0,0,192,88.9c-1.17-.7-2.82-.76-3.71-1.74.2-.34.69-.2.89-.48,2.33-.27,4.33-2,6-3.88.14-.41.88-.28.83-.83-.63-.69-1.65.22-2.48.14-2.88.55-4.12,3.94-7,4.57-3.5-.84-7.08-1.65-10.59-2.56A20.23,20.23,0,0,1,170.76,83l-3.85-.34h-7c-.08-.14-.29-.21-.22-.41,2.48-.63,4.6-2.07,7.09-2.7L185.2,71.1a43.71,43.71,0,0,0,5.21-5.68,1.27,1.27,0,0,0-.75-1.3,1.13,1.13,0,0,0-1.37.27c-.84.62,0,1.38,0,2.15a12.22,12.22,0,0,1-3.16,2.7c-.29-.08-19,8.51-19,8.51a48.44,48.44,0,0,1-8.38,3.12l-4,.62a2.63,2.63,0,0,1-1.73,1.59c-1.1.21-2,.9-3.16.9-8.94,3.46-18.21,7.14-25.29,14.2a8.46,8.46,0,0,0,.69-2.92c-.14-1-.08-2.21-.76-3-.17-.39-.68-1.5-.51-1.9L122,91c-.63,1.52-1.17,4.28-.55,5.88.22,1.24,1.24,2.7.28,3.8-3.3,4-5.16,8.87-7.36,13.44-.83-.14-1.24-.9-1.57-1.67a23.2,23.2,0,0,0,4.87-10.1c.49-.35.14-1.25.62-1.67-.13-1.1.61-2.21.07-3.11.44-1.52-2-2.9-.44-3.87l-1.3.62c-3,3.88,1.54,9.69-1.84,13.43V108c-1,1.26-1.43,2.51-2.75,3.33-1.65-.69-2.26-2.56-3.22-3.94-1.51-1.45-1.51-4.43-.63-6.44.63-2-.4-3.73-.61-5.54l-.68-.41a8,8,0,0,0-1,8.1c.68,1.24.75,3,1.78,4,.61,2,1.85,3.32,3,5.12.28.69-.41.83-.77,1.18-.74-.49-.61-1.6-1.29-2.09a49.85,49.85,0,0,0-8.8-12.65c-.14-.63-.76-1.19-.41-1.88a5.06,5.06,0,0,0,.89-5.26c-.14-.35-.55-.76-.48-1.12l-1-.82c.13,2.42-1.44,4.57-.76,7.13v.14A131.46,131.46,0,0,0,75.16,83l-.64,1.75c2,.51,7.36,3.76,7.36,3.76a47.44,47.44,0,0,1,6.87,3.68c9.35,5.19,15.53,13.78,19.73,23.32.06.77.76,1.6.28,2.36-1.44-2.22-3.5-3.46-5.22-5.26A10.1,10.1,0,0,0,98.31,105c-1-1.52-3.23-1.66-5-2.15l-25-.14c-20.34-.28-38.9.63-59.1.28-2.83-.28-6.27-1.24-7.09-4.22a4.68,4.68,0,0,1,0-3.81,4.22,4.22,0,0,1,3.51-1.87A3.72,3.72,0,0,1,8,95c0,.9-.76,1.73-1.12,2.49.08.28.36.83.84.62a3.23,3.23,0,0,0,1.79-2.21c.06-.49.27-1.18-.21-1.52a4.58,4.58,0,0,0-3.23-2.84A5.74,5.74,0,0,0,1.4,93.11C-.26,94.51-.18,97,.3,98.93c1.1,3,4.33,5.14,7.42,5.55l66.88.26c6.52.36,13.88-.75,20.48.57,2.41.75,5,2.56,5.56,5.26-.07.14-.27.06-.48.06-5.43-3.52-12.57-4.84-19.52-4-2.74-.14-5.21.9-7.69,1.59a3.91,3.91,0,0,1-3.38-1.1c-2.47-2.23-6.79-2.08-9.95-1.25,0,.2-.08.41.06.48,3.38-.28,5.36,2.64,8.39,3,.68.13,1.23-.62,1.85-.07-3.17,1.52-6.18,3.32-9.55,4.3-1-.21-1.59-1.19-2.41-1.74-1.31-1.45-3.71-.83-5.5-1-.61.13-1.16-.28-1.57,0a5.84,5.84,0,0,0,2.94,2.27c1.73.77,3.72-.06,5.3,1a6.93,6.93,0,0,1-1.45,1c-3.22,1.24-5.91,4.15-9.48,3.94A12.26,12.26,0,0,1,38,115.68a6.89,6.89,0,0,0-6.94-4c-.21.13-.48.13-.42.49,1.52.89,2.69,2.68,4.2,3.73,1,1.18,2.81,0,3.71,1.32A12.26,12.26,0,0,0,43,119.15a19.75,19.75,0,0,0,3.57,1l-.47.27c-6.26,2.08-13.47,2.29-20.48,2-2.06-.08-4.06-.69-6.12-.63a3.87,3.87,0,0,0,1.65,1,4.21,4.21,0,0,1-1.86.55,13.38,13.38,0,0,0-2.62.69,6.88,6.88,0,0,0-2.94.7,14.3,14.3,0,0,1-3.92,3.19c0,.27-.07.69.27.69,1.32-.55,3-.14,4.28-.69,2.25-.22,3.55-2.71,5.34-3.75,1.94-1.52,4.69-1.18,7-.83,1.38.36-.14.91.26,1.8.56.49,1,1,1.8.83a1.17,1.17,0,0,1,.48-.34,1.6,1.6,0,0,0,.07-1.73c1-.63,2.27.06,3.3-.35,2.61-.07,5.22-.62,7.76-.69.41-.07.9-.5,1.31-.07-.2.55-.9.62-.61,1.38s.81.91,1.36,1c.7-.27,1.31-.76,1-1.66-.14-.48-.69-.56-1-.76,1.45-.69,3.1-.9,4.55-1.59a14.44,14.44,0,0,0,2.89-1c.88-.07,1.64-.9,2.47-.55A14.4,14.4,0,0,1,51,123c-1.09,3.67-1.93,8.52,0,12.06.21.06.28-.08.41-.15-1.43-3.67-.61-7.89.63-11.35,1-5.88,7-7.61,11.34-9.83l.2.28c-1.16,3-2.88,6-2.61,9.62.14.63-.27,1.24,0,1.66a7.45,7.45,0,0,0,2.55-3.18c.47-3.11-1.32-7,1.85-9.28,5.63-2.21,10.93-5.12,17.45-5.2.22.22.68-.12.76.29-1.37,1.52-3.37,3-4,4.85-2.2,3-2.14,8.22-1.18,12,.63,2.14-1.23,3.33-2.12,5-.44.59-.55,1.6-1,2.28l1.36.15A7.28,7.28,0,0,0,79,127.52a1.91,1.91,0,0,0,1.31,1.39c.47-.76-.41-1.31-.49-2.08,1.1-.63,1.57.77,2.48,1a17.7,17.7,0,0,0,4.19,1l.47-.48c-1.5-2.35-4.53-2.77-7.14-2.91-1.37-2.28-1.37-5.12-1.23-7.9A12.05,12.05,0,0,1,80,113.27a11.09,11.09,0,0,1,1.92-2.64,9.56,9.56,0,0,1,4.32-2.35h.22a.31.31,0,0,0,.07.21c-1.86,1.45-2.06,3.46-3.16,5.26a5.78,5.78,0,0,0-.62,6c.41.9.21,2.29,1.15,2.91.9-1.24,1-2.84,1.45-4.22-.19-2.29-1.58-4.43-.27-6.65.69-1.73,2.14-2.42,3.71-3,3.79-.34,7.09,1.6,10.39,3,.68.5,1.86.91,2,1.87a5.62,5.62,0,0,1-8.8,4.58,4.83,4.83,0,0,1-1.1-4.23,2.86,2.86,0,0,1,3-1.11c.69.35,1.31,1,2.2.63a.86.86,0,0,0,.27-1.12c-.75-.41-1-1.45-2.06-1.58a4.43,4.43,0,0,0-3.77.75,4.87,4.87,0,0,0-1.58,4.85,5.91,5.91,0,0,0,4.25,4.43A8,8,0,0,0,102,118a9,9,0,0,0,1.52-3,18.08,18.08,0,0,1,7.08,9.14,14.5,14.5,0,0,1,.06,3.47l2.41.2a2.32,2.32,0,0,1,.2-1.66c.9-4.57,3.71-8.38,7.08-11.35,1.16-.69.89.89,1.16,1.38a9.33,9.33,0,0,0,6,5.27A7.58,7.58,0,0,0,135,119c.89-1.66,2-4.08.48-5.81a4.75,4.75,0,0,0-3.78-1.8c-1.79,0-2.9,1.24-3.78,2.56,0,.55-.07,1.17.41,1.46.28,0,.83.06,1-.35.14-1,1-1.52,1.86-2.09a2.13,2.13,0,0,1,2.2.43,3.64,3.64,0,0,1,1,2.7,4.21,4.21,0,0,1-2.27,3.25,7,7,0,0,1-6.6-.63,14.73,14.73,0,0,1-1.92-3c-.14-1.1-.56-2.07,0-3.18a23.39,23.39,0,0,1,9.83-3.46,7,7,0,0,1,3.64,2.28c3.17,3.26-.69,7.9,1.51,11.5.82-.14.82-1.25,1.17-1.94,1-2.48-.28-5.2-.9-7.61a14,14,0,0,0-2.61-4.09A1.76,1.76,0,0,1,137,109a16.86,16.86,0,0,1,4.19,3.6A18.46,18.46,0,0,1,143.87,124c-.53,2.08-2.73,3.06-4.46,3.81a6.49,6.49,0,0,0-1.86,2.21c.83.49,2,0,2.82-.34,1.32-.49,2.07-2.15,3-2.91.12.07.06.29.12.43.08.75-.33,1.79.35,2a25.71,25.71,0,0,0,.63-3.53,6.9,6.9,0,0,1,1.3,3.47c.62,1.24,1.65,2.9,3.29,3.12.42-.63-.06-1.25-.2-1.8-.21-1.74-1.66-2.64-2.6-3.89-2.42-3.32-1.32-8.51-3.18-12.25-.69-2-2.12-3.45-3.71-5.12l.29-.28c3.36-.06,6.18,1,9.27,1.67,3.79,1.86,9.28,1.45,11.07,6.37a18.23,18.23,0,0,0,3.92,7.47l.2-.14a2.82,2.82,0,0,0,0-2.56c-.41-3.45-3.44-4.3-5-7.2l.22-.27a46,46,0,0,1,5,1.58c5.51,1.53,9.35,6.93,10.05,12.54a27.13,27.13,0,0,1-2.55,11.84c-.21.55-1.17,1.18-.55,1.65.76-.55.89-1.45,1.3-2.07a19.26,19.26,0,0,0,2.27-13.91c-.07-.91-1.1-1.6-.62-2.5a2,2,0,0,0,1.17.62c.43-.27,1-.27,1.31-.76.07-.41.34-.91,0-1.24a1.9,1.9,0,0,0-2-.48,3.29,3.29,0,0,0-.83,1.52,14.39,14.39,0,0,0-2.48-3.67l.14-.21c3.1,1,5.91,2.56,9.09,3.39a4.47,4.47,0,0,0,2.4.76,66.17,66.17,0,0,0,8.45,2.15c2.06-.21,3.77.75,5.83.28v-.14l-.05.06c-.77-1-2.42-.06-3.31-.75a52.12,52.12,0,0,1-13.54-3.39c.08-.22.34-.14.56-.14a1.79,1.79,0,0,0,1.09-1.73,1.37,1.37,0,0,0-2.61.41,1.72,1.72,0,0,0,1,1.32c-.15.14-.43.07-.62.07-2.14-1-4.21-1.88-6.27-2.84-.75-.14-1.37-.77-2.12-.91-1.59-.75-3.16-1.52-4.75-2.15-4.4-2.27-9.28-3.52-13.95-5.18l-3-.83c-1.71-.49-3.42-.91-5.14-1.4-5.85-1.44-13.69-1.58-18.77,1.6-.82-.28-1.31,1-1.71.21,1.44-3.81,5.63-5.06,9.41-5.2,27.56-.26,53.41-.47,80.56-.89,3.16,0,6.26-1.1,7.91-3.94a7,7,0,0,0,.47-6.38"/><path class="cls-2" d="M187.8,114.72c0,.21.42.27.28.62-2.4,2.15-5.77,2.78-9.21,2.92a2.13,2.13,0,0,1-.9.2c-.2-.14-.27-.34-.12-.49a10.46,10.46,0,0,1,10-3.25"/><path class="cls-2" d="M176.74,115.82c.27,1-.34,1.53-1.11,1.87a2,2,0,0,1-1.51-1.11c-.2-.55.27-.82.49-1.16a1.3,1.3,0,0,1,2.13.4"/><path class="cls-2" d="M46.08,116a1.41,1.41,0,0,1-.35,1.44,1.39,1.39,0,0,1-1.24.36c-.49-.08-.77-.63-.89-1a1.48,1.48,0,0,1,.89-1.3c.55,0,1.18-.08,1.59.55"/><path class="cls-2" d="M33.77,120.47v.47a5.34,5.34,0,0,1-4.47-1,9.13,9.13,0,0,0-3.64-3.47c0-.2-.41-.48,0-.63,3.44,0,5.5,2.78,8.11,4.65"/><path class="cls-2" d="M198.25,115.89c-1.58,2.37-2.95,5.27-5.77,6.31-.48,0-.89.69-1.31.2a12.83,12.83,0,0,1,6.11-6.58,2.46,2.46,0,0,1,1,.07"/><path class="cls-2" d="M50.06,116.73c.06.76-.48.9-1,1.31-.53.08-.81-.35-1.15-.76-.28-.7.34-1,.68-1.31a1.42,1.42,0,0,1,1.45.76"/><path class="cls-2" d="M206.9,117.14c-.61.9-.33,2.22-1,3.19-1.36,1.59-2.53,3.39-4.73,3.73-.35-.69.49-1.38.82-2,1-2.08,2.34-4.43,4.54-5.33"/><path class="cls-2" d="M12.46,117.77a1.36,1.36,0,0,1,0,1.52,1.57,1.57,0,0,1-1.58.27,1.29,1.29,0,0,1-.55-1.66c.42-.62,1.65-1,2.13-.13"/><path class="cls-2" d="M8.55,118.6c.06.33.27.62.2,1a1.54,1.54,0,0,1-1,.83,1.43,1.43,0,0,1-1.58-.89A1.34,1.34,0,0,1,6.88,118a1.44,1.44,0,0,1,1.67.56"/><path class="cls-2" d="M16.65,119c.15.55.28,1.52-.54,1.66-1,.43-1.52-.28-2.07-.83a1.59,1.59,0,0,1,.83-1.38,1.92,1.92,0,0,1,1.78.55"/><path class="cls-2" d="M27.93,119.91c-.07.48.07,1.19-.48,1.31-.35.35-1,.21-1.31.15-.14-.43-.89-.77-.48-1.25a2.61,2.61,0,0,1,1-.76c.41.21,1,0,1.3.55"/><path class="cls-2" d="M213.52,120.39c-.22.49-.49,1.12-1,1.12s-1.24-.14-1.58-.77.34-1.18.89-1.38c.69,0,1.59.28,1.73,1"/><path class="cls-2" d="M200.94,120.74c.07.55-.56,1-.83,1.18a1.68,1.68,0,0,1-2.14-1,1.76,1.76,0,0,1,1.18-1.24,1.78,1.78,0,0,1,1.79,1.1"/><path class="cls-2" d="M209.46,120.6a1.5,1.5,0,0,1-.62,1.19,1.61,1.61,0,0,1-1.65-.28c-.62-.57-.13-1,.28-1.46.61-.35,1.78-.28,2,.55"/><path class="cls-2" d="M10.67,121.77a1.46,1.46,0,0,1-.82,1.74,1.6,1.6,0,0,1-1.52-1A1.3,1.3,0,0,1,9,121.1a1.56,1.56,0,0,1,1.65.67"/><path class="cls-2" d="M197.49,122.54a1.54,1.54,0,0,1-1,1.81,1.42,1.42,0,0,1-1.3-.49c-.28-.36-.62-1.11-.07-1.46a1.35,1.35,0,0,1,2.33.14"/><path class="cls-2" d="M47.65,123.3c.28.76-.54.91-.75,1.32-.27.14-.82.2-1-.07-.33-.42-.74-.84-.55-1.46.36-.27.49-.55.9-.69.76-.2,1,.49,1.44.9"/><path class="cls-2" d="M212.28,123.78c.14.49-.28.69-.35,1a1.8,1.8,0,0,1-1.58.28c-.62-.34-.62-.89-.62-1.52.41-.27.48-.62,1-.76a1.58,1.58,0,0,1,1.59,1"/><path class="cls-2" d="M208,124c.27.83-.49,1.25-1,1.46-.27.06-.68-.14-.75.28,1.79.89,2.89,2.35,4.26,3.67V130a9.34,9.34,0,0,1-6.81-2.63c-.47-.35-1.31-.35-1.86-.84.9-.89,2.55-.55,3.79-.61.88-1-1-1.66.13-2.5.42-.07.69-.48,1.24-.34a2.31,2.31,0,0,1,1,1"/><path class="cls-2" d="M179.91,124.06c.12.35-.29.77-.35,1.11a1.41,1.41,0,0,1-1.51.29c-.36-.5-.91-.91-.69-1.6a1.43,1.43,0,0,1,2.55.2"/><path class="cls-2" d="M26.21,126.48c-.21.63-.48,1-1.17,1.12a1.38,1.38,0,0,1-1.24-.84c-.08-.48.28-.75.35-1.11.75-.61,2.12-.2,2.06.83"/><path class="cls-2" d="M31.78,125.59c0,1-1,1.52-1.38,2.49-1,2.28-2.89,4.35-5.5,4.57-.27-.63.9-1.39,1.17-2,1.1-2.35,3.3-3.59,5.29-5"/><path class="cls-2" d="M178.24,126.56c.08.76-.61,1.32-1.16,1.59s-1.1-.27-1.45-.55c-.55-.55-.2-1.12.08-1.67.83-.83,2-.14,2.53.63"/><path class="cls-2" d="M182.52,127.05a1.72,1.72,0,0,1-1.25,1.52c-.14-.21-.47-.08-.67-.14a1.52,1.52,0,0,1-.91-1.24c.34-.36.48-.91,1-1s1.64,0,1.86.84"/><path class="cls-2" d="M42.43,127a1.51,1.51,0,0,1-1,1.46,1.37,1.37,0,0,1-1.3-.83c-.13-.63.49-1,.82-1.39.83-.28,1,.35,1.52.76"/><path class="cls-2" d="M47.18,127.25a1.65,1.65,0,0,1-1.32,1.18c-.47-.14-1-.28-1.23-.83s.49-1,1-1.39a1.48,1.48,0,0,1,1.59,1"/><path class="cls-2" d="M197.28,132.1c.35.27,1,.61.83,1.1-1.1.49-2-.75-3-1a14.14,14.14,0,0,1-3.57-5.54c.63-.63,1.32.13,1.87.35a13.4,13.4,0,0,1,3.9,5"/><path class="cls-2" d="M199.84,127.25a1.71,1.71,0,0,1-.14,1.52c-.41.69-1.32.57-1.93.41-.35-.41-1-1-.55-1.58.2-.55.83-.69,1.3-.9s.83.35,1.32.55"/><path class="cls-2" d="M53.5,129.06c.06.55.2,1.38-.49,1.72a1.32,1.32,0,0,1-1.64-.83c-.34-.83.4-1,.82-1.38.55-.14.9.14,1.31.49"/><path class="cls-2" d="M182.31,133.55a10.19,10.19,0,0,1,1.78,4.91c-.21.49.34,1-.08,1.32h-.27c-3.08-2.22-3.78-5.34-4.94-8.45a.56.56,0,0,1-.28-.69c.68-.63,1.17.63,1.86.83"/><path class="cls-2" d="M62.43,131.19a.08.08,0,0,0,.06.14c-2.73,1.95-6.59,3.12-9.75,1.24a.51.51,0,0,1,.34-.61c2-.63,3.92-1.6,6.05-1.32"/><path class="cls-2" d="M46.76,131.54c-2.35,1.46-4.47,4.3-7.35,5-.56.2-.89,1-1.6.55,1.24-3.74,5.31-5.75,8.95-6.09"/><path class="cls-2" d="M178.24,134.66a1.08,1.08,0,0,1-.55,1.45.94.94,0,0,1-1.29,0c-.63-.27-.63-.9-.63-1.39.21-.47.68-.55,1-.75.61.14,1.1.14,1.43.69"/><path class="cls-2" d="M172.55,135a3.9,3.9,0,0,1-2.48,1.79c-2.33.83-4.47-.27-6.53-.84.06-.55.75-.34,1.1-.69,2.27-.48,4.59-1,7-.34a.72.72,0,0,1,.9.08"/><path class="cls-2" d="M46.76,137c-.21.27-.27.9-.82,1.1a1.49,1.49,0,0,1-1.39-.26c-.14-.43-.61-.77-.26-1.26.12-.47.67-.61,1.08-.75A1.46,1.46,0,0,1,46.76,137"/><path class="cls-2" d="M50.81,137.63c-.2.41-.41,1.05-1,1.32a1.47,1.47,0,0,1-1.38-.49,1.64,1.64,0,0,1-.2-1.38c.14-.35.61-.41,1-.63.69-.06,1.29.63,1.57,1.18"/><path class="cls-2" d="M176.94,138.32a1.8,1.8,0,0,1-.48,1.32,1.17,1.17,0,0,1-1.51.28c-.48-.08-.61-.63-.83-1-.41-.55.28-.9.49-1.39a1.49,1.49,0,0,1,2.33.76"/><path class="cls-2" d="M180,138.19c.06.35.28.68.14,1-.42.35-.69,1.24-1.51.91-.41.13-.63-.42-.83-.56a1.32,1.32,0,0,1,.83-1.87c.6-.21,1,.34,1.37.56"/><path class="cls-2" d="M48.34,140.19a1.9,1.9,0,0,1-.69,1.88c-.75.14-1.71.14-2-.77a1.86,1.86,0,0,1,.83-2,1.67,1.67,0,0,1,1.85.9"/><path class="cls-2" d="M52.26,139.92c-.14,1.93-.55,4.29-2.47,5.4-1.12.2-2.2,1.24-3.3.55v-.35c1.44-2.07,4-3.67,5.77-5.6"/><path class="cls-2" d="M166.15,141.51c.28.42-.2.76-.41,1.11-.41.48-1.16.28-1.65.06s-.55-.89-.35-1.38a1.42,1.42,0,0,1,.9-.75c.63-.08,1.16.48,1.51,1"/><path class="cls-2" d="M59.13,144.69c1,1.6.41,3.75,1,5.48-1.18.13-1.66-1.18-2.42-1.87-1.49-2.09-1.3-4.85-2-7.27a.38.38,0,0,1,.5-.15,18,18,0,0,1,2.59,2.92c-.12.48.41.48.35.89"/><path class="cls-2" d="M169.59,142.07c0,.55-.62.69-1,1a2.5,2.5,0,0,1-1.29-.62c-.22-.69.33-.9.68-1.24a1.14,1.14,0,0,1,1.58.83"/><path class="cls-2" d="M177.77,148.22c0,.21-.07.63-.41.49h-.28c-2-1.81-4-3.81-3.71-6.58l.41-.06c1.85,1.58,3.92,3.31,4,6.15"/><path class="cls-2" d="M172.61,146a1.66,1.66,0,0,1-.61,1.32c-.76.2-1.93.13-2.06-.91-.08-.69.68-1,1-1.38a1.41,1.41,0,0,1,1.65,1"/><path class="cls-2" d="M168.08,147.46c-1,2.57-3.58,3.87-5.37,5.82-.33-.21-.19-.76-.13-1a9.57,9.57,0,0,1,5.28-6.23c1.12.14,0,.91.22,1.45"/><path class="cls-2" d="M173.24,149.54c0,.61-.63.9-1,1.25a2,2,0,0,1-1.52-.78c-.07-.67.48-.89.89-1.24a1.46,1.46,0,0,1,1.59.77"/><path class="cls-2" d="M122.18,24.4h-.76c-2,0-.3,2.42.76,2.42,1.34,0,1.43-2.42,0-2.42M116,26.82c2,0,.11-2.42-1-2.42h-2c-2,0-.11,2.42,1,2.42Zm-8.36,0c2,0,.12-2.42-.94-2.42h-2c-2,0-.1,2.42,1,2.42Zm14.42-3a1.71,1.71,0,0,1,0,3.42H101.7a1.71,1.71,0,0,1,0-3.42"/><path class="cls-2" d="M122.22,55.46c0,.89,1.22.29,2.11.29s2.1.6,2.1-.29c0-1.28-1.21-.84-2.1-.84s-2.11-.44-2.11.84M126,57.58c.88,0,1-1.2,1-2.24,0-2.37-1.88,0-2.84-2.23-.69,1.87-2.62.14-2.62,2.15,0,1.4,0,2.32,1.36,2.32Zm-5.75-10.34,3.9,1.5,3.83-1.5L126.51,53l3-.62-1,3.48,1,3.32-2.7-.73L128,64.6l-3.83-1.48-3.9,1.48,1.59-6.18-3.1.87.82-3.46-.82-3.34,3,.48"/><path class="cls-2" d="M111.18,55.67v-.73l-.65-.11.51-.54-.32-.59.67.08.41-.7.39.69.68-.07-.32.59.52.54-.66.11v.73l-.61-.46"/><path class="cls-2" d="M108.16,59.56v-.71l-.65-.13.51-.54-.32-.59.67.08.41-.7.39.69.68-.07-.32.59.51.54-.65.13v.71l-.61-.46"/><path class="cls-2" d="M113.29,59.08v-.73l-.65-.13.5-.54-.31-.57.67.07.41-.71.39.69.68,0-.31.57.5.54-.65.13v.73l-.61-.46"/><path class="cls-2" d="M113.89,62v-.41l-.37-.07.3-.3-.18-.33.37,0,.23-.4.23.38.38,0-.18.33.29.3-.38.07V62l-.34-.25"/><path class="cls-2" d="M109.13,65.31V64.05l-1.12-.2.88-.92-.54-1,1.13.12.7-1.22.68,1.19,1.17-.09-.54,1,.87.92-1.12.2v1.26l-1.06-.8"/><path class="cls-2" d="M111.55,0,114,6l6.13-1.81L117,9.76l5.23,3.71-6.3,1L116.3,21l-4.75-4.3L106.8,21l.39-6.43-6.3-1,5.22-3.71L103,4.15,109.13,6"/><path class="cls-2" d="M89.38,133.51c-.73.27-1,.47-.83,1.23l.87,3.64a3.35,3.35,0,0,1-.25,2.4,4.45,4.45,0,0,1-2.49,1.48,5.12,5.12,0,0,1-3-.06,2.17,2.17,0,0,1-1.42-1.85l-.92-3.81c-.21-1-.57-.91-1.35-.79l-.07-.28,4.61-1.12.08.3c-.9.25-1.32.36-1.08,1.37l.9,3.82c.15.64.52,2.23,2.49,1.75a2.2,2.2,0,0,0,1.83-3.05L88,135c-.16-.7-.43-1-1.6-.82l-.07-.28,3-.71"/><path class="cls-2" d="M96.21,134.28a2.93,2.93,0,0,0-3.15-1.53c-.71.16-1.39.67-1.23,1.41s.45.82,1.71,1.05l2.2.38a2.44,2.44,0,0,1,2,1.78c.21,1-.35,2.6-2.86,3.16a12.85,12.85,0,0,1-2.43.13c-.29.06-.32.3-.33.49l-.4.09-.61-2.84.38-.09a3,3,0,0,0,3.37,1.83c1.64-.36,1.44-1.51,1.42-1.67-.17-.77-.88-.91-1.84-1.06l-1-.15c-2.56-.43-2.77-1.42-2.88-1.95-.17-.7-.09-2.35,2.52-2.93a12,12,0,0,1,2.21-.1c.32-.08.35-.26.37-.49l.41-.1.55,2.5"/><path class="cls-2" d="M105.28,138.81l-5,.48,0-.29c1-.18,1.35-.23,1.25-1.22l-.59-6.17c-1,.15-2.4.34-2.51,2.24l-.41,0-.17-2.37,8.38-.79.25,2.34-.41,0c-.46-1.84-1.9-1.76-2.86-1.71l.59,6.16c.08,1,.42,1,1.47.95"/><path class="cls-2" d="M110.86,134.63c1.84,0,2.56-.23,2.61-1.75a1.5,1.5,0,0,0-1.66-1.74c-.78,0-.81.13-.89.49Zm6.08,4.18-2.88-.06L111.24,135h-.38l0,2.31c0,.94.27,1,1.21,1.1l0,.3-4.73-.11v-.29c1-.08,1.24-.1,1.26-1l.09-5.21c0-1-.4-1.05-1.2-1.11v-.28l4.52.07c1,0,4,.18,3.9,2.15,0,1.46-1.47,1.8-2.23,2l2.76,3.4a.66.66,0,0,0,.57.23"/><path class="cls-2" d="M122.24,136.69l-1.07-3-1.65,2.67Zm3.9,3.29-4.52-.56,0-.28c.87,0,1.13.06,1.18-.32a6.33,6.33,0,0,0-.45-1.64l-3.14-.4a7.23,7.23,0,0,0-.79,1.44c0,.44.6.56,1.08.65l0,.28-2.82-.34,0-.3c.76,0,1-.37,1.52-1.19l3.88-6,.4.05,2.34,6.52c.47,1.33.65,1.76,1.32,1.81"/><path class="cls-2" d="M134.3,141.65l-8-1.46.06-.3c.78.07,1.2.11,1.33-.6l1-5.6c.14-.76-.41-.89-1-1l.06-.29,4.81.88-.06.29c-1-.14-1.4-.2-1.58.81l-1,5.46c-.09.57.19.71,1.11.89a3.44,3.44,0,0,0,3.9-1.63l.4.07"/><path class="cls-2" d="M139.59,142.84l-4.8-1,.06-.3c.74.12,1.28.17,1.44-.54l1.15-5.58c.16-.76-.49-.92-1.1-1.08l.06-.28,4.8,1-.06.28c-.64-.12-1.31-.23-1.48.54l-1.15,5.57c-.15.75.4.89,1.14,1.09"/><path class="cls-2" d="M145.37,140.88l-1.13-3-1.6,2.72Zm4,3.21-4.52-.47,0-.3c.87,0,1.12.05,1.16-.34a5.84,5.84,0,0,0-.49-1.63l-3.13-.32a7.78,7.78,0,0,0-.78,1.45c0,.45.63.55,1.1.61l0,.3-2.82-.3,0-.28c.77,0,1-.4,1.5-1.23l3.76-6.09.4,0L148,142c.5,1.32.69,1.74,1.35,1.8"/><path class="cls-2" d="M111,49.68c-.82,0-1.94.58-1.94-.4,0-1.39.94-1.08,1.77-1.08s2.1-.31,2.1,1.08c0,1-1.11.4-1.93.4m2.46-.53c0-2.83-1.59-.18-2.47-2.59-.64,2-2.55.32-2.55,2.51a1.73,1.73,0,0,0,.62,1.59v.83a.39.39,0,0,0,.38.4h3a.4.4,0,0,0,.39-.4v-.91a1.83,1.83,0,0,0,.62-1.43"/><path class="cls-2" d="M138.09,83.82a1.14,1.14,0,1,0,0-2.27,1.15,1.15,0,1,0,0,2.27"/><path class="cls-2" d="M132,42a7,7,0,0,0-.63,1.21.66.66,0,0,0,.63.67.63.63,0,0,0,.61-.67S132,42,132,42"/><path class="cls-2" d="M90.48,42a7.07,7.07,0,0,0-.62,1.21.65.65,0,0,0,.63.67.63.63,0,0,0,.6-.67S90.48,42,90.48,42"/><path class="cls-2" d="M100.85,42a7.11,7.11,0,0,0-.61,1.21.64.64,0,0,0,.63.67.63.63,0,0,0,.6-.67s-.62-1.21-.62-1.21"/><path class="cls-2" d="M111.23,42a7.11,7.11,0,0,0-.61,1.21.62.62,0,1,0,1.24,0s-.63-1.21-.63-1.21"/><path class="cls-2" d="M121.61,42a7.07,7.07,0,0,0-.62,1.21.65.65,0,0,0,.63.67.63.63,0,0,0,.6-.67s-.61-1.21-.61-1.21"/><path class="cls-2" d="M90.5,56.21a6.73,6.73,0,0,1,.6,1.23.63.63,0,0,1-.62.66.65.65,0,0,1-.62-.66s.64-1.23.64-1.23"/><path class="cls-2" d="M90.5,70.06a6.93,6.93,0,0,1,.6,1.22.64.64,0,0,1-.62.67.66.66,0,0,1-.62-.67s.64-1.22.64-1.22"/><path class="cls-2" d="M92.15,81a6.84,6.84,0,0,1,.62,1.22.62.62,0,1,1-1.24,0s.62-1.22.62-1.22"/><path class="cls-2" d="M100.85,86.84a7,7,0,0,1,.62,1.23.62.62,0,1,1-1.23,0s.61-1.23.61-1.23"/><path class="cls-2" d="M132.52,56.21a6.68,6.68,0,0,0-.61,1.23.62.62,0,1,0,1.24,0s-.63-1.23-.63-1.23"/><path class="cls-2" d="M132.52,70.06a6.88,6.88,0,0,0-.61,1.22.62.62,0,1,0,1.24,0s-.63-1.22-.63-1.22"/><path class="cls-2" d="M130.86,81a6.88,6.88,0,0,0-.61,1.22.62.62,0,1,0,1.24,0s-.63-1.22-.63-1.22"/><path class="cls-2" d="M122.15,86.84a7,7,0,0,0-.62,1.23.62.62,0,1,0,1.24,0s-.62-1.23-.62-1.23"/><path class="cls-2" d="M111.55,93a7.25,7.25,0,0,0-.61,1.22.62.62,0,1,0,1.24,0s-.63-1.22-.63-1.22"/><path class="cls-2" d="M128.44,72.37c.13.19.46.26.87.12l.4-1.12c0-.07-.45-.52-.74-.44-1.1.25-2.28.39-3,1.44a2.23,2.23,0,0,0,1,1.72c.39-.14.46.25.72.46a.46.46,0,0,1-.46.59c-.78-.8-2.15.25-2.74-.73.26-1,.79-2.1-.06-3,.06-.21.39-.4.2-.59-.33-.94-1.32-.21-1.91-.21a2.53,2.53,0,0,0-2.35,1.18,1.94,1.94,0,0,0,.52,1c.27-.07.4,0,.47.25l-.66.4a1.53,1.53,0,0,1,.26.73c-.45.19-.91-.46-1.11-.79,0-.53.07-1.45-.64-1.59a2.78,2.78,0,0,0-.58.19,2,2,0,0,0-.27,1.09,4.44,4.44,0,0,0,.26,1.18,11.32,11.32,0,0,1,2.47,2.41c-.58,1.18-.58,2.83-2,3.49a1.08,1.08,0,0,0-.39,1l.32.27c.85-.46,2.48-.59,2.35-2a5.28,5.28,0,0,1,1.24-1.72,1.4,1.4,0,0,1,1.51.73,2.59,2.59,0,0,1-1.78,2c-.13.13-.06.32-.06.53.27.46,1,.25,1.38.2,1.11-.73,1.57-2,2.55-2.44.12.65-1.31.86-.4,1.51.59-.13,1.37.06,1.77-.72-.47-1.12,1.56-1.65.33-2.63,0-1,1-1.39,1-2.43-.4-1-1.64-1-2-2a1.42,1.42,0,0,1,1.37,0"/><path class="cls-2" d="M80.75,84.34a1.15,1.15,0,1,0,0-2.28,1.15,1.15,0,1,0,0,2.28"/><path class="cls-2" d="M13.44,123.67a1.23,1.23,0,1,0-1.28-1.23,1.26,1.26,0,0,0,1.28,1.23"/><path class="cls-2" d="M56.1,133.09s.07,0,.07,0,0-.07-.05-.07,0,0,0,0Zm.18.12h-.09l-.08-.1h0v.07s0,0,0,0H56s0,0,0,0V133s0,0,0,0h.13s.12,0,.12.07,0,0-.05,0l.07.1h0"/><path class="cls-2" d="M56.45,133.05s0-.07-.07-.07a0,0,0,0,0-.05,0s0,0,.05,0l0,0a.06.06,0,0,1,0,.06s0,.06-.1.06H56.3a0,0,0,0,0,0,0h0v-.07h0a.11.11,0,0,0,.09.06s0,0,0,0,0,0,0,0h0c-.09,0-.09-.05-.09-.06s0-.08.1-.08h.09v.08"/><path class="cls-2" d="M56.89,133s0,0,0,0l-.08.2h0l-.06-.15-.08.15h0l-.09-.2a0,0,0,0,0,0,0h.12s0,0,0,0h0l0,.13h0l0-.11v0l0,0h.12s0,0,0,0,0,0,0,0l0,.12.05-.13h0s0,0,0,0h.08"/><path class="cls-2" d="M57,133.11s0,0,0,0v0c0-.06,0-.09,0-.09s0,0,0,.05,0,.08,0,.08m-.09.09a.09.09,0,0,0,.1-.09h0a.06.06,0,0,1-.07-.07A.08.08,0,0,1,57,133a.09.09,0,0,1,.09.1c0,.07,0,.13-.17.14"/><path class="cls-2" d="M57.13,133.05s.07,0,.09,0,0,0,0,.07,0,.07-.11.07-.07,0-.07,0a0,0,0,0,1,0,0s.06,0,.09,0,0,0,0,0,0,0-.06,0h-.09l.06-.12h.11v0h-.1"/><path class="cls-2" d="M134.1,77.41c-.26,2.78-1.21,5.08-3.11,6.39L112.92,95.29h-.1a2.26,2.26,0,0,1-1.38.48,2.23,2.23,0,0,1-1.41-.51L92,83.8c-1.93-1.31-2.87-3.61-3.11-6.39V41.61H134.1Zm1.34-37.09v0H87.53v0h0l0,36.61c0,3.73,1.59,7,3.78,8l18.42,11.71a2.22,2.22,0,0,0,1.68.76,2.13,2.13,0,0,0,1.48-.59l18.72-11.88c2.19-1,3.76-4.26,3.76-8l0-36.61"/><path class="cls-2" d="M117.94,93.68l.57-.29a2.32,2.32,0,0,0-.57.29"/><path class="cls-2" d="M77.25,141.44l-1.74-2.67-1,3Zm4.55,2.28-4.51.51,0-.29c.86-.16,1.1-.2,1.06-.58a6.11,6.11,0,0,0-.82-1.48l-3.13.37a5.55,5.55,0,0,0-.44,1.57c0,.44.72.4,1.19.37l0,.3-2.83.32,0-.29c.74-.19.89-.6,1.2-1.52l2.37-6.77.38,0L80.06,142c.78,1.19,1,1.56,1.72,1.45"/><path class="cls-2" d="M159.34,129.18a3.9,3.9,0,0,1-3,2.36c.07-1.67,1.58-2.83,1-4.71a4.1,4.1,0,0,0-4.32-1.38c-.63.42-.35,1.11-.55,1.74l-.28,2.27c-1.37,0-1.45-1.24-1.87-2.21a4.06,4.06,0,0,1,2.15-3.61,4.78,4.78,0,0,1,4,.14,3.18,3.18,0,0,1,2.28,1.46c1,1,.75,2.7.53,3.94m-5.55.69c.74-.75-.22-5.11,1.92-2.27,0,.55.06,1.38-.49,1.8-.34.27-.89.82-1.43.47m.74,1.74c.08,1.1-1,.82-1.51,1.25h-1.65a3.81,3.81,0,0,1-.2-1.94,14,14,0,0,1,3.36.69m1.93,8.45c-.55.69-.07,1.79-.75,2.42,0,1.25-1,1.87-1.92,2.35-8.19,1.81-16.24-1-24.13-2.35-11.07-2.42-24-3.11-35.27-.55-5.29,1-10.45,2.21-15.53,3.67-3.16.41-6.6.9-9.62-.08-2.47-1.17-1.45-4.36-2.2-6.57.14-1.73-.49-3.11-.55-4.78a3.88,3.88,0,0,1-.27-1.8,32.54,32.54,0,0,1,3.15,1.18c5.78,1.11,10.94-.76,16.3-1.73a117.23,117.23,0,0,1,15.86-2.42c6.2-.08,12.52-.42,18.43.61,1.93.08,3.58.56,5.44.7,3.85.48,7.41,1.53,11.33,1.8.62.2,1.39.2,2.06.35,6.2,1,13.13,2.7,19,0,0,2.49-1,4.77-1.37,7.2m-34.91,5.05c.34,1,1,1.87.6,3-.68,1.3-2.05,1.3-3.29,1.59a2.23,2.23,0,0,1-1.59-.49.67.67,0,0,0-.27-.69c.21-.9-1.57-1.81-.34-2.56,1.1-1,3.71-3.39,4.89-.9m1.51.27c.81.22.89,1.12,1,1.81a4.07,4.07,0,0,1-5,3.67,4.41,4.41,0,0,0,4.12-2.36Zm1.79,9.22a.25.25,0,0,0-.14.26c-2,.08-3.31-1.1-4.82-2.13l-.07-.35c1.87.14,3.38,1.32,5,2.22M122.3,161a.35.35,0,0,1-.55.08c-2.06-2.63-3-5.4-4.34-8.3l.28-.07c1.64,2.7,3,5.67,4.61,8.29m-3.44-1.65-.35.13c-.33-.27-.2-1-.13-1.44.41.34.76.83.48,1.31m-1.92-4.15c.06.69.75,1,.33,1.59a2.14,2.14,0,0,1-.33-1.59m-.41-4.57h.13v.21h-.13Zm-4,10.18c-1.31.07-3.3.82-4.53-.28.06-.56-.57-.83-.49-1.38,1.1-.42,2.06.89,3.1-.08a29.85,29.85,0,0,1,4.81.14c.75.21,1.92-1.24,2.06.21-.55,2.29-3.3.69-4.95,1.39m-3-8.24.36-.56a29.66,29.66,0,0,1-2.27,5c-.41-1.66,1.3-3,1.91-4.43m1.94-1.32c.89-1,1.71.55,2.06,1.32,1,1.52,3.71,2.91,2.68,5-1.31,1.18-3.37.08-4.81,1-.75-.07-2.06.14-2.48-.62a40.55,40.55,0,0,1,2.55-6.65m-.21-2.63H111l.41-.41c.21.13-.06.27-.14.41m1.58.14c.28-.42.61-1,1.1-1a.33.33,0,0,0,.14.21,3.65,3.65,0,0,1-1.24.83m1,1a.47.47,0,0,1,.61,0Zm1.84,2.15c-.06.14.08.34-.13.48l-1.58-1.25a1.66,1.66,0,0,1,1.71.77m-.13-4h-.07v-.21h.07Zm2.89-4.51c-.83.28-1.44,1.26-2.26,1.46a2.78,2.78,0,0,1,2.26-1.46m-3.44-.89c-.15-.63.62-.14.9-.41l2.12.14c-1.1-.14-2.47,2.42-3,.27m-5,1.93a7.73,7.73,0,0,1,1-2.56,4,4,0,0,1,1.85.28c.14,1.38,1.86,3.25,0,4.43-.62.28-1.5.91-2.19.28a1.93,1.93,0,0,1-.69-2.43m-1,4.3c-.06-.28.14-.62.21-1,.34-.35.69.28.83.48a1,1,0,0,1-1,.49m-.06-3.19h-.07v-.75h.07Zm-.82-2.07c-.91-.2-1.38-1.24-2.34-1.24a5.35,5.35,0,0,1,2.59-.08c.36.49-.19.9-.25,1.32m-.77,5.6a11,11,0,0,1,1.1-2.9,6,6,0,0,1-1.1,2.9m-1.5,0a16.27,16.27,0,0,1-3.3-.83c-.69-.69,0-1.46,0-2.21,1-1.52,3.7-2.28,5-.9a7.23,7.23,0,0,1-1.7,3.94m.62,1.87v.28h-.16v-.34h.28a.51.51,0,0,0-.28.06Zm-1.73,4a49.6,49.6,0,0,1-3.37,6.5c-.14.35-.69.42-1.1.49,0-1,1-1.73,1.37-2.56,1.45-1.87,1.87-3.87,3.51-5.67.42.41-.41.69-.41,1.24m-6.53-.69c1.65-.69,3.37-2.15,5.22-1.52a9.56,9.56,0,0,1-5.22,1.52m2.47-4.79a7.51,7.51,0,0,1,2.2-6.21,4,4,0,0,1,3,.12c-1.79.49-4.07.91-4.48,3.19.08.91-.2,1.39.21,2.15.75,1.32,2.48.75,3.44,1.8a.89.89,0,0,1-.63.83c-1.16-.7-2.61-1-3.71-1.88M68.34,127.25c.21-.55,0-1.38.76-1.52.48-.14,1.24-.14,1.3.41a12.82,12.82,0,0,1-.34,2.43,1.6,1.6,0,0,1-1.72-1.32m.21,2.33c1,.75,2.47.41,3.71.63a2.6,2.6,0,0,1-.35,2.34c-1.16-.28-2.67-.14-3.3-1.24.14-.49-.19-1.18-.06-1.73m-3.23-2A5,5,0,0,1,67,124.13a5.8,5.8,0,0,1,5.43.22,2.61,2.61,0,0,1,1.1,1.3,3.11,3.11,0,0,1-1,3.12h-.68a7.7,7.7,0,0,1,.41-3.12c-.06-.83-.76-.89-1.3-1.24a4,4,0,0,0-3.1.69,3.13,3.13,0,0,0-.89,3.05c.48.76.07,1.8.34,2.63l-.2.28c-.82-.9-1.94-1.88-1.72-3.46M129.81,157a30.63,30.63,0,0,0,7.33,1.72c-.21.95-1.89.07-1.69,1.39-2.13-.84-4.6-1.25-6.19-2.91.13-.06.27-.28.55-.2m-42.9,1.1-1-.9c.48-.63,1.51-.28,2.26-.7,1.79-.55,3.86-1.24,5.85-.83-2.06,1.67-4.74,1.88-7.14,2.43m74.22-31.57a7.18,7.18,0,0,0-4.67-4.29,6,6,0,0,0-6,1.51c-2.48,2-.77,5.34-.69,8,0,.55.06,1-.49,1.24-10-.9-19.24-3.39-29.15-4.43-2.27-.39-4.55-.29-6.71-.74l-2.77-.29c-8.6.28-17.18.75-25.22,2.84-1.71.55-3.64.69-5.36,1.3-1.24-.2-2.26.69-3.44.36l-2.27.53a1.84,1.84,0,0,1-.75-.06c-1.1-2.84,2.2-4.56,1.16-7.33-.89-1.6-2.67-3.11-4.74-2.84a5.73,5.73,0,0,0-5.49,2.84c-1.59,3.47.41,7.07,1,10.46-.14,1.1,1.1,2.35,0,3.25a9.36,9.36,0,0,0-7.77-1.59c-.82.41-2.33-.14-2.73.83,2.95,1.59,6.73,1.38,10,1.24a1,1,0,0,1,1,.07c.28,1.8-.34,4.23.76,5.82s3.3,2.07,5.29,2.29c6.32-.22,12-2.09,17.74-3.55.89-.06,1.57-.55,2.54-.55a49.57,49.57,0,0,1,9.75-1.3,17.09,17.09,0,0,0-2.87,6.22c-.84,1.88,1.44,2.15,2.12,3.18-2.12.63-3.65,2.09-5.63,2.92-4.4-.14-8.11,1.52-12.23,2-.08.91,1.44.62,1.57,1.52-.2.63-.83.7-1.3,1-.07.41,0,.47.4.55.43-.49,1.32-.14,1.73-.63,1.37,0,2.54-.41,3.84-.48,1.18-.49,2.48-.55,3.51-1.39,1.44-.41,2.34-1.38,3.78-1.79,2.06,0,3.92-.7,5.84-.83v.41c-1.57,2.56-3.23,5.2-4.88,7.61a.76.76,0,0,0,.49,1.1,3.5,3.5,0,0,0,2.67-.41c1.45-2.48,2.74-4.84,3.92-7.4.49-2.36,2.2-3.6,3.92-5.2.28-.13.69-.55,1-.13a30.76,30.76,0,0,0-3.3,4.85c-.57,1.93-.69,4.42,1,6,.82.69,2.06.48,3.16.55,2.68-1.39,6.12.83,8.18-1.79,1.23-.22,1.43,1.24,2.12,1.93,1.17.34,2.41,1.52,3.59.69-.08-.76-.9-1.46-1.31-2.14-.83-1.46-1.85-2.63-2.62-4a13.44,13.44,0,0,1-1.1-2.56c1.24.42,2.33,1.25,3.72,1.46,1.17.48,2.61.41,3.71,1.1a12.65,12.65,0,0,0,3.44,2.63c1.71.84,3.64,1,5.42,1.65.7.08,1.72.63,2.21,0a3.05,3.05,0,0,0-1-.75c-.2-.9,1.24-.42,1.72-1.1a1,1,0,0,0-.8-.54c-1-.51-3.42-.7-4.08-1.06a15.5,15.5,0,0,1-2.4-.76c-4.12,0-6.4-3.74-9.7-5.13.75-.69,1.93-1.24,2.42-2.27a3.87,3.87,0,0,0,.19-3.68c-.62-2.15-3.37-1.86-4.94-3l.2-.22a29.82,29.82,0,0,1,7.43,1c6.6.91,12.71,3.39,19.59,3.53,3.77,0,8.52.21,10.37-3.45.35-2.15.76-4.3,1.1-6.44.84-3.46,3.1-6.65,2.75-10.45"/><path class="cls-3" d="M282.44,58.81l-4.52-10.43-4.65,10.43Zm.75,1.65h-10.7l-1.28,3a6.55,6.55,0,0,0-.61,2.43,2,2,0,0,0,1,1.87,8.68,8.68,0,0,0,3,.54v.83H264.52v-.83a4.54,4.54,0,0,0,2.68-1.33,18.71,18.71,0,0,0,2.59-4.59l10.84-24.17H281L292,63a14.91,14.91,0,0,0,2.57,4.44,3.44,3.44,0,0,0,2.15.81v.83H282v-.83h.6a4.51,4.51,0,0,0,2.47-.49,1.2,1.2,0,0,0,.5-1,2.84,2.84,0,0,0-.14-.84,15.71,15.71,0,0,0-.67-1.67"/><g class="cls-4"><path class="cls-2" d="M315.26,48.21V64.56a6.21,6.21,0,0,0,.43,3,2.58,2.58,0,0,0,1.82.74v.81H309V66.3a11.06,11.06,0,0,1-3,2.61,7,7,0,0,1-3.36.8,5.05,5.05,0,0,1-3.16-1.07,5.32,5.32,0,0,1-1.81-2.55A18.34,18.34,0,0,1,297.2,61V52.73a5.86,5.86,0,0,0-.45-2.95A2.61,2.61,0,0,0,295,49v-.81h8.51V62.47a12.06,12.06,0,0,0,.2,2.88,2,2,0,0,0,.67,1,1.88,1.88,0,0,0,1.07.33,2.57,2.57,0,0,0,1.45-.42A9.19,9.19,0,0,0,309,63.91V52.73a5.86,5.86,0,0,0-.45-2.95,2.65,2.65,0,0,0-1.82-.76v-.81"/></g><g class="cls-5"><path class="cls-2" d="M332.12,47.62l.35,7.12h-.77a11.22,11.22,0,0,0-2.84-4.33A4.64,4.64,0,0,0,326,49.25a2.23,2.23,0,0,0-1.58.62,1.9,1.9,0,0,0-.64,1.42,1.75,1.75,0,0,0,.45,1.15,21.58,21.58,0,0,0,4,3.16,16,16,0,0,1,4.31,3.76,6,6,0,0,1,1.05,3.47,7.24,7.24,0,0,1-.87,3.42,6.08,6.08,0,0,1-2.45,2.57,7.07,7.07,0,0,1-3.51.89,12.32,12.32,0,0,1-4-.94,3.29,3.29,0,0,0-.91-.25c-.5,0-.91.38-1.23,1.13h-.74l-.36-7.51h.77A9.77,9.77,0,0,0,323,66.57,5.44,5.44,0,0,0,326.31,68a2.35,2.35,0,0,0,1.74-.65,2.21,2.21,0,0,0,.71-1.62,2.7,2.7,0,0,0-.68-1.84,17,17,0,0,0-3-2.37,23.4,23.4,0,0,1-4.41-3.62,6.27,6.27,0,0,1-1.47-4,6.5,6.5,0,0,1,1.64-4.36,6,6,0,0,1,4.82-2,7,7,0,0,1,3.29.82,2.11,2.11,0,0,0,1,.34,1.16,1.16,0,0,0,.64-.16,4.76,4.76,0,0,0,.8-1"/></g><path class="cls-2" d="M343.19,40.57v7.64h4.95v2.2h-4.95V63.3a10.5,10.5,0,0,0,.15,2.35,1.87,1.87,0,0,0,.59.84,1.35,1.35,0,0,0,.79.32c1,0,1.89-.74,2.76-2.21l.66.48c-1.2,2.86-3.16,4.3-5.87,4.3a5.32,5.32,0,0,1-3.38-1.1,4.84,4.84,0,0,1-1.74-2.48,21.9,21.9,0,0,1-.22-4.11V50.41h-2.72v-.78A28.71,28.71,0,0,0,339,45.45a24.38,24.38,0,0,0,3.45-4.88"/><path class="cls-2" d="M358.34,48.21v4.73A14.9,14.9,0,0,1,362,48.65a5.34,5.34,0,0,1,3-1.07,2.58,2.58,0,0,1,2,.78,2.9,2.9,0,0,1,.76,2.16,3.34,3.34,0,0,1-.74,2.33,2.2,2.2,0,0,1-1.74.82,3,3,0,0,1-2.05-.76,9.55,9.55,0,0,0-1-.84,1,1,0,0,0-.51-.14,1.87,1.87,0,0,0-1.23.5,4.45,4.45,0,0,0-1.38,2.16,15.1,15.1,0,0,0-.72,4.79v4.79l0,1.25a4.66,4.66,0,0,0,.16,1.63,1.92,1.92,0,0,0,.78.9,5.06,5.06,0,0,0,1.79.33v.81H349.8v-.81a2.47,2.47,0,0,0,1.83-.74c.34-.44.5-1.55.5-3.37V52.62a8.63,8.63,0,0,0-.18-2.28,1.71,1.71,0,0,0-.65-.91,3.4,3.4,0,0,0-1.5-.41v-.81"/><path class="cls-3" d="M379.22,64.37v-7a13.25,13.25,0,0,0-4,3.39,4.18,4.18,0,0,0-.87,2.44,2.64,2.64,0,0,0,.74,1.81,2,2,0,0,0,1.56.6,4.26,4.26,0,0,0,2.6-1.25m0,1.63c-2.56,2.26-4.85,3.37-6.87,3.37a4,4,0,0,1-4.15-4.11A5.67,5.67,0,0,1,370.26,61c1.37-1.28,4.35-3,9-5.1v-2.1a9,9,0,0,0-.28-3,2.18,2.18,0,0,0-.95-1.08,2.81,2.81,0,0,0-1.61-.47,4,4,0,0,0-2.39.65,1.11,1.11,0,0,0-.58.93A1.94,1.94,0,0,0,374,52a2.86,2.86,0,0,1,.84,1.85,2.5,2.5,0,0,1-.83,1.88,3,3,0,0,1-2.12.76,3.41,3.41,0,0,1-2.36-.85,2.62,2.62,0,0,1-.94-2,4.6,4.6,0,0,1,1.26-3.06,8,8,0,0,1,3.56-2.25,14.27,14.27,0,0,1,4.73-.78,7.84,7.84,0,0,1,4.7,1.26,5.86,5.86,0,0,1,2.25,2.73,17.71,17.71,0,0,1,.31,4.31V64a7.29,7.29,0,0,0,.13,1.81,1.07,1.07,0,0,0,.32.54.88.88,0,0,0,.52.18c.39,0,.78-.27,1.19-.82l.67.52a8.6,8.6,0,0,1-2.33,2.42,5,5,0,0,1-2.7.73,4.26,4.26,0,0,1-2.79-.82A3.8,3.8,0,0,1,379.22,66"/><path class="cls-2" d="M397.36,38.8v26a5,5,0,0,0,.52,2.84,2.84,2.84,0,0,0,2,.69v.81H388.61v-.81a2.69,2.69,0,0,0,2.05-.8,4.91,4.91,0,0,0,.45-2.73V43.13a4.9,4.9,0,0,0-.51-2.79,2.74,2.74,0,0,0-2-.72V38.8"/><path class="cls-3" d="M410.06,48.21V64.75a5,5,0,0,0,.51,2.84,2.84,2.84,0,0,0,2,.69v.81H401.29v-.81a2.79,2.79,0,0,0,2.06-.8,5,5,0,0,0,.45-2.73V52.56a5,5,0,0,0-.51-2.82,2.79,2.79,0,0,0-2-.72v-.81Zm-3.14-10.13a3.48,3.48,0,0,1,3.47,3.46,3.39,3.39,0,0,1-1,2.44,3.45,3.45,0,1,1-4.88-4.87,3.27,3.27,0,0,1,2.43-1"/><path class="cls-3" d="M424.77,64.37v-7a13.25,13.25,0,0,0-4,3.39,4.25,4.25,0,0,0-.87,2.44,2.59,2.59,0,0,0,.74,1.81,2,2,0,0,0,1.57.6,4.31,4.31,0,0,0,2.59-1.25m0,1.63c-2.56,2.26-4.83,3.37-6.86,3.37a4,4,0,0,1-4.15-4.11,5.68,5.68,0,0,1,2-4.28c1.37-1.28,4.37-3,9-5.1v-2.1a9.8,9.8,0,0,0-.27-3,2.25,2.25,0,0,0-1-1.08,2.84,2.84,0,0,0-1.61-.47,4.06,4.06,0,0,0-2.39.65,1.17,1.17,0,0,0-.59.93,2,2,0,0,0,.64,1.17,2.87,2.87,0,0,1,.85,1.85,2.51,2.51,0,0,1-.84,1.88,3,3,0,0,1-2.12.76,3.41,3.41,0,0,1-2.37-.85,2.61,2.61,0,0,1-.93-2,4.6,4.6,0,0,1,1.26-3.06A8,8,0,0,1,419,48.36a14.24,14.24,0,0,1,4.74-.78,7.74,7.74,0,0,1,4.68,1.26,6,6,0,0,1,2.26,2.73,17.71,17.71,0,0,1,.31,4.31V64a8.07,8.07,0,0,0,.12,1.81,1.08,1.08,0,0,0,.33.54.85.85,0,0,0,.51.18c.4,0,.79-.27,1.19-.82l.68.52a8.47,8.47,0,0,1-2.33,2.42,5,5,0,0,1-2.71.73,4.26,4.26,0,0,1-2.79-.82A3.79,3.79,0,0,1,424.77,66"/><path class="cls-2" d="M442.81,48.21v2.7a12,12,0,0,1,3.08-2.53,6.58,6.58,0,0,1,3.18-.8,5,5,0,0,1,3.37,1.14,5.35,5.35,0,0,1,1.79,2.79,21.36,21.36,0,0,1,.36,4.88v8.14a6.46,6.46,0,0,0,.42,3,2.55,2.55,0,0,0,1.83.74v.81H446.28v-.81a2.18,2.18,0,0,0,1.69-1,6.66,6.66,0,0,0,.37-2.77v-9.3a13.83,13.83,0,0,0-.22-3.24,1.74,1.74,0,0,0-.69-1,1.58,1.58,0,0,0-1.05-.38q-1.92,0-3.57,2.75V64.53a6.41,6.41,0,0,0,.43,3,2.25,2.25,0,0,0,1.63.78v.81H434.31v-.81a2.59,2.59,0,0,0,1.86-.84,6.18,6.18,0,0,0,.39-2.91V52.73a6,6,0,0,0-.45-2.95,2.61,2.61,0,0,0-1.8-.76v-.81"/><g class="cls-6"><path class="cls-2" d="M498,38.11V48.78h-.83a13.64,13.64,0,0,0-4.49-6.65,10.55,10.55,0,0,0-6.56-2.28,8.43,8.43,0,0,0-5.65,1.92,10.32,10.32,0,0,0-3.19,5.31,26.61,26.61,0,0,0-.93,7,25.88,25.88,0,0,0,1,7.65,8.74,8.74,0,0,0,3.31,4.81,9.51,9.51,0,0,0,5.45,1.55,11.56,11.56,0,0,0,2.24-.22,15.71,15.71,0,0,0,2.37-.7V60.89a6.2,6.2,0,0,0-.26-2.31,2.22,2.22,0,0,0-1-1,3.75,3.75,0,0,0-1.85-.42h-.77v-.83h14.71v.83a6.38,6.38,0,0,0-2.34.47,2.28,2.28,0,0,0-1,1.14,6.58,6.58,0,0,0-.19,2.08v6.29a29.24,29.24,0,0,1-6.07,1.95,31.28,31.28,0,0,1-6.5.67,19.16,19.16,0,0,1-7.16-1.16,18.5,18.5,0,0,1-5-3.08,14.5,14.5,0,0,1-3.4-4.32,15.07,15.07,0,0,1-1.55-6.89,15.58,15.58,0,0,1,4.8-11.56,16.57,16.57,0,0,1,12.07-4.71,20.78,20.78,0,0,1,4.06.36,19.43,19.43,0,0,1,3.19,1,13.61,13.61,0,0,0,2.61.83,1.82,1.82,0,0,0,1.16-.45,4.39,4.39,0,0,0,1-1.74"/></g><g class="cls-7"><path class="cls-3" d="M512.56,49.16a2.64,2.64,0,0,0-2,.87,6.13,6.13,0,0,0-1.07,3.4c-.17,1.68-.26,4-.26,7a31.22,31.22,0,0,0,.32,4.47,4.22,4.22,0,0,0,1.07,2.4,2.39,2.39,0,0,0,1.83.84,2.46,2.46,0,0,0,1.67-.57,3.66,3.66,0,0,0,1.15-2.11,50.07,50.07,0,0,0,.45-8.57,21.34,21.34,0,0,0-.42-5.21,4,4,0,0,0-1.25-2.08,2.39,2.39,0,0,0-1.53-.47m-.07-1.58A9.57,9.57,0,0,1,517.55,49a8.85,8.85,0,0,1,3.55,4,13.08,13.08,0,0,1,1.23,5.68,12,12,0,0,1-2.26,7.43,8.89,8.89,0,0,1-7.52,3.62,8.59,8.59,0,0,1-7.26-3.31,12.19,12.19,0,0,1-2.55-7.66,12.41,12.41,0,0,1,2.59-7.82,8.57,8.57,0,0,1,7.16-3.34"/></g><g class="cls-8"><path class="cls-2" d="M532.19,69.71l-7.05-16.19a16.33,16.33,0,0,0-2-3.72,2.72,2.72,0,0,0-1.53-.78v-.81h11.11V49a2,2,0,0,0-1.43.39,1.53,1.53,0,0,0-.54,1.15,9.9,9.9,0,0,0,1,3.11l3.44,7.84L538,54.74a13.35,13.35,0,0,0,1.19-4.1,1.41,1.41,0,0,0-.53-1.13,2.79,2.79,0,0,0-1.75-.49v-.81h6.83V49a2.73,2.73,0,0,0-1.61.75,13.14,13.14,0,0,0-1.88,3.54l-7,16.4"/></g><g class="cls-9"><path class="cls-3" d="M554.62,56.39a19.78,19.78,0,0,0-.4-4.92,4,4,0,0,0-1.2-2,1.88,1.88,0,0,0-1.25-.41,2.22,2.22,0,0,0-1.9,1.14,9.78,9.78,0,0,0-1.33,5.45v.78Zm5.5,1.5H548.67a10.74,10.74,0,0,0,2.2,6.57,4.68,4.68,0,0,0,3.7,1.85,4.25,4.25,0,0,0,2.44-.73,9.93,9.93,0,0,0,2.36-2.71l.75.5a12.8,12.8,0,0,1-3.76,4.91,8.1,8.1,0,0,1-4.75,1.43,7.93,7.93,0,0,1-7-3.57A12.49,12.49,0,0,1,542.66,59a11.86,11.86,0,0,1,2.81-8.32,8.72,8.72,0,0,1,6.63-3.09,7.13,7.13,0,0,1,5.49,2.61c1.57,1.73,2.42,4.3,2.53,7.7"/></g><path class="cls-2" d="M570,48.21v4.73a14.9,14.9,0,0,1,3.64-4.29,5.39,5.39,0,0,1,3-1.07,2.61,2.61,0,0,1,2,.78,2.94,2.94,0,0,1,.75,2.16,3.34,3.34,0,0,1-.74,2.33,2.2,2.2,0,0,1-1.74.82,3.06,3.06,0,0,1-2.05-.76,8.92,8.92,0,0,0-1-.84,1,1,0,0,0-.51-.14,1.85,1.85,0,0,0-1.23.5,4.55,4.55,0,0,0-1.4,2.16,15.39,15.39,0,0,0-.71,4.79v4.79l0,1.25a4.93,4.93,0,0,0,.16,1.63,2,2,0,0,0,.78.9,5,5,0,0,0,1.79.33v.81H561.49v-.81a2.46,2.46,0,0,0,1.84-.74c.32-.44.49-1.55.49-3.37V52.62a8.63,8.63,0,0,0-.18-2.28,1.82,1.82,0,0,0-.65-.91,3.4,3.4,0,0,0-1.5-.41v-.81"/><path class="cls-2" d="M589.28,48.21v2.7a11.91,11.91,0,0,1,3.09-2.53,6.6,6.6,0,0,1,3.17-.8,5,5,0,0,1,3.38,1.14,5.33,5.33,0,0,1,1.78,2.79,21.36,21.36,0,0,1,.36,4.88v8.14a6.46,6.46,0,0,0,.42,3,2.59,2.59,0,0,0,1.84.74v.81H592.75v-.81a2.23,2.23,0,0,0,1.7-1,6.54,6.54,0,0,0,.36-2.77v-9.3a15.64,15.64,0,0,0-.2-3.24,1.94,1.94,0,0,0-.69-1,1.62,1.62,0,0,0-1-.38c-1.3,0-2.47.92-3.59,2.75V64.53a6.55,6.55,0,0,0,.43,3,2.25,2.25,0,0,0,1.63.78v.81H580.76v-.81a2.63,2.63,0,0,0,1.9-.84,6.52,6.52,0,0,0,.38-2.91V52.73a5.71,5.71,0,0,0-.46-2.95,2.62,2.62,0,0,0-1.82-.76v-.81"/><path class="cls-2" d="M613.49,48.21v2.73a11.71,11.71,0,0,1,3.18-2.61,6.78,6.78,0,0,1,3.21-.75,5.36,5.36,0,0,1,5.46,3.8,13.38,13.38,0,0,1,3.42-2.91,7.14,7.14,0,0,1,3.44-.89,5.47,5.47,0,0,1,3.46,1,5,5,0,0,1,1.77,2.53A16.61,16.61,0,0,1,638,56v8.56a6.07,6.07,0,0,0,.43,3,2.58,2.58,0,0,0,1.82.77v.81H629.41v-.81a2.4,2.4,0,0,0,1.88-1,5.86,5.86,0,0,0,.41-2.77v-9a17.21,17.21,0,0,0-.23-3.56,2.1,2.1,0,0,0-.72-1.11,1.63,1.63,0,0,0-1.11-.38,3.32,3.32,0,0,0-1.94.71,9.46,9.46,0,0,0-2,2.1V64.53a6.14,6.14,0,0,0,.4,2.83,2.27,2.27,0,0,0,1.95.92v.81H617.24v-.81a2.31,2.31,0,0,0,1.36-.42,2,2,0,0,0,.68-.93,10.54,10.54,0,0,0,.18-2.4v-9a17.21,17.21,0,0,0-.22-3.56,2.3,2.3,0,0,0-.77-1.11,1.77,1.77,0,0,0-1.11-.41,3,3,0,0,0-1.63.47,9.07,9.07,0,0,0-2.24,2.37V64.53a6.41,6.41,0,0,0,.43,2.92,2.28,2.28,0,0,0,1.83.83v.81H605v-.81a2.62,2.62,0,0,0,1.87-.84,6.18,6.18,0,0,0,.39-2.91V52.73a6,6,0,0,0-.45-2.95A2.62,2.62,0,0,0,605,49v-.81"/><g class="cls-10"><path class="cls-3" d="M653.3,56.39a19.78,19.78,0,0,0-.4-4.92,4,4,0,0,0-1.21-2,1.84,1.84,0,0,0-1.24-.41,2.23,2.23,0,0,0-1.91,1.14,9.79,9.79,0,0,0-1.32,5.45v.78Zm5.49,1.5H647.34a10.8,10.8,0,0,0,2.2,6.57,4.66,4.66,0,0,0,3.71,1.85,4.24,4.24,0,0,0,2.43-.73A9.6,9.6,0,0,0,658,62.87l.76.5A12.78,12.78,0,0,1,655,68.28a8.16,8.16,0,0,1-4.76,1.43,7.94,7.94,0,0,1-7-3.57A12.65,12.65,0,0,1,641.32,59a11.86,11.86,0,0,1,2.82-8.32,8.75,8.75,0,0,1,6.63-3.09,7.14,7.14,0,0,1,5.5,2.61q2.34,2.6,2.52,7.7"/></g><path class="cls-2" d="M668.1,48.21v2.7a12.25,12.25,0,0,1,3.09-2.53,6.55,6.55,0,0,1,3.17-.8,5,5,0,0,1,3.37,1.14,5.35,5.35,0,0,1,1.79,2.79,21.36,21.36,0,0,1,.36,4.88v8.14a6.46,6.46,0,0,0,.42,3,2.57,2.57,0,0,0,1.83.74v.81H671.57v-.81a2.18,2.18,0,0,0,1.69-1,6.32,6.32,0,0,0,.37-2.77v-9.3a13.83,13.83,0,0,0-.22-3.24,1.74,1.74,0,0,0-.69-1,1.53,1.53,0,0,0-1-.38c-1.3,0-2.49.92-3.59,2.75V64.53a6.41,6.41,0,0,0,.43,3,2.27,2.27,0,0,0,1.63.78v.81H659.6v-.81a2.66,2.66,0,0,0,1.88-.84,6.52,6.52,0,0,0,.38-2.91V52.73a5.71,5.71,0,0,0-.46-2.95,2.59,2.59,0,0,0-1.8-.76v-.81"/><g class="cls-11"><path class="cls-2" d="M691,40.57v7.64h5v2.2h-5V63.3a11.18,11.18,0,0,0,.15,2.35,1.77,1.77,0,0,0,.61.84,1.26,1.26,0,0,0,.78.32c1,0,1.88-.74,2.75-2.21l.66.48c-1.2,2.86-3.17,4.3-5.87,4.3a5.29,5.29,0,0,1-3.37-1.1A4.92,4.92,0,0,1,685,65.8a21.9,21.9,0,0,1-.22-4.11V50.41H682v-.78a28,28,0,0,0,4.78-4.18,25.69,25.69,0,0,0,3.46-4.88"/></g><path class="cls-2" d="M249.52,114.68h-7l-.84,1.93a4.41,4.41,0,0,0-.41,1.6,1.32,1.32,0,0,0,.68,1.23,5.52,5.52,0,0,0,2,.36v.54h-6.62v-.54a3,3,0,0,0,1.76-.89,11.87,11.87,0,0,0,1.7-3L247.83,100h.28l7.17,16.32a10.12,10.12,0,0,0,1.69,2.92,2.32,2.32,0,0,0,1.41.53v.54h-9.63v-.54h.4a3,3,0,0,0,1.63-.33.78.78,0,0,0,.32-.67,1.7,1.7,0,0,0-.09-.54,11.44,11.44,0,0,0-.44-1.11Zm-.5-1.09-3-6.85L243,113.59Z"/><path class="cls-2" d="M273,106.62v10.74a3.87,3.87,0,0,0,.3,2,1.68,1.68,0,0,0,1.19.49v.53h-5.59V118.5a7,7,0,0,1-2,1.71,4.51,4.51,0,0,1-2.2.54,3.26,3.26,0,0,1-2.06-.71,3.47,3.47,0,0,1-1.21-1.67,12,12,0,0,1-.31-3.33V109.6a4,4,0,0,0-.29-1.94,1.77,1.77,0,0,0-1.19-.5v-.54h5.59V116a7.45,7.45,0,0,0,.14,1.89,1.21,1.21,0,0,0,.44.64,1.12,1.12,0,0,0,.69.22,1.76,1.76,0,0,0,1-.27,6.17,6.17,0,0,0,1.41-1.55V109.6a4,4,0,0,0-.29-1.94,1.77,1.77,0,0,0-1.2-.5v-.54Z"/><path class="cls-2" d="M285.11,106.24l.22,4.68h-.5a7.42,7.42,0,0,0-1.86-2.85,3.13,3.13,0,0,0-1.91-.76,1.48,1.48,0,0,0-1,.4,1.27,1.27,0,0,0-.43.94,1.2,1.2,0,0,0,.3.76,14.05,14.05,0,0,0,2.62,2.06,10.66,10.66,0,0,1,2.84,2.48,4,4,0,0,1,.68,2.28,4.88,4.88,0,0,1-.57,2.25,4,4,0,0,1-1.61,1.68,4.63,4.63,0,0,1-2.3.59,8,8,0,0,1-2.63-.62,2.42,2.42,0,0,0-.6-.16c-.32,0-.59.25-.81.73H277l-.24-4.92h.5a6.37,6.37,0,0,0,1.81,2.9,3.47,3.47,0,0,0,2.18,1,1.62,1.62,0,0,0,1.15-.43,1.41,1.41,0,0,0,.45-1,1.83,1.83,0,0,0-.44-1.22,11.65,11.65,0,0,0-2-1.56,15.23,15.23,0,0,1-2.9-2.37,4.12,4.12,0,0,1-1-2.66,4.38,4.38,0,0,1,1.09-2.87,4,4,0,0,1,3.17-1.28,4.6,4.6,0,0,1,2.15.54,1.41,1.41,0,0,0,.65.22.67.67,0,0,0,.42-.11,2.76,2.76,0,0,0,.52-.62Z"/><path class="cls-2" d="M293.57,101.6v5h3.26v1.45h-3.26v8.47a6.63,6.63,0,0,0,.11,1.53,1.06,1.06,0,0,0,.39.56.87.87,0,0,0,.51.21c.64,0,1.24-.48,1.81-1.45l.44.32a4,4,0,0,1-3.86,2.82,3.38,3.38,0,0,1-2.21-.73,3.2,3.2,0,0,1-1.15-1.62,13.51,13.51,0,0,1-.15-2.7v-7.41h-1.79v-.51a18.73,18.73,0,0,0,3.15-2.74,16.62,16.62,0,0,0,2.27-3.22Z"/><path class="cls-2" d="M303.82,106.62v3.11a9.83,9.83,0,0,1,2.4-2.82,3.49,3.49,0,0,1,2-.7,1.75,1.75,0,0,1,1.31.51,1.94,1.94,0,0,1,.49,1.43,2.22,2.22,0,0,1-.48,1.52,1.48,1.48,0,0,1-1.15.55,2,2,0,0,1-1.35-.5,7,7,0,0,0-.67-.56.64.64,0,0,0-.34-.09,1.28,1.28,0,0,0-.81.32,3.13,3.13,0,0,0-.91,1.43,10,10,0,0,0-.47,3.14v3.15l0,.82a3.31,3.31,0,0,0,.1,1.07,1.14,1.14,0,0,0,.52.58,3.08,3.08,0,0,0,1.17.23v.53h-7.41v-.53a1.61,1.61,0,0,0,1.21-.49,4.57,4.57,0,0,0,.32-2.21v-7.58a5.58,5.58,0,0,0-.12-1.5,1.2,1.2,0,0,0-.43-.6,2.18,2.18,0,0,0-1-.27v-.54Z"/><path class="cls-2" d="M319,118.31c-1.67,1.48-3.18,2.22-4.51,2.22a2.68,2.68,0,0,1-1.95-.77,2.59,2.59,0,0,1-.77-1.93,3.78,3.78,0,0,1,1.34-2.82,25.58,25.58,0,0,1,5.89-3.34v-1.38a6.75,6.75,0,0,0-.17-2,1.57,1.57,0,0,0-.64-.7,1.9,1.9,0,0,0-1.06-.3,2.76,2.76,0,0,0-1.57.42.76.76,0,0,0-.38.62,1.3,1.3,0,0,0,.41.76,1.85,1.85,0,0,1,.56,1.22,1.62,1.62,0,0,1-.53,1.22,2,2,0,0,1-1.4.51,2.24,2.24,0,0,1-1.55-.56,1.7,1.7,0,0,1-.63-1.3,3,3,0,0,1,.84-2,5.42,5.42,0,0,1,2.33-1.48,9.61,9.61,0,0,1,3.11-.51,5.17,5.17,0,0,1,3.09.83,3.89,3.89,0,0,1,1.48,1.8,12.1,12.1,0,0,1,.2,2.83V117a5.48,5.48,0,0,0,.07,1.18.7.7,0,0,0,.22.36.52.52,0,0,0,.34.12,1,1,0,0,0,.78-.54l.44.35a5.5,5.5,0,0,1-1.52,1.58,3.26,3.26,0,0,1-1.78.49,2.79,2.79,0,0,1-1.84-.55A2.5,2.5,0,0,1,319,118.31Zm0-1.07v-4.59a8.51,8.51,0,0,0-2.64,2.23,2.72,2.72,0,0,0-.57,1.6,1.69,1.69,0,0,0,.48,1.19,1.34,1.34,0,0,0,1,.39A2.83,2.83,0,0,0,319,117.24Z"/><path class="cls-2" d="M331.86,100.45v17a3.24,3.24,0,0,0,.34,1.86,1.81,1.81,0,0,0,1.32.46v.53h-7.41v-.53a1.82,1.82,0,0,0,1.35-.53,3.33,3.33,0,0,0,.29-1.79v-14.2a3.18,3.18,0,0,0-.34-1.84,1.79,1.79,0,0,0-1.3-.46v-.54Z"/><path class="cls-2" d="M340.19,106.62v10.87a3.24,3.24,0,0,0,.34,1.86,1.81,1.81,0,0,0,1.32.46v.53h-7.41v-.53a1.79,1.79,0,0,0,1.35-.53,3.23,3.23,0,0,0,.29-1.79v-8a3.31,3.31,0,0,0-.33-1.85,1.82,1.82,0,0,0-1.31-.47v-.54ZM338.14,100a2.25,2.25,0,0,1,2.27,2.27,2.14,2.14,0,0,1-.67,1.6,2.26,2.26,0,0,1-3.86-1.6,2.21,2.21,0,0,1,.66-1.61A2.17,2.17,0,0,1,338.14,100Z"/><path class="cls-2" d="M350.75,118.31q-2.5,2.22-4.5,2.22a2.68,2.68,0,0,1-1.95-.77,2.6,2.6,0,0,1-.78-1.93,3.76,3.76,0,0,1,1.35-2.82,25.44,25.44,0,0,1,5.88-3.34v-1.38a6.89,6.89,0,0,0-.16-2,1.63,1.63,0,0,0-.64-.7,2,2,0,0,0-1.06-.3,2.74,2.74,0,0,0-1.57.42.76.76,0,0,0-.38.62,1.3,1.3,0,0,0,.41.76,1.9,1.9,0,0,1,.56,1.22,1.59,1.59,0,0,1-.54,1.22,1.93,1.93,0,0,1-1.4.51,2.27,2.27,0,0,1-1.55-.56,1.72,1.72,0,0,1-.62-1.3,3,3,0,0,1,.84-2,5.3,5.3,0,0,1,2.33-1.48,9.57,9.57,0,0,1,3.11-.51,5.17,5.17,0,0,1,3.09.83,3.8,3.8,0,0,1,1.47,1.8,11.36,11.36,0,0,1,.21,2.83V117a5.48,5.48,0,0,0,.07,1.18.64.64,0,0,0,.22.36.52.52,0,0,0,.34.12q.38,0,.78-.54l.44.35a5.5,5.5,0,0,1-1.52,1.58,3.29,3.29,0,0,1-1.78.49,2.77,2.77,0,0,1-1.84-.55A2.51,2.51,0,0,1,350.75,118.31Zm0-1.07v-4.59a8.75,8.75,0,0,0-2.64,2.23,2.72,2.72,0,0,0-.57,1.6,1.66,1.66,0,0,0,.49,1.19,1.32,1.32,0,0,0,1,.39A2.78,2.78,0,0,0,350.75,117.24Z"/><path class="cls-2" d="M363.81,106.62v1.78a8,8,0,0,1,2-1.67,4.28,4.28,0,0,1,2.08-.52,3.32,3.32,0,0,1,2.21.74,3.6,3.6,0,0,1,1.18,1.84,14.75,14.75,0,0,1,.23,3.22v5.34a4.08,4.08,0,0,0,.29,2,1.68,1.68,0,0,0,1.19.49v.53h-6.93v-.53a1.45,1.45,0,0,0,1.11-.65,4.14,4.14,0,0,0,.23-1.81v-6.11a9.82,9.82,0,0,0-.13-2.12,1.3,1.3,0,0,0-.44-.69,1.14,1.14,0,0,0-.7-.24c-.84,0-1.63.6-2.35,1.81v7.35a4.12,4.12,0,0,0,.29,2,1.46,1.46,0,0,0,1.06.51v.53h-6.94v-.53a1.67,1.67,0,0,0,1.23-.56,4,4,0,0,0,.25-1.9V109.6a4,4,0,0,0-.28-1.94,1.77,1.77,0,0,0-1.2-.5v-.54Z"/><path class="cls-2" d="M395.73,113.56l5.4-13.11h8.1V101h-.65a2.72,2.72,0,0,0-1.4.31,1.37,1.37,0,0,0-.59.69,5.84,5.84,0,0,0-.16,1.83v13.11a6.46,6.46,0,0,0,.16,1.91,1.46,1.46,0,0,0,.66.67,2.68,2.68,0,0,0,1.33.29h.65v.54H398.84v-.54h.65a2.83,2.83,0,0,0,1.41-.31,1.4,1.4,0,0,0,.58-.71,5.84,5.84,0,0,0,.17-1.85V102.19L394,120.34h-.35l-7.75-18v14a12.54,12.54,0,0,0,.07,1.81,2.09,2.09,0,0,0,.83,1.19,3.43,3.43,0,0,0,2,.47v.54H382v-.54h.2a3.32,3.32,0,0,0,1.23-.22,1.92,1.92,0,0,0,.87-.61,2.59,2.59,0,0,0,.45-1.07c0-.1,0-.6,0-1.49V103.82a6.34,6.34,0,0,0-.16-1.89,1.54,1.54,0,0,0-.66-.66,2.66,2.66,0,0,0-1.33-.28H382v-.54h8.12Z"/><path class="cls-2" d="M418.35,118.31q-2.5,2.22-4.5,2.22a2.68,2.68,0,0,1-2-.77,2.6,2.6,0,0,1-.78-1.93,3.76,3.76,0,0,1,1.35-2.82,25.44,25.44,0,0,1,5.88-3.34v-1.38a6.89,6.89,0,0,0-.16-2,1.63,1.63,0,0,0-.64-.7,2,2,0,0,0-1.06-.3,2.74,2.74,0,0,0-1.57.42.76.76,0,0,0-.38.62,1.3,1.3,0,0,0,.41.76,1.9,1.9,0,0,1,.56,1.22,1.59,1.59,0,0,1-.54,1.22,1.93,1.93,0,0,1-1.4.51,2.27,2.27,0,0,1-1.55-.56,1.72,1.72,0,0,1-.62-1.3,3,3,0,0,1,.84-2,5.3,5.3,0,0,1,2.33-1.48,9.57,9.57,0,0,1,3.11-.51,5.17,5.17,0,0,1,3.09.83,3.8,3.8,0,0,1,1.47,1.8,11.36,11.36,0,0,1,.21,2.83V117a5.48,5.48,0,0,0,.07,1.18.64.64,0,0,0,.22.36.52.52,0,0,0,.34.12q.38,0,.78-.54l.44.35a5.5,5.5,0,0,1-1.52,1.58,3.29,3.29,0,0,1-1.78.49,2.77,2.77,0,0,1-1.84-.55A2.51,2.51,0,0,1,418.35,118.31Zm0-1.07v-4.59a8.75,8.75,0,0,0-2.64,2.23,2.72,2.72,0,0,0-.57,1.6,1.66,1.66,0,0,0,.49,1.19,1.32,1.32,0,0,0,1,.39A2.78,2.78,0,0,0,418.35,117.24Z"/><path class="cls-2" d="M431.5,106.62v3.11a10,10,0,0,1,2.39-2.82,3.53,3.53,0,0,1,2-.7,1.72,1.72,0,0,1,1.31.51,1.94,1.94,0,0,1,.5,1.43,2.22,2.22,0,0,1-.48,1.52,1.49,1.49,0,0,1-1.15.55,2,2,0,0,1-1.35-.5,6.5,6.5,0,0,0-.68-.56.63.63,0,0,0-.33-.09,1.24,1.24,0,0,0-.81.32,3.05,3.05,0,0,0-.91,1.43,10,10,0,0,0-.47,3.14v4a3.21,3.21,0,0,0,.11,1.07,1.1,1.1,0,0,0,.52.58,3.06,3.06,0,0,0,1.16.23v.53h-7.4v-.53a1.63,1.63,0,0,0,1.21-.49,4.61,4.61,0,0,0,.31-2.21v-7.58a5.58,5.58,0,0,0-.12-1.5,1.19,1.19,0,0,0-.42-.6,2.27,2.27,0,0,0-1-.27v-.54Z"/><path class="cls-2" d="M444.5,106.62v10.87a3.35,3.35,0,0,0,.33,1.86,1.86,1.86,0,0,0,1.33.46v.53h-7.41v-.53a1.82,1.82,0,0,0,1.35-.53,3.33,3.33,0,0,0,.29-1.79v-8a3.2,3.2,0,0,0-.34-1.85,1.79,1.79,0,0,0-1.3-.47v-.54ZM442.44,100a2.27,2.27,0,1,1-1.6,3.87,2.17,2.17,0,0,1-.66-1.6,2.21,2.21,0,0,1,.66-1.61A2.19,2.19,0,0,1,442.44,100Z"/><path class="cls-2" d="M452.93,101.6v5h3.26v1.45h-3.26v8.47a6.63,6.63,0,0,0,.11,1.53,1.19,1.19,0,0,0,.39.56.9.9,0,0,0,.51.21c.64,0,1.24-.48,1.81-1.45l.44.32a4,4,0,0,1-3.86,2.82,3.38,3.38,0,0,1-2.21-.73,3.2,3.2,0,0,1-1.15-1.62,13.51,13.51,0,0,1-.15-2.7v-7.41H447v-.51a18.64,18.64,0,0,0,3.14-2.74,16.62,16.62,0,0,0,2.27-3.22Z"/><path class="cls-2" d="M462.85,106.62v10.87a3.24,3.24,0,0,0,.34,1.86,1.81,1.81,0,0,0,1.32.46v.53H457.1v-.53a1.79,1.79,0,0,0,1.35-.53,3.33,3.33,0,0,0,.29-1.79v-8a3.2,3.2,0,0,0-.34-1.85,1.79,1.79,0,0,0-1.3-.47v-.54ZM460.8,100a2.25,2.25,0,0,1,2.27,2.27,2.14,2.14,0,0,1-.67,1.6,2.26,2.26,0,0,1-3.86-1.6,2.21,2.21,0,0,1,.66-1.61A2.17,2.17,0,0,1,460.8,100Z"/><path class="cls-2" d="M471.53,106.62v1.81a7.91,7.91,0,0,1,2.09-1.73,4.58,4.58,0,0,1,2.11-.49,3.53,3.53,0,0,1,3.59,2.49,8.79,8.79,0,0,1,2.26-1.9,4.64,4.64,0,0,1,2.25-.59,3.61,3.61,0,0,1,2.26.65,3.38,3.38,0,0,1,1.18,1.66,11.23,11.23,0,0,1,.33,3.21v5.62a4,4,0,0,0,.28,2,1.73,1.73,0,0,0,1.2.5v.53H482v-.53a1.58,1.58,0,0,0,1.24-.65,4,4,0,0,0,.26-1.81v-5.9a10.68,10.68,0,0,0-.15-2.33,1.38,1.38,0,0,0-.46-.75,1.19,1.19,0,0,0-.74-.24,2.26,2.26,0,0,0-1.28.46,5.89,5.89,0,0,0-1.3,1.39v7.37a4.16,4.16,0,0,0,.25,1.86,1.51,1.51,0,0,0,1.29.6v.53H474v-.53a1.58,1.58,0,0,0,.9-.29,1.19,1.19,0,0,0,.44-.61,7,7,0,0,0,.11-1.56v-5.9a10.43,10.43,0,0,0-.15-2.33,1.39,1.39,0,0,0-.49-.74,1.21,1.21,0,0,0-.74-.26,1.91,1.91,0,0,0-1.07.31,6,6,0,0,0-1.47,1.55v7.37a4.17,4.17,0,0,0,.29,1.91,1.49,1.49,0,0,0,1.2.55v.53h-7.08v-.53a1.71,1.71,0,0,0,1.24-.56,4.16,4.16,0,0,0,.25-1.9V109.6a4,4,0,0,0-.29-1.94,1.77,1.77,0,0,0-1.2-.5v-.54Z"/><path class="cls-2" d="M502.49,113H495a7.1,7.1,0,0,0,1.45,4.31,3.09,3.09,0,0,0,2.44,1.22,2.75,2.75,0,0,0,1.6-.49,6.29,6.29,0,0,0,1.54-1.77l.5.32A8.33,8.33,0,0,1,500,119.8a5.31,5.31,0,0,1-3.12,1,5.18,5.18,0,0,1-4.62-2.35,8.26,8.26,0,0,1-1.26-4.69,7.8,7.8,0,0,1,1.85-5.47,5.74,5.74,0,0,1,4.35-2,4.71,4.71,0,0,1,3.62,1.71A7.83,7.83,0,0,1,502.49,113Zm-3.61-1a13.6,13.6,0,0,0-.26-3.25,2.66,2.66,0,0,0-.8-1.33,1.19,1.19,0,0,0-.82-.27,1.45,1.45,0,0,0-1.25.75,6.49,6.49,0,0,0-.86,3.58V112Z"/><path class="cls-2" d="M524.82,100l.16,6.63h-.6a6.82,6.82,0,0,0-2.09-4,5.27,5.27,0,0,0-3.61-1.52,3.37,3.37,0,0,0-2.36.8,2.42,2.42,0,0,0-.88,1.84,2.24,2.24,0,0,0,.31,1.18,5.13,5.13,0,0,0,1.36,1.36A33.71,33.71,0,0,0,520.3,108a14,14,0,0,1,4.71,3.24,5.5,5.5,0,0,1,1.2,3.49,5.67,5.67,0,0,1-1.94,4.29,7,7,0,0,1-4.94,1.8,8.45,8.45,0,0,1-1.78-.19,14.17,14.17,0,0,1-2.09-.72,3.14,3.14,0,0,0-1.16-.3,1.4,1.4,0,0,0-.81.3,2.06,2.06,0,0,0-.69.89h-.54v-7.51h.54a8.63,8.63,0,0,0,2.49,4.84,5.82,5.82,0,0,0,4,1.66,3.78,3.78,0,0,0,2.62-.89,2.77,2.77,0,0,0,1-2.09,2.7,2.7,0,0,0-.37-1.36,4.41,4.41,0,0,0-1.14-1.26,17.46,17.46,0,0,0-2.7-1.54,22.83,22.83,0,0,1-3.9-2.28,6.93,6.93,0,0,1-1.83-2.1,5.24,5.24,0,0,1-.64-2.55,5.44,5.44,0,0,1,1.75-4,6.12,6.12,0,0,1,4.4-1.67,7.34,7.34,0,0,1,1.88.24,8.66,8.66,0,0,1,1.68.65,4,4,0,0,0,1.38.48.79.79,0,0,0,.61-.24,2.86,2.86,0,0,0,.41-1.13Z"/><path class="cls-2" d="M536,118.31q-2.52,2.22-4.51,2.22a2.68,2.68,0,0,1-2-.77,2.6,2.6,0,0,1-.78-1.93,3.76,3.76,0,0,1,1.35-2.82,25.35,25.35,0,0,1,5.89-3.34v-1.38a6.75,6.75,0,0,0-.17-2,1.63,1.63,0,0,0-.64-.7,1.93,1.93,0,0,0-1.06-.3,2.74,2.74,0,0,0-1.57.42.76.76,0,0,0-.38.62,1.3,1.3,0,0,0,.41.76,1.9,1.9,0,0,1,.56,1.22,1.59,1.59,0,0,1-.54,1.22,1.93,1.93,0,0,1-1.4.51,2.27,2.27,0,0,1-1.55-.56,1.72,1.72,0,0,1-.62-1.3,3,3,0,0,1,.84-2,5.36,5.36,0,0,1,2.33-1.48,9.57,9.57,0,0,1,3.11-.51,5.17,5.17,0,0,1,3.09.83,3.8,3.8,0,0,1,1.47,1.8,11.36,11.36,0,0,1,.21,2.83V117a5.48,5.48,0,0,0,.07,1.18.64.64,0,0,0,.22.36.52.52,0,0,0,.34.12q.38,0,.78-.54l.44.35a5.5,5.5,0,0,1-1.52,1.58,3.26,3.26,0,0,1-1.78.49,2.77,2.77,0,0,1-1.84-.55A2.46,2.46,0,0,1,536,118.31Zm0-1.07v-4.59a8.68,8.68,0,0,0-2.65,2.23,2.72,2.72,0,0,0-.57,1.6,1.66,1.66,0,0,0,.49,1.19,1.32,1.32,0,0,0,1,.39A2.83,2.83,0,0,0,536,117.24Z"/><path class="cls-2" d="M549.46,108.06v9.52a3.08,3.08,0,0,0,.3,1.73,2.12,2.12,0,0,0,1.73.5v.53H543.4v-.53a3.32,3.32,0,0,0,1.32-.21,1.09,1.09,0,0,0,.53-.55,4.58,4.58,0,0,0,.15-1.47v-9.52h-2v-1.44h2v-1l0-.69a4.57,4.57,0,0,1,1.55-3.52,6,6,0,0,1,4.19-1.41,4.37,4.37,0,0,1,2.68.68,1.89,1.89,0,0,1,.87,1.49,1.51,1.51,0,0,1-.54,1.15,2.09,2.09,0,0,1-1.44.48,1.73,1.73,0,0,1-1.21-.4,1.14,1.14,0,0,1-.45-.88,3.32,3.32,0,0,1,.09-.54,2,2,0,0,0,.06-.47.54.54,0,0,0-.18-.45.77.77,0,0,0-.57-.22.87.87,0,0,0-.71.35,1.78,1.78,0,0,0-.29,1.13l0,2.57v1.74h2v1.44Z"/><path class="cls-2" d="M565.07,113h-7.52A7,7,0,0,0,559,117.3a3.06,3.06,0,0,0,2.43,1.22A2.75,2.75,0,0,0,563,118a6.29,6.29,0,0,0,1.54-1.77l.5.32a8.22,8.22,0,0,1-2.46,3.22,5.32,5.32,0,0,1-3.13,1,5.2,5.2,0,0,1-4.62-2.35,8.26,8.26,0,0,1-1.26-4.69,7.8,7.8,0,0,1,1.86-5.47,5.71,5.71,0,0,1,4.34-2,4.71,4.71,0,0,1,3.62,1.71A7.83,7.83,0,0,1,565.07,113Zm-3.61-1a13.76,13.76,0,0,0-.25-3.25,2.73,2.73,0,0,0-.8-1.33,1.22,1.22,0,0,0-.83-.27,1.44,1.44,0,0,0-1.24.75,6.41,6.41,0,0,0-.87,3.58V112Z"/><path class="cls-2" d="M572.23,101.6v5h3.26v1.45h-3.26v8.47a6.63,6.63,0,0,0,.11,1.53,1.06,1.06,0,0,0,.39.56.9.9,0,0,0,.51.21c.64,0,1.24-.48,1.81-1.45l.44.32a4,4,0,0,1-3.86,2.82,3.38,3.38,0,0,1-2.21-.73,3.2,3.2,0,0,1-1.15-1.62,13.51,13.51,0,0,1-.15-2.7v-7.41h-1.79v-.51a18.73,18.73,0,0,0,3.15-2.74,16.62,16.62,0,0,0,2.27-3.22Z"/><path class="cls-2" d="M583.09,120.9l-4.43-10.17a13,13,0,0,0-1.48-2.83,2.57,2.57,0,0,0-1.15-.74v-.54h7.29v.54a1.71,1.71,0,0,0-1,.28.76.76,0,0,0-.29.6,7,7,0,0,0,.73,2.21l2.35,5.36,1.6-4.15a10.45,10.45,0,0,0,.86-3.08,1.09,1.09,0,0,0-.36-.86,2,2,0,0,0-1.27-.36v-.54h4.59v.54a1.78,1.78,0,0,0-1.1.52,13.55,13.55,0,0,0-1.42,3l-3.92,10.17a22,22,0,0,1-2.2,4.69,3.14,3.14,0,0,1-2.53,1.23,2.83,2.83,0,0,1-2-.69,2.23,2.23,0,0,1-.75-1.68,2,2,0,0,1,.52-1.41,1.67,1.67,0,0,1,1.28-.56,1.57,1.57,0,0,1,1.18.47,2.08,2.08,0,0,1,.46,1.45,1.45,1.45,0,0,0,.14.72.37.37,0,0,0,.33.16,1.08,1.08,0,0,0,.75-.42,9.16,9.16,0,0,0,1.38-2.82Z"/><path class="cls-2" d="M609.16,114.68h-7l-.84,1.93a4.41,4.41,0,0,0-.41,1.6,1.32,1.32,0,0,0,.68,1.23,5.52,5.52,0,0,0,2,.36v.54h-6.62v-.54a3,3,0,0,0,1.76-.89,11.87,11.87,0,0,0,1.7-3L607.47,100h.28l7.17,16.32a10.12,10.12,0,0,0,1.69,2.92,2.32,2.32,0,0,0,1.41.53v.54h-9.63v-.54h.4a3,3,0,0,0,1.63-.33.78.78,0,0,0,.32-.67,1.7,1.7,0,0,0-.09-.54,11.44,11.44,0,0,0-.44-1.11Zm-.5-1.09-3-6.85-3.05,6.85Z"/><path class="cls-2" d="M632.61,106.62v10.74a3.87,3.87,0,0,0,.3,2,1.67,1.67,0,0,0,1.18.49v.53h-5.58V118.5a7,7,0,0,1-2,1.71,4.51,4.51,0,0,1-2.2.54,3.26,3.26,0,0,1-2.06-.71,3.47,3.47,0,0,1-1.21-1.67,12,12,0,0,1-.31-3.33V109.6a4,4,0,0,0-.29-1.94,1.77,1.77,0,0,0-1.19-.5v-.54h5.59V116a7.45,7.45,0,0,0,.14,1.89,1.21,1.21,0,0,0,.44.64,1.12,1.12,0,0,0,.69.22,1.76,1.76,0,0,0,1-.27,6.17,6.17,0,0,0,1.41-1.55V109.6a4,4,0,0,0-.29-1.94,1.77,1.77,0,0,0-1.2-.5v-.54Z"/><path class="cls-2" d="M641.52,101.6v5h3.26v1.45h-3.26v8.47a6.09,6.09,0,0,0,.11,1.53,1.06,1.06,0,0,0,.39.56.85.85,0,0,0,.51.21c.64,0,1.24-.48,1.8-1.45l.45.32a4,4,0,0,1-3.86,2.82,3.38,3.38,0,0,1-2.21-.73,3.14,3.14,0,0,1-1.15-1.62,13.51,13.51,0,0,1-.15-2.7v-7.41h-1.79v-.51a19.13,19.13,0,0,0,3.15-2.74A16.58,16.58,0,0,0,641,101.6Z"/><path class="cls-2" d="M651.68,100.45v7.93a8.75,8.75,0,0,1,2.07-1.68,4.15,4.15,0,0,1,2-.49,3.48,3.48,0,0,1,2.21.73,3.53,3.53,0,0,1,1.22,1.73,12.89,12.89,0,0,1,.3,3.34v5.35a4,4,0,0,0,.29,2,1.72,1.72,0,0,0,1.19.49v.53H654v-.53a1.58,1.58,0,0,0,1.1-.59,4.05,4.05,0,0,0,.26-1.86v-6.12a9.87,9.87,0,0,0-.13-2.13,1.32,1.32,0,0,0-.45-.68,1.13,1.13,0,0,0-.71-.24,2,2,0,0,0-1.14.4,5.37,5.37,0,0,0-1.21,1.42v7.35a4.61,4.61,0,0,0,.22,1.83,1.43,1.43,0,0,0,1.15.62v.53h-7v-.53a1.71,1.71,0,0,0,1.24-.56,4.11,4.11,0,0,0,.25-1.89V103.42a3.91,3.91,0,0,0-.29-1.93,1.73,1.73,0,0,0-1.2-.5v-.54Z"/><path class="cls-2" d="M669.26,106.21a6.43,6.43,0,0,1,3.33.92,5.93,5.93,0,0,1,2.34,2.63,8.73,8.73,0,0,1,.8,3.73,7.87,7.87,0,0,1-1.48,4.88,5.84,5.84,0,0,1-5,2.38,5.64,5.64,0,0,1-4.76-2.17,8,8,0,0,1-1.68-5,8.15,8.15,0,0,1,1.71-5.15A5.62,5.62,0,0,1,669.26,106.21Zm.06,1a1.72,1.72,0,0,0-1.29.57,4,4,0,0,0-.7,2.23c-.11,1.11-.17,2.65-.17,4.63a19.32,19.32,0,0,0,.21,2.93,2.73,2.73,0,0,0,.69,1.58,1.61,1.61,0,0,0,1.2.55,1.68,1.68,0,0,0,1.1-.37,2.43,2.43,0,0,0,.76-1.39,33.21,33.21,0,0,0,.3-5.64,14.17,14.17,0,0,0-.28-3.42,2.65,2.65,0,0,0-.82-1.36A1.53,1.53,0,0,0,669.32,107.25Z"/><path class="cls-2" d="M683.5,106.62v3.11a9.83,9.83,0,0,1,2.4-2.82,3.49,3.49,0,0,1,2-.7,1.75,1.75,0,0,1,1.31.51,1.94,1.94,0,0,1,.49,1.43,2.22,2.22,0,0,1-.48,1.52,1.49,1.49,0,0,1-1.15.55,2,2,0,0,1-1.35-.5,7,7,0,0,0-.67-.56.64.64,0,0,0-.34-.09,1.28,1.28,0,0,0-.81.32,3.13,3.13,0,0,0-.91,1.43,10,10,0,0,0-.47,3.14v3.15l0,.82a3.31,3.31,0,0,0,.1,1.07,1.14,1.14,0,0,0,.52.58,3.08,3.08,0,0,0,1.17.23v.53H677.9v-.53a1.61,1.61,0,0,0,1.21-.49,4.57,4.57,0,0,0,.32-2.21v-7.58a5.58,5.58,0,0,0-.12-1.5,1.2,1.2,0,0,0-.43-.6,2.18,2.18,0,0,0-1-.27v-.54Z"/><path class="cls-2" d="M696.5,106.62v10.87a3.24,3.24,0,0,0,.34,1.86,1.81,1.81,0,0,0,1.32.46v.53h-7.41v-.53a1.79,1.79,0,0,0,1.35-.53,3.23,3.23,0,0,0,.29-1.79v-8a3.31,3.31,0,0,0-.33-1.85,1.82,1.82,0,0,0-1.31-.47v-.54Zm-2-6.64a2.25,2.25,0,0,1,2.27,2.27,2.14,2.14,0,0,1-.67,1.6,2.26,2.26,0,0,1-3.86-1.6,2.21,2.21,0,0,1,.66-1.61A2.17,2.17,0,0,1,694.45,100Z"/><path class="cls-2" d="M704.94,101.6v5h3.25v1.45h-3.25v8.47a6.09,6.09,0,0,0,.11,1.53,1.06,1.06,0,0,0,.39.56.85.85,0,0,0,.51.21c.63,0,1.24-.48,1.8-1.45l.44.32a4,4,0,0,1-3.86,2.82,3.36,3.36,0,0,1-2.2-.73,3.14,3.14,0,0,1-1.15-1.62,13.51,13.51,0,0,1-.15-2.7v-7.41H699v-.51a19.13,19.13,0,0,0,3.15-2.74,16.58,16.58,0,0,0,2.26-3.22Z"/><path class="cls-2" d="M715.79,120.9l-4.43-10.17a12.67,12.67,0,0,0-1.47-2.83,2.57,2.57,0,0,0-1.15-.74v-.54H716v.54a1.71,1.71,0,0,0-1,.28.77.77,0,0,0-.3.6,7.16,7.16,0,0,0,.74,2.21l2.34,5.36,1.6-4.15a10.25,10.25,0,0,0,.87-3.08,1.09,1.09,0,0,0-.36-.86,2,2,0,0,0-1.27-.36v-.54h4.59v.54a1.76,1.76,0,0,0-1.1.52,13.09,13.09,0,0,0-1.42,3l-3.92,10.17a22.48,22.48,0,0,1-2.2,4.69,3.15,3.15,0,0,1-2.54,1.23,2.8,2.8,0,0,1-2-.69,2.24,2.24,0,0,1-.76-1.68,2,2,0,0,1,.52-1.41,1.71,1.71,0,0,1,1.29-.56,1.57,1.57,0,0,1,1.18.47,2.08,2.08,0,0,1,.46,1.45,1.48,1.48,0,0,0,.13.72.39.39,0,0,0,.34.16,1.1,1.1,0,0,0,.75-.42,9.16,9.16,0,0,0,1.38-2.82Z"/><line class="cls-12" x1="237.25" y1="86.4" x2="723.23" y2="86.4"/></g></g></svg>