<svg xmlns="http://www.w3.org/2000/svg" viewBox="0 0 786.01 296.18"><defs><style>.cls-1,.cls-2{fill:#94a3b7;}.cls-2{fill-rule:evenodd;}</style></defs><g id="Layer_2" data-name="Layer 2"><g id="Layer_1-2" data-name="Layer 1"><g id="g956"><g id="g939"><path id="path900" class="cls-1" d="M32.49,182.39H61.56l6.49,24.11H94.39L58.48,80H34.54L0,206.5H26.33Zm22.4-23.94H38.81l8-41.38Z"/><path id="path902" class="cls-1" d="M139.18,77.57c-31.12,0-46.51,26-46.51,65.49v.18c0,39.67,15.39,65.66,46.51,65.66,10.81,0,19.72-3.15,26.75-8.9a19.8,19.8,0,0,1,1,6.5h27.24c0-9.87-5.37-20.31-13.28-29.66,3.19-9.52,4.79-20.85,4.79-33.6C185.69,103.57,170.3,77.57,139.18,77.57Zm0,23.94c13.34,0,19.84,11.29,19.84,41.73,0,5.28-.21,9.95-.6,14.12-10.16-6.48-20.63-10.55-28.66-10.55,0,25.89,4,25.78,7.81,28,2.23,1.28,6.79,3.71,11.56,7a15.65,15.65,0,0,1-9.95,3.13c-13.33,0-19.83-11.29-19.83-41.55v-.17C119.35,112.8,125.85,101.51,139.18,101.51Z"/><path id="path904" class="cls-1" d="M200.2,80v90.45c0,11.12,2.91,20.86,9.4,27.53,6.67,6.84,17.1,11,32.32,11s25.65-4.11,32.32-11c6.67-6.67,9.4-16.41,9.4-27.53V80h-26v86.18c0,6.33-1,10.94-3.42,13.85-2.56,3.08-6.5,4.45-12.31,4.45s-9.75-1.37-12.14-4.45c-2.56-2.91-3.59-7.52-3.59-13.85V80Z"/><path id="path907" class="cls-1" d="M477.14,206.5h26V103.91h6c6.33,0,10.6,1,13.34,3.42,4.79,3.93,6,9.23,6,15.39,0,5-1.37,10.43-5.64,14.53-3.25,3.25-8.21,4.45-12.82,4.79-2.06.17-3.6.17-6.5.17l27.87,64.29h29.07l-23.94-50.44c6-3.25,11.11-8.38,14.88-16.59a46.76,46.76,0,0,0,3.76-19.15c0-12.31-3.76-21.37-10.26-29.24C539.38,84.59,527.92,80,510,80H477.14Z"/><path id="path909" class="cls-1" d="M566.73,206.5h26V80h-26Z"/><path id="path911" class="cls-1" d="M608.23,80v90.45c0,11.12,2.91,20.86,9.41,27.53,6.67,6.84,17.1,11,32.31,11s25.65-4.11,32.32-11c6.67-6.67,9.41-16.41,9.41-27.53V80h-26v86.18c0,6.33-1,10.94-3.42,13.85-2.57,3.08-6.5,4.45-12.32,4.45s-9.74-1.37-12.14-4.45c-2.56-2.91-3.59-7.52-3.59-13.85V80Z"/><path id="path913" class="cls-1" d="M702.56,166.66c0,26.68,12.66,42.24,41.56,42.24,24.11,0,41.89-14.54,41.89-38.31,0-24.1-13.68-32.65-27.36-38.13s-27.36-7.69-27.36-19.66c0-7.69,5-13.85,13.17-13.85,8.38,0,13.51,5.47,13.85,14.71h25.3c-3.76-25-16.75-36.26-40.18-36.26-24.11,0-38.81,15.39-38.81,39.33,0,21.38,13.68,29.24,27.35,34.71,13.68,5.3,27.36,8,27.36,19.5,0,9.06-5.13,15-14.7,15-11.29,0-15.73-6.15-16.07-19.32Z"/></g><g id="g943"><path id="path896" class="cls-2" d="M376.65,0,256.05,282.65l31.86,13.53L376.65,87.12l68.17,160.6,31.34-13.3Z"/><path id="path898" class="cls-2" d="M287.91,296.18c34.75-83.4,110.39-155.57,180.18-155.57v-29.2c-92.33,0-170.31,85.36-212,171.24l31.86,13.53Z"/></g></g></g></g></svg>