<svg xmlns="http://www.w3.org/2000/svg" viewBox="0 0 709.08 238.35"><defs><style>.cls-1{fill:#94a3b7;}</style></defs><g id="Layer_2" data-name="Layer 2"><g id="Layer_1-2" data-name="Layer 1"><path class="cls-1" d="M118.47,200.78a81.31,81.31,0,0,1-65.29-33C43.68,155,38,139.6,37.71,125.51l-.05-2.05h2.05l2.89,0c1,0,2,0,2.95,0,2,0,3.61.07,5.09.21,2.08.21,3.87,2.89,4.18,4.65C60,157,79,176.74,107,182.53a22.48,22.48,0,0,0,2.68.34V55.51l-1,.15a39.55,39.55,0,0,0-6.21,1.17C75.87,64.94,59.9,82.69,55,109.58c-.25,1.39-.92,5.09-5.37,5.09a7.83,7.83,0,0,1-.81,0c-.83-.06-1.73-.09-2.85-.09l-2,0-2.12,0h-.54A6.26,6.26,0,0,1,40,114.4l-.32-.06L38,114.06l0-1.65C37.48,88.85,55.88,56.7,87.55,43.67a80.11,80.11,0,0,1,30.64-6c25.89,0,50.58,12,64.44,31.33l1,1.35-10.49,11-1.43-1.15c-2.21-1.76-4.41-3.59-6.53-5.35A183.75,183.75,0,0,0,150.36,63.4a49.12,49.12,0,0,0-22.73-7.84V182.81c17-2.31,30.9-10.48,42.61-24.94l1.37-1.69,11.78,11.33-.92,1.39C169.85,188,144.13,200.78,118.47,200.78Z"/><path class="cls-1" d="M181,70.2l-8.08,8.46c-7.18-5.73-13.94-11.89-21.46-16.92a51.45,51.45,0,0,0-25.84-8.34V185.07c19.28-2,34.26-11.24,46.17-25.94l9,8.67c-14.19,21.44-48.48,38-83.75,28-36.87-10.41-56.71-44-57.34-70.34,3.58,0,7.18-.21,10.73.14.92.09,2.21,1.85,2.42,3,5.3,29.55,24.8,49.9,53.75,55.88,1.57.33,3.2.37,5.08.57V53.18c-3.47.6-6.76.8-9.82,1.73C74.72,63.2,58.16,81.13,53,109.22c-.48,2.65-1.4,3.63-4,3.42s-5.13,0-7.7-.06a9.51,9.51,0,0,1-1.3-.21c-.47-21.75,16.36-53.7,48.32-66.85C121,32.08,161.24,42.65,181,70.2Z"/><path class="cls-1" d="M119.69,238.35a124.84,124.84,0,0,1-14.85-.91C66.5,232.81,42.16,212.9,28.49,197,11,176.72.67,150.74.05,125.74l0-2H15.4l.36,1.53c.73,3,1.38,6,2,8.95a175,175,0,0,0,4.64,18.28c13.47,40.48,52.82,68.75,95.69,68.75,2.77,0,5.57-.12,8.32-.36,28.88-2.47,52.89-15.16,71.36-37.72,1.87-2.29,4-4.52,7.32-4.52a9.49,9.49,0,0,1,3.52.75,22.89,22.89,0,0,0,5.07,1.06c1.05.15,2.13.3,3.31.51l2.92.54-1.59,2.5a113.77,113.77,0,0,1-33,33.76C165.17,231.4,143.08,238.35,119.69,238.35Z"/><path class="cls-1" d="M2.05,125.69H13.82c2.25,9.39,3.77,18.62,6.69,27.39,14.76,44.35,59.43,73.75,106.08,69.76,29.55-2.53,53.92-15.46,72.74-38.46,2.46-3,4.5-4.78,8.56-3.17,2.46,1,5.26,1,8.76,1.68a112.31,112.31,0,0,1-32.44,33.17c-24,16.26-50.53,22.84-79.13,19.39C41.06,227.73,3.24,173.77,2.05,125.69Z"/><path class="cls-1" d="M.21,114.39v-2c.08-41.64,31.31-93.87,89-108.62A119.14,119.14,0,0,1,118.79,0c46.4,0,83.19,27.28,99.06,54.31l1.38,2.36-2.66.6-3.22.77c-2.87.7-5.84,1.42-8.84,1.84a3.11,3.11,0,0,1-.43,0c-2.32,0-4.43-2.52-4.83-3-16.57-21-37.8-33.77-63.12-38.08a105.84,105.84,0,0,0-17.78-1.52c-48,0-89.84,34.22-99.57,81.37-.62,3-1.06,6.09-1.52,9.33-.22,1.54-.45,3.11-.7,4.71l-.27,1.69Z"/><path class="cls-1" d="M14.58,112.39H2.21C2.29,74.11,30.53,20.83,89.73,5.69,145.77-8.63,196,21,216.12,55.32c-4,.92-7.9,2-11.89,2.57-1,.15-2.58-1.2-3.41-2.25-16.6-21-38-34.31-64.35-38.8A103.83,103.83,0,0,0,16.83,98.26C15.89,102.81,15.36,107.44,14.58,112.39Z"/><path class="cls-1" d="M327.19,67.68c-4.94,6-11.21,8.95-19.41,8.95-7.11,0-11.87-2.18-15.14-5.52-5.52-5.61-6.77-14.64-6.77-23.92,0-9.79,1.42-18.4,6.94-24.26,3.51-3.68,8.62-6,16.56-6,6.11,0,12.55,1.42,17.06,6.44l-5.94,7.28A16.09,16.09,0,0,0,309,26.28c-5.1,0-7.69,1.75-9.11,3.85-1.76,2.59-2.76,7.94-2.76,17.14,0,9.87,1.17,14.39,3.26,17C301.76,66,304,67.34,308,67.34c5.1,0,9.37-2.25,12.88-6.18Z"/><path class="cls-1" d="M369,75.62,365.16,63H344.83L340.9,75.62H329.78l18.9-57.7h13.05l18.73,57.7ZM355,28.87l-7.78,25.34h15.56Z"/><path class="cls-1" d="M397.61,17.92v57.7H387V17.92Z"/><path class="cls-1" d="M432,17.92c5.18,0,9.62.83,13,3S451,27,451,33.72c0,8.12-3.59,14-11.46,15.89,7.45,1.68,9.54,9.45,12,26H440.18c-2.84-16.47-4.18-21.49-10.53-21.49h-8.54V75.62H410.49V17.92ZM421.11,45H428c7.53,0,11.79-1.75,11.79-9.87,0-3.17-.66-5.52-1.92-6.6s-3.09-1.42-6.19-1.42H421.11Z"/><path class="cls-1" d="M475.48,17.92l22.41,43.32-.33-43.32h10.37v57.7h-13.8l-22.5-43.24L472,75.62H461.68V17.92Z"/><path class="cls-1" d="M548.91,29.54c-3.76-2.59-8.78-3.43-12.54-3.43-4.94,0-8.28,1.42-8.28,6.94,0,10.79,27.26,5.77,27.26,26.35,0,6.27-2.76,10.62-6.69,13.3a25.07,25.07,0,0,1-14.13,3.93c-5.94,0-13.8-1.59-18.15-5.77L521.73,63c3.93,3.17,9.2,4.43,14,4.43s8.78-1.26,8.78-7.61c0-11.88-27.26-6.36-27.26-26.43a14.2,14.2,0,0,1,5.94-12,23.26,23.26,0,0,1,14.3-4.43c5.18,0,12.21,1.42,16.48,4.94Z"/><path class="cls-1" d="M327.1,139.79c-4.51,6.1-10.87,9.2-18.9,9.2-6.19,0-10.54-1.76-13.8-4.94-5.44-5.43-6.86-14-6.86-24.84,0-9.7,1.17-18.65,6.53-24.25,3.42-3.51,8.19-5.69,15.64-5.69,6.1,0,11.79,1.51,16.39,6.53l-2.43,2.67c-4.09-4.1-8.61-5.52-14.05-5.52-6.86,0-10.54,2.18-12.88,4.77-2.76,3.18-4.93,8.87-4.93,21.49,0,13.22,2.42,18.82,5.43,22.09,2.26,2.34,5.61,4.09,11,4.09a20,20,0,0,0,16.31-8Z"/><path class="cls-1" d="M374.36,143.14c-3.6,3.76-8.78,5.93-16.48,5.93-7.53,0-12.79-2.09-16.22-5.85-4.44-4.85-5.94-12.55-5.94-23.25,0-11.29,1.67-19.49,6.77-24.84,3.6-3.77,8.79-5.94,16.48-5.94,7.53,0,12.8,2.09,16.23,5.85,4.43,4.85,5.93,12.3,5.93,23.25C381.13,129.5,379.46,137.78,374.36,143.14Zm-2.59-45.67c-2.51-2.68-6.44-4.68-12.88-4.68-6.28,0-10.37,1.84-13.22,4.85-3.76,4-5.6,10.45-5.6,22.24,0,10.21,1.42,17,5.1,21,2.43,2.67,6.44,4.6,12.8,4.6,6.18,0,10.37-1.84,13.21-4.85,3.76-4,5.6-10.54,5.6-22.25C376.78,108.09,375.45,101.48,371.77,97.47Z"/><path class="cls-1" d="M411.83,90.28c5.27,0,9.12,1,11.88,3,3.09,2.34,4.77,5.94,4.77,11.2,0,8.2-4.1,14-12.89,15.73,7.62,2,10.29,12,14.14,27.77h-4.35c-5.1-19.07-7.28-26.1-16.81-26.1h-9.7V148h-4.1V90.28Zm-13,27.93h7.69c10.46,0,17.57-3.18,17.57-13.38,0-3.93-1.09-6.69-3-8.45s-4.93-2.51-9.28-2.51h-13Z"/><path class="cls-1" d="M459.34,90.28c5,0,9,.67,11.87,3.17s4.69,6.86,4.69,13.47c0,7-1.84,11.37-4.85,13.88-2.76,2.26-6.53,3.1-11,3.1H446V148h-4.1V90.28ZM446,120.3h14.13c4.1,0,6.78-.92,8.45-2.59,2.09-2.09,3.09-5.52,3.09-10.71,0-5.6-1.17-8.61-2.92-10.45s-4.52-2.68-9.29-2.68H446Z"/><path class="cls-1" d="M524.41,143.14c-3.6,3.76-8.78,5.93-16.48,5.93-7.53,0-12.8-2.09-16.22-5.85-4.44-4.85-5.94-12.55-5.94-23.25,0-11.29,1.67-19.49,6.77-24.84,3.6-3.77,8.78-5.94,16.48-5.94,7.53,0,12.79,2.09,16.22,5.85,4.44,4.85,5.94,12.3,5.94,23.25C531.18,129.5,529.51,137.78,524.41,143.14Zm-2.6-45.67c-2.5-2.68-6.43-4.68-12.88-4.68-6.27,0-10.37,1.84-13.21,4.85-3.76,4-5.6,10.45-5.6,22.24,0,10.21,1.42,17,5.1,21,2.42,2.67,6.44,4.6,12.79,4.6,6.19,0,10.38-1.84,13.22-4.85,3.76-4,5.6-10.54,5.6-22.25C526.83,108.09,525.5,101.48,521.81,97.47Z"/><path class="cls-1" d="M561.88,90.28c5.27,0,9.12,1,11.88,3,3.09,2.34,4.76,5.94,4.76,11.2,0,8.2-4.09,14-12.88,15.73,7.62,2,10.29,12,14.14,27.77h-4.35c-5.1-19.07-7.28-26.1-16.81-26.1h-9.7V148h-4.1V90.28Zm-13,27.93h7.69c10.46,0,17.56-3.18,17.56-13.38,0-3.93-1.08-6.69-3-8.45s-4.93-2.51-9.28-2.51h-13Z"/><path class="cls-1" d="M627,148,621,131H595.34l-6.11,17H585l20.83-57.71h5.35L631.38,148ZM608.3,94.12,596.51,127.5H620Z"/><path class="cls-1" d="M670.86,90.28V94H651.29v54h-4.1V94H627.62V90.28Z"/><path class="cls-1" d="M708.75,90.28v3.59H684.24v22.75h22.67v3.6H684.24v24.17h24.84V148H680.15V90.28Z"/><path class="cls-1" d="M326.52,162.64v3.68H307v54h-4.1v-54H283.28v-3.68Z"/><path class="cls-1" d="M370.34,215.5c-3.59,3.76-8.78,5.93-16.47,5.93-7.53,0-12.8-2.09-16.23-5.85-4.43-4.85-5.94-12.55-5.94-23.25,0-11.29,1.68-19.49,6.78-24.84,3.59-3.77,8.78-5.94,16.47-5.94,7.53,0,12.8,2.09,16.23,5.85,4.43,4.86,5.94,12.3,5.94,23.26C377.12,201.86,375.45,210.14,370.34,215.5Zm-2.59-45.67c-2.51-2.68-6.44-4.68-12.88-4.68-6.27,0-10.37,1.84-13.21,4.85-3.77,4-5.61,10.45-5.61,22.24,0,10.21,1.42,17,5.1,21,2.43,2.67,6.45,4.6,12.8,4.6,6.19,0,10.37-1.84,13.22-4.85,3.76-4,5.6-10.54,5.6-22.25C372.77,180.45,371.43,173.84,367.75,169.83Z"/><path class="cls-1" d="M388.41,162.64l13.39,53.19,14.63-51.1h5.35l14.56,51.1,13.38-53.19h4.18l-15,57.71h-5.19l-14.72-51.19-14.8,51.19H399l-14.8-57.71Z"/><path class="cls-1" d="M492.79,162.64v3.59h-24.5V189H491v3.6H468.29v24.17h24.84v3.6H464.19V162.64Z"/><path class="cls-1" d="M523.07,162.64c5.27,0,9.12,1,11.88,3,3.09,2.34,4.77,5.94,4.77,11.21,0,8.19-4.1,14-12.88,15.72,7.61,2,10.28,12,14.13,27.77h-4.35c-5.1-19.07-7.28-26.1-16.81-26.1h-9.7v26.1H506V162.64Zm-13,27.93h7.69c10.46,0,17.57-3.18,17.57-13.38,0-3.93-1.09-6.69-3-8.45s-4.94-2.51-9.29-2.51h-13Z"/></g></g></svg>