<svg xmlns="http://www.w3.org/2000/svg" viewBox="0 0 768.3 227.08"><defs><style>.cls-1{fill:#94a3b7;}</style></defs><g id="Layer_2" data-name="Layer 2"><g id="Layer_1-2" data-name="Layer 1"><path class="cls-1" d="M767.62,181.63Q734.23,92.92,700.86,4.19c-1-2.62-2.33-3.32-5-3.31C678,1,660.2,1.07,642.38.85c-3.88,0-5.58,1-7,4.78q-30.18,81.55-60.71,163l-5.78,15.5h57.27c2.76-9,5.57-17.72,8-26.53.83-3,2.27-3.78,5.17-3.76q28.46.17,56.91,0c3.1,0,4.61.81,5.48,4,2.46,8.91,5.35,17.7,8,26.37h58.5A26.26,26.26,0,0,0,767.62,181.63Zm-120.31-67,19.88-65.65,1.42,0,20,65.62Z"/><path class="cls-1" d="M177.61,57.25c-8.76,1.94-16.88,3.72-25,5.53s-15.93,3.58-24.14,5.43c-.48-1-1-2-1.42-3-5.66-14.55-17.45-23-32.08-23A35.19,35.19,0,0,0,61.19,66c-5,14-4.71,28.62-3.45,43.16a82.94,82.94,0,0,0,3.48,17.73c4.17,13.19,13.64,20.47,27.31,21.85,13.52,1.35,25.68-1.66,33.12-14.17,3.79-6.39,6.23-13.57,9.57-21.06l47.57,14.38c-2.54,27.14-26.19,53.63-54,60a134,134,0,0,1-67.92-2C32,178.61,16.24,161,7.63,137.52c-10.31-28.07-10.07-57,.12-85C18.85,21.91,42.66,6.6,74,2.2,92.76-.44,111.5.1,129.81,5.81,155.27,13.75,169,32.63,177.61,57.25Z"/><path class="cls-1" d="M335,109.56c.12-19.46.81-39-.15-58.38-1.47-29.66-14.45-43.4-36.55-47.73a183.68,183.68,0,0,0-66.82-.75C220.79,4.53,211,8.13,202.83,15.57c-8.32,7.6-12,17.32-13.92,28.4l49.29,5.64c2.42-6.89,5.64-13.2,12.78-14.88a68.43,68.43,0,0,1,20.25-1.8c8.48.62,12.12,5.46,13,13.91.35,3.4-.4,5.53-4,6.55-9.57,2.7-19,5.86-28.62,8.42-14.18,3.78-28.77,6.25-42.61,11-17.17,5.88-25.23,19.47-24.61,37.64C185,127.85,195,141.52,211.31,147c12.06,4.08,24.45,3.81,36.88,2.32a61.12,61.12,0,0,0,36.08-17.16,23,23,0,0,1,2.53-1.87c1.56,4.82,2.77,9.38,4.58,13.68a5.79,5.79,0,0,0,4.22,2.93c15,.21,30.07.13,46.08.13C334.91,134.77,334.92,122.2,335,109.56Zm-75.64,10.7a27.27,27.27,0,0,1-10.19.12c-6.7-1-11.35-5.68-12.4-11.56-1.21-6.78,1.19-12.89,7.43-16.17a108.91,108.91,0,0,1,16.3-6.48c7.69-2.58,15.5-4.78,23.3-7.15C286.58,101,280.4,115.37,259.35,120.26Z"/><path class="cls-1" d="M472.39,41.55c-.48-21.81-13.17-37.7-34.81-39.2-29.48-2-59.14-1.44-89.29-2V147.26h44.82V92.94c2.35,0,4.27,0,6.19,0,10.78-.27,21.61-.05,32.33-1C452.49,90.16,466.7,78.6,470.92,60A76.21,76.21,0,0,0,472.39,41.55ZM417.18,62.3c-7.13,1.36-14.56,1.19-21.87,1.46-.77,0-2.27-1.47-2.28-2.28-.16-10.25-.11-20.5-.11-31.89,8.32.49,15.87.36,23.21,1.52,8,1.26,12.84,7.64,13.14,15.42C429.55,53.79,424.84,60.85,417.18,62.3Z"/><path class="cls-1" d="M523,147.41V42.5c0-6.28,0-6.29-6.48-6.29h-39.6v-35h137V36c-1.54.07-3.11.2-4.68.2q-17.18,0-34.35,0c-7.25,0-7.26,0-7.26,7.49V147.41Z"/><path class="cls-1" d="M231,180.41c0-4.69,0-9.37,0-14.14H216.61c-.28,2-.52,3.62-.81,5.66a13.58,13.58,0,0,1-1.73-1.31c-5.29-6.14-12-6.74-19.24-4.75s-10.45,7.57-11.39,14.47a39.42,39.42,0,0,0,.07,11.22c1.64,10.42,8.88,17,18.23,16.05,4.41-.46,8.61-2.9,13.33-4.59a80.39,80.39,0,0,1-.5,8.54c-.87,5.69-7.92,8.9-11.9,4.9-5.48-5.52-12-3.19-18-4.59-.6,8.07,2.92,13.41,10.55,14.4a85.88,85.88,0,0,0,21.37.26c9.83-1.21,14.56-7.64,14.56-17.68C231.11,199.37,231.06,189.89,231,180.41Zm-23.1,16.77c-4.48.67-8.28-3-8.69-8.46,0-.65,0-1.31,0-2l-.63-.21a67.43,67.43,0,0,1,2.84-7.58,5.67,5.67,0,0,1,3.08-2.26c4.3-1.55,8.79,1.54,10.09,6.76C216.29,190.16,213.25,196.39,207.94,197.18Z"/><path class="cls-1" d="M555,173.4c-3-5.74-8.05-9.1-14.38-8.23-5.14.71-10,3.24-15.07,5,0-.53-.22-2.22-.39-4H510.63v60h15.92V205.53c2.07,1.26,3.24,2,4.45,2.71,9.26,5.31,21.35,1.75,25.28-7.86A30.81,30.81,0,0,0,555,173.4Zm-13.57,19.93c-1.47,2.08-3.71,4.79-5.79,4.94a9.51,9.51,0,0,1-7.2-3.54c-3.14-4.43-2.89-9.74,0-14.26,1.19-1.88,4.2-3.8,6.23-3.64,2.27.18,4.83,2.32,6.36,4.31,1.26,1.62,1.2,4.26,1.69,6.28C542.26,189.62,542.43,191.9,541.41,193.33Z"/><path class="cls-1" d="M424.26,166.18h15.82v20.5c0,1.3-.05,2.61,0,3.92.23,3.93,1.58,7.11,6,7.6,3.76.42,7.32-2.68,7.66-7.33.44-6.18.23-12.4.29-18.61,0-1.93,0-3.85,0-6H470v43.08H455.49c-.16-2-.32-3.91-.41-5.11-4.52,2.08-8.89,5-13.69,6.09-9.44,2.08-16.35-3-17-12.62C423.74,187.28,424.26,176.84,424.26,166.18Z"/><path class="cls-1" d="M361.33,165c-6.54,0-12.69,1.21-17.8,5.64-7.14,6.2-9.58,16.85-6,26,3.5,9,12.59,14.27,24.24,14S382,205,385,195.93a4.21,4.21,0,0,0,.12-.48C390.33,178.55,379.81,165,361.33,165Zm8,28.16a8,8,0,0,1-7.86,6.87c-4.49.14-7.23-2.67-8.58-6.73a30.19,30.19,0,0,1-.82-5.29,48,48,0,0,1,.67-4.89c1-4.32,4.81-7.67,8.6-7.4a8.36,8.36,0,0,1,8.08,7.29A28.38,28.38,0,0,1,369.33,193.11Z"/><path class="cls-1" d="M271.65,209.32v-43h14.51c.12,1.83.23,3.68.37,5.84,8.83-8.3,11-8.86,18.8-4.87-1.53,3.52-3.07,7.06-4.59,10.54-8.91-1-12.3,1.69-12.8,10.75-.37,6.8-.07,13.64-.07,20.76Z"/></g></g></svg>