<svg xmlns="http://www.w3.org/2000/svg" viewBox="0 0 464.06 1461.22"><defs><style>.cls-1{fill:#9c4722;}.cls-1,.cls-2{fill-rule:evenodd;}.cls-2{fill:#e05e26;}</style></defs><g id="Layer_2" data-name="Layer 2"><g id="Layer_1-2" data-name="Layer 1"><path class="cls-1" d="M326.17,1040.26c24.39,14.42,7.5,22.76-1.95,38-4.08,6.58-9.73,14.1-12.8,20.41.5-13,7.42-23.94-2.29-36-8.37-10.4-8.75-3-4.74-37.35,3.48-23.24,3.88,3,4.49,3.87,5.22,7.62,7.06,6.59,17.29,11.09m-34.7,70.62c-.26-.18-5-2.65-6.44-5.32-5.64-10.18-.49-5.4,5.14-6.18C293.24,1099,292.67,1097.09,291.47,1110.88Zm-40-51.3,21.19,31.36c26.47,39.43,19.22,33,8.11,47,3.87,14.62,7.22,2,.51,22.49l-69.6-15.59ZM147.94,1237.36,131,1240.14c16-12.76,30.89-40.5,31.32-40.93,2.81-2.75,8.29-3.29,7.89.57C169.72,1204.73,151.56,1231.68,147.94,1237.36Zm8.21-2.57,16.46-34.15c7.06.49,9.78,2.58,12.78,6,3.79,4.32,5.11,4.39,3.08,10C184,1229.12,169.43,1232.64,156.15,1234.79ZM308.18,0h3.68L254.75,1052.07,270.8,1082c6.1,10.4,15.24,18,25.77,8.8.77,10.78-1.64,7.5-1.27,14.92.32,6.4-1.46,1.26,1.3,5.64,7.65-13.61-.91-24.38-2.45-36.64l7.4-66c.32-2.83-4.5-9-6.41-11.11-10-11.22-10.55-15.87-8.67-25.57,2.37-12.16,14.34-57.55,13.95-63.1-.69-10-8.31-12.79,1.46-36,1.25-3,5.3-8.61,7.74-9.8.4-.2.27-.86.38-1.32,2.3-8.79.7-23.47,1.55-33.2L350.77,0h3L314.15,863.45c9.36,6,6.16,2.52,9.92,17.95,3.21,13.21,2.49,14.23.43,27.37-5,16.2-4.45,49.49,1.65,65.33,2.58,5,19.84,16,26.76,17.82,10.67-37.27,57-54.29,77.73-18.08l7.15,13.2c2,3.44-.15,19.39-1.83,23.34-3.43,8.09-6.26,5.43-13.14,13a42.52,42.52,0,0,0,3.42,11.94c13.38,31.68,8.94,20,11.11,56.33,2,33,9.58,21.78-3.58,66.18-3.28,11.08-4.51,22.5-5.74,34.67-17.42,58.43-23.22,39.92-41.09,35.92-10.28,26.91-9.61,15.28-29.76,26.83l4.23,16.39c3.67,30.25-8.66,36-19.71,38.18H249.92a26.23,26.23,0,0,1-2.15-2.73c4-9.1,8.89-13.48,13.69-19.59-30-12.35-19.4,8-54.85,6.81-10.94-.36-22.83-.25-31.93-4.34-29.91-13.46-32.19-2.51-35.82,19.85H92.05c9.78-26.28,19.23-52.37,24.64-60.93-19.78,16-42.07,20.71-59.08,26.81-1.16.41-1.25,5.48-2.36,5.91s-3.48-3.66-4.64-3.15c1.35,14.72.43,5.35-12.07,8.83l-4.13,6.16a9.75,9.75,0,0,1-3.32,3.06v-69c2.16,4.63,2.32,9.4,5,20.36,28,4.77,49.52-32.82,69.29-52.81,16.8-17,21.31-18.66,30.8-30.32,13.53-16.64,10.8-22.46,43.64-21.94l26.91.43,43.51-96Z"/><path class="cls-2" d="M348.9,1058.21c24.39,14.42,7.5,22.76-1.95,38-4.08,6.57-9.73,14.09-12.8,20.4.51-13,7.42-23.93-2.29-36-8.37-10.41-8.75-2.95-4.74-37.35,3.49-23.24,3.88,3,4.5,3.86,5.21,7.63,7.06,6.59,17.28,11.1m-34.7,70.62c-.26-.19-5-2.65-6.44-5.33-5.64-10.18-.49-5.39,5.15-6.17C316,1116.9,315.4,1115,314.2,1128.83Zm-40-51.3,21.18,31.36c26.47,39.42,19.22,33,8.11,47,3.87,14.62,7.23,2,.52,22.48l-69.61-15.59ZM170.67,1255.31l-16.91,2.77c16-12.76,30.88-40.49,31.31-40.92,2.82-2.75,8.3-3.3,7.89.57C192.45,1222.68,174.29,1249.63,170.67,1255.31Zm8.22-2.57,16.45-34.15c7.07.48,9.78,2.58,12.78,6,3.79,4.32,5.11,4.38,3.08,10.05C206.75,1247.06,192.17,1250.59,178.89,1252.74ZM328.48,0h3.59L277.48,1070l16,29.9c6.1,10.4,15.25,18,25.77,8.8.78,10.78-1.64,7.49-1.27,14.92.33,6.4-1.45,1.26,1.3,5.64,7.66-13.61-.91-24.39-2.45-36.64l7.41-66c.31-2.83-4.51-9-6.42-11.11-10-11.22-10.55-15.87-8.66-25.57,2.36-12.16,14.33-57.55,13.94-63.1-.69-10-8.3-12.8,1.46-36,1.26-3,5.3-8.61,7.74-9.8.4-.2.27-.87.39-1.32,2.29-8.79.69-23.47,1.54-33.2L368.9,0H372L336.88,881.39c9.36,6,6.17,2.53,9.93,18,3.21,13.22,2.48,14.23.42,27.38-5,16.2-4.45,49.49,1.66,65.33,2.57,5,19.83,16,26.75,17.82,10.67-37.27,57-54.3,77.73-18.08l7.16,13.2c2,3.44-.16,19.39-1.83,23.33-3.44,8.1-6.27,5.44-13.15,13a42.52,42.52,0,0,0,3.42,11.94c13.38,31.68,8.94,20,11.11,56.33,2,33,9.58,21.78-3.58,66.17-3.28,11.09-4.5,22.51-5.73,34.68-17.43,58.43-23.23,39.92-41.1,35.92-10.27,26.91-9.61,15.28-29.75,26.83l4.22,16.39c5.64,46.51-26.53,35.14-33.73,41.8-5.76,6.6-1.55,2.16-4.82,12-2,6.1-.84,3.73-3.78,10-10.69,22.69.68.76-10,8.45-1.44,16.08-7,14.76-3.83,34.74-6.92-4-8.4-3.82-10.51-2.74-5.77,3-6.68,21.47,1.09,20.63,10.75-1.16,4.74-3.23,11.68-10.28-1.06,14.2-3.47,15-18.46,12.9-2.81-16.27,1.77-23.43,5.37-34.45-19.16,5-10,2.37-24.31-3.81-12.38-5.34-14,1.52-20.24-10.14,11.05-1.1,4.69,5.91,7.24-5.64,9.49-1.21,1.36-.45,1.24-9.83,11.26-20-1.92-15.45-10.6-28.16,4-9.11,8.88-13.49,13.68-19.59-30-12.35-19.39,8-54.84,6.81-10.94-.37-22.84-.25-31.94-4.34-35.07-15.79-32.15,2-38,32.4-2.71,14.18-5.8,18.44-12.85,29.37-7.42,8.13-50.14,57.25-48.34,66.86-12.3,4.84-1.76.86-5.44,8.68-8.29,1.1-10.67,2.08-11.78,6.25-1.83,6.79,1,6.11-7.07,8.63-14.34,4.46-11.06-5.13-26-13.86l-41.5-26.46c-6.92-4.41-7-3.36-6-12.27,2-17.63,13.76-11.79,32.28-9,7.36,3.79,17,7.06,26.23,6.91,18.14-.29,18.15.29,25.59-12.15,11.75-4.61,43-107.65,54.85-126.41-19.77,16-42.07,20.71-59.07,26.81-1.16.41-1.26,5.47-2.37,5.9s-3.47-3.65-4.64-3.14c1.35,14.72.43,5.34-12.07,8.83l-4.12,6.16c-5.81,8.54-21.08,3.8-22.64-4.79-1-5.83-1.38-9.77-1.4-19.62,0-5.93-2.74-20.31-2.62-32.44.07-7-1.84-14.86,1.18-18.32,2.57-2.93,18.14,1.68,21.62,8.13,2.69,5,2.65,9.62,5.53,21.43,28,4.76,49.53-32.82,69.3-52.81,16.79-17,21.3-18.66,30.79-30.33,13.53-16.64,10.8-22.45,43.65-21.93l26.91.43,43.5-96ZM316.54,1361.1c1.56-4.84,1.12-4.89,3.34-8.38,5.42-8.5,1-3.33,6.48-5.45C324.46,1358.06,326.37,1357.66,316.54,1361.1Z"/></g></g></svg>