<svg xmlns="http://www.w3.org/2000/svg" viewBox="0 0 388.29 395.71"><defs><style>.cls-1{fill:#fff;}</style></defs><g id="Layer_2" data-name="Layer 2"><g id="Layer_1-2" data-name="Layer 1"><path class="cls-1" d="M44.73,0V9.41H22.89a2.05,2.05,0,0,0-1,.28,3.66,3.66,0,0,0-.92.68,3.42,3.42,0,0,0-.72,1,2.4,2.4,0,0,0-.24,1V45.05a2.2,2.2,0,0,0,.28,1,3.3,3.3,0,0,0,.76.92,4.44,4.44,0,0,0,1,.63,2.78,2.78,0,0,0,1.11.24H45.53v9.49H11.88a12.61,12.61,0,0,1-2.67-.28,11.37,11.37,0,0,1-2.51-.83A11.57,11.57,0,0,1,4.63,54.9a10.3,10.3,0,0,1-1.76-1.79,16.81,16.81,0,0,1-1.24-2,10.55,10.55,0,0,1-.91-2.39A18.38,18.38,0,0,1,0,43.62V14.11A18,18,0,0,1,.2,11.4,21.61,21.61,0,0,1,.72,8.93,24.7,24.7,0,0,1,1.79,6.38,13.52,13.52,0,0,1,3.11,4.23a17.66,17.66,0,0,1,1.47-1.6,7.84,7.84,0,0,1,1.64-1.2A9,9,0,0,1,11.16,0Z"/><path class="cls-1" d="M101.91,29.74V57.17H84.84l-1.19-4.46a2.79,2.79,0,0,1-.28.83c-.14.24-.26.47-.36.68a4,4,0,0,1-.56.84c-.21.24-.43.47-.64.68a5.47,5.47,0,0,1-4,1.43H60a12.82,12.82,0,0,1-2.59-.24,9,9,0,0,1-2.11-.71A6.21,6.21,0,0,1,53.54,55a8.81,8.81,0,0,1-1.31-1.71,9,9,0,0,1-1-2.36,18.85,18.85,0,0,1-.52-2.59c-.1-.9-.17-1.81-.2-2.71s0-1.75,0-2.55V40.67a22.13,22.13,0,0,1,.16-2.56c.11-.84.26-1.68.44-2.51a11.63,11.63,0,0,1,.76-2.27,8.85,8.85,0,0,1,1.4-2,6.23,6.23,0,0,1,2-1.48,8.49,8.49,0,0,1,2.15-.72A13.48,13.48,0,0,1,60,28.87H79.82a2.24,2.24,0,0,0,1.11-.32,4.06,4.06,0,0,0,1-.88,2.41,2.41,0,0,0,.52-.8,2.36,2.36,0,0,0,.2-.88,2.12,2.12,0,0,0-.24-.95,2.29,2.29,0,0,0-.64-.8,3.6,3.6,0,0,0-.88-.64,2.06,2.06,0,0,0-1-.24H53.66V15.15H90.34a14.28,14.28,0,0,1,3,.28,10.34,10.34,0,0,1,2.48.84A7.48,7.48,0,0,1,98,17.7a9.67,9.67,0,0,1,1.55,1.92,10.66,10.66,0,0,1,1.08,2,13.5,13.5,0,0,1,.68,2.19,17.79,17.79,0,0,1,.52,3C101.87,27.88,101.91,28.84,101.91,29.74ZM82.61,37H73.2a2.63,2.63,0,0,0-1.24.32,4.86,4.86,0,0,0-1.07.79,6,6,0,0,0-.72,1.08,2.51,2.51,0,0,0-.32,1.16v6a2.05,2.05,0,0,0,.2.83,6.65,6.65,0,0,0,.44.84,4,4,0,0,0,1,.72,2.11,2.11,0,0,0,1,.32h7.66a1.7,1.7,0,0,0,.87-.28,4.41,4.41,0,0,0,.88-.68,2.44,2.44,0,0,0,.52-.76,2.05,2.05,0,0,0,.2-.83Z"/><path class="cls-1" d="M128.46,15.15V57.33H109.24V15.15ZM109.4.16h18.9V11.08H109.4Z"/><path class="cls-1" d="M153.5,57.33H134v-42H153.5v3.75a5.22,5.22,0,0,1,1-1.2,3.4,3.4,0,0,1,.6-.6,5.14,5.14,0,0,1,.68-.44c.32-.21.64-.41,1-.59a4.77,4.77,0,0,1,.95-.44c.37-.11.73-.2,1.08-.28a4.4,4.4,0,0,1,1-.12h11.56V27H161.15a11.62,11.62,0,0,0-2.79.32,8.43,8.43,0,0,0-2.31.88,3.56,3.56,0,0,0-1,.6,4.18,4.18,0,0,0-.72.83,2.68,2.68,0,0,0-.67,1.08,4,4,0,0,0-.2,1.31Z"/><path class="cls-1" d="M196.32,26V57.33H176.86V15.39h40.75A10.75,10.75,0,0,1,223,16.75,9.63,9.63,0,0,1,226.62,20a11.75,11.75,0,0,1,1,1.88,14.84,14.84,0,0,1,.8,2.27,19.23,19.23,0,0,1,.48,2.55,26.13,26.13,0,0,1,.16,2.87V57.33h-19.3V26.07a2.62,2.62,0,0,0-.2-1.07,2.39,2.39,0,0,0-.52-.76,2.27,2.27,0,0,0-.91-.56,3.65,3.65,0,0,0-1-.16h-8.37a3,3,0,0,0-.88.16,2.06,2.06,0,0,0-.8.48,2,2,0,0,0-.56.72A2.59,2.59,0,0,0,196.32,26Z"/><path class="cls-1" d="M280.76,15.39v7.73H255.08a2,2,0,0,0-.6.12,6.72,6.72,0,0,0-.67.28,1.53,1.53,0,0,0-.52.4.87.87,0,0,0-.2.56v2.31a.63.63,0,0,0,.24.52,3,3,0,0,0,.56.36,2.68,2.68,0,0,0,.67.24,3.39,3.39,0,0,0,.68.08h18.9a10.09,10.09,0,0,1,1.79.16,13.58,13.58,0,0,1,1.72.4,8.19,8.19,0,0,1,1.63.79,8.39,8.39,0,0,1,1.4,1.12,7.18,7.18,0,0,1,1,1.28,9.92,9.92,0,0,1,1.23,3.42,14.4,14.4,0,0,1,.16,2.24v9.8a11.64,11.64,0,0,1-.2,2.16,9.73,9.73,0,0,1-.6,2A6.46,6.46,0,0,1,281.4,53c-.38.5-.75,1-1.12,1.39a12.89,12.89,0,0,1-1.51,1.16,17.49,17.49,0,0,1-1.6.91,9.85,9.85,0,0,1-2.27.68,12.67,12.67,0,0,1-2.27.2h-37V49.76h27.43a1.72,1.72,0,0,0,.67-.16,2,2,0,0,0,.6-.4,1.11,1.11,0,0,0,.48-.48,1.35,1.35,0,0,0,.16-.64V45.77a1.17,1.17,0,0,0-.16-.6,1.21,1.21,0,0,0-.48-.44,2.42,2.42,0,0,0-.64-.36,1.76,1.76,0,0,0-.63-.12h-18.9a13.55,13.55,0,0,1-2.27-.19,10.45,10.45,0,0,1-2.28-.68,8.16,8.16,0,0,1-1.39-.8,5.15,5.15,0,0,1-1.16-1.12,6.67,6.67,0,0,1-.84-1.23,10.12,10.12,0,0,1-.59-1.4,9,9,0,0,1-.24-1.35,12.35,12.35,0,0,1-.08-1.52V24.8a8,8,0,0,1,.24-2,10.72,10.72,0,0,1,.64-1.8,13.37,13.37,0,0,1,1-1.51,7.05,7.05,0,0,1,1.28-1.28,9.55,9.55,0,0,1,1.55-1.12,11.57,11.57,0,0,1,1.72-.79,15.72,15.72,0,0,1,2.31-.64,11.78,11.78,0,0,1,2.31-.24Z"/><path class="cls-1" d="M20.81,98.14V121H35.88V98.14H55.74v57.09H35.88V130.44H20.81v24.79H.8V98.14Z"/><path class="cls-1" d="M103.1,113.21a15.51,15.51,0,0,1,2.71.24,9.37,9.37,0,0,1,2.63.88,6.73,6.73,0,0,1,1.76,1.27,10.15,10.15,0,0,1,1.43,1.84,14.73,14.73,0,0,1,.72,1.67,10.78,10.78,0,0,1,.48,1.92,23.76,23.76,0,0,1,.16,2.87v14.91H80.54v4.54a3.1,3.1,0,0,0,.31,1.32,3.46,3.46,0,0,0,.88,1.15,4.31,4.31,0,0,0,1.2.88,2.84,2.84,0,0,0,1.27.32h26.88v8.21H71a14.92,14.92,0,0,1-2.51-.2,7.12,7.12,0,0,1-2.28-.75,6.14,6.14,0,0,1-1.75-1.12A8.16,8.16,0,0,1,63,151.41a6.68,6.68,0,0,1-.79-1.72,18.34,18.34,0,0,1-.56-2.19,14.09,14.09,0,0,1-.24-1.71c0-.62-.08-1.27-.08-2v-18.9c0-.63,0-1.24.08-1.83s.1-1.14.16-1.68a16.14,16.14,0,0,1,.64-2.51,9.54,9.54,0,0,1,.95-2,7.3,7.3,0,0,1,1.48-1.75A6.46,6.46,0,0,1,66.5,114a9.49,9.49,0,0,1,2.08-.6,12.84,12.84,0,0,1,2.23-.2Zm-8.85,17.46v-6.61a2.06,2.06,0,0,0-.2-.84,4.16,4.16,0,0,0-.52-.84,2.85,2.85,0,0,0-.71-.64,1.57,1.57,0,0,0-.8-.24H82.77a1.34,1.34,0,0,0-.76.24,4.5,4.5,0,0,0-.68.56,4.66,4.66,0,0,0-.52.84,2,2,0,0,0-.19.84v6.69Z"/><path class="cls-1" d="M139.62,113.13v42.18H120.4V113.13Zm-19.06-15h18.9v10.93h-18.9Z"/><path class="cls-1" d="M195.12,159.46a12.22,12.22,0,0,1-.2,2.19,9.63,9.63,0,0,1-.6,2,9.12,9.12,0,0,1-.83,1.91,16,16,0,0,1-1.16,1.67,11.71,11.71,0,0,1-1.36,1.44,14,14,0,0,1-1.43,1.12,11.6,11.6,0,0,1-2,.91,6,6,0,0,1-2,.36H146.64V163h25.51a3.89,3.89,0,0,0,1.76-.36,3.32,3.32,0,0,0,1.2-1,3.86,3.86,0,0,0,.71-1.27,4.53,4.53,0,0,0,.24-1.44v-3.67H154.13a11,11,0,0,1-2.51-.27,10.1,10.1,0,0,1-2.11-.76,10.57,10.57,0,0,1-1.79-1.12,8,8,0,0,1-1.48-1.43,8.33,8.33,0,0,1-1.12-1.6,11,11,0,0,1-.79-1.83,11.3,11.3,0,0,1-.68-2.43,15.74,15.74,0,0,1-.2-2.44v-18.5a12.68,12.68,0,0,1,.16-2,12.9,12.9,0,0,1,.48-2.07,11.25,11.25,0,0,1,.83-2,17.6,17.6,0,0,1,1.16-1.83,10.42,10.42,0,0,1,1.6-1.71,7.92,7.92,0,0,1,1.91-1.24,10.48,10.48,0,0,1,2-.76,9.35,9.35,0,0,1,2.27-.28h41.23Zm-21.45-38h-9.49a.92.92,0,0,0-.6.24,1.78,1.78,0,0,0-.44.64,3,3,0,0,0-.23.76,3.78,3.78,0,0,0-.08.76v20.73a1.94,1.94,0,0,0,.2.84,3.79,3.79,0,0,0,.51.83,3.32,3.32,0,0,0,.76.56,1.74,1.74,0,0,0,.84.24h8.77a1.6,1.6,0,0,0,.76-.2,1.65,1.65,0,0,0,.59-.52,1.94,1.94,0,0,0,.48-.71,2.11,2.11,0,0,0,.16-.8V124.06a2.09,2.09,0,0,0-.2-.92,2.54,2.54,0,0,0-.51-.76,3.07,3.07,0,0,0-.72-.64A1.54,1.54,0,0,0,173.67,121.5Z"/><path class="cls-1" d="M201.42,155.23V98H220.8v15.31h21.29a12,12,0,0,1,2.63.28,9.33,9.33,0,0,1,2.23.84,12.19,12.19,0,0,1,1.91,1.27,11,11,0,0,1,1.6,1.6,19.25,19.25,0,0,1,1.19,1.87,10.06,10.06,0,0,1,.88,2,20.38,20.38,0,0,1,.76,2.75,14.42,14.42,0,0,1,.28,2.75v28.62h-19.3V123.74a1.82,1.82,0,0,0-.2-.8,2.59,2.59,0,0,0-.52-.72,5.11,5.11,0,0,0-.79-.52,1.85,1.85,0,0,0-.8-.2h-9.25a1.25,1.25,0,0,0-.76.28,2.6,2.6,0,0,0-.6.68,5.38,5.38,0,0,0-.4.84,2.57,2.57,0,0,0-.15.84v31.09Z"/><path class="cls-1" d="M283.47,104.2v9.09h15.39v8.13H283.47v23.45a2.82,2.82,0,0,0,.12.8,2.27,2.27,0,0,0,.36.71,1.6,1.6,0,0,0,.72.52,3.11,3.11,0,0,0,1.19.2h14v8.13H274.38a12.75,12.75,0,0,1-3.07-.35,10.28,10.28,0,0,1-2.51-1,12.49,12.49,0,0,1-1.48-1.2,11.19,11.19,0,0,1-1.23-1.35,14.22,14.22,0,0,1-1-1.84,10.62,10.62,0,0,1-.68-2q-.15-.8-.24-1.56c-.05-.5-.08-1-.08-1.55v-23H255.8v-8.13h8.13V104.2Z"/><path class="cls-1" d="M48.24,196.2v9.41H21.53a2,2,0,0,0-.76.16,3.91,3.91,0,0,0-.68.4,2.08,2.08,0,0,0-.51.56,1.26,1.26,0,0,0-.2.72v4.22a1.5,1.5,0,0,0,.12.6,3.19,3.19,0,0,0,.35.6,3.73,3.73,0,0,0,.8.72,1.75,1.75,0,0,0,1,.32H39.15a17,17,0,0,1,2.19.15,14.74,14.74,0,0,1,2.2.48,10.56,10.56,0,0,1,2.11.88,12.62,12.62,0,0,1,1.87,1.28,12.85,12.85,0,0,1,1.2,1.35,8.18,8.18,0,0,1,1,1.6,8.53,8.53,0,0,1,.59,1.91,11.69,11.69,0,0,1,.2,2.31v17.47a17.08,17.08,0,0,1-.08,1.75,16.41,16.41,0,0,1-.23,1.67,11.71,11.71,0,0,1-.68,2.24,13.72,13.72,0,0,1-1,1.91,9.15,9.15,0,0,1-3.11,3,9.58,9.58,0,0,1-2.63,1.08,12.45,12.45,0,0,1-3,.36H1.83v-9.49H28.47a3.16,3.16,0,0,0,1-.16,4.72,4.72,0,0,0,.88-.4,2.45,2.45,0,0,0,.68-.6,1.37,1.37,0,0,0,.28-.84v-5A1.54,1.54,0,0,0,31,236a1.87,1.87,0,0,0-.64-.64,2,2,0,0,0-.76-.47,2.34,2.34,0,0,0-.83-.16H9.49a10.88,10.88,0,0,1-2.11-.2,18.31,18.31,0,0,1-1.8-.44A9,9,0,0,1,4,233.32a6.37,6.37,0,0,1-1.28-1,7.5,7.5,0,0,1-1.12-1.39,8.4,8.4,0,0,1-.79-1.71,11.29,11.29,0,0,1-.64-3.91V207.45a12.71,12.71,0,0,1,.16-2,12.9,12.9,0,0,1,.48-2.07,10.86,10.86,0,0,1,.83-2,16.73,16.73,0,0,1,1.16-1.84,9.55,9.55,0,0,1,1.28-1.35,8.57,8.57,0,0,1,1.59-1.12,10.93,10.93,0,0,1,1.88-.64,8.91,8.91,0,0,1,2.11-.24Z"/><path class="cls-1" d="M107.09,225.71v27.43H90l-1.19-4.47a2.6,2.6,0,0,1-.28.84c-.13.24-.25.46-.36.68a3.89,3.89,0,0,1-.56.83c-.21.24-.42.47-.64.68a5.42,5.42,0,0,1-4,1.44H65.23a12.86,12.86,0,0,1-2.6-.24,8.6,8.6,0,0,1-2.11-.72,6,6,0,0,1-1.79-1.24,8,8,0,0,1-1.32-1.71,9.25,9.25,0,0,1-1-2.35,19.1,19.1,0,0,1-.51-2.59c-.11-.91-.18-1.81-.2-2.72s0-1.75,0-2.55v-2.39a19.84,19.84,0,0,1,.16-2.55,23.09,23.09,0,0,1,.44-2.51,11.09,11.09,0,0,1,.75-2.28,8.85,8.85,0,0,1,1.4-2,6.31,6.31,0,0,1,2-1.47,8.63,8.63,0,0,1,2.15-.72,13.49,13.49,0,0,1,2.64-.24H85a2.27,2.27,0,0,0,1.12-.32,3.66,3.66,0,0,0,1-.88,2.31,2.31,0,0,0,.52-.79,2.36,2.36,0,0,0,.2-.88,2.13,2.13,0,0,0-.24-1,2.39,2.39,0,0,0-.64-.8,3.33,3.33,0,0,0-.87-.63,2.13,2.13,0,0,0-1-.24H58.85v-8.22H95.53a15.16,15.16,0,0,1,3,.28,10.41,10.41,0,0,1,2.47.84,7.31,7.31,0,0,1,2.19,1.44,9.74,9.74,0,0,1,1.56,1.91,11.92,11.92,0,0,1,1.07,2,13.31,13.31,0,0,1,.68,2.2,16.86,16.86,0,0,1,.52,3C107.05,223.85,107.09,224.8,107.09,225.71ZM87.79,233H78.38a2.62,2.62,0,0,0-1.23.32,4.45,4.45,0,0,0-1.08.8,6,6,0,0,0-.72,1.08,2.44,2.44,0,0,0-.32,1.15v6a2.06,2.06,0,0,0,.2.84c.14.29.28.57.44.84a4.78,4.78,0,0,0,1,.71,2,2,0,0,0,1,.32h7.65a1.73,1.73,0,0,0,.88-.28,4,4,0,0,0,.87-.67,2.51,2.51,0,0,0,.52-.76,2.06,2.06,0,0,0,.2-.84Z"/><path class="cls-1" d="M153.26,196.2v8.06h-14a3.9,3.9,0,0,0-.87.08,1.65,1.65,0,0,0-.64.24,1.37,1.37,0,0,0-.6.71,2.82,2.82,0,0,0-.12.8v5h15.39v8.14H137.07v33.89H117.53V219.25h-8v-8.06h8v-4.38c0-.53,0-1.06.08-1.6a9,9,0,0,1,.32-1.59,13.28,13.28,0,0,1,.64-2,8.64,8.64,0,0,1,1-1.88,10.57,10.57,0,0,1,1.31-1.39,8.86,8.86,0,0,1,1.64-1.16,8.74,8.74,0,0,1,2-.72,11.24,11.24,0,0,1,2.43-.24Z"/><path class="cls-1" d="M199.82,211.19a15.62,15.62,0,0,1,2.72.24,9.82,9.82,0,0,1,2.63.88,6.9,6.9,0,0,1,1.75,1.28,10.21,10.21,0,0,1,1.44,1.83,16.75,16.75,0,0,1,.71,1.67,10,10,0,0,1,.48,1.92,23.76,23.76,0,0,1,.16,2.87v14.91H177.26v4.55a3,3,0,0,0,.32,1.31,3.44,3.44,0,0,0,.87,1.16,4.64,4.64,0,0,0,1.2.87,2.76,2.76,0,0,0,1.28.32H207.8v8.22H167.69a16,16,0,0,1-2.51-.2,7.32,7.32,0,0,1-2.27-.76,6.19,6.19,0,0,1-1.76-1.12,7.84,7.84,0,0,1-1.43-1.75,6.69,6.69,0,0,1-.8-1.72,20.47,20.47,0,0,1-.56-2.19,14.09,14.09,0,0,1-.24-1.71c-.05-.61-.08-1.26-.08-2V222.92c0-.64,0-1.25.08-1.84s.11-1.14.16-1.67a15.85,15.85,0,0,1,.64-2.51,9.17,9.17,0,0,1,1-2,7.23,7.23,0,0,1,1.47-1.75,6.46,6.46,0,0,1,1.87-1.12,10.74,10.74,0,0,1,2.08-.6,12.84,12.84,0,0,1,2.23-.2ZM191,228.66V222a1.91,1.91,0,0,0-.2-.84,4.1,4.1,0,0,0-.51-.84,3,3,0,0,0-.72-.63,1.54,1.54,0,0,0-.8-.24h-9.25a1.34,1.34,0,0,0-.76.24,4.35,4.35,0,0,0-.67.55,3.75,3.75,0,0,0-.52.84,1.91,1.91,0,0,0-.2.84v6.7Z"/><path class="cls-1" d="M239.61,202.18v9.09H255v8.14H239.61v23.44a2.77,2.77,0,0,0,.12.8,2.43,2.43,0,0,0,.36.72,1.67,1.67,0,0,0,.72.51,3,3,0,0,0,1.2.2h14v8.14H230.52a12.31,12.31,0,0,1-3.07-.36,10,10,0,0,1-2.51-1,12.38,12.38,0,0,1-1.47-1.2,10.5,10.5,0,0,1-1.24-1.35,18,18,0,0,1-1-1.83,10.68,10.68,0,0,1-.67-2,15,15,0,0,1-.24-1.55,13.36,13.36,0,0,1-.08-1.56v-23h-8.3v-8.14h8.14v-9.09Z"/><path class="cls-1" d="M281.08,211.19v31.26a2.35,2.35,0,0,0,.16.84,2,2,0,0,0,.48.76,2.14,2.14,0,0,0,1.67.95h8.69a1.26,1.26,0,0,0,.72-.2,1.77,1.77,0,0,0,.56-.59,2.32,2.32,0,0,0,.36-.76,3,3,0,0,0,.12-.76V211.43H313v47.69a9,9,0,0,1-.16,1.67c-.1.59-.24,1.17-.4,1.76a12,12,0,0,1-.75,1.67,12.85,12.85,0,0,1-1,1.52,8.79,8.79,0,0,1-1.28,1.31,9.64,9.64,0,0,1-1.59,1.08,11.12,11.12,0,0,1-1.87.64,10,10,0,0,1-2.2.23H264.17v-8.13H291a3.58,3.58,0,0,0,1.19-.2,3.16,3.16,0,0,0,1-.52,3,3,0,0,0,.52-.71,2,2,0,0,0,.2-.88V253.3H273a11.3,11.3,0,0,1-2.71-.32,9.07,9.07,0,0,1-2.39-1,10.4,10.4,0,0,1-2-1.51,14.08,14.08,0,0,1-1.72-2,10.9,10.9,0,0,1-1-1.75,15.14,15.14,0,0,1-1.24-4.15,15.71,15.71,0,0,1-.16-2.31V211.19Z"/><path class="cls-1" d="M11.89,323.13v19.63H3V323.13Zm-8.87-7h8.8v5.08H3Z"/><path class="cls-1" d="M23.1,328.18v14.58H14V323.24H33a5,5,0,0,1,2.52.64,4.34,4.34,0,0,1,1.67,1.52,5.86,5.86,0,0,1,.48.87,7,7,0,0,1,.37,1.06,8.22,8.22,0,0,1,.23,1.18,11.54,11.54,0,0,1,.07,1.34v12.91h-9V328.22a1.21,1.21,0,0,0-.09-.5,1.33,1.33,0,0,0-.24-.36,1.13,1.13,0,0,0-.43-.26,2,2,0,0,0-.46-.07h-3.9a1.68,1.68,0,0,0-.41.07.93.93,0,0,0-.37.23.81.81,0,0,0-.26.33A1.21,1.21,0,0,0,23.1,328.18Z"/><path class="cls-1" d="M65,316.16v26.6H46a9.7,9.7,0,0,1-1.21-.05,3,3,0,0,1-.65-.15.87.87,0,0,1-.29-.17.72.72,0,0,0-.15-.11,4.27,4.27,0,0,1-.89-.55,4.76,4.76,0,0,1-.71-.71,4.57,4.57,0,0,1-.52-.82,6.2,6.2,0,0,1-.37-.89,6.7,6.7,0,0,1-.22-.94,5.8,5.8,0,0,1-.08-.91v-8.69a7.31,7.31,0,0,1,.1-1.26,5.64,5.64,0,0,1,.28-1.11,4.45,4.45,0,0,1,.44-.93,8.54,8.54,0,0,1,.56-.78,4.55,4.55,0,0,1,.8-.65,4.77,4.77,0,0,1,.9-.46,7.79,7.79,0,0,1,1-.35,2.45,2.45,0,0,1,.6-.1.83.83,0,0,1,.28,0,.21.21,0,0,0,.11,0H55.9v-7ZM54.9,327h-4a.72.72,0,0,0-.39.13,1.52,1.52,0,0,0-.35.32,1.47,1.47,0,0,0-.24.4,1.2,1.2,0,0,0-.09.45v9.42a1.09,1.09,0,0,0,.09.41.8.8,0,0,0,.28.37,1,1,0,0,0,.35.3,1,1,0,0,0,.43.11H54.9a.6.6,0,0,0,.37-.13,1.88,1.88,0,0,0,.34-.28,1.63,1.63,0,0,0,.24-.4,1.13,1.13,0,0,0,.09-.41v-9.47a1,1,0,0,0-.09-.4,1.52,1.52,0,0,0-.24-.41,1.21,1.21,0,0,0-.34-.3A.72.72,0,0,0,54.9,327Z"/><path class="cls-1" d="M76.8,323.17v14.7a.77.77,0,0,0,.11.39,1.52,1.52,0,0,0,.26.35,1.58,1.58,0,0,0,.39.24.92.92,0,0,0,.39.09h4a1.15,1.15,0,0,0,.39-.07,1,1,0,0,0,.35-.22,1.92,1.92,0,0,0,.26-.32.58.58,0,0,0,.11-.35V323.21h9v19.55h-19a5,5,0,0,1-1.19-.13,4.89,4.89,0,0,1-1-.35,5,5,0,0,1-.89-.61,5.9,5.9,0,0,1-.74-.76,6,6,0,0,1-.61-.91,6.7,6.7,0,0,1-.47-1,9.56,9.56,0,0,1-.24-1.06,6.41,6.41,0,0,1-.09-1.06V323.17Z"/><path class="cls-1" d="M116.17,323.24v3.6h-12a.88.88,0,0,0-.28.06,2.22,2.22,0,0,0-.31.13.79.79,0,0,0-.25.19.39.39,0,0,0-.09.26v1.07a.3.3,0,0,0,.11.24,1.17,1.17,0,0,0,.26.17,1.21,1.21,0,0,0,.32.11,1.15,1.15,0,0,0,.31,0h8.8a4.73,4.73,0,0,1,.83.07,5.87,5.87,0,0,1,.8.19,3.82,3.82,0,0,1,.76.37,3.62,3.62,0,0,1,.65.52,3.48,3.48,0,0,1,.47.59,4.61,4.61,0,0,1,.35.74,4,4,0,0,1,.22.86,6.76,6.76,0,0,1,.08,1v4.56a5.38,5.38,0,0,1-.1,1,4.17,4.17,0,0,1-.28.93,2.77,2.77,0,0,1-.4.76c-.18.24-.35.45-.52.65a6,6,0,0,1-.71.54c-.25.16-.49.3-.74.43a5.12,5.12,0,0,1-1.06.31,6.41,6.41,0,0,1-1.06.09H95.17v-3.52h12.76a.83.83,0,0,0,.32-.08.75.75,0,0,0,.27-.18.49.49,0,0,0,.23-.22.66.66,0,0,0,.07-.3v-1.08a.5.5,0,0,0-.07-.27.52.52,0,0,0-.23-.21,1.22,1.22,0,0,0-.29-.17,1,1,0,0,0-.3-.05H99.14a6.41,6.41,0,0,1-1.06-.09,5.16,5.16,0,0,1-1.06-.32,3.86,3.86,0,0,1-.65-.37,2.43,2.43,0,0,1-.54-.52,2.68,2.68,0,0,1-.39-.58,3.71,3.71,0,0,1-.27-.65,5,5,0,0,1-.12-.63c0-.22,0-.45,0-.7v-5.2a3.47,3.47,0,0,1,.11-.94,4.9,4.9,0,0,1,.29-.84,6.76,6.76,0,0,1,.49-.7,3.35,3.35,0,0,1,.59-.6,5.27,5.27,0,0,1,.72-.52,6.4,6.4,0,0,1,.8-.37,7.8,7.8,0,0,1,1.08-.29,5.08,5.08,0,0,1,1.07-.12Z"/><path class="cls-1" d="M131.09,319v4.23h7.16V327h-7.16V337.9a1.5,1.5,0,0,0,0,.37,1.2,1.2,0,0,0,.17.34.77.77,0,0,0,.33.24,1.53,1.53,0,0,0,.56.09h6.53v3.79H126.86a5.78,5.78,0,0,1-1.43-.17,4.92,4.92,0,0,1-1.17-.46,6.47,6.47,0,0,1-.69-.56,5.59,5.59,0,0,1-.57-.63,7,7,0,0,1-.47-.85,5.08,5.08,0,0,1-.31-.93,6.45,6.45,0,0,1-.11-.73,5.58,5.58,0,0,1,0-.72V327h-3.86v-3.78H122V319Z"/><path class="cls-1" d="M150.83,342.76h-9.06V323.21h9.06V325a2.23,2.23,0,0,1,.48-.55,1.48,1.48,0,0,1,.28-.28,1.75,1.75,0,0,1,.32-.21c.14-.1.29-.19.44-.28a3,3,0,0,1,.45-.2l.5-.13a1.88,1.88,0,0,1,.46-.06h5.38v5.42h-4.75a5.33,5.33,0,0,0-1.3.15,3.92,3.92,0,0,0-1.07.41,1.44,1.44,0,0,0-.45.28,2.12,2.12,0,0,0-.33.39,1.22,1.22,0,0,0-.32.5,2,2,0,0,0-.09.61Z"/><path class="cls-1" d="M171.24,323.13v19.63H162.3V323.13Zm-8.87-7h8.8v5.08h-8.8Z"/><path class="cls-1" d="M196.92,329.92v12.77H189l-.56-2.08a1.12,1.12,0,0,1-.13.39l-.17.32a1.56,1.56,0,0,1-.26.39c-.09.11-.19.21-.29.31a2.57,2.57,0,0,1-1.86.67h-8.27a6.32,6.32,0,0,1-1.21-.11,4,4,0,0,1-1-.34,2.9,2.9,0,0,1-.84-.57,3.76,3.76,0,0,1-.61-.8,4,4,0,0,1-.46-1.09,7.66,7.66,0,0,1-.25-1.21c0-.42-.08-.84-.09-1.26s0-.82,0-1.19V335a9.51,9.51,0,0,1,.08-1.19c.05-.39.11-.78.2-1.17a6.59,6.59,0,0,1,.35-1.06,4.38,4.38,0,0,1,.65-.94,3,3,0,0,1,1-.69,3.79,3.79,0,0,1,1-.33,5.86,5.86,0,0,1,1.23-.11h9.2a1,1,0,0,0,.52-.15,2,2,0,0,0,.48-.41,1.08,1.08,0,0,0,.24-.37,1.16,1.16,0,0,0,.1-.41,1,1,0,0,0-.12-.45,1.16,1.16,0,0,0-.29-.37,1.61,1.61,0,0,0-.41-.29.93.93,0,0,0-.45-.11H174.47v-3.83h17.07a7.33,7.33,0,0,1,1.37.13,4.86,4.86,0,0,1,1.15.39,3.54,3.54,0,0,1,1,.67,4.38,4.38,0,0,1,.73.89,6.12,6.12,0,0,1,.5,1,6,6,0,0,1,.31,1,6.94,6.94,0,0,1,.24,1.41C196.9,329.06,196.92,329.5,196.92,329.92Zm-9,3.38h-4.38a1.22,1.22,0,0,0-.58.15,2.23,2.23,0,0,0-.5.37,3.61,3.61,0,0,0-.33.5,1.16,1.16,0,0,0-.15.54v2.78a.92.92,0,0,0,.09.39,3.58,3.58,0,0,0,.21.39,1.91,1.91,0,0,0,.44.34,1,1,0,0,0,.49.14h3.56a.81.81,0,0,0,.41-.13,2,2,0,0,0,.4-.31,1.48,1.48,0,0,0,.25-.35,1,1,0,0,0,.09-.39Z"/><path class="cls-1" d="M209.28,316.16v26.6h-9.06v-26.6Z"/><path class="cls-1" d="M239.93,342.76h-9.06V323.21h9.06V325a2.23,2.23,0,0,1,.48-.55,1.48,1.48,0,0,1,.28-.28,1.75,1.75,0,0,1,.32-.21c.14-.1.29-.19.44-.28a3,3,0,0,1,.45-.2l.5-.13a1.88,1.88,0,0,1,.46-.06h5.38v5.42h-4.75a5.33,5.33,0,0,0-1.3.15,3.92,3.92,0,0,0-1.07.41,1.44,1.44,0,0,0-.45.28,2.12,2.12,0,0,0-.33.39,1.22,1.22,0,0,0-.32.5,2,2,0,0,0-.09.61Z"/><path class="cls-1" d="M270.25,323.24a7,7,0,0,1,1,.08,5.38,5.38,0,0,1,.94.22,3.13,3.13,0,0,1,.8.39,3.87,3.87,0,0,1,.69.61,4.39,4.39,0,0,1,.54.88,5.43,5.43,0,0,1,.39,1.16c.05.28.08.57.11.88s0,.65,0,1v9.24a9.29,9.29,0,0,1,0,1.09,6.69,6.69,0,0,1-.17.95,5.18,5.18,0,0,1-.37,1,2.84,2.84,0,0,1-.52.75,2.76,2.76,0,0,1-.61.57,4.24,4.24,0,0,1-.72.39,5,5,0,0,1-1,.26,7.51,7.51,0,0,1-1.05.07H255a5.66,5.66,0,0,1-1.17-.11,3.86,3.86,0,0,1-1.1-.37,5.57,5.57,0,0,1-.78-.52,4.25,4.25,0,0,1-.67-.67,5.7,5.7,0,0,1-.46-.81,4.18,4.18,0,0,1-.31-1,5.8,5.8,0,0,1-.12-.65c0-.24,0-.49,0-.76v-9.43q0-.53,0-1c0-.3.07-.59.12-.86a6.2,6.2,0,0,1,.37-1.15,2.92,2.92,0,0,1,.52-.85,3.23,3.23,0,0,1,.72-.67,3.78,3.78,0,0,1,.8-.41,5.49,5.49,0,0,1,.91-.22,5.69,5.69,0,0,1,.91-.08Zm-5.42,3.86h-4.9a.39.39,0,0,0-.24.12.63.63,0,0,0-.2.26,1.43,1.43,0,0,0-.12.31,1.82,1.82,0,0,0,0,.32v9.61a.78.78,0,0,0,.11.42,1.38,1.38,0,0,0,.26.36,1.09,1.09,0,0,0,.35.29.77.77,0,0,0,.39.11h4.27a.77.77,0,0,0,.39-.11,1.52,1.52,0,0,0,.35-.26.87.87,0,0,0,.28-.35.92.92,0,0,0,.09-.39v-9.65a.87.87,0,0,0-.09-.37,1.27,1.27,0,0,0-.24-.33,1.16,1.16,0,0,0-.34-.24A.77.77,0,0,0,264.83,327.1Z"/><path class="cls-1" d="M296.67,323.21a4.83,4.83,0,0,1,1.06.11,4.35,4.35,0,0,1,1,.33,4.23,4.23,0,0,1,1.37,1,4.28,4.28,0,0,1,.78,1.06,5.43,5.43,0,0,1,.52,1.39,9.86,9.86,0,0,1,.17,1c0,.36.05.73.05,1.13v7.61c0,.39,0,.77-.05,1.13a9.86,9.86,0,0,1-.17,1,8,8,0,0,1-.43,1.11,5.16,5.16,0,0,1-.54.93,3.73,3.73,0,0,1-.66.71,5.49,5.49,0,0,1-.78.51,4.88,4.88,0,0,1-1.15.39,5.42,5.42,0,0,1-1.19.13H286.54v7.39h-9V323.21Zm-5.05,3.86h-4.19a.53.53,0,0,0-.35.13,1.24,1.24,0,0,0-.28.28,1.14,1.14,0,0,0-.22.38,1.18,1.18,0,0,0-.08.39v9.65a.82.82,0,0,0,.09.34,1.59,1.59,0,0,0,.25.33,1.12,1.12,0,0,0,.33.24.84.84,0,0,0,.37.09h4.12a.73.73,0,0,0,.35-.09l.32-.2a1.78,1.78,0,0,0,.24-.39,1,1,0,0,0,.09-.39v-9.72a.88.88,0,0,0-.09-.38,1.27,1.27,0,0,0-.24-.33,1.16,1.16,0,0,0-.34-.24A.81.81,0,0,0,291.62,327.07Z"/><path class="cls-1" d="M323.57,323.17a7.88,7.88,0,0,1,1.27.11,4.62,4.62,0,0,1,1.22.41,3.35,3.35,0,0,1,.82.59,4.77,4.77,0,0,1,.66.86,6.81,6.81,0,0,1,.34.78,4.64,4.64,0,0,1,.22.89,11.25,11.25,0,0,1,.07,1.33v6.94h-15.1v2.12a1.4,1.4,0,0,0,.15.61,1.55,1.55,0,0,0,.41.54,2.32,2.32,0,0,0,.55.41,1.32,1.32,0,0,0,.6.14h12.5v3.83H308.62a6.45,6.45,0,0,1-1.17-.1,3.15,3.15,0,0,1-1.06-.35,2.67,2.67,0,0,1-.81-.52,3.62,3.62,0,0,1-.67-.81,3,3,0,0,1-.37-.8,8.41,8.41,0,0,1-.26-1,6.43,6.43,0,0,1-.11-.8,8.71,8.71,0,0,1,0-.91v-8.79a7.88,7.88,0,0,1,0-.86c0-.27,0-.53.07-.78a6.67,6.67,0,0,1,.3-1.17,4.54,4.54,0,0,1,.44-.94,3.49,3.49,0,0,1,.69-.82,3.19,3.19,0,0,1,.87-.52,5.5,5.5,0,0,1,1-.28,6,6,0,0,1,1-.09Zm-4.12,8.13v-3.08a.92.92,0,0,0-.09-.39,1.58,1.58,0,0,0-.24-.39,1.32,1.32,0,0,0-.33-.3.78.78,0,0,0-.37-.11h-4.31a.66.66,0,0,0-.35.11,2.6,2.6,0,0,0-.32.26,1.58,1.58,0,0,0-.24.39,1,1,0,0,0-.09.39v3.12Z"/><path class="cls-1" d="M25.88,375.52v12.77H17.94l-.56-2.08a1,1,0,0,1-.13.39c-.06.11-.11.22-.16.32a2.65,2.65,0,0,1-.26.39l-.3.31a3.47,3.47,0,0,1-.85.52,3.38,3.38,0,0,1-1,.15H6.4a6.32,6.32,0,0,1-1.21-.11,4.19,4.19,0,0,1-1-.34,2.72,2.72,0,0,1-.83-.57,4.23,4.23,0,0,1-1.08-1.89,8.92,8.92,0,0,1-.24-1.21Q2,383.54,2,382.91c0-.42,0-.82,0-1.19v-1.11A9.5,9.5,0,0,1,2,379.42c0-.4.12-.78.2-1.17a5.74,5.74,0,0,1,.36-1.06,4,4,0,0,1,.65-.94,2.83,2.83,0,0,1,.94-.69,3.79,3.79,0,0,1,1-.33,5.92,5.92,0,0,1,1.23-.11h9.2a1,1,0,0,0,.52-.15,1.69,1.69,0,0,0,.48-.41,1.27,1.27,0,0,0,.25-.37,1.13,1.13,0,0,0,.09-.41,1.06,1.06,0,0,0-.11-.45,1.35,1.35,0,0,0-.3-.37,1.46,1.46,0,0,0-.41-.29.9.9,0,0,0-.44-.11H3.43v-3.83H20.5a7.24,7.24,0,0,1,1.37.13,4.86,4.86,0,0,1,1.15.39,3.74,3.74,0,0,1,1,.67,4.68,4.68,0,0,1,.72.89,5.37,5.37,0,0,1,.5.95,6,6,0,0,1,.32,1,8.66,8.66,0,0,1,.24,1.41C25.86,374.66,25.88,375.1,25.88,375.52Zm-9,3.38H12.52a1.16,1.16,0,0,0-.57.15,1.86,1.86,0,0,0-.5.37,2.93,2.93,0,0,0-.34.5,1.16,1.16,0,0,0-.15.54v2.78a.81.81,0,0,0,.1.39,3.55,3.55,0,0,0,.2.39,1.77,1.77,0,0,0,.45.34.93.93,0,0,0,.48.14h3.56a.81.81,0,0,0,.41-.13,2,2,0,0,0,.41-.31,1.21,1.21,0,0,0,.24-.35,1,1,0,0,0,.09-.39Z"/><path class="cls-1" d="M48,368.84v3.83H39a1.46,1.46,0,0,0-.6.14,1.94,1.94,0,0,0-.51.38,1.51,1.51,0,0,0-.41.5,1.1,1.1,0,0,0-.15.54v8.83a1,1,0,0,0,.17.54,1.76,1.76,0,0,0,.39.46,1.65,1.65,0,0,0,.55.33,1.59,1.59,0,0,0,.6.11H48v3.86H33.53a6.73,6.73,0,0,1-1.41-.14,5.37,5.37,0,0,1-1.15-.41,6.1,6.1,0,0,1-.91-.67,3.7,3.7,0,0,1-.73-.85,5.83,5.83,0,0,1-.46-.82,5.29,5.29,0,0,1-.32-.89q-.11-.45-.18-.93a6,6,0,0,1-.08-.93V374.6a6.16,6.16,0,0,1,.1-1.1,5.44,5.44,0,0,1,.28-1.09,6.37,6.37,0,0,1,.46-1.08,4.91,4.91,0,0,1,.65-1,5.4,5.4,0,0,1,.74-.69,4.2,4.2,0,0,1,.93-.54,3.86,3.86,0,0,1,.83-.22,6,6,0,0,1,.95-.08Z"/><path class="cls-1" d="M69.93,368.84v3.83H61a1.38,1.38,0,0,0-.59.14,2,2,0,0,0-.52.38,1.51,1.51,0,0,0-.41.5,1.1,1.1,0,0,0-.15.54v8.83a1.09,1.09,0,0,0,.17.54,1.91,1.91,0,0,0,.94.79,1.59,1.59,0,0,0,.6.11h8.94v3.86H55.46a6.73,6.73,0,0,1-1.41-.14,5.37,5.37,0,0,1-1.15-.41,6.67,6.67,0,0,1-.91-.67,3.7,3.7,0,0,1-.73-.85,5.83,5.83,0,0,1-.46-.82,4.49,4.49,0,0,1-.31-.89,9,9,0,0,1-.19-.93,6,6,0,0,1-.07-.93V374.6a7.19,7.19,0,0,1,.09-1.1,5.44,5.44,0,0,1,.28-1.09,7.3,7.3,0,0,1,.46-1.08,4.83,4.83,0,0,1,1.39-1.65,4.2,4.2,0,0,1,.93-.54,4,4,0,0,1,.84-.22,5.77,5.77,0,0,1,.94-.08Z"/><path class="cls-1" d="M91.64,368.77a7.66,7.66,0,0,1,1.26.11,4.68,4.68,0,0,1,1.23.41,3.49,3.49,0,0,1,.81.59,4.82,4.82,0,0,1,.67.86,5.54,5.54,0,0,1,.33.78,4.63,4.63,0,0,1,.23.89,11.25,11.25,0,0,1,.07,1.33v6.94H81.14v2.12a1.4,1.4,0,0,0,.15.61,1.52,1.52,0,0,0,.4.54,2.36,2.36,0,0,0,.56.41,1.31,1.31,0,0,0,.59.14H95.35v3.83H76.68a6.41,6.41,0,0,1-1.16-.1,3.08,3.08,0,0,1-1.06-.35,2.85,2.85,0,0,1-.82-.52,3.62,3.62,0,0,1-.67-.81,3.71,3.71,0,0,1-.37-.8c-.1-.31-.18-.65-.26-1s-.08-.52-.11-.8,0-.59,0-.91v-8.79c0-.3,0-.59,0-.86s0-.53.08-.78a7.7,7.7,0,0,1,.29-1.17,4.32,4.32,0,0,1,.45-.94,3.46,3.46,0,0,1,.68-.82,3.1,3.1,0,0,1,.88-.52,5.15,5.15,0,0,1,1-.28,6.09,6.09,0,0,1,1-.09Zm-4.12,8.13v-3.08a.92.92,0,0,0-.09-.39,1.58,1.58,0,0,0-.24-.39,1.07,1.07,0,0,0-.34-.3.72.72,0,0,0-.37-.11h-4.3a.69.69,0,0,0-.36.11,1.86,1.86,0,0,0-.31.26,1.58,1.58,0,0,0-.24.39,1,1,0,0,0-.1.39v3.12Z"/><path class="cls-1" d="M120.29,368.84v3.6h-12a.83.83,0,0,0-.28.06,2.22,2.22,0,0,0-.31.13.94.94,0,0,0-.25.18.43.43,0,0,0-.09.26v1.08a.3.3,0,0,0,.11.24,1.67,1.67,0,0,0,.26.17,1.21,1.21,0,0,0,.32.11,1.15,1.15,0,0,0,.31,0h8.8a4.73,4.73,0,0,1,.83.07,5.87,5.87,0,0,1,.8.19,3.82,3.82,0,0,1,.76.37,3.62,3.62,0,0,1,.65.52,3.48,3.48,0,0,1,.47.59,4.61,4.61,0,0,1,.35.74,4,4,0,0,1,.22.86,6.8,6.8,0,0,1,.07,1v4.56a5.39,5.39,0,0,1-.09,1,4.17,4.17,0,0,1-.28.93,3.07,3.07,0,0,1-.4.76c-.18.24-.35.45-.52.65a6,6,0,0,1-.71.54c-.25.16-.49.3-.74.43a5.12,5.12,0,0,1-1.06.31,6.41,6.41,0,0,1-1.06.09H99.28v-3.52h12.77a.83.83,0,0,0,.32-.08.75.75,0,0,0,.27-.18.49.49,0,0,0,.23-.22.66.66,0,0,0,.07-.3V383a.55.55,0,0,0-.07-.28.57.57,0,0,0-.23-.2,1.46,1.46,0,0,0-.29-.17,1,1,0,0,0-.3-.05h-8.79a6.41,6.41,0,0,1-1.06-.09,5.16,5.16,0,0,1-1.06-.32,3.86,3.86,0,0,1-.65-.37A2.43,2.43,0,0,1,100,381a2.94,2.94,0,0,1-.39-.58,4.71,4.71,0,0,1-.28-.65,5.12,5.12,0,0,1-.11-.63c0-.22,0-.45,0-.7v-5.2a3.47,3.47,0,0,1,.11-.94,4.9,4.9,0,0,1,.29-.84,5.83,5.83,0,0,1,.49-.7,3.35,3.35,0,0,1,.59-.6,4.72,4.72,0,0,1,.72-.52,6.4,6.4,0,0,1,.8-.37,7.8,7.8,0,0,1,1.08-.29,5.08,5.08,0,0,1,1.07-.12Z"/><path class="cls-1" d="M145.34,368.84v3.6h-12a.83.83,0,0,0-.28.06l-.32.13a.76.76,0,0,0-.24.18.43.43,0,0,0-.09.26v1.08a.3.3,0,0,0,.11.24,1.67,1.67,0,0,0,.26.17,1.21,1.21,0,0,0,.32.11,1.15,1.15,0,0,0,.31,0h8.8a4.73,4.73,0,0,1,.83.07,5.87,5.87,0,0,1,.8.19,3.82,3.82,0,0,1,.76.37,3.62,3.62,0,0,1,.65.52,3,3,0,0,1,.46.59,3.91,3.91,0,0,1,.36.74,4,4,0,0,1,.22.86,6.8,6.8,0,0,1,.07,1v4.56a5.39,5.39,0,0,1-.09,1,4.17,4.17,0,0,1-.28.93,2.8,2.8,0,0,1-.41.76,7,7,0,0,1-.52.65,5.22,5.22,0,0,1-.7.54c-.25.16-.5.3-.74.43a5.12,5.12,0,0,1-1.06.31,6.41,6.41,0,0,1-1.06.09H124.33v-3.52H137.1a.75.75,0,0,0,.31-.08.71.71,0,0,0,.28-.18.49.49,0,0,0,.23-.22.82.82,0,0,0,.07-.3V383a.68.68,0,0,0-.07-.28.57.57,0,0,0-.23-.2,1.81,1.81,0,0,0-.29-.17,1,1,0,0,0-.3-.05h-8.8a6.29,6.29,0,0,1-1.05-.09,5,5,0,0,1-1.06-.32,3.86,3.86,0,0,1-.65-.37A2.43,2.43,0,0,1,125,381a2.94,2.94,0,0,1-.39-.58,4.71,4.71,0,0,1-.28-.65,5.12,5.12,0,0,1-.11-.63c0-.22,0-.45,0-.7v-5.2a3.45,3.45,0,0,1,.12-.94,4.9,4.9,0,0,1,.29-.84,5.83,5.83,0,0,1,.49-.7,3.35,3.35,0,0,1,.59-.6,4.72,4.72,0,0,1,.72-.52,6.4,6.4,0,0,1,.8-.37,7.8,7.8,0,0,1,1.08-.29,5.08,5.08,0,0,1,1.07-.12Z"/><path class="cls-1" d="M188.57,365.28a7,7,0,0,1-.09,1c-.07.4-.16.82-.28,1.26a9.43,9.43,0,0,1-.32,1.21c-.13.41-.29.82-.46,1.24a10.16,10.16,0,0,1-.52,1.17l-.59,1.1a12.41,12.41,0,0,1-.76,1,3.9,3.9,0,0,1-.8.7l-3.45-3.45a3.79,3.79,0,0,0,.68-.91,4.29,4.29,0,0,0,.43-1.06,4.15,4.15,0,0,0,.07-1.11,2.24,2.24,0,0,0-.29-1,1.9,1.9,0,0,0-.69-.69,2.22,2.22,0,0,0-.87-.28,2.55,2.55,0,0,0-.54.06,2.43,2.43,0,0,0-.54.17,2,2,0,0,0-.48.29,1.19,1.19,0,0,0-.33.45l-.13.3a1.34,1.34,0,0,0-.15.44,2.47,2.47,0,0,0,0,.63,3.51,3.51,0,0,0,.17.86,3.68,3.68,0,0,0,.54.92,8.63,8.63,0,0,0,1.05,1.15l8.06,7.54,3.41-3.83,3.34,3.38-3,3.71,1.85,1.71,3-.07v5.23h-6.64l-2.31-2.08c-.09.1-.19.2-.27.3a2.27,2.27,0,0,1-.28.26,2.09,2.09,0,0,0-.28.24c-.09.08-.19.18-.32.28a4.36,4.36,0,0,1-1,.66,2.73,2.73,0,0,1-1.22.26H173.61a4,4,0,0,1-1-.14,6.79,6.79,0,0,1-1-.41,5.08,5.08,0,0,1-.78-.45c-.24-.17-.48-.36-.7-.55a8.37,8.37,0,0,1-.69-.78,7.2,7.2,0,0,1-.54-.82,6.56,6.56,0,0,1-.35-.89,3,3,0,0,1-.13-.89v-6.38a5.28,5.28,0,0,1,.15-1.25,4.84,4.84,0,0,1,1-1.89,3.47,3.47,0,0,1,.66-.61,3.61,3.61,0,0,1,1-.47,3.51,3.51,0,0,1,1.18-.13l2,0-2.45-3.57a2.62,2.62,0,0,1-.36-.83c-.06-.29-.1-.57-.13-.85a6.17,6.17,0,0,1,0-.86c0-.28,0-.54,0-.76a4.78,4.78,0,0,1,.25-1.26,3.64,3.64,0,0,1,.53-1,4.91,4.91,0,0,1,.77-.74,4,4,0,0,1,1-.56,4.81,4.81,0,0,1,1.13-.33,6.91,6.91,0,0,1,1.32-.11h7l1,.06c.42.05.81.12,1.18.2a5.54,5.54,0,0,1,1,.36,4.69,4.69,0,0,1,.89.54,2.68,2.68,0,0,1,.67.72,3.89,3.89,0,0,1,.3.72A3.54,3.54,0,0,1,188.57,365.28Zm-10.76,11.77c-.2.14-.4.3-.6.46s-.38.33-.55.5a5.49,5.49,0,0,0-.6.69,4.07,4.07,0,0,0-.44.76,2.67,2.67,0,0,0-.19,1.35,2.81,2.81,0,0,0,.74,1.5,2.21,2.21,0,0,0,.41.39,4.83,4.83,0,0,0,.6.41,6.42,6.42,0,0,0,.68.37,3.49,3.49,0,0,0,.62.25,2.1,2.1,0,0,0,.52,0c.22,0,.47,0,.76-.07l.91-.15a5,5,0,0,0,1-.28,6.37,6.37,0,0,0,1-.37,3.93,3.93,0,0,0,.85-.52Z"/><path class="cls-1" d="M230,364.58v4.23h7.16v3.78H230V383.5a1.5,1.5,0,0,0,.05.37,1,1,0,0,0,.17.34.71.71,0,0,0,.33.24,1.53,1.53,0,0,0,.56.09h6.53v3.79H225.72a5.78,5.78,0,0,1-1.43-.17,4.76,4.76,0,0,1-1.17-.46,6.47,6.47,0,0,1-.69-.56,5.59,5.59,0,0,1-.57-.63,6.48,6.48,0,0,1-.47-.86,4.74,4.74,0,0,1-.31-.92A6.45,6.45,0,0,1,221,384a5.58,5.58,0,0,1,0-.72V372.59h-3.86v-3.78h3.78v-4.23Z"/><path class="cls-1" d="M249.69,388.36h-9.06V368.81h9.06v1.74a2.47,2.47,0,0,1,.48-.56,1.8,1.8,0,0,1,.28-.27,2.13,2.13,0,0,1,.31-.21l.45-.28a3,3,0,0,1,.45-.2l.5-.13a1.88,1.88,0,0,1,.46-.06H258v5.42h-4.75a5.33,5.33,0,0,0-1.3.15,3.92,3.92,0,0,0-1.07.41,1.44,1.44,0,0,0-.45.28,2.12,2.12,0,0,0-.33.39,1.22,1.22,0,0,0-.32.5,2,2,0,0,0-.09.61Z"/><path class="cls-1" d="M284.09,375.52v12.77h-7.94l-.56-2.08a1.12,1.12,0,0,1-.13.39l-.17.32a2,2,0,0,1-.26.39c-.09.11-.19.21-.29.31a2.57,2.57,0,0,1-1.86.67h-8.27a6.32,6.32,0,0,1-1.21-.11,4,4,0,0,1-1-.34,2.9,2.9,0,0,1-.84-.57,4,4,0,0,1-.61-.8,4.11,4.11,0,0,1-.46-1.09,7.66,7.66,0,0,1-.25-1.21c0-.42-.08-.84-.09-1.26s0-.82,0-1.19v-1.11a9.51,9.51,0,0,1,.08-1.19,11.43,11.43,0,0,1,.2-1.17,6.59,6.59,0,0,1,.35-1.06,4.38,4.38,0,0,1,.65-.94,2.87,2.87,0,0,1,.95-.69,3.79,3.79,0,0,1,1-.33,5.86,5.86,0,0,1,1.23-.11h9.2a1,1,0,0,0,.52-.15,2,2,0,0,0,.48-.41,1.08,1.08,0,0,0,.24-.37,1.16,1.16,0,0,0,.1-.41,1,1,0,0,0-.12-.45,1.16,1.16,0,0,0-.29-.37,1.61,1.61,0,0,0-.41-.29.93.93,0,0,0-.45-.11H261.64v-3.83h17.07a7.33,7.33,0,0,1,1.37.13,5,5,0,0,1,1.15.39,3.54,3.54,0,0,1,1,.67,4.38,4.38,0,0,1,.73.89,6.12,6.12,0,0,1,.5.95,6,6,0,0,1,.31,1,6.94,6.94,0,0,1,.24,1.41C284.07,374.66,284.09,375.1,284.09,375.52Zm-9,3.38h-4.38a1.22,1.22,0,0,0-.58.15,2.23,2.23,0,0,0-.5.37,3.61,3.61,0,0,0-.33.5,1.16,1.16,0,0,0-.15.54v2.78a.92.92,0,0,0,.09.39,3.58,3.58,0,0,0,.21.39,1.91,1.91,0,0,0,.44.34,1,1,0,0,0,.49.14H274a.81.81,0,0,0,.41-.13,2,2,0,0,0,.4-.31,1.48,1.48,0,0,0,.25-.35,1,1,0,0,0,.09-.39Z"/><path class="cls-1" d="M296.45,368.73v19.63H287.5V368.73Zm-8.87-7h8.79v5.08h-8.79Z"/><path class="cls-1" d="M307.65,373.78v14.58h-9V368.84h19a5.09,5.09,0,0,1,2.53.64,4.48,4.48,0,0,1,1.67,1.52,5,5,0,0,1,.48.87,7,7,0,0,1,.37,1.06,8.24,8.24,0,0,1,.22,1.18,11.36,11.36,0,0,1,.08,1.34v12.91h-9V373.82a1.21,1.21,0,0,0-.09-.5,1.13,1.13,0,0,0-.24-.36,1.06,1.06,0,0,0-.43-.26,1.51,1.51,0,0,0-.46-.07h-3.9a1.21,1.21,0,0,0-.4.07,1,1,0,0,0-.38.23,1,1,0,0,0-.26.33A1.21,1.21,0,0,0,307.65,373.78Z"/><path class="cls-1" d="M335.3,368.73v19.63h-8.94V368.73Zm-8.87-7h8.8v5.08h-8.8Z"/><path class="cls-1" d="M346.51,373.78v14.58h-9.06V368.84h19a5,5,0,0,1,2.52.64,4.41,4.41,0,0,1,1.67,1.52,5,5,0,0,1,.48.87,7,7,0,0,1,.37,1.06,8.22,8.22,0,0,1,.23,1.18c0,.42.07.87.07,1.34v12.91h-9V373.82a1.21,1.21,0,0,0-.09-.5,1.36,1.36,0,0,0-.25-.36,1,1,0,0,0-.42-.26,1.58,1.58,0,0,0-.47-.07h-3.89a1.26,1.26,0,0,0-.41.07.93.93,0,0,0-.37.23.81.81,0,0,0-.26.33A1.08,1.08,0,0,0,346.51,373.78Z"/><path class="cls-1" d="M388.29,390.29a5.69,5.69,0,0,1-.09,1,4.76,4.76,0,0,1-.28.95,4.21,4.21,0,0,1-.39.89,6.78,6.78,0,0,1-.54.78,4.46,4.46,0,0,1-.63.67,5.26,5.26,0,0,1-.67.52,5.1,5.1,0,0,1-.92.42,2.66,2.66,0,0,1-.93.17H365.73v-3.78h11.88a1.8,1.8,0,0,0,.81-.17,1.67,1.67,0,0,0,.56-.46,1.77,1.77,0,0,0,.33-.6,1.92,1.92,0,0,0,.11-.67v-1.7h-10.2a5.37,5.37,0,0,1-1.17-.13,5,5,0,0,1-1.82-.88,4.43,4.43,0,0,1-1.2-1.41,5,5,0,0,1-.38-.85,5.75,5.75,0,0,1-.31-1.13,7.27,7.27,0,0,1-.09-1.13v-8.61a6,6,0,0,1,.07-.93,6.64,6.64,0,0,1,.22-1,4.8,4.8,0,0,1,.39-.93,7.73,7.73,0,0,1,.54-.86,5.05,5.05,0,0,1,.74-.79,3.68,3.68,0,0,1,.89-.58,5.14,5.14,0,0,1,.95-.35,4.05,4.05,0,0,1,1.06-.13h19.18Zm-10-17.66h-4.42a.4.4,0,0,0-.27.11.68.68,0,0,0-.21.3,1.11,1.11,0,0,0-.11.35,2.68,2.68,0,0,0,0,.35v9.65a.81.81,0,0,0,.1.39,1.58,1.58,0,0,0,.24.39,1.33,1.33,0,0,0,.35.26.89.89,0,0,0,.39.11h4.08a.81.81,0,0,0,.63-.33,1,1,0,0,0,.23-.34,1.16,1.16,0,0,0,.07-.37v-9.68a1.07,1.07,0,0,0-.09-.43A1.54,1.54,0,0,0,379,373a1.19,1.19,0,0,0-.34-.3A.75.75,0,0,0,378.31,372.63Z"/></g></g></svg>