<?xml version="1.0" encoding="UTF-8"?><svg id="Layer_2" xmlns="http://www.w3.org/2000/svg" viewBox="0 0 1268.35 491.66"><defs><style>.cls-1{fill:#fff;}.cls-2{fill:#94a3b7;}</style></defs><g id="Layer_1-2"><path class="cls-2" d="M273.31,363.37c-11.98,0-23.08,3.04-32.58,8.4v62.83c35.84-12.42,57.22-35.2,68.26-61-9.62-6.37-22.17-10.23-35.68-10.23Zm6.35,30.58s3.79-1.81,7.18,2.1c-2.54,2.21-6.96,6.05-9.5,8.27-3.4-3.9-1.08-7.42-1.08-7.42l-3.69-4.24-11.06,9.92-3.63-4.17,11.39-9.54-4.09-4.71s-1.54,1.33-3.74,3.25c-3.24-3.73-5.77-8.71-3.42-14.92,6.48-1.45,11.05,1.74,14.29,5.48-2.2,1.91-3.73,3.24-3.73,3.24l4.14,4.77,9.31-7.82-6.41-7.21c4.82-.63,9.6,2.72,11.97,5.44,2.35,2.72,5.1,7.7,3.81,12.38l-6.42-7.22-9.05,8.11,3.73,4.29Z"/><path class="cls-2" d="M166.14,309.55c.3,2.35,.42,4.12,.33,5.3-.22,3.01-.86,5.23-1.42,6.69,1.81,6.92,1.57,19.36-7.08,27.59,6.64,35.26,28.78,69.24,75.65,85.47v-125.05h-67.48Zm34.58,19.14c.62-4.19,12.57-5,10.33,4.18-2.26,9.29-5.11,20.05-7.28,29.38-1.01-.03-2.03-.03-3.05-.03s-2.04,0-3.05,.03c-2.18-9.33-5.02-20.09-7.28-29.38-2.24-9.17,9.73-8.37,10.33-4.18Zm13.28,38.86c.23,1.35,.27,3.17,.08,4.58-3.29,1.08-9.04,1.69-13.35,1.69s-10.07-.61-13.36-1.69c-.2-1.41-.15-3.23,.09-4.58,2.18-.93,10.71-1.4,13.27-1.4s11.09,.47,13.27,1.4Zm-29.08-33.49c2.82,7.61,9.11,28.47,9.11,28.47,0,0-1.26,.03-3.55,.52-2.28,.49-3.12,.91-3.12,.91,0,0-5.62-14.14-9.78-23.85-3.88-9.03,5.37-11.35,7.34-6.05Zm26.38,58.93c-2.87,.62-7.49,.93-10.58,.93s-7.71-.31-10.57-.93c.3-1.23,.71-2.98,1.13-4.72-2.17-.21-4.42-1.03-6.18-1.65,.92-3.08,2.32-6.2,3.48-10.45,3.91,.86,7.73,1.21,12.14,1.21s8.23-.35,12.14-1.21c1.17,4.25,2.57,7.37,3.48,10.45-1.74,.62-4.01,1.44-6.16,1.65,.41,1.74,.82,3.49,1.12,4.72Zm12.49-52.88c-4.16,9.71-9.79,23.86-9.79,23.86,0,0-.83-.42-3.11-.92-2.29-.49-3.56-.52-3.56-.52,0,0,6.3-20.86,9.13-28.47,1.96-5.3,11.2-2.98,7.33,6.05Z"/><path class="cls-2" d="M197.44,257c-.05-.76-1-2.07-1.29-2.45,.15,.03,1.31,.36,1.58,.36,.29,0,.8-.44,2.9-.37,2.11,.07,3.85,1.43,4.52,3.16,.42,1.04,.26,1.99,.71,3.81,0,0-.43-.36-1.02-.51,0,0-.97,1.47-3.92,.65-2.77-.76-3.47-4.28-3.48-4.65Z"/><path class="cls-2" d="M267.99,254.25h-2.98s-1.92-.88-3.4-.61c0,0-2.62,2.57-3.75,3.74,.38,1.91,2.47,3.11,4.68,2.69,2.14-.4,3.6-2.17,3.36-4.01,.45-.39,1.69-1.48,2.09-1.81Zm0,0h-2.98s-1.92-.88-3.4-.61c0,0-2.62,2.57-3.75,3.74,.38,1.91,2.47,3.11,4.68,2.69,2.14-.4,3.6-2.17,3.36-4.01,.45-.39,1.69-1.48,2.09-1.81Zm0,0h-2.98s-1.92-.88-3.4-.61c0,0-2.62,2.57-3.75,3.74,.38,1.91,2.47,3.11,4.68,2.69,2.14-.4,3.6-2.17,3.36-4.01,.45-.39,1.69-1.48,2.09-1.81Zm0,0h-2.98s-1.92-.88-3.4-.61c0,0-2.62,2.57-3.75,3.74,.38,1.91,2.47,3.11,4.68,2.69,2.14-.4,3.6-2.17,3.36-4.01,.45-.39,1.69-1.48,2.09-1.81Zm0,0h-2.98s-1.92-.88-3.4-.61c0,0-2.62,2.57-3.75,3.74,.38,1.91,2.47,3.11,4.68,2.69,2.14-.4,3.6-2.17,3.36-4.01,.45-.39,1.69-1.48,2.09-1.81Zm0,0h-2.98s-1.92-.88-3.4-.61c0,0-2.62,2.57-3.75,3.74,.38,1.91,2.47,3.11,4.68,2.69,2.14-.4,3.6-2.17,3.36-4.01,.45-.39,1.69-1.48,2.09-1.81Zm0,0h-2.98s-1.92-.88-3.4-.61c0,0-2.62,2.57-3.75,3.74,.38,1.91,2.47,3.11,4.68,2.69,2.14-.4,3.6-2.17,3.36-4.01,.45-.39,1.69-1.48,2.09-1.81Zm0,0h-2.98s-1.92-.88-3.4-.61c0,0-2.62,2.57-3.75,3.74,.38,1.91,2.47,3.11,4.68,2.69,2.14-.4,3.6-2.17,3.36-4.01,.45-.39,1.69-1.48,2.09-1.81Zm0,0h-2.98s-1.92-.88-3.4-.61c0,0-2.62,2.57-3.75,3.74,.38,1.91,2.47,3.11,4.68,2.69,2.14-.4,3.6-2.17,3.36-4.01,.45-.39,1.69-1.48,2.09-1.81Zm0,0h-2.98s-1.92-.88-3.4-.61c0,0-2.62,2.57-3.75,3.74,.38,1.91,2.47,3.11,4.68,2.69,2.14-.4,3.6-2.17,3.36-4.01,.45-.39,1.69-1.48,2.09-1.81Zm0,0h-2.98s-1.92-.88-3.4-.61c0,0-2.62,2.57-3.75,3.74,.38,1.91,2.47,3.11,4.68,2.69,2.14-.4,3.6-2.17,3.36-4.01,.45-.39,1.69-1.48,2.09-1.81Zm0,0h-2.98s-1.92-.88-3.4-.61c0,0-2.62,2.57-3.75,3.74,.38,1.91,2.47,3.11,4.68,2.69,2.14-.4,3.6-2.17,3.36-4.01,.45-.39,1.69-1.48,2.09-1.81Zm0,0h-2.98s-1.92-.88-3.4-.61c0,0-2.62,2.57-3.75,3.74,.38,1.91,2.47,3.11,4.68,2.69,2.14-.4,3.6-2.17,3.36-4.01,.45-.39,1.69-1.48,2.09-1.81Zm0,0h-2.98s-1.92-.88-3.4-.61c0,0-2.62,2.57-3.75,3.74,.38,1.91,2.47,3.11,4.68,2.69,2.14-.4,3.6-2.17,3.36-4.01,.45-.39,1.69-1.48,2.09-1.81Zm0,0h-2.98s-1.92-.88-3.4-.61c0,0-2.62,2.57-3.75,3.74,.38,1.91,2.47,3.11,4.68,2.69,2.14-.4,3.6-2.17,3.36-4.01,.45-.39,1.69-1.48,2.09-1.81Zm0,0h-2.98s-1.92-.88-3.4-.61c0,0-2.62,2.57-3.75,3.74,.38,1.91,2.47,3.11,4.68,2.69,2.14-.4,3.6-2.17,3.36-4.01,.45-.39,1.69-1.48,2.09-1.81Zm0,0h-2.98s-1.92-.88-3.4-.61c0,0-2.62,2.57-3.75,3.74,.38,1.91,2.47,3.11,4.68,2.69,2.14-.4,3.6-2.17,3.36-4.01,.45-.39,1.69-1.48,2.09-1.81Zm0,0h-2.98s-1.92-.88-3.4-.61c0,0-2.62,2.57-3.75,3.74,.38,1.91,2.47,3.11,4.68,2.69,2.14-.4,3.6-2.17,3.36-4.01,.45-.39,1.69-1.48,2.09-1.81Zm0,0h-2.98s-1.92-.88-3.4-.61c0,0-2.62,2.57-3.75,3.74,.38,1.91,2.47,3.11,4.68,2.69,2.14-.4,3.6-2.17,3.36-4.01,.45-.39,1.69-1.48,2.09-1.81Zm0,0h-2.98s-1.92-.88-3.4-.61c0,0-2.62,2.57-3.75,3.74,.38,1.91,2.47,3.11,4.68,2.69,2.14-.4,3.6-2.17,3.36-4.01,.45-.39,1.69-1.48,2.09-1.81Zm0,0h-2.98s-1.92-.88-3.4-.61c0,0-2.62,2.57-3.75,3.74,.38,1.91,2.47,3.11,4.68,2.69,2.14-.4,3.6-2.17,3.36-4.01,.45-.39,1.69-1.48,2.09-1.81Zm0,0h-2.98s-1.92-.88-3.4-.61c0,0-2.62,2.57-3.75,3.74,.38,1.91,2.47,3.11,4.68,2.69,2.14-.4,3.6-2.17,3.36-4.01,.45-.39,1.69-1.48,2.09-1.81Zm0,0h-2.98s-1.92-.88-3.4-.61c0,0-2.62,2.57-3.75,3.74,.38,1.91,2.47,3.11,4.68,2.69,2.14-.4,3.6-2.17,3.36-4.01,.45-.39,1.69-1.48,2.09-1.81Zm0,0h-2.98s-1.92-.88-3.4-.61c0,0-2.62,2.57-3.75,3.74,.38,1.91,2.47,3.11,4.68,2.69,2.14-.4,3.6-2.17,3.36-4.01,.45-.39,1.69-1.48,2.09-1.81Zm0,0h-2.98s-1.92-.88-3.4-.61c0,0-2.62,2.57-3.75,3.74,.38,1.91,2.47,3.11,4.68,2.69,2.14-.4,3.6-2.17,3.36-4.01,.45-.39,1.69-1.48,2.09-1.81Zm0,0h-2.98s-1.92-.88-3.4-.61c0,0-2.62,2.57-3.75,3.74,.38,1.91,2.47,3.11,4.68,2.69,2.14-.4,3.6-2.17,3.36-4.01,.45-.39,1.69-1.48,2.09-1.81Zm-112.26-36.21v56.97c4.11,2.06,10.08,6.03,9.94,14.81-.04,3.34-.59,5.59-1,7.23-.13,.55-.3,1.26-.3,1.49,.04,.3,.18,1.07,.32,1.88,.12,.7,.23,1.36,.34,2.03h153.6v-84.41H155.73Zm73.12,10.52c1.06,2.22,1.01,10.11-7.25,14.04-.35-2.36-1.19-5.26-3.21-7.73,3.7-.7,7.15-2.44,10.46-6.31Zm-51.85-.32c4.4,5.14,9.04,6.53,14.18,6.69,2.68,1.52,2.85,8.53-.54,8.64-15.36-2.04-14.92-12.65-13.64-15.33Zm-6.39,14.09c-.46-4.56-1.51-6.07-1.51-6.07,1.95,.29,4.12,.83,6.03,1.63,1.81,3.28,5.9,7.41,15.12,8.63l.25,.04h.26c2.48-.09,4.46-1.88,5.14-4.66,.57-2.31,.25-5.19-1.02-7.32,3.27-.79,11.15-1.71,17.39-.07,6.89,3.27,5.95,12.13,5.95,12.13,1.28,2.22,4.89,7.12,5.72,7.94,.81,.82,1.75,2.45,1.15,5.84-.57,3.37,2.82,7.23,2.82,7.23-3.86-.47-12.03-.35-14.24,.23-1.27,.34-3.36,1.52-4.55,2.57-1.87,1.63-4.44,6.41-4.44,6.41-6.42,.82-18.66-1.86-19.36-15.87-.2-3.9-4.43-11.43-10.27-12.82-1.66-.41-3.97-1.3-4.44-5.84Zm13.39,47.39c-2.85,0-8.16-1.14-10.27-3.75v-34.46c.15,.04,.32,.09,.49,.13,4.04,.97,7.39,6.93,7.52,9.53,.3,6.12,2.64,11.16,6.73,14.59,3.69,3.1,8.16,4.91,15.51,4.82,.11,1.86,1.08,3.55,1.79,5.02-8.59,.36-16.09,4.12-21.77,4.12Zm45.42-3.17c-3.42,2.11-9.38,2.61-9.38,2.61,0,0-4.48-.38-9.07-3.76t-.02,0c-.5-.38-3.94-3.12-2.91-7.22,1.09-1.96,2.64-4.34,3.43-5.02,.89-.78,2.51-1.65,3.11-1.8,1.46-.4,10.3-.68,14.11-.21,1.3,.72,2.6,3.09,3.26,4.88,.65,1.8,.89,8.4-2.53,10.53Zm80.82-31.14c-.27,8.2-5.22,17.59-18.02,17.59-6.4,0-14.46-3.38-14.46-12.61,0-6.83,5.61-9.73,9.84-9.73,6.95,0,8.49,4.16,8.49,4.16,.44-2.98-2.24-7.75-9.89-7.75s-13.81,5.86-13.81,14.01,6.28,17.39,19.47,17.39c2.89,.19,7.84-.6,7.84-.6l2.65,11.07h-47.23c.6-5.96,8.04-8.04,9.23-14-6.11,0-8.19,4.47-15.34,4.47s-8.79-6.41-8.79-8.19l-1.79-3.74c-.45-1.04,8.49-8.63,8.49-8.63,.74-7.3,16.99-14.6,16.99-14.6,3.13-7.16,10.88-11.63,22.94-11.63,14.46,0,23.84,9.24,23.39,22.79Zm-45.23-1.16s-1.92-.88-3.4-.61c0,0-2.62,2.57-3.75,3.74,.38,1.91,2.47,3.11,4.68,2.69,2.14-.4,3.6-2.17,3.36-4.01,.45-.39,1.69-1.48,2.09-1.81h-2.98Zm2.98,0h-2.98s-1.92-.88-3.4-.61c0,0-2.62,2.57-3.75,3.74,.38,1.91,2.47,3.11,4.68,2.69,2.14-.4,3.6-2.17,3.36-4.01,.45-.39,1.69-1.48,2.09-1.81Zm0,0h-2.98s-1.92-.88-3.4-.61c0,0-2.62,2.57-3.75,3.74,.38,1.91,2.47,3.11,4.68,2.69,2.14-.4,3.6-2.17,3.36-4.01,.45-.39,1.69-1.48,2.09-1.81Zm0,0h-2.98s-1.92-.88-3.4-.61c0,0-2.62,2.57-3.75,3.74,.38,1.91,2.47,3.11,4.68,2.69,2.14-.4,3.6-2.17,3.36-4.01,.45-.39,1.69-1.48,2.09-1.81Zm0,0h-2.98s-1.92-.88-3.4-.61c0,0-2.62,2.57-3.75,3.74,.38,1.91,2.47,3.11,4.68,2.69,2.14-.4,3.6-2.17,3.36-4.01,.45-.39,1.69-1.48,2.09-1.81Zm0,0h-2.98s-1.92-.88-3.4-.61c0,0-2.62,2.57-3.75,3.74,.38,1.91,2.47,3.11,4.68,2.69,2.14-.4,3.6-2.17,3.36-4.01,.45-.39,1.69-1.48,2.09-1.81Zm0,0h-2.98s-1.92-.88-3.4-.61c0,0-2.62,2.57-3.75,3.74,.38,1.91,2.47,3.11,4.68,2.69,2.14-.4,3.6-2.17,3.36-4.01,.45-.39,1.69-1.48,2.09-1.81Zm0,0h-2.98s-1.92-.88-3.4-.61c0,0-2.62,2.57-3.75,3.74,.38,1.91,2.47,3.11,4.68,2.69,2.14-.4,3.6-2.17,3.36-4.01,.45-.39,1.69-1.48,2.09-1.81Zm0,0h-2.98s-1.92-.88-3.4-.61c0,0-2.62,2.57-3.75,3.74,.38,1.91,2.47,3.11,4.68,2.69,2.14-.4,3.6-2.17,3.36-4.01,.45-.39,1.69-1.48,2.09-1.81Zm0,0h-2.98s-1.92-.88-3.4-.61c0,0-2.62,2.57-3.75,3.74,.38,1.91,2.47,3.11,4.68,2.69,2.14-.4,3.6-2.17,3.36-4.01,.45-.39,1.69-1.48,2.09-1.81Zm0,0h-2.98s-1.92-.88-3.4-.61c0,0-2.62,2.57-3.75,3.74,.38,1.91,2.47,3.11,4.68,2.69,2.14-.4,3.6-2.17,3.36-4.01,.45-.39,1.69-1.48,2.09-1.81Zm0,0h-2.98s-1.92-.88-3.4-.61c0,0-2.62,2.57-3.75,3.74,.38,1.91,2.47,3.11,4.68,2.69,2.14-.4,3.6-2.17,3.36-4.01,.45-.39,1.69-1.48,2.09-1.81Zm0,0h-2.98s-1.92-.88-3.4-.61c0,0-2.62,2.57-3.75,3.74,.38,1.91,2.47,3.11,4.68,2.69,2.14-.4,3.6-2.17,3.36-4.01,.45-.39,1.69-1.48,2.09-1.81Zm0,0h-2.98s-1.92-.88-3.4-.61c0,0-2.62,2.57-3.75,3.74,.38,1.91,2.47,3.11,4.68,2.69,2.14-.4,3.6-2.17,3.36-4.01,.45-.39,1.69-1.48,2.09-1.81Zm0,0h-2.98s-1.92-.88-3.4-.61c0,0-2.62,2.57-3.75,3.74,.38,1.91,2.47,3.11,4.68,2.69,2.14-.4,3.6-2.17,3.36-4.01,.45-.39,1.69-1.48,2.09-1.81Zm0,0h-2.98s-1.92-.88-3.4-.61c0,0-2.62,2.57-3.75,3.74,.38,1.91,2.47,3.11,4.68,2.69,2.14-.4,3.6-2.17,3.36-4.01,.45-.39,1.69-1.48,2.09-1.81Zm0,0h-2.98s-1.92-.88-3.4-.61c0,0-2.62,2.57-3.75,3.74,.38,1.91,2.47,3.11,4.68,2.69,2.14-.4,3.6-2.17,3.36-4.01,.45-.39,1.69-1.48,2.09-1.81Zm0,0h-2.98s-1.92-.88-3.4-.61c0,0-2.62,2.57-3.75,3.74,.38,1.91,2.47,3.11,4.68,2.69,2.14-.4,3.6-2.17,3.36-4.01,.45-.39,1.69-1.48,2.09-1.81Zm0,0h-2.98s-1.92-.88-3.4-.61c0,0-2.62,2.57-3.75,3.74,.38,1.91,2.47,3.11,4.68,2.69,2.14-.4,3.6-2.17,3.36-4.01,.45-.39,1.69-1.48,2.09-1.81Zm0,0h-2.98s-1.92-.88-3.4-.61c0,0-2.62,2.57-3.75,3.74,.38,1.91,2.47,3.11,4.68,2.69,2.14-.4,3.6-2.17,3.36-4.01,.45-.39,1.69-1.48,2.09-1.81Zm0,0h-2.98s-1.92-.88-3.4-.61c0,0-2.62,2.57-3.75,3.74,.38,1.91,2.47,3.11,4.68,2.69,2.14-.4,3.6-2.17,3.36-4.01,.45-.39,1.69-1.48,2.09-1.81Zm0,0h-2.98s-1.92-.88-3.4-.61c0,0-2.62,2.57-3.75,3.74,.38,1.91,2.47,3.11,4.68,2.69,2.14-.4,3.6-2.17,3.36-4.01,.45-.39,1.69-1.48,2.09-1.81Zm0,0h-2.98s-1.92-.88-3.4-.61c0,0-2.62,2.57-3.75,3.74,.38,1.91,2.47,3.11,4.68,2.69,2.14-.4,3.6-2.17,3.36-4.01,.45-.39,1.69-1.48,2.09-1.81Zm0,0h-2.98s-1.92-.88-3.4-.61c0,0-2.62,2.57-3.75,3.74,.38,1.91,2.47,3.11,4.68,2.69,2.14-.4,3.6-2.17,3.36-4.01,.45-.39,1.69-1.48,2.09-1.81Zm0,0h-2.98s-1.92-.88-3.4-.61c0,0-2.62,2.57-3.75,3.74,.38,1.91,2.47,3.11,4.68,2.69,2.14-.4,3.6-2.17,3.36-4.01,.45-.39,1.69-1.48,2.09-1.81Zm0,0h-2.98s-1.92-.88-3.4-.61c0,0-2.62,2.57-3.75,3.74,.38,1.91,2.47,3.11,4.68,2.69,2.14-.4,3.6-2.17,3.36-4.01,.45-.39,1.69-1.48,2.09-1.81Zm0,0h-2.98s-1.92-.88-3.4-.61c0,0-2.62,2.57-3.75,3.74,.38,1.91,2.47,3.11,4.68,2.69,2.14-.4,3.6-2.17,3.36-4.01,.45-.39,1.69-1.48,2.09-1.81Z"/><polygon class="cls-2" points="418.18 489.67 423.58 456.46 50.76 456.46 56.18 489.67 418.18 489.67"/><path class="cls-2" d="M285.33,359.35v-5.92h-24.62v6.03c4.08-.72,8.29-1.08,12.61-1.08,4.11,0,8.13,.34,12.02,.97Z"/><path class="cls-2" d="M240.73,309.55v56.55c4.67-2.39,9.67-4.26,14.87-5.57v-12.05h5.66c.32-13.53,3.56-23.3,9.83-29.78l1.82-1.89,1.83,1.89c6.3,6.48,9.51,16.24,9.85,29.78h5.86v11.88c7.52,1.78,14.46,4.7,20.45,8.53,5.38-14.34,7.74-29.45,7.74-44.13v-15.21h-77.9Z"/><path class="cls-2" d="M269.82,165.37c-1.94-5.65-16.8-14.86-32.64-2.98-15.85-11.88-30.71-2.67-32.65,2.98l-4.35,40.54c12.8-5.43,14.05,6.78,25.36,6.78,7.28,0,11.64-3.47,11.64-3.47,0,0,4.35,3.47,11.64,3.47,11.3,0,12.55-12.21,25.36-6.78l-4.36-40.54Zm-41.95,18.82c-1.31-.1-2.4-.89-2.97-1.98l-2.15-.17-1.01,12.66c.97,.74,1.57,1.93,1.47,3.23-.16,2.03-1.92,3.53-3.93,3.37-2.03-.16-3.53-1.92-3.36-3.94,.1-1.31,.88-2.4,1.97-2.97l1.01-12.66-2.15-.17c-.72,.98-1.92,1.58-3.24,1.47-2.02-.15-3.51-1.92-3.35-3.93,.16-2.02,1.93-3.52,3.94-3.36,1.3,.1,2.39,.89,2.96,1.98l2.16,.17,.35-4.4c-.99-.72-1.59-1.93-1.47-3.23,.15-2.01,1.91-3.51,3.93-3.36,2.02,.17,3.51,1.93,3.35,3.94-.1,1.31-.88,2.4-1.97,2.96l-.35,4.4,2.15,.18c.74-.99,1.93-1.6,3.24-1.49,2.01,.16,3.52,1.93,3.36,3.95-.16,2.01-1.93,3.51-3.94,3.35Zm32.98-1.16c-1.33,.11-2.52-.49-3.25-1.47l-2.15,.17,1.02,12.66c1.07,.57,1.86,1.66,1.96,2.97,.18,2.01-1.32,3.78-3.35,3.94-2.01,.16-3.78-1.34-3.94-3.37-.1-1.3,.49-2.5,1.47-3.23l-1.01-12.66-2.16,.17c-.56,1.09-1.64,1.87-2.95,1.98-2.01,.16-3.78-1.34-3.94-3.35-.16-2.02,1.33-3.79,3.35-3.95,1.31-.11,2.5,.5,3.23,1.49l2.17-.18-.36-4.4c-1.09-.56-1.87-1.65-1.97-2.96-.16-2.01,1.33-3.77,3.35-3.94,2.01-.15,3.79,1.35,3.93,3.36,.12,1.3-.48,2.51-1.46,3.23l.35,4.4,2.16-.17c.56-1.09,1.65-1.87,2.95-1.98,2.01-.16,3.78,1.34,3.94,3.36,.16,2.01-1.33,3.78-3.34,3.93Z"/><path class="cls-2" d="M260.84,73.56l9.46-12.46-16,4.11c-.93-2.83-3.09-5.07-6.11-6.03-1.06-.35-2.14-.49-3.19-.47l5.35-21.56-13.18,9.26-13.19-9.26,5.36,21.56c-1.04-.02-2.13,.12-3.19,.47-3.02,.96-5.17,3.2-6.11,6.03l-16.01-4.11,9.47,12.46-9.47,12.45,19.14-4.92,.11,.34c.78,2.31,2.94,3.88,5.38,3.88h1.32l-5.55,20.64,12.74-9.27,12.75,9.27-5.55-20.64h1.32c2.43,0,4.6-1.57,5.37-3.88l.12-.34,19.13,4.92-9.47-12.45Zm-32.17,4.78l-3.34-8.81c-1.16-5.74,5.48-6.65,6.83-3.66l1.74,12.47h-5.23Zm8.5-19.87c-2.18,0-3.94-1.76-3.94-3.94s1.76-3.94,3.94-3.94,3.96,1.77,3.96,3.94-1.77,3.94-3.96,3.94Zm11.84,11.06l-3.32,8.81h-5.22l1.73-12.47c1.33-2.99,7.98-2.08,6.81,3.66Z"/><path class="cls-2" d="M312.14,423.49c-4.69-4.43-10.54-14.2-7.52-20.25,1.36-2.74,3.56-4.42,7.87-4.5,4.49,0,6.39,2.87,6.39,2.87-3.17-1.86-7.98-1.63-10.04-.15-2.15,1.53-6.18,9.22,6.34,21.66,6.12-1.29,10.83-6.68,10.83-15.07s-6.1-14.26-13.62-14.26c-4.22,0-8.11,2.12-10.56,5.41-4.06,5.51-8.6,10.6-13.61,15.26-2.36,2.53-5.62,9.43,.58,18.47,6.2,9.04,15.32,18.14,15.32,18.14h49.06c-23.24-9.8-35.9-22.3-41.04-27.58Z"/><path class="cls-2" d="M162.21,423.49c4.7-4.43,10.54-14.2,7.52-20.25-1.38-2.74-3.58-4.42-7.88-4.5-4.5,0-6.39,2.87-6.39,2.87,3.17-1.86,7.99-1.63,10.05-.15,2.15,1.53,6.17,9.22-6.36,21.66-6.12-1.29-10.81-6.68-10.81-15.07s6.1-14.26,13.62-14.26c4.22,0,8.12,2.12,10.55,5.41,4.07,5.51,8.62,10.6,13.62,15.26,2.35,2.53,5.6,9.43-.58,18.47-6.2,9.04-15.32,18.14-15.32,18.14h-49.05c23.23-9.8,35.89-22.3,41.04-27.58Z"/><path class="cls-2" d="M372.81,322.34c-2.74-1.06-8.13-2.98-11.24-4.05-4.09,31.4-9.24,43.65-9.24,43.65,0,0-16.42-34.3-17.99-38.54-1.94-5.23-2.57-10.37-3.17-18.68-.88-12.26-3.8-21.33-6.62-23.67v43.71c0,7.22-.54,14.31-1.6,21.2,4.13-2.38,7.65-15.84,7.65-15.84,4.68,11.76,15.12,36.79,16.69,41.19,1.7,4.67,3.79,5.01,5.28,4.98,3.38-.06,5.1-4.84,5.1-4.84,3.24-7.68,9.24-21.06,17.93-42.84-1.05-2.14-1.99-4.24-2.79-6.27Zm72.93-204.15s-.19,13.1-3.93,19.47c0-2.06-3.57-17.98-14.04-28.4-.77,15.26-3.42,44.93-11.16,74.13,10.27-6.51,26.19-17.92,40.24-34.13,.35-8.19-.7-22.59-11.11-31.07Zm54.62,75.5s-4.78,.83-8.11,1.25c0,0,8.74-6.24,7.9-15.4,0,0-6.87,3.75-10.81,4.37,0,0,11.86-9.15,11.02-26.62,0,0-7.7,6.03-9.56,6.24,0,0,8.1-12.49,4.57-26.01,0,0-7.7,8.32-11.03,10.61,0,0,5.83-19.55-2.08-28.29-17.64,39.52-55.69,63-67.72,69.99-7.43,24.9-18.82,48.47-36.15,61.33-5.98-2.44-12.8-4.4-21.37-6.49,.21-16.23,21.42-28.94,26.52-32.25,5.62-3.65,19.25-13.84,19.46-26.74,.18-11.84-6.44-18.62-19.67-18.62s-18.62,9.99-18.92,11.03c-.33,1.04-1.16,2.6-2.31,3.33,0,0-22.14,7.18-24.03,7.9-1.86,.72-7.06,3.96-8.41,5.72,1.98,1.35,9.67,1.04,10.6,.94,.94-.1,29.45-3.95,29.45-3.95,1.66-.21,7.81,.09,7.81,6.97,0,1.55,.19,5.09-17.28,15.29-17.48,10.19-34.85,14.19-34.85,38.49,0,8.21,5.2,15.29,5.72,16.33,.64,5.52,7.77,37,34.24,45.88,2.19,.73,6.15,2.12,10.89,4.02,5.42,15.62,22.84,36.68,21.83,66.84-.31,9.37-1.88,44.47-12.34,52.43-2.58,1.96-9.19,6.25-20.74,7.49-4.97,.54-11.14,1.38-14.13,4.29-.32,.31-.61,.65-.85,1.01h73.81s-6.77-6.06-19.03-8.11c-6.57-1.09-7.66-5.76-7.03-8.89,.62-3.12,6.42-20.18,7.48-26.05,4.85-26.7-1.11-47.31-1.39-49-2.15-12.91-2.17-21.15-1.48-26.4,3.39,2.51,6.18,5.16,7.85,7.9,6.87,11.24,5.92,19.97,5.92,19.97,17.79-2.49,26.39-14.81,26.39-14.81-.95-10.78-11.87-22.94-14.21-28.09-1.53-3.36-3.25-15.52-10.64-29.52-4.38,1.03-19.55,3.88-33.41-1.37,33.83,.28,41.81-10.83,48.89-16.65,0,0,7.69,2.7,11.23,.83,0,0,2.29-6.45-.42-10.82,0,0,3.54,1.25,9.36,1.03,0,0,0-5.6-1.86-9.34,.29,.12,5.33,2.26,10.19,1.86,0,0,.42-5.61-2.08-10.6,.31,.15,6.17,3.08,11.44,2.07,0,0-.41-5.61-3.54-10.61,0,0,9.16,2.49,12.49,1.04,0,0-.64-6.45-4.58-9.57,0,0,14.56-1.25,20.6-15.81,0,0-6.66,1.45-9.78,.21,0,0,14.77-6.25,14.15-16.65Zm-124.32-11.12s1.44-1.27,1.85-1.87c.04-2.13,1.78-3.83,3.9-3.83,.94,0,1.82,.33,2.48,.9,.81,.16,3,0,3,0-.62,.78-1.33,2.02-1.61,2.51,.02,.16,.03,.32,.03,.49,0,2.16-1.75,3.9-3.9,3.9-1.17,0-2.22-.52-2.93-1.34-.68-.44-1.92-.76-2.82-.76Z"/><path class="cls-2" d="M125.35,236.4c4.55,4.06,7.9,9.04,8.38,15.4,1.57,1.07,3.17,2.39,4.74,3.81,4.68-9.31,9.1-16.6,12.57-20.58v-15.64s-13.14,11.21-25.69,17.01Zm-2.4,162.77c-4.75-5.18-18.17-18.17-18.17-18.17,4.84-5.76,16.97-32.04,8.68-44.82-4.98-7.7-14.93-9.81-21.57-10.34-.85,1.19-1.66,2.42-2.47,3.74,.3,5.46-.49,15.89-5.02,27.01-.43,1.05-.89,2.06-1.36,3.07,1.29,.43,2.43,.83,3.33,1.12,9.49,3.85,5.66,15.82,2.48,22.14-3.15,6.32,1.81,8.35,6.32,8.58,9.49,2.25,17.39,10.61,17.8,14.29-.47,1.09,0,3.12,2.03,3.44,2.02,.31,8.89,1.4,9.98,13.89h17.94c0-22.59-19.97-23.95-19.97-23.95Zm-9.14-202.78c-1.26-1.87-9.15-2.91-12.7-6.03-3.53-3.11-9.14-13.52-24.54-13.52-6.87,0-16.86,3.33-16.86,3.33-7.28-2.3-13.11-1.51-21.42,1.66-4.37,1.67-12.49-1.24-12.49-1.24,1.03,10.18,13.11,11.02,13.11,11.02,3.32,8.12,15.6,7.49,15.6,7.49-1.25,7.07,17.69,21.01,33.7,12.07,5,0,12.49,.21,12.49,.21,11.65,0,11.24-8.54,11.24-8.54,1.66-1.45,3.12-4.57,1.87-6.45Zm-32.71-3.15c-3.31,.34-3-1.84-5.3-2.62-.37-.13-.81-.22-1.36-.26,1.82-1.07,5.92-4.35,5.92-4.35,0,0,4.72,.78,4.61,4.61-.01,.21,.05,.42,.07,.65,.27,.58,1.47,.6,1.73,1.31-2.13-.82-3.29,.42-5.67,.66Zm78.93,105.89c-.29-2.1,1.2-4.17,1.27-9.38,.12-7.75-6.12-10.19-9.82-11.92-3.71-1.73-7.3-4.89-9.05-9.02-1.77-4.13-7.82-11.66-13.02-14.58,.83-17.47-25.8-24.12-34.35-30.69-2.8-2.14-5.02-4.65-6.68-7.22-11.2,5.05-23.05,1.33-30.08-3.67-1.04-.74-1.99-1.51-2.84-2.3-.3,10.62,2.01,26.9,12.99,40.14-3.75,8.52,1.66,26.42,1.66,26.42-8.73,9.16-17.9,20.8-24.14,34.12-6.24,13.31-4.78,28.5-18.09,35.79,8.56,5.49,16.91,.43,17.25,.22-1.94,3.23,2.82,13.25,4.18,13.72-2.92,2.28-5.83,10.39-6.24,14.35-4.79,1.88-6.66,2.7-6.66,2.7-2.08,.83-3.55,2.49-1.66,7.06,1.87,4.6,4.57,11.46,4.98,18.75,.43,7.27,1.15,20.15-1.97,30.13-.46,1.1,0,3.13,2.03,3.45,2.03,.29,8.89,1.39,9.99,13.87h17.95c0-19.19-16.7-24.02-16.7-24.02v-42.53c31.98-12.95,34.9-47.28,33.93-56,12.45-21.35,28.65-24.45,38.14-42.37-7.19-4.01-18.72-3.15-18.72-3.15l-6.19-6.81-3.83-4.37h5.77l6.13,6.75c4.41-.13,13.13-.46,15.83,1.46,7.17,5.09,13.31,3.01,15.97,3.82,2.65,.81,12.26,8.78,12.96,15.62,.8,7.98-1.86,18.17-3.13,21.17,0,0,2.31,.81,3.59-.46,2.9,5.09-2.89,11.8-3.47,12.38v17.81c16.66-6.82,13.87-25.1,12.38-29.15,0,0,1.39-2.19,1.73-6.71,.23-2.94-1.86-13.77-2.09-15.38ZM86.18,150.24c-3.74,9.69-7.86,13.21-11.22,14.56,.53-4.46,.4-8.75-.24-12.85,4.48-3.87,6.96-9.58,7.68-15.25-.62-1.63-1.26-3.2-1.95-4.69-1.67,7.97-4.68,11.34-7.33,12.98-.97-3.14-2.23-6.13-3.69-9,3.27-4.6,4.4-10.45,3.94-15.92-1.05-1.4-2.13-2.69-3.22-3.9,.18,7.92-1.76,12-3.87,14.33-2.13-3.33-4.5-6.42-7-9.28,.83-5.31,.81-10.22-.03-14.46-1.03-.68-2.04-1.31-3.03-1.88,.35,3.34,.09,7.79-.97,12-6.03-6.07-12.2-10.74-16.65-13.8h-4.54c5.56,4.13,14.44,12.25,21.72,22.69-5.46-.84-11.91-3.24-16.54-8.63h-3.14c2.34,4.43,9.32,11.83,23.38,14.42,7.92,12.25,11.09,26.08,6.84,39.35-4.35-1.17-9.43-2.74-14.7-4.84-3.21-5.83-5.22-11.77-5.51-16.51-1.1-.55-2.19-1.1-3.24-1.66-.28,4.61,.6,9.9,2.58,15.47-2.21-1.07-4.41-2.23-6.58-3.51-3.05-6.2-4.43-12.34-4.43-17.27-1.09-.78-2.13-1.58-3.14-2.4-.63,4.55-.19,9.85,1.27,15.51-1.98-1.47-3.9-3.06-5.7-4.78-2.23-6.3-3.31-12.62-2.98-17.61-1-1.06-1.96-2.14-2.87-3.23-.94,3.95-1.1,8.56-.51,13.55-5.01-7.03-8.27-15.72-8.46-26.46-1.11-1.95-2.13-3.85-3.05-5.7-1.04,7.02-1.6,21.17,6.98,35.11-5.45-2.74-9.68-6.14-13.37-13.06H0c1.23,5.28,6.83,15.29,22.26,21.32,7.55,8.16,19.02,15.73,36.3,21.1,2.82-.85,9.37-2.68,14.82-3.28,6.96-2.46,11.76-8.77,13.92-15.39-.31-2.45-.68-4.78-1.12-7.03Z"/><path class="cls-2" d="M193.9,175.17c6.87-11.65,8.19-29.16,8.19-29.16-3.44,2.68-7.55,5.28-10.87,7.29-13.69,8.3-22.71-.79-22.71-8.92,0-7.12,5.03-12.91,11.24-12.91,4.16,0,9.47,3.23,8.53,7.7,4.99-3.85,5.31-18.31-7.07-18.62,3.02-3.85,8.64-18.1-1.24-28.82,4.89,17.16-20.15,14.72-16.25,44.24-12.19-16.47-3.36-45.25-4.93-66-6.03-8.94-14.67-7.37-17.15-6.91-2.53,.47-4.79,1.41-6.96,2.61,3.31,5.84,4.88,13.21,5.81,21.15-6.26-3.14-17.99-1.41-18.16,11.57,7.55-2.59,17.16,2.04,20.02,10.59,1.12,12.25,3.14,23.72,9.94,31.01-17.06-8.12-18.1-15.61-29.32-16.23-12.89-.72-11.03,6.24-25.59,2.49,2.08,6.03,13.72,16.44,29.96,12.27-8.11,4.17-10.61,13.11-4.37,22.26,2.48-8.73,8.7-11,14.96-11.65,6.04-.62,15.12,1.22,19.74,6.47,6.03,6.87,15.71,14.92,33.6,5.35-6.03,15.6-19.98,18.05-26,26.83-5.54,8.06-5.87,18.7-14.19,21.41,10.2,1.66,23.92-2.92,29.75-14.57,1.24,5.41,10.6,7.08,14.56,2.71-6.45-6.04-5.51-15.36-1.48-22.19Z"/><path class="cls-2" d="M131.95,43.58c-6.57,0-11.5,3.2-16.68,3.38-6.05,.2-12.01-2.94-10.37-11.41-5.36,1.73-8.82,19.87,7.68,21.08-5.35,1.38-8.2,15.63-18.66,14.43,4.76,3.24,9.24,3.54,14.69,3.24,12.85-.74,19.17-13.09,32.22-15.5,5.3-.99,12.32-.15,17.23,5.68-1.01-5.13-2.96-9.58-6.51-12.94-6.16-5.83-10.88-7.95-19.61-7.95Z"/><g><path class="cls-2" d="M331.99,109c-1.11,12.25-3.14,23.72-9.93,31.01,17.06-8.12,18.09-15.61,29.34-16.23,12.88-.72,11.03,6.24,25.58,2.49-2.08,6.03-13.73,16.44-29.96,12.27,8.12,4.17,10.62,13.11,4.38,22.26-2.5-8.73-8.72-11-14.99-11.65-6.03-.62-15.12,1.22-19.73,6.47-6.04,6.87-15.71,14.92-33.6,5.35,6.04,15.6,19.98,18.05,26,26.83,5.54,8.06,5.87,18.7,14.19,21.41-10.19,1.66-23.93-2.92-29.76-14.57-1.24,5.41-10.6,7.08-14.56,2.71,6.45-6.04,5.5-15.36,1.48-22.19-6.86-11.65-8.2-29.16-8.2-29.16,3.45,2.68,7.57,5.28,10.88,7.29,13.7,8.3,22.72-.79,22.72-8.92,0-7.12-5.05-12.91-11.24-12.91-4.16,0-9.47,3.23-8.53,7.7-4.99-3.85-5.31-18.31,7.07-18.62-3.02-3.85-8.64-18.1,1.25-28.82-4.9,17.16,20.15,14.72,16.25,44.24,12.19-16.47,3.36-45.25,4.93-66,6.02-8.94,14.66-7.37,17.16-6.91,2.51,.47,4.78,1.41,6.94,2.61-3.31,5.84-4.87,13.21-5.8,21.15-.85,9.8-1.72,20.78-1.88,22.16Z"/><path class="cls-2" d="M342.41,43.58c6.57,0,11.49,3.2,16.68,3.38,6.05,.2,12-2.94,10.37-11.41,5.36,1.73,8.82,19.87-7.69,21.08,5.36,1.38,8.21,15.63,18.67,14.43-4.77,3.24-9.25,3.54-14.7,3.24-12.86-.74-19.17-13.09-32.22-15.5-5.31-.99-12.33-.15-17.24,5.68,1.01-5.13,2.97-9.58,6.53-12.94,6.15-5.83,10.88-7.95,19.61-7.95Z"/></g><path class="cls-2" d="M282.59,30.89c3.47-.95,10,17.5,27.08,16.75-5.26-3.26-9.95-4.32-14.02-12.85-5.37-11.28-10.11-12.02-12.33-10.86l-4.01,2.21c-3.8,2.13-3.08,10.58-2.73,13.23-6.02-11.82-12.85-19.84-14.75-22.44-2.01-8.83-8.04-13.43-18.63-16.93,1.5,8.01,4.85,15.81,13.89,20.1,3.49,4.17,10.17,13.43,15.11,25.78-4.39-3.47-9.44-4.66-9.44-4.66-.94,.31-4.74,2.63-4.74,2.63,2.74,4.96-.32,15.82-.32,15.82,5.38-2.32,7.7-12.44,7.7-12.44,5.06,2.83,8.69,7.18,11.62,15.23,3.06,16.62,1.21,36.23-12.86,55.88-5.85-5.76-15.28-8.76-26.97-8.76s-21.12,3-26.98,8.76c-14.06-19.65-15.91-39.26-12.86-55.88,2.93-8.05,6.55-12.4,11.62-15.23,0,0,2.32,10.11,7.68,12.43-.12-.46-2.97-10.96-.3-15.81,0,0-3.8-2.32-4.74-2.63,0,0-5.05,1.19-9.43,4.66,4.93-12.35,11.6-21.61,15.11-25.78,9.03-4.29,12.38-12.09,13.88-20.1-10.59,3.5-16.61,8.1-18.64,16.93-1.88,2.6-8.73,10.62-14.73,22.44,.33-2.65,1.06-11.1-2.75-13.23l-4-2.21c-2.22-1.16-6.96-.42-12.34,10.86-4.07,8.53-8.74,9.59-14.01,12.85,17.08,.75,23.61-17.7,27.08-16.75,1.91,.51,.77,8.06,.12,12.42-1.06,7.16-1.54,15.62-1.54,15.62-.43,1.67-.81,3.38-1.13,5.12-3-5.61-7.29-7.36-7.29-7.36l-7.64,3.9c.47,3.91-1.25,20.91-5.62,29.96,9.21-6.86,12.64-24.81,12.64-24.81,3.37,3.86,5.74,10.52,6.55,13.03,.08,14.75,4.52,31.21,16.92,48.36-.12,.39-.23,.77-.33,1.16-2.67,1.59-4.76,3.74-4.52,7.29,.28,4.15,2.4,6.28,7.2,7.01l-.98,10.07c6.95-2.75,15.32-4.73,31.02-4.52,15.71,.21,24.07,1.77,31.02,4.52l-.97-10.07c4.79-.73,6.91-2.86,7.19-7.01,.24-3.55-1.84-5.7-4.52-7.29-.11-.39-.21-.77-.34-1.16,12.4-17.15,16.86-33.61,16.92-48.36,.83-2.51,3.2-9.17,6.56-13.03,0,0,3.43,17.95,12.64,24.81-4.37-9.05-6.08-26.05-5.62-29.96l-7.65-3.9s-4.28,1.75-7.28,7.36c-.32-1.74-.71-3.45-1.12-5.12,0,0-.5-8.46-1.55-15.62-.64-4.36-1.79-11.91,.13-12.42Zm-71.42,106.93c-.71-.88-1.15-1.33-2.54-3.41-1.86-2.75-3.01-3.36-3.01-3.36,2.47-2.47,4.61-2.19,5.68-.84,.16,.21,3.83,6.15,5.59,6.98-3.85,2.55-5.59,.79-5.72,.63Zm11.28-3.2c-.6-.96-.98-1.46-2.1-3.69-1.51-2.97-2.59-3.71-2.59-3.71,2.77-2.16,4.85-1.61,5.75-.14,.14,.22,3.05,6.58,4.7,7.61-4.13,2.07-5.65,.11-5.76-.07Zm13.79-1.13c-.5-1.02-.83-1.55-1.72-3.89-1.21-3.1-2.21-3.94-2.21-3.94,2.97-1.87,4.99-1.12,5.74,.43,.11,.24,2.37,6.85,3.92,8.04-4.32,1.64-5.64-.46-5.73-.64Zm13.92,.98c-.34-1.1-.58-1.67-1.09-4.12-.68-3.26-1.54-4.25-1.54-4.25,3.23-1.36,5.11-.3,5.6,1.36,.07,.25,1.24,7.14,2.56,8.56-4.52,.93-5.47-1.36-5.53-1.55Zm11.65,2.53c-.15-1.12-.3-1.73-.4-4.23-.16-3.32-.85-4.44-.85-4.44,3.42-.83,5.1,.52,5.31,2.23,.03,.26,.09,7.24,1.17,8.87-4.63,.19-5.2-2.23-5.23-2.43Z"/><g><path class="cls-1" d="M77.85,464.22h-2.05l-7.17,18.59h3.01l1.74-4.72h6.86l1.86,4.72h3.09l-7.34-18.59Zm-3.54,11.38l1.83-4.97c.34-.87,.56-1.6,.72-2.25h.05c.1,.59,.35,1.35,.66,2.28l1.71,4.94h-4.97Z"/><path class="cls-1" d="M107.13,481.09c-1.24,1.26-3.09,1.99-5.74,1.99s-4.33-.65-5.48-1.78c-1.38-1.32-1.8-3.31-1.8-5.25v-11.79h2.92v11.64c0,1.29,.37,2.56,1.19,3.43,.7,.76,1.76,1.2,3.23,1.2,1.63,0,2.76-.44,3.45-1.2,.76-.79,1.03-1.94,1.03-3.25v-11.82h2.96v11.84c0,1.97-.57,3.73-1.77,4.98Z"/><path class="cls-1" d="M125.4,464.28h-5.09v18.53h4.97c6.7,0,10.33-4.03,10.33-9.45s-3.38-9.08-10.21-9.08Zm.03,15.99h-2.17v-13.44h2.17c4.78,0,7.05,2.81,7.05,6.58s-1.91,6.86-7.05,6.86Z"/><path class="cls-1" d="M152.97,464.22h-2.07l-7.17,18.59h3.01l1.75-4.72h6.85l1.87,4.72h3.09l-7.33-18.59Zm-3.56,11.38l1.83-4.97c.34-.87,.56-1.6,.73-2.25h.03c.11,.59,.37,1.35,.68,2.28l1.71,4.94h-4.98Z"/><path class="cls-1" d="M186.46,482.81h-3.38l-4.75-7.17-5.15,7.17h-3.29l6.67-9.39-6.02-9.14h3.39l4.46,6.81,4.87-6.81h3.29l-6.39,9,6.3,9.53Z"/><path class="cls-1" d="M219.3,464.22h-2.06l-7.17,18.59h3.01l1.75-4.72h6.86l1.85,4.72h3.09l-7.33-18.59Zm-3.55,11.38l1.83-4.97c.34-.87,.57-1.6,.74-2.25h.02c.12,.59,.36,1.35,.67,2.28l1.73,4.94h-4.99Z"/><path class="cls-1" d="M247.46,466.8h-5.49v16h-2.98v-16h-5.38v-2.53h13.85v2.53Z"/><path class="cls-1" d="M283.63,466.8h-6.29v5.33h4.89v2.54h-4.89v8.13h-2.94v-18.53h9.22v2.53h0Z"/><path class="cls-1" d="M295.4,482.81v-18.53h2.94v18.53h-2.94Z"/><path class="cls-1" d="M315.17,464.28h-5.08v18.53h4.97c6.7,0,10.33-4.03,10.32-9.45,0-5.32-3.37-9.08-10.21-9.08Zm.03,15.99h-2.16v-13.44h2.16c4.79,0,7.07,2.81,7.07,6.58s-1.92,6.86-7.07,6.86Z"/><path class="cls-1" d="M336.81,482.81v-18.53h9.44v2.53h-6.48v5.25h5.1v2.53h-5.1v5.68h6.48v2.54h-9.44Z"/><path class="cls-1" d="M357.96,482.81v-18.53h2.92v15.99h6.77v2.54h-9.69Z"/><path class="cls-1" d="M378.6,482.81v-18.53h2.95v18.53h-2.95Z"/><path class="cls-1" d="M398.24,483.09c-2.56,0-3.71-.54-4.9-1.31v-2.82c.95,.65,3.03,1.67,4.78,1.67,1.52,0,3.29-.67,3.29-2.36,0-2.84-4.47-3.41-6.72-5.91-.76-.85-1.26-1.88-1.26-3.32,0-2.7,2.08-4.94,5.81-4.94,1.97,0,3.43,.51,4.39,1l-.03,2.76c-1.27-.76-2.71-1.3-4.22-1.3-1.6,0-2.93,.68-2.93,2.14,0,3.66,8.1,3.54,8.1,9.22,0,3.13-2.75,5.15-6.33,5.15Z"/></g><path class="cls-2" d="M560.35,355.92v-.22c7.66-4.39,16.78-13.18,16.78-29.86,0-23.43-19.15-40.21-41.9-40.21s-41.91,16.79-41.91,40.21c0,25.91,18.7,41.57,43.49,41.57h46.41v-11.49h-22.87Zm-25.23-1.35c-15.55,0-26.93-12.05-26.93-28.39s11.26-27.71,26.7-27.71,27.37,11.83,27.37,27.71-11.37,28.39-27.14,28.39Z"/><path class="cls-2" d="M657.45,338.13c0,19.26-13.86,31.32-32.11,31.32s-32.11-12.05-32.11-31.32v-50.47h14.19v50.02c0,7.89,4.28,18.25,17.91,18.25s17.91-10.36,17.91-18.25v-50.02h14.19v50.47h0Z"/><path class="cls-2" d="M674.91,287.66h52.83v12.84h-38.64v19.6h36.61v12.84h-36.61v21.63h40.67v12.84h-54.86v-79.76Z"/><path class="cls-2" d="M743.74,287.66h52.83v12.84h-38.64v19.6h36.61v12.84h-36.61v21.63h40.67v12.84h-54.86v-79.76h0Z"/><path class="cls-2" d="M812.57,287.66h18.81l38.64,59.25,.23,.23h-.23l.23-.23v-59.25h14.19v79.76h-18.02l-39.43-61.17h-.23v61.17h-14.2v-79.76Z"/><path class="cls-2" d="M941.33,304.78c-3.04-4.28-8.45-6.31-13.97-6.31-6.54,0-13.07,2.93-13.07,10.25,0,16,37.85,6.87,37.85,35.26,0,17.12-13.51,25.46-29.17,25.46-9.91,0-19.6-3.04-26.14-10.81l10.7-10.36c3.49,5.29,9.46,8.34,15.77,8.34s13.97-3.61,13.97-10.93c0-17.46-37.85-7.44-37.85-35.94,0-16.45,14.64-24.11,29.4-24.11,8.34,0,16.67,2.37,22.87,8.22l-10.37,10.92Z"/><path class="cls-2" d="M966.9,287.66h14.19v66.92h33.91v12.84h-48.1v-79.76Z"/><path class="cls-2" d="M1063.44,287.66h-12.28l-34.7,79.75h15.89l7.21-18.25h34.58l7.44,18.25h16.22l-34.36-79.75Zm-19.03,49.34l12.5-32.44,12.28,32.44h-24.78Z"/><path class="cls-2" d="M1106.7,287.66h18.81l38.64,59.25,.23,.23h-.23l.23-.23v-59.25h14.19v79.76h-18.02l-39.43-61.17h-.22v61.17h-14.2v-79.76Z"/><path class="cls-2" d="M1227.8,287.66h-31.43v79.75h29.74c19.15,0,42.24-12.61,42.24-39.87s-19.6-39.88-40.55-39.88Zm-6.65,66.91h-10.58v-54.07h12.95c17.35,0,29.96,7.66,29.96,27.04s-14.53,27.03-32.33,27.03Z"/><path class="cls-2" d="M552.35,428.58c-5.86-6.19-11.27-7.89-16.78-7.89-16.45,0-27.38,12.62-27.38,28.5,0,17.01,10.93,29.63,27.38,29.63,6.42,0,12.62-2.93,17.91-9.69l11.71,8.33c-7.21,9.91-18.02,14.2-29.74,14.2-24.56,0-42.13-16.67-42.13-41.57s17.57-42.25,42.13-42.25c10.81,0,20.05,3.49,27.94,12.62l-11.04,8.11Z"/><path class="cls-2" d="M612.62,407.85c-24.56,0-42.13,16.67-42.13,42.25s17.57,41.56,42.13,41.56c24.89-.45,42.47-17.12,42.47-42.02s-17.58-42.24-42.47-41.79Zm.11,70.97c-16.45,0-27.37-12.62-27.37-29.63,0-15.88,10.92-28.5,27.37-28.5s27.49,12.62,27.49,28.5c0,17.01-10.93,29.63-27.49,29.63Z"/><path class="cls-2" d="M732.48,460.34c0,19.26-13.86,31.32-32.11,31.32s-32.11-12.05-32.11-31.32v-50.47h14.19v50.02c0,7.88,4.28,18.25,17.91,18.25s17.91-10.36,17.91-18.25v-50.02h14.19v50.47Z"/><path class="cls-2" d="M790.04,454.38c11.83-1.69,18.48-10.14,18.48-21.63,0-17.91-14.42-22.87-29.74-22.87h-27.71v79.76h14.19v-33.8h10.37l18.47,33.8h17.12l-21.18-35.26Zm-13.74-10.7h-11.04v-21.63h12.28c7.32,0,16.11,1.12,16.11,10.58,0,10.37-9.35,11.04-17.35,11.04h0Z"/><path class="cls-2" d="M840.62,422.72h-24.45v-12.84h63.09v12.84h-24.45v66.92h-14.19v-66.92Z"/><path class="cls-2" d="M926.91,427c-3.04-4.28-8.45-6.31-13.97-6.31-6.53,0-13.07,2.93-13.07,10.25,0,16,37.85,6.87,37.85,35.26,0,17.12-13.52,25.46-29.18,25.46-9.91,0-19.6-3.04-26.13-10.81l10.7-10.36c3.49,5.29,9.46,8.34,15.77,8.34s13.97-3.6,13.97-10.93c0-17.46-37.85-7.44-37.85-35.94,0-16.45,14.64-24.11,29.4-24.11,8.34,0,16.68,2.37,22.87,8.22l-10.37,10.93Z"/></g></svg>