<svg xmlns="http://www.w3.org/2000/svg" viewBox="0 0 781.72 259.14"><defs><style>.cls-1{fill:#94a3b7;}</style></defs><g id="Layer_2" data-name="Layer 2"><g id="Layer_1-2" data-name="Layer 1"><path class="cls-1" d="M0,208.74c.23-2.4.41-4.8.71-7.18,1.48-11.58,5.41-22.05,14-30.36a43.87,43.87,0,0,1,22.94-11.48c11.5-2.19,22.89-1.1,34.17,1.69.44.11,1.07.75,1.07,1.15.07,6.42.05,12.85.05,19.55-.55-.34-.92-.53-1.24-.78-5.18-4-10.54-7.79-15.47-12.08-4.63-4-9.65-4.15-15-2.6-7.57,2.16-12.17,7.63-15.39,14.44C22.3,188.5,21,196.45,20.7,204.53c-.41,9.79.2,19.49,3.7,28.79,2.28,6.08,5.6,11.45,11.26,15A18.36,18.36,0,0,0,49.73,251a15.71,15.71,0,0,0,5.54-2.67c6.13-4.41,12.13-9,18.19-13.53.17-.13.37-.22.9-.54-.36,2.9-.68,5.53-1,8.16-.5,3.85-1.08,7.69-1.49,11.55-.12,1.2-.46,1.77-1.71,2-10.11,1.74-20.22,3.54-30.55,2.49s-20-4.16-27.5-11.84c-6-6.08-9.17-13.58-10.66-21.82-.64-3.54-.8-7.16-1.19-10.73a6.17,6.17,0,0,0-.24-.94Z"/><path class="cls-1" d="M0,56.39c.23-2.34.42-4.68.7-7,1.35-11.12,5-21.24,12.92-29.47C20.25,13,28.49,9.09,37.8,7.32c11.47-2.18,22.79-1,34,1.72.44.11,1.07.74,1.07,1.13.07,6.43.05,12.86.05,19.59-.59-.38-1-.61-1.38-.9C66.33,24.82,61,21,56,16.68c-4.11-3.52-8.59-3.84-13.47-2.76-6.85,1.52-11.56,5.83-15,11.68S22.24,38,21.36,44.78a87.53,87.53,0,0,0,0,23.43c1.2,8.71,3.48,17,9.59,23.74,5,5.49,11.25,8,18.69,6.71a14.45,14.45,0,0,0,5.57-2.61c6.09-4.38,12.05-8.94,18.06-13.43.26-.19.54-.35,1.12-.73-.35,2.86-.64,5.4-1,7.94-.52,4-1.1,8-1.58,12-.11,1-.36,1.46-1.44,1.66-8.55,1.55-17.11,3-25.83,2.83-8.19-.19-16.16-1.57-23.5-5.46C10.16,95.13,4.25,85.69,1.76,74,.94,70.05.74,66,.25,62.07c-.06-.43-.17-.86-.25-1.28Z"/><path class="cls-1" d="M494.45,49.69A23.52,23.52,0,0,0,482.15,37c-6.59-3-13.14-2.19-19.47.68-3.87,1.76-7.52,4-11.52,6.18V0L426.75,5.75c.39.64.64,1.06.92,1.47a32.84,32.84,0,0,1,5.7,19.11c-.07,25.62,0,51.23,0,76.85v2.14c.69-.18,1.23-.31,1.77-.47,4.87-1.39,9.72-2.84,14.61-4.15a4.09,4.09,0,0,1,2.44.4c2.16.93,4.17,2.29,6.4,3,10.57,3.2,24.13-1.11,31.13-10.31C500.07,80.12,500.84,65.17,494.45,49.69ZM477.61,85c-2.51,6.33-7.05,10.67-14,11.9a22.77,22.77,0,0,1-11.47-1.25c-.46-.16-.88-1.18-.88-1.81-.06-7.67,0-15.33,0-23,0-7.44.06-14.89,0-22.33,0-1.78.33-2.52,2.29-2.75,3.83-.46,7.62-.95,11.42,0,6.63,1.62,10.95,5.92,13.18,12.19A37.4,37.4,0,0,1,477.61,85Z"/><path class="cls-1" d="M601.58,256.48H573.26c.24-.52.41-1,.63-1.36a35.93,35.93,0,0,0,4.51-18c-.09-7.62,0-15.23-.09-22.85a41.54,41.54,0,0,0-.94-7.35c-1-5.11-4.4-8-9.38-8.6-3.94-.44-8-.09-12-.07-.94,0-1.33.49-1.33,1.51,0,12.59,0,25.17,0,37.75a35,35,0,0,0,4.87,17.88c.17.28.29.58.51,1H531.78c1.12-2.61,2.55-5.09,3.25-7.76a52.21,52.21,0,0,0,1.9-11.26c.28-8.51.18-17,.06-25.55a37.8,37.8,0,0,0-4.87-18.08c-.19-.33-.33-.69-.55-1.15l23.11-5.73v9.89c1.6-.83,2.86-1.5,4.14-2.15,5.27-2.68,10.53-5.39,16.39-6.64,10.33-2.2,17.66,2.39,20,12.75a47.85,47.85,0,0,1,1.08,9.54c.17,9.48.09,19,.16,28.44a33.2,33.2,0,0,0,4.36,16.12C601,255.35,601.26,255.85,601.58,256.48Z"/><path class="cls-1" d="M626.74,60.85c-2.69-12.37-9.89-20.82-22.25-24.3a41.26,41.26,0,0,0-24.8.78c-9.75,3.3-16.5,9.82-19.89,19.52a42.46,42.46,0,0,0,.69,30.39c3.72,9.42,10.72,15.48,20.5,18.08a41.61,41.61,0,0,0,25.42-1.15A30.61,30.61,0,0,0,624.23,87.8c2.56-5.45,3.47-11.26,3.6-18.76A81.38,81.38,0,0,0,626.74,60.85Zm-21,28.38a26,26,0,0,1-3.47,6.7c-5.12,6.84-14,6.72-19.1-.1a28.57,28.57,0,0,1-5-12.42c-1.77-9.81-1.89-19.63.87-29.27a27.6,27.6,0,0,1,4.14-8.58c4.74-6.48,13.68-6.45,18.75-.2,3.3,4.06,4.77,8.9,5.5,14,.55,3.84.71,7.73,1,11.59C608.36,77.16,607.88,83.33,605.75,89.23Z"/><path class="cls-1" d="M151,213.22c-2.37-11-8.47-19.16-19.21-23.31a39.9,39.9,0,0,0-21.64-1.77c-13.56,2.41-22.88,9.9-26.81,23.33a42.76,42.76,0,0,0,.8,26.58A29.48,29.48,0,0,0,104,257.34a40.36,40.36,0,0,0,16.89,1.47c11.48-1.29,20.74-6.2,26.58-16.54,3.38-6,4.52-12.54,4.66-20.89A82.13,82.13,0,0,0,151,213.22Zm-21.63,30a21.84,21.84,0,0,1-4.71,7.07c-5,4.71-12.08,4-16.59-1.32-3.2-3.76-4.72-8.28-5.58-13-1.85-10.27-1.94-20.52,1.19-30.57a25.24,25.24,0,0,1,3.7-7.32c4.83-6.57,13.68-6.62,18.85-.27,3.35,4.11,4.79,9,5.52,14.14.53,3.72.7,7.5,1,11.25C132.59,230,132.18,236.85,129.39,243.2Z"/><path class="cls-1" d="M523.82,207.5c-3.34-9.22-10-15.24-19.31-18.23a40.6,40.6,0,0,0-17.22-1.5c-10.67,1.21-19.55,5.59-25.5,14.86-4,6.26-5.52,13.23-5.7,20.61.33,3,.46,6,1,8.88,2.39,12.42,9.15,21.26,21.48,25.23A40.43,40.43,0,0,0,498,258.46c10.92-1.86,19.58-7.15,24.53-17.32C527.83,230.19,527.92,218.83,523.82,207.5Zm-19.66,35.36a18.43,18.43,0,0,1-5.34,7.89c-5.21,4.23-12.48,3.18-16.7-2.38a29,29,0,0,1-5.22-13.21c-1.6-9.88-1.64-19.73,1.15-29.44a21.39,21.39,0,0,1,4.53-8.59,11.57,11.57,0,0,1,17-.64c3.64,3.52,5.36,8.06,6.21,12.87.82,4.59,1.17,9.26,1.49,11.9C507,229.94,506.6,236.56,504.16,242.86Z"/><path class="cls-1" d="M705,61.6c-2.24-11.25-8.21-19.65-19.13-24a39.71,39.71,0,0,0-22-1.86c-12.85,2.28-22,9.19-26.25,21.78a42.63,42.63,0,0,0,.3,28c3.52,10.22,10.63,16.86,21,19.71a41.88,41.88,0,0,0,24.31-.71A30.88,30.88,0,0,0,697,95.87c6.52-7.21,8.8-15.91,9-25.4C705.69,67.51,705.57,64.51,705,61.6ZM684.7,86.52a24,24,0,0,1-4.61,9.86c-5.16,6.24-13.68,6.11-18.62-.3-3.31-4.27-4.75-9.29-5.5-14.51-.54-3.72-.7-7.5-1-11.25.17-6.14.7-12.18,2.74-18a27.39,27.39,0,0,1,2.61-5.46c5.18-8.15,15.25-8.25,20.71-.28a30.57,30.57,0,0,1,4.67,13.25A70.07,70.07,0,0,1,684.7,86.52Z"/><path class="cls-1" d="M380.83,95.63c-1.91-4.25-2.25-8.81-2.27-13.38-.06-10.38-.13-20.77,0-31.14.09-6.29-2.11-11.08-8.12-13.44a35.19,35.19,0,0,0-8.81-2.18c-10.5-1.14-20.79.33-30.95,3a1.67,1.67,0,0,0-1.5,1.95c.08,5.25,0,10.49,0,15.74a10,10,0,0,0,.14,1.21l.59.42a39.62,39.62,0,0,1,3.56-4.06c3.84-3.38,7.7-6.77,11.76-9.88,2.75-2.09,6.07-2.17,9.4-1.44a7.37,7.37,0,0,1,5.84,5.27,14.62,14.62,0,0,1,.81,3.95c.09,4.71,0,9.42,0,14.12-3.7,0-7.35-.06-11,0a45,45,0,0,0-15.74,2.75c-5.52,2.16-9.49,5.82-10.88,11.77A22.81,22.81,0,0,0,324,91.68a18.12,18.12,0,0,0,20.49,13.41c4-.63,7.46-2.48,10.84-4.54,2.05-1.26,4-2.63,6.06-4,.78,2.23,1.43,4.44,2.32,6.55,1,2.31,1.08,2.26,3.5,1.73.77-.17,1.55-.29,2.32-.46l14.25-3C382.7,99.35,381.68,97.53,380.83,95.63Zm-19.4-1c-4.48.75-8.89,1.2-13.29,0-4.7-1.29-7.26-4.46-7.89-9.62a10.44,10.44,0,0,1,5.44-10.77c3.75-2.12,7.93-2.78,12.12-3.34,1.16-.16,2.33-.25,3.62-.39Z"/><path class="cls-1" d="M168,36.18l-2.51,3.9a9.3,9.3,0,0,0-.94,8.84c4.1,10.89,8.1,21.83,12.14,32.75.59,1.61,1.2,3.22,2,5.23,2.31-7.35,4.5-14.25,6.65-21.15,1.79-5.75,3.51-11.51,5.3-17.25a8.65,8.65,0,0,0-.54-6.71c-.92-1.85-1.85-3.69-2.83-5.62h22.18c-5.23,5.27-8.54,11.43-11.12,18-1.74,4.45-3.44,8.92-5.18,13.38-6.21,15.93-12.38,31.88-18.69,47.77a40.15,40.15,0,0,1-8,13.39,16.73,16.73,0,0,1-11.86,5.4c-4.46.13-8.95-.38-13.48-.62V115.7l3,2.26c2.65,2,5.22,4.15,8,6,3.86,2.62,6.85,2.27,9.43-1.62,2.44-3.68,4.12-7.85,6.31-11.71,1.62-2.85,1.34-5.34,0-8.33C160.29,85,153,67.52,145.69,50.1a45.25,45.25,0,0,0-8.46-12.76c-.29-.32-.55-.66-1-1.16Z"/><path class="cls-1" d="M265.89,247.35c-14.61-3-19.87-15.18-19-27.72h43.32c-.42-3.58-.58-6.95-1.26-10.22-1.65-8.08-5.56-14.74-13.06-18.76-5.43-2.92-11.31-3.58-17.39-2.93-11.57,1.25-20.34,6.85-25.63,17.21-5.57,10.88-5.92,22.3-1.84,33.74,2.89,8.09,8.36,14.07,16.47,17.12,14.2,5.34,27.32,2.8,39.36-6.14,1.13-.84,2.17-1.82,3.25-2.73a56.17,56.17,0,0,0-6.52.6C277.67,248.23,271.77,248.54,265.89,247.35ZM247,211.54c.47-4.55,1.27-9,3.79-13a10.28,10.28,0,0,1,11.17-4.78,9.26,9.26,0,0,1,6.07,5A25.16,25.16,0,0,1,270.72,209c.12,1.43.14,2.88.21,4.4l-24.31,3.52C246.74,215,246.8,213.29,247,211.54Z"/><path class="cls-1" d="M209.08,85.26c3.54,2.73,6.68,5.29,10,7.65a70.83,70.83,0,0,0,8.4,5.33c3.66,1.89,7.42,1.86,10.75-.95a8.26,8.26,0,0,0,.46-12.4,49.32,49.32,0,0,0-6.9-4.84c-4.55-2.92-9.27-5.6-13.69-8.7-4.12-2.88-7.11-6.75-8-11.9-1.91-11.21,3.78-20,14.85-23,6.95-1.87,14-1.57,21-.53,2.56.38,5.07,1.06,7.6,1.57a1.64,1.64,0,0,1,1.55,1.93c-.08,5,0,10,0,15.41-.75-.51-1.29-.85-1.8-1.22-3.83-2.78-7.63-5.61-11.5-8.34a39.61,39.61,0,0,0-4.39-2.52c-3.86-2.07-8.25,0-10,2.45a7.73,7.73,0,0,0,.79,10.07,28.4,28.4,0,0,0,5.52,4.13c3.56,2.16,7.28,4,10.88,6.16,1.94,1.13,3.81,2.41,5.63,3.73,11.9,8.7,9.28,26.93-3.25,33.48-5.73,3-11.85,3.86-18.18,3.61a67.83,67.83,0,0,1-18.23-3.31,1.76,1.76,0,0,1-1.49-2C209.13,95.94,209.08,90.82,209.08,85.26Z"/><path class="cls-1" d="M737.92,104H709.84c1.21-3,2.74-5.88,3.51-8.94a43.91,43.91,0,0,0,1.39-10.32c.13-19.46,0-38.92.08-58.38a32.57,32.57,0,0,0-5.67-19.1c-.25-.37-.49-.76-.72-1.14a1.73,1.73,0,0,1,0-.47L732.75,0V2.39c0,27.08.06,54.15,0,81.23,0,7,1.3,13.63,4.88,19.73C737.69,103.53,737.77,103.72,737.92,104Z"/><path class="cls-1" d="M420.6,104H392.31a6.63,6.63,0,0,1,.38-1,38.22,38.22,0,0,0,4.86-19.58q-.12-28.51,0-57A32.51,32.51,0,0,0,391.71,7c-.25-.36-.44-.76-.75-1.29L415.35,0V2.41c0,26.85.07,53.69-.05,80.54,0,7.28,1.3,14.08,5,20.37A7.24,7.24,0,0,1,420.6,104Z"/><path class="cls-1" d="M192.41,158.13l24.4-5.74v2.17q0,41.79,0,83.59a33.83,33.83,0,0,0,4.15,16c.36.69.74,1.37,1.21,2.24H193.73c.42-.86.78-1.66,1.19-2.43A35.89,35.89,0,0,0,199,236.93c0-19.41-.09-38.81,0-58.21a32.64,32.64,0,0,0-5.85-19.38C192.94,159,192.75,158.68,192.41,158.13Z"/><path class="cls-1" d="M186.28,256.51H157.52c.73-1.47,1.4-2.8,2-4.15a34.94,34.94,0,0,0,3.31-15.22c0-19.52,0-39,0-58.56a32.43,32.43,0,0,0-5.67-18.93c-.28-.42-.54-.85-1-1.51l24.41-5.77v2.37c0,25.27.07,50.55,0,75.82C180.59,239.55,180.78,248.4,186.28,256.51Z"/><path class="cls-1" d="M372.7,195.76H361.89c4.93-4.23,10-8.22,14.65-12.63s9-9.3,13.63-14.11v19.34h22.05v7.39H390.38c0,.68-.1,1.17-.1,1.67,0,12.69,0,25.37,0,38.06a23.72,23.72,0,0,0,.41,4.2c.94,4.94,3.63,7.65,8.69,7.94s10,0,15-.05c.22,0,.44,0,1.2-.1-1.36,1.22-2.32,2.21-3.41,3-7.59,5.75-16.22,7.8-25.6,7.07a23.59,23.59,0,0,1-3.84-.59c-5.77-1.47-9-5.48-9.7-12-.23-2.24-.36-4.49-.37-6.74,0-13.42,0-26.85,0-40.27Z"/><path class="cls-1" d="M316.42,95.61c-2.19,1.61-4.26,3.42-6.58,4.79A36.51,36.51,0,0,1,285.9,105c-7.14-.94-11-5-11.76-12.28a78.37,78.37,0,0,1-.45-8.1c-.05-13,0-25.95,0-38.92V43.49H262.81c5.05-4.34,10.13-8.4,14.84-12.85s9-9.26,13.64-14.07V36.06h22v7.3H291.35v2c0,12.3,0,24.6,0,36.89a32.75,32.75,0,0,0,.4,5c.79,4.8,3.76,7.67,8.88,8,4.88.26,9.79,0,14.68-.09a6.82,6.82,0,0,0,.79-.07Z"/><path class="cls-1" d="M353.37,209.33c-5.33-4.2-10.45-8-15.31-12.11-6.4-5.4-11.73-2.49-15.1,2-3.16,4.21-4.58,9.12-5.33,14.24a43.83,43.83,0,0,0,.57,17.45c2.47,9.59,9,14.78,18.51,16.43a54,54,0,0,0,20.75-.61,37.86,37.86,0,0,1-12,8.45c-10.69,4.45-21.31,4.63-31.49-1.35-8.25-4.84-12.6-12.54-14.25-21.77-1.59-8.9-.85-17.64,3.11-25.89,4.85-10.09,13.16-15.77,23.92-18a50,50,0,0,1,25.37,1.48c.5.15,1.2.79,1.21,1.21C353.4,196.87,353.37,202.9,353.37,209.33Z"/><path class="cls-1" d="M532.16,104H504c.17-.39.28-.76.46-1.08a38,38,0,0,0,4.83-19.44c-.08-8.23.05-16.47-.07-24.71a36.45,36.45,0,0,0-4.59-17c-.23-.45-.47-.89-.82-1.56L527,34.53v12.2c1-.93,1.64-1.59,2.35-2.17,2.83-2.32,5.54-4.81,8.55-6.88a13.08,13.08,0,0,1,12.86-1.59,1.9,1.9,0,0,1,1.46,2.08c-.07,5.74,0,11.48,0,17.83-7.27-7-15.43-9.68-25-7.27a6.34,6.34,0,0,0-.11.89c0,12.58,0,25.16.08,37.74a31.56,31.56,0,0,0,4.31,14.94c.24.45.48.9.7,1.35C532.23,103.73,532.17,103.86,532.16,104Z"/><path class="cls-1" d="M82.49,40.29l23.22-5.76V46.69c1.7-1.56,3.09-3,4.67-4.22a74.64,74.64,0,0,1,8.23-5.87,11.87,11.87,0,0,1,11.07-.37,2.06,2.06,0,0,1,1.14,1.38c.07,5.91.05,11.83.05,18.36-7.28-7.06-15.49-9.66-25.17-7.19V50.5c0,10.83.1,21.66,0,32.49-.08,7.27,1.32,14.09,5.08,20.36a5.55,5.55,0,0,1,.3.69H82.67c.19-.43.31-.83.51-1.19a37.15,37.15,0,0,0,4.7-19.11c-.15-8,0-16,0-24A37,37,0,0,0,83.4,42.05C83.12,41.52,82.85,41,82.49,40.29Z"/><path class="cls-1" d="M445.44,186.9v2.39c0,15.18.1,30.35,0,45.53-.07,7.49,1.19,14.55,5.11,21a2.39,2.39,0,0,1,.17.59H422.32c.72-1.47,1.39-2.81,2-4.17a34.08,34.08,0,0,0,3.25-14.55c0-8.68,0-17.37,0-26.06a36.79,36.79,0,0,0-4.29-16.86c-.34-.64-.67-1.28-1.11-2.14Z"/><path class="cls-1" d="M781.72,104.12H769c-3.79,0-7.57,0-11.35,0a2.39,2.39,0,0,1-1.76-.84Q745,86.07,734.14,68.81c-.06-.1-.09-.21-.21-.47l8.82-10.11q5.07-5.79,10.14-11.58c.3-.33.59-.68.86-1,2.21-2.93,2.27-4.56.32-7.68L753,36.21h27.55c-12,6.3-21.23,16.06-31.44,24.71l8.32,12.63q5.22,7.9,10.43,15.81C772.63,96.65,774.42,98.58,781.72,104.12Z"/><path class="cls-1" d="M436.42,156.61a44.75,44.75,0,0,1,6.48,1.59c3.45,1.37,4.19,4.39,4.09,7.78-.1,3.18-1.36,5.61-4.43,6.71a18.64,18.64,0,0,1-12.59.05c-3.51-1.19-4.87-4.15-4.42-8.85.34-3.54,2.61-5.91,6.42-6.56,1.44-.25,2.9-.33,4.36-.49Z"/></g></g></svg>