<svg xmlns="http://www.w3.org/2000/svg" viewBox="0 0 515.72 127.17"><defs><style>.cls-1{fill:#94a3b7;}</style></defs><g id="Layer_2" data-name="Layer 2"><g id="Layer_1-2" data-name="Layer 1"><path id="Shape" class="cls-1" d="M123,8.5A113.59,113.59,0,0,0,81.87,2.87h-8a.61.61,0,0,0,0-.42c.28-.28,0-.47-.47-.84s-1,0-1-1.13-1,0-1.31.47,0,.8-1.41,1.13h-.42s.47,0,0-.42,0-.33-.66,0,0,.42-.32.42-.43-.42-.57-.42-.51-.47-1,.46-.42.47-.33,0a3.54,3.54,0,0,0,0-1.45c0-.56-.33-.42-.47-.28s0,.47-.56.84-.42-.28,0,.61-.37.38-.66.47-.42,0-.56.33,0-.33-.51.37-.38,0-.75.47,0,1-.71,1.13-.51-.71-.37-1.27a.5.5,0,0,0-.28-.7c0-.05-.09-.05-.19-.05s0,.66-.61.89,0-.47-.28-.7S60,2.5,60,3.11a11.78,11.78,0,0,1,0,1.68c0,1-.33.29-1.74-.32s-.93,0-1.5,0a.79.79,0,0,1-.65-.89c0-.33.56-.57.75-.89s-.38-.8-.66-.66-.75-.89-1-1-.71.56-.8.84,0,0-.23.42-.47,0-.38.47a.94.94,0,0,1,0,.7s1.22-.56.89,0a.83.83,0,0,1-1,.52s-.09,0-.14,0c-.47-.19-.8-.33-1,0s0,.7-.24.89-.89.33-1.17,0,.09-.56-.47-.56-.89,0-.51-.7,1.12-.89.42-1.08S50,2.08,50,2s-.57,0-.89,0,0-.61-.75-.33-.89.33-.61.71.23.74-.42.93-.47.52,0,.7.84.24.46.43a1,1,0,0,1-1,.32c-.51,0-.51-1-1.26-.79s-.56.47-.7.28,0-.47-.66-.75-.33,0-.8,0S43,4.61,42.47,4.84s0,.56-.52.47,0-.47-.37-.66-.24-.84-.8-.32,0,1.35-.56,1.07,0,.75-.42.85,0-1.46-.8-.47-.79.51-.56.89,0,.7-.47.7-.7-1.69-1.4-1.59-.89.42-.89-.28,0,0-.47,0-.24-.61-.89-.61H33.15c-.47,0-1-.38-.61,0a9.42,9.42,0,0,1,.46.89c0,.56.33.37,0,.56s0,.66,0,.89,0-.42-.84,0-.7.38-.7.66,0,.56.47.47.23,0,.23.32-.23.57.28.43a.75.75,0,0,0,.42,0l0-.33V8.54c0,.1,0,0,.33,0h.37v.28c0,.29.52.57,0,.61a2.9,2.9,0,0,1-.93,0c-.94,0-.89,0-1,.42s.28.57,0,.66a.61.61,0,0,1-.42,0c-.09,0,0,.33.42.33s0-.33.61,0,0,0,0,.28A1,1,0,0,1,32,12c-.32.37-1.07-.37-1.21.42s-2,1-1.46,1.55.52-.56,1-.47,0,.51,0,1,.42,0,1-.28.89.33,1.08,1-.66.65-1.41.56-.23-.66-.56-.42-.33,1-.8,1.4-.89.52-1,1.13.7.65,1.07,0,.9,0,.9,0l-.43,1.31,1.78.37,1.22.71.38.65-2.06-.37a8.67,8.67,0,0,0-1.88.56H28.41c-.14,0-.65.66-.93.89a2.05,2.05,0,0,1-.71.42l.66.28v.57h1l-.42.65a1.94,1.94,0,0,1,.24.89c0,.42.46,1,.56,1.31s-.56,0-.89,0a2.31,2.31,0,0,1-1.31-.7c-.24-.33,0-1.17-.47-1.26s-.66-1-.47-1.5,1.31-2.07,1-1.88a3.27,3.27,0,0,1-1.13.24s-.28-1.08-.56-1.22-.56.61-.65.89-.47-.89-.71-.66a2.51,2.51,0,0,0,0,1.83,3.91,3.91,0,0,1,.47,1.78c0,.42-.42.8-.7.61S23,22.74,23,22.79a10.24,10.24,0,0,1-.51,1H21.43l.47,1s-2.34.57-2.34.85,1.54,0,1.4.42-.51.61-.32.89,0,.8-.43,1a1.21,1.21,0,0,0-.56.61l-.89.28.47.89-1.36,1.46s.8,0,1.08.42-.56,1.12-.56,1.4,1-.42,1.12-.28,0,.56,0,.89.47,0,.8.28-.89.71-.71,1,.61,0,.57.47.47,0,.79.32-.32.8-.75,1.18,0,1-.32,1.21-.71,0-1.22.29-.38.7-.47,1-.66,0-.66.46.8,0,1.08,0,.33.8,0,1.08a10.94,10.94,0,0,0-1.17.8c-.24.33,0,.8,0,1s-.61.66-.47.89a1.27,1.27,0,0,0,1.17,0c.33-.33,1.17-.33,1.45-.42s.33.56,0,1-.28.7,0,.79,1.13-.23,1.22-.65.56-1.41.75-1.41.52.33.42.52-.46.56,0,.75-.23.56-.46.79.75.47.75.8-.57.37-.85.65-.47.89-.89.71-.7-.71-1.08-.71-.61-1.31-.89-1.17,0,1.46,0,1.83-.65-.37-1-.47-.75-1.12-.84-.89A6.74,6.74,0,0,0,16.32,47l-.6.23-.57.85.43.42,1.17-.42a.33.33,0,0,0,0,.42,1,1,0,0,1-.28.7c-.29.24.37.28.37.47v.56c0,.1.8-.42.89-.47a4.67,4.67,0,0,1,.89-.32l.56-.28v.65l-.33.66v.33c0,.09-.51,0-.6.32s.32.28.23.38-.47,0-.42.47.42,0,.56,0a2.06,2.06,0,0,0,.7,0,1,1,0,0,0,.38-.66,1,1,0,0,1,.42-.33c.19,0,.33,0,.47-.37l.47-.89.23.42v.56a.61.61,0,0,1,0,.56.55.55,0,0,0,.24.47c.23.28-.24,0-.33.33a.76.76,0,0,0,0,.47c0,.14-.33.33,0,.42a.65.65,0,0,0,.56-.23l.75-.8v.61c0,.28.23.33.42.42s0,.84,0,.84.28-.84.38-.75.42,0,.61,0h.37a.86.86,0,0,1-.23.75,1.85,1.85,0,0,0-.38.8c0,.23,0,.56-.23.56h-.8c-.28,0-.47-.33-.66-.7V54h-.46l-.33-.42V54H21l-.28.28L20.12,54l-.23-.42h-.33l-.38.61a.41.41,0,0,0-.56,0l-.05,0c-.28.32-.46,0-.7,0s-.56,0-.33.32,0,.47,0,.75a.61.61,0,0,1-.47.57,1.52,1.52,0,0,1-.23-1l-.28-.28v-.23h-.7V54l-1.27-.56v-.94l.33-.28-.42-.61v-.38l.33-.46-.47-.24a3.29,3.29,0,0,0-1,0c-.23,0-.61-.37-.47-.47s0-.65-.23-.89-.28-.42-.33-.42-.28,0-.28.42-.56.56-.56.85a.72.72,0,0,0,0,.46c.14.14.28.33.42.47h-.47l-.89.42.42.29.47.46h.89v.29l-.47.6-.56.47a1,1,0,0,0-.7.28.77.77,0,0,0,0,.89c0,.24.23.66,0,.71a1.7,1.7,0,0,1-.75-.52c0-.28-.66-.75-.8-.75a2.29,2.29,0,0,1-1-.47s-.56-.61-.66-.47,0,.38,0,.47V55.3H6.86l-.47-1s-.33,0-.33.42-.37.28-.28.56a.88.88,0,0,1-.23.89,1.45,1.45,0,0,0-.47.89c0,.33-.28.57-.56.28a.7.7,0,0,1,0-.74.94.94,0,0,0,0-.47c-.33-.43,0-.57,0-.89s0-.33-.47,0-.33.65-.61.42l-.56-.33c-.33,0-.42,0-.56-.7s0-.75,0-1.17-.29-.57-.47,0,0,.65,0,1.07-.75,1-.75,1-.33.38-.24.66.57.42.33.66-.56.46-.61.79-.47.56-.37.8a.52.52,0,0,0,.56.28l-.42.7a.76.76,0,0,0,0,.66s1.22-.56,1,0a6,6,0,0,1-.84,1.08s-.7.51-.42.51a2.36,2.36,0,0,1,.75,0s.7.33.7,0,.42-.89.65-.79.33,0,.24.46a3.29,3.29,0,0,0,0,1,.76.76,0,0,1,.66,0c.23.23.42.23.46,0s0,0,.61-.47.47-.66.42-.89-.42-.75.29-.38.56.38.89.29.7,0,.32.23-.56.28-.61.66v.79c0,.33-.42.42,0,.56s.43.57.89.47,1.08-.32.75,0,0,1.22-.65,1.32a1,1,0,0,1-1.17-.47c-.38-.47,0,.79-.61.56s0-.75-.85-.84a4.2,4.2,0,0,0-1.12,0c-.56,0-1.08.46-.33.46s.8.38.42.47-1.64.42-1.26.75.84-.47,1.17,0,.33.66,0,1,0,.32-.33.42-.89.37-.37.42H3a2.6,2.6,0,0,0,.89.23c.47,0,.75.24.47.66s-.33.42,0,.8,0,.46,0,.7-.42.84,0,.65h0l-.28.38h0s-.89.28-.89.47.7.75.7.75H3.44l.28.56h.61v.66a4.29,4.29,0,0,0,1.31-.43l.38.24v.42s-.57,0-.75.28a1,1,0,0,1-.42.7c-.33.29,0,1,0,1l-.47.47v.56l-.52.42v1.08h.47l.33-.42L5,77.37l.28.33a6.63,6.63,0,0,1,.79-.8,4.09,4.09,0,0,1,1-.28,2.72,2.72,0,0,0-.33.66c0,.28-.47.42-.47.42v.7h-.7L6,79v.57L5.74,80l.42.33L7.24,80c.37,0,0,1-.24,1.5s0,.65.47.47.47,0,.61.42.28.84.56.65.28-.56.66-.56,0,0,.42-.51.23,0,.56,0,.23-.28.52-.75.28,0,.65,0h.89c.61,0,0-.33,0-.71s.8,0,.52-.56-.47-.28-1.31-.33,0-.37.37-.47.42-.23.94-.51.65.33,1.4.33,0-.33.94-1.17.38,0,.94-.52,0,0,0,.33v1.22c0,.23,0,0-.28.75a4.44,4.44,0,0,1,0,1c-.28.65-.66,1.64-.47,1.4a1.32,1.32,0,0,1,1,0,2.57,2.57,0,0,1,1.17,0c.23.28-.33.66-.89.75s0,0-.33-.28,0,0-.37.66-.24,0-.47,0H15c-.23,0,0,.33,0,1.08s0,.51-.33,1-.56,0-.79,0h-.56c-.24,0,0-.33-.66-.33s0,.33.28,1,0,.52,0,1.41-.65,1.36-.65,1.54-.47.47-.33,1,0,0,1.12,0,.38,0,.47-.42,0-.47.56-.61.28,0,.42.61,0,.28,0,.79-.93.75-.93.75a1.06,1.06,0,0,0,0,.56v.89c0,.38.33,0,.89-.28s0,0,.42.75,0,.47,0,.89-.8.71-.52.71h.71c.56,0,.32,0,.32-.43s0-.32.43-.46,0,0,.65,0,.28.42.47.46-.33,1.22-.33,1.22a1.92,1.92,0,0,0,.89-.47c.42-.42,0-.32,0-.56s.42,0,.57-.33,0-.32.32-.46.42,0,1,0,.23-.38.61-.47,0,0,.28,0,.23,0,.42-.57.47,0,1.08,0,0,0,.23-.42,0,0,0-.47.24,0,.47-.32,0-.38-.28-.85.28-.61.33-.79.56,0,.65.32,0,.38,0,.66a2.68,2.68,0,0,0,0,.8c0,.65,0-.33.47-.47s.47,0,.7,0,.75-.38.89,0-.23.75-.56.89,0,.42,0,.75.47.42.42.89-.42,1.22,0,1.12A3.14,3.14,0,0,1,26.26,94h.33c.32,0,.37.33.65.33s0,0,.56.65,0,.52,0,.7.33,0,.66.57.47,0,.61-.57-.33-.42,0-.56a2.18,2.18,0,0,1,1.55,0c.56,0,0,0,0,.33s0,.42.46.42a1.82,1.82,0,0,1,.66,0h.33a.56.56,0,0,0,.56,0h2.11c.47,0,.28,0,.42-.47s0,0,.37,0,.33,0,.47-.42-.56,0-.75-.28,0,0,.66-.61,0-.28,0-.75.28,0,.8-.23.37,0,.28.47,0,.32,0,.79v.75s.47-.75.65-1.08.24-.42.66-.42.42-.37.47-.47.51,0,.47.43-1.18,1.59-1,2,0-.28.42-.42.47,0,.61-.47,0,0,.75,0,.33.43.33.43h1c.33,0,.43-.24.66-.43s.23,0,.42,0,0-.46.47-.89.47.24.56.47.24,0,.24.42-.33.33-.66.52a8.09,8.09,0,0,0-.8.94c-.42.51,0,0-.23.79s-.42.61-.75.89,0,.57.42.24h.47c.38-.28,0-.28.42-.38s0,0,.47,0a.49.49,0,0,0,.38-.47.36.36,0,0,1,.51,0c.38,0-.23.47-.42.8s0,.42.42.28,0,0,.28.47,0,0,.66,0,0-.47,0-.94v-.47a.64.64,0,0,1,0-.7c.33-.42.28-.56,0-1.17s.28,0,.65-.33.24,0,.47.42,0,.29,0,.85,0,0,1-.28,0,0,.28.65,0,0,.89,0,0,0,0,.89.37,0,.65-.28,0,0,.33,0h.56c.33,0,0-.47-.23-1.4s0,0,.61-.71,0-.28.28-.28v2.81c0,19.54-3.14,21.74-14,23.2l-4.27.46a3.83,3.83,0,0,0,.38,4.74c8.71-.43,17-.47,24.69-.47,6.51,0,18.46,1.45,30.46,1.45a89.67,89.67,0,0,0,41.65-8.95A61.07,61.07,0,0,0,162,62.8,55.57,55.57,0,0,0,123,8.5ZM21.67,30.85c.14-.15.23-.29.37-.43s.09.75-.37.28ZM23,37.17a.39.39,0,0,1,.38.28c.09.28-.56-.47-.38-.42ZM6.86,72.87h0s.09-.37,0-.28ZM11.31,61.3s.47,0,0,.23.1-.46.19-.46Zm-.89-1.83v.42h-.37S10.7,58.58,10.42,59.47ZM9.77,58s.42.28.23.38S9.72,58,9.77,58Zm-1,10s.24.38,0,.28a.3.3,0,0,1-.14-.37s0-.1.14-.14Zm-.94-8.9c.33,0-.37.42-.28,0s.19-.19.28-.19Zm0,16.16c-.89,0,0-.65.43-.65,1.12.23.42.47-.43.47Zm1.6-5.43c-1.5,1.26-1.46-.33,0-.61,1.4.51,2.48-1.45,2.48-.47s-1.5.23-2.48.94Zm5.1-8.9c-1.12,0,.38-1.08.29,0,0,0,0,0-.29-.14ZM15,58.35l-.14-.42v.28Zm.47,5.71A2.77,2.77,0,0,1,16,62.75c.47.47-.14.94-.52,1.17Zm2.81,21.09h0s-.14-.42,0-.14Zm-1.36,4.08c-.46,0,0-.47.28-.43S17,89.23,16.93,89.23ZM18,87.16c-.47,0-.42-.42-1,0,0-.23.56-.61.65-.79s.43,0,.8,0c-.33.28-.61.37-.47.65v.14ZM20.21,90h0s.05-.14,0-.14Zm.33-16.68v-.42s.24.28,0,.28Zm.52-2.67a.36.36,0,0,1,.32,0s-.46,0-.32-.14ZM37.74,45.74c-.8,1.46-.8,0-1.13-.7s.56.56,1.13.56ZM36.52,15.48s.65,0,.56.42-.84-.38-.56-.52Zm-.89.33s-.28.32-.33,0,.33-.43.33-.15Zm-1.17.42v.42c0,.42-.14-.42,0-.52Zm-1.74,2c-.75,0,0-1.31,1.13,0C33.85,18.57,33.29,18.05,32.72,18.19Zm1,4.17h0c.28,0,.14-.09.14-.09Zm-1.88,4.69h0s.14-.09.14,0ZM30.1,35c-.09-.15-.14-.29-.23-.43a1.17,1.17,0,0,1,.37.43ZM29,31.17s.47,0,.33.28S28.93,31.17,29,31.17Zm0,5.63h-.93c-.47-1.55,2.15-.43,1.07-.19ZM27.1,38.2s0,.56.47.56.61.28.42.66A6.42,6.42,0,0,1,26.12,39c-.24-.56.75-.84,1.12-.94Zm-1.87,3.19c.89,0,0-.75.61-.66,2.15.66-.33,3.33-.8.8Zm.42,15.32c.47,0,.33-.47.56-.7.61,1.87,1.22.23,1.5-.75.47.46-1,3.74.84,1.4a2.12,2.12,0,0,1-.75,2.44c0-.47-.7-.7-.89-1.08-1.07,0-1.4.28-2-.8.46-.46.14-.89.79-.65Zm2.67,18.55c-.42,0,0-.28,0-.28s.33.1-.05.1Zm-.7,0a4,4,0,0,1-2.07.47c-.32,0,0-.33,0-.33,1.13-1.17,1.32-1.17,2.21-.46ZM25.79,61.07c.28-.66.28,0,.75-.57V61c0-.18-.47-.09-.61-.18Zm1.55,2h.42c-.1,0-.47-.19-.28-.28Zm0-3.75h.32v-.28ZM25.55,86.65a2.15,2.15,0,0,1-1.07,0,1.63,1.63,0,0,1,1.4-.28Zm-3,1.64v-.42c0-.1.51.14.33.14Zm-.42-12.46v-.57c0-.18.33.75.61,0,0-1.26.89.47,1.45,0C26.07,75.45,22.51,75.83,22.09,75.83ZM24.48,91c-.47,0-.28-.43,0-.66s1,.66,1.68.28-1.45.52-1.68.52Zm1.92-8.67c0-.42-1,0-.89-.8s1.08.33,1.4.56-.42.52-.46.38Zm.47-1.6c0-.37.42,0,.37.24s-.42,0-.37-.09Zm1.07,9.89c-1.12,0-.79,0,0-.7s.47,0,1-.42,0,.56.47.56.84-.38,1.17-.28c-.94.61-1.88.51-2.63.93Zm2.39-63.25c0-1,1.69.7,1.64-.47.71.7,1.5,1.59,1.6,0,.47,0,.47-.8.75-1.31s.61,0,.47-.56c-1.18-1.46.32-.57.7-.85s.47.56.79.56,0,.29,0,.43c-.93.56,0,1.26-1.4,1.4.23,1.45-1.08,1.17-.47,1.83s-.84.7,0,.89c.33,1.12-1-.47-1.26-.47s0,.42-1,0a.38.38,0,0,0-.56,0l-.05,0c-.28,0-.56-.56,0-.89s-1-.23-1.26-.37Zm3.05,31.67c0-.37.51.24.23.33s-.32,0-.23-.19ZM33,61a.81.81,0,0,1-1-.56A.61.61,0,0,1,32,60c0-.42,2.06,1.31,1,1.12Zm.57-13.4c0-.75-.89-.93-1.13-1.45s-.47-1.08.33,0c1.41,0-.56-2.06-1.17-2.2s0-.85.42,0,1.27,0,1.73,0,.33.56.47.84a1.16,1.16,0,0,1-.47,1.31c-.46.28,1,.8,1,1.41s0,.56-.42.42-.66.33-.75,0Zm-1.08-13.4c-1.13.24-.61-.56-.7-1.26s.89,0,1.17,0c-.66.84.14,1.59-.24,1.68Zm2.06-.47s.42.33,0,.33-.47.28,0,.14ZM35,75.12c.8,0,1.78.47.28.42s-1.54.33-.28,0ZM35,63v-.47c0-.19.42.89.1.89ZM31.22,33.61c0,.42-.65,0-.46-.28a.81.81,0,0,1,.56.7Zm.29,20.19c-.47,0-.43,0-.8-.32s0-.38,0-.57c-.42-1.31,1,.71.89-.46-.33-.33,0-.43.28-.57,1.08.28,0,.47.47,1s.47-.47.8-.47c1.07.89-1.69.56-.89,1.54,0,0-.29,0-.33.24s-.19.23-.38.14Zm1.21,33.6.43-.56C34.08,87.54,33.66,88.43,32.72,87.4Zm5-10.08c-1.55-.56-1.36,1.22-2.86,1.22-.38,0-.38-.33-.47-.33S34,78.21,34,78s-1-.37-1.41-.75-1.08-.8-.42-.8a25.73,25.73,0,0,0,3.32.33c1.22-.09,3.28-.93,2.21.56Zm4.45-54.39a6,6,0,0,1-.52-.66c2.72-.47-.23,2.44,1.41,2,1.17.84-1,1.07-1.5-1,.14.18.7.09.51-.33Zm.28,14.29a1,1,0,0,0-.56-.33h0s0-.47.32-.33a.45.45,0,0,0,.47,0c.1,0-.14.61-.37.61Zm-.8-.33s-.23.33-.33,0S41.67,36.89,41.67,36.89Zm-.75-15.56c.24,0,.33.47.47.61s-.75-.42-.56-.61Zm.24,32.19c0-.7.47,0,1-.65s1,1.17.47,1.26C42.38,52.87,41.25,54.55,41.16,53.52Zm3,14.43H43c-.42-.89-.47-.65-1.12-.28,0-.47.42-1.4,0-1.78.42-.42-.28-.42.23-1.45a.78.78,0,0,0,.75.28c.47-.14-.37.42,0,.7s-.66.47-.28.89.56-.46.94-.51c1.12.7-1.41.89.89,1.69.14.09,0,.65-.38.65V68ZM47.67,53h0v0ZM44.81,22.6c0-.47.47,0,.75.33-.28,1-.75.47-.75-.14Zm.8,53.23c0-.29,0-.43-.38-.43h.47S44.62,76.76,45.61,75.83Zm.37-1h.33c-.09,0-.19.24-.19.14Zm0-20.52s0-.38.28-.47,0-.33.61-.42c.89-.8.28.75,1.64.65-.37,1.41-1.54.57-1.45,1.55-.33,0-.33-1-.42-1.26s-.52-.38-.52,0ZM48,75.26h-.28c-.28,0,.19-.09.19.14Zm1.6,4.45c-.24-.23-.89-1-1-.32,0,2-1.88-.61-1.36-.89s-.42-1.22-.52-1.64c1-1.22.47.56.94,1.07a.33.33,0,0,0,.47.19c.09-.05.19-.09.19-.19,1.07-.46.56,1.41,1.54,1.78.14.24-.19.33-.37.24Zm2.48-50.65h0c0,.29,0,.24-.09.24Zm8.06,1.83a.76.76,0,0,1-.47,0c.19-.28.89-.28.42.33Zm-.89,53.88-.47.57s.14-.61.42-.38Zm-.8,4.88h.24c.23,0-.33.42-.33.23ZM56,31.17h0C55.35,31.17,55.68,31.41,56,31.17ZM53.48,15.81a.87.87,0,0,1,.33-.8c.33-.28,0-1,.65-1.17s0-.8.57-.52c.79,1.22.42.33,0,1.31s.37,2.53-1,2.07c-.33-.29-.93,0-.93-.47S53.39,16,53.48,15.81Zm.8,14.1c.51-1.41.79.37,0,0S54.18,30,54.28,29.91Zm0-1.88h.32s-.51.14-.46,0Zm-.85,8.91s0-.47.28,0-.23.09-.42,0Zm0,2.1h-.65c.56-.28.37-1.07,1.17-.93s2.2-1.22,2.43-.52c-.51,1.08-1.31-.09-3,1.45Zm9,61.43c0,10.45-.61,15.65-2.81,18.37a2.49,2.49,0,0,1-.56-.66c-3.23-4.45-2.53-10.17-2.53-20.05V95.5c0-.23,0,0,.56,0s0,.47.7,1.08,0,0,.57-.56.28,0,.56,0,0-.38-.56-.89,0,0,.56,0,0,0,.33-.38-.33-.32.28-.51.23.42.33.89.32,0,.79,0,0,0,0-.38.7.38,1.45,0h.24Zm.94-16.87c-.38,0-1.17,0-1.08-.37s1.41.42.89.42Zm-.84-45.12c0-1.22.79-1,1.31-.33C63.46,38.3,62.57,39.28,62.48,38.48ZM65.71,6.53s.47-.56.65-.42S65.8,7,65.71,6.53ZM72.5,13a.41.41,0,0,1-.28.28S72.5,12.67,72.5,13Zm0,36.31c0,.37.61,0,.94,0s.47,1.22,0,1.87.66,0,.84.42c0,1.46-1.87-.46-1.82-1.12.89,1,1-.37.37-.84s-1-.52-1-1,.47.47.75.66Zm3.56-14.53c0,.29,1,.38.66.57s-1.27.47-1.08,0,.19-.89.47-.57Zm4.5-1.35c.47,0,1.45.42,1.55.79a1.29,1.29,0,0,1-1.17,1.45h0c-.94,0-.47-.6-.66-1s.84-.18.42-1.26h-.14Zm5.76-11.11c-.28.42-.75,0-1,.7s0,0-.33,0,0,.29-.28,0,.47-.42,0-.75-.7,0-1.17,0,.56-.65.89-.89,1.27-1.45,1.17,0S86.75,21.15,86.32,22.27ZM87.12,49c.28.38-.33.43-.56.43s-.42,0,0-.43,0-.42-.28-.42,0-1.07.37-1.07.52,0,.52.65-.14.33-.24.8h.19Zm.24,28.4c-.57,0-.57,0-.66.75s0,.47,0,.7-.52,0-.7,0-.57-.56-1.41-.42-.33-.56,0-.75,1.31.42,1.41-.42-.33-.42.28-.89.47.33.7,0-.66-.61.23-.61,0,.28,0,.47a1.64,1.64,0,0,0,0,.93ZM86.7,90.26c0-.24,0-.57-.56-.43.18-.28,1-.09.42.24Zm-2.76-27c-.43,0,.32-.42.32-.23s-.42,0-.47,0Zm1.12,2.16a.33.33,0,0,1,0-.66c.51-.09.47.56-.19.47Zm.66,1.87c0,.24-.47,0-.47,0l.32-.37Zm-2-35.7v.7c0,.24,0,.28-.47.28s-1.88-.47-1.78-1.17c1.12-1.08,1,.05,2.11-.19Zm-3.84-6.61c.28-.37.56-.28.65,0s-.65-.23-.84-.28Zm.37,22.3c0,.24,0,.71.47.57s1,.61.8.7-1.18.42-1.08,0-.7-.75-1.22-.56,0-.47,0-.38.23-.84.8-.47Zm1,24.65h-.23s.14-.52,0-.09Zm0-12.65c.24,0,.24,0,0,.23s-.23-.32-.23-.32ZM81.55,89s0,.75-.24.75-.33-.89,0-.84Zm-1.5-35.7c-.33,0,0,.79-.33.7-1-.33-3.84-.89-1.17-1.45a.47.47,0,0,1,.37,0c-.23,1,.89.28.89,1Zm-1.36,3c-1.69,2.34-1.22,1.54-2.35,0,1.27-.52.43-.8,0-1.41h0c.75.47,1.46,1,2.16,1.5Zm0,5.85s-.61,0-.33-.42.09.33,0,.66Zm-2.2-11.9h.56c-.1,0-1.08.75-.89.1ZM76,88.66c-.28,0-.42-.42-.56-.65s.93.75.28.75ZM74.89,34.55c-.37.32-.75,0-.42-.38a.41.41,0,0,0,.47,0s0,.47.7,0C75.6,34.69,75.08,34.27,74.89,34.55Zm-1.08,32s-.56-.42-.28-.47S74.47,66.17,73.81,66.5Zm-2.2-54a.12.12,0,0,1,.14-.14c.1,0,.14,0,.14.14h0V13c0,.09-.46,0-.46-.42S71.52,12.67,71.61,12.48Zm0,59.08c0,.66.56.47.94.28s0,1.6,1.12,1.6c0,1-.56.23-1.07.7-.71,1.36-.43.37-1.41.75a6.22,6.22,0,0,1-.28-1.31c.66-1.18-1.17-.33.7-2.25ZM70.21,50.9c.32,0,.42,0,0,.23s-.33-.23,0-.23Zm19.44,71c-9.88,0-13.73-2.91-17.05-7.64A28.5,28.5,0,0,1,68.94,97.8c.42-.28,0,.42,0,.7s.33,0,.89-.42,0,.42-.23,1,0,.61.33.24.32,0,.56-.33,0-.33,0-.56.28,0,.47-.24,0,0,0-.46,0,0,.42-.66-.42-1-.47-1.41.56,0,.84,0,0,0,.57.24c2.67-2.67,3.09.28,3.65-2.11,0-.47,1.22.47,1.5.42s1,0,.84-.42a9,9,0,0,0-.75-1.08h0a4,4,0,0,1,1.13.42c.47,0-.42.38-.42.38a.86.86,0,0,0,.42.42l.75.42a.33.33,0,0,0,0,.42c0,.29.47.29.7.43a1.67,1.67,0,0,0,.94,0c.32,0,0,.42.42.56a.72.72,0,0,1,0,.61c.75.28,1,0,1.45,0s0,0,.47.33,1.26,0,.89-.52-.33,0-.7-.47-.89-.28-.8-.42,0,0,0-.47,0,0,.61,0,.33,0,0-.33-.23-.47-.66-.7-.32,0-.42-.37-.33,0-.47,0h.28c.61,0,.43,0,.57-.29s.32-.46.7,0,0,.75.56.33,0-.47.47-.33,0,0,.7,0a1.28,1.28,0,0,1,1,.57s.43,0,.33.56.38.47.66.47h1.17c.19,0-.42-.28-.66-1.27s0,0,.47-.47.24,0,.47.57.23.89.33,0,.37,0,.75-.38,0-.7,0-.61a2,2,0,0,0,1.08,0c.56,0,.46,0,.79.42s0,.33.38.57l.42.32c0,.24.51,0,1,0h.47l.47.89c0,.47,0,.29.23,0s0-.32.47-.65.47,0,.66.89,0,.37.89.56.61,0,1.12,0,.42.42.85.47,0-.28,0-.56a3.29,3.29,0,0,1,0-1c0-.47-1-.42-1.46-.23s-.84,0-1-.56,0-.28.42,0,0,0,.61,0,0-.38,0-1.08.28,0,.66.47,0,0,.47.42c.32.23.65.51,1,.8.47.46.47,1.4.47,1.07s.42-.47.89-.75,0,0,0-.23,0-.33-.66-.7,0-.38.28-.57.43,0,.8,0,.33,0,.89-.42.37-.33.84-.33.43,0,.33-.65-.33-.42,0-.56.33,0,1.08.47.47,0,.56.28.24,0,1.31,0,.61,0,.61.28c.28-.33,0,0-.42-.47s0-.42.56-.89.42-.24.57-1.08,0,0,.46,0,0,0,0-.33,0-.33.47-.56.33,0,.47.38.56.6.7.32.38.43.57.57a.43.43,0,0,0,.6-.05.52.52,0,0,0,.1-.47c0-.42.37-.66,0-.89a.89.89,0,0,1-.1-1.26l.1-.1c.47-.47-.56-.47-.8-.8s0-.7,0-1.07,0,0,.47,0,0,0,0-.52-.33-.47-.56-.56,0-.66.56-1.31.56,0,.33.79,0,.89.33.89.47-.65,1.07-.65,0-.42,0-.7,0-.57.57-.47.28.42.56.7.33,0,.33-.8,0-.32.37-.23.33.23.42,0,0-.33,0-1,.33.23.8.42,0-.47,0-.75-.33-.33,0-.7,0-.42,0-.75,0-.52.47-.61a2.9,2.9,0,0,0,.89-.28c.42,0,1,.56,1.54.47s0-.33-.37-.47-.42-.47-.8-.8-.47-.65,0-1,.75.42,1.17,0-.79-.66-1.21-.8-.38-.47.42-.47,0,0-.38-.47-.47,0-1.12,0-.38.47-.84.8-.33-1.31-.61-.47-.57.47-1.17.47,0-.56-.61-1.27.32-.32.7-.23.47,0,.89-.47,0-.33,0-.65v-.71c0-.42-.28-.42-.56-.65s0-.42.42-.33.28,0,.8-.23.37,0,.28.32,0,.47.42.89.47,0,.65.43.24.32.52,0a.76.76,0,0,1,.66,0,4.1,4.1,0,0,0,0-1v-.7a1.39,1.39,0,0,1,.65.79c.09.43.75,0,.75,0a2.06,2.06,0,0,1,.7,0c.43,0,0-.42-.42-.46a4.47,4.47,0,0,1-.89-1.18c-.28-.46,1,0,1,0a1.52,1.52,0,0,0,0-.6,2.21,2.21,0,0,0-.38-.75.61.61,0,0,0,.56,0,1.06,1.06,0,0,0-.32-.89,8,8,0,0,1-.66-.85c-.28-.37.28-.42.28-.61a.9.9,0,0,0-.28-.65l-.7-1.08c-.28-.33,0-.42,0-1s-.28-.47-.43,0,0,.51,0,1.12,0,.75-.56.75-.23,0-.61.33-.28,0-.65-.42,0-.33-.42,0l-.33,1.08c-.28.61,0,0,0,.42v.7c0,.33-.33,0-.56-.23s-.24,0-.66,0,0,.42-.42,1.22-.33,0-.52-.66a5.25,5.25,0,0,0-.37-1.12c-.38-.89,0-.57-.56-.47s0,.47-.43,1.12-.46-.33-.61-.61,0-.37,0-.56a1.67,1.67,0,0,0-.28-.89c-.28-.56-.23-.56,0-.89a2.66,2.66,0,0,0,0-.89c0-.47-.89-.47-1.4-.89s0,0,.56-.28,0-.42-.33-.71a12.51,12.51,0,0,1-.28-1.82c0-.52-.33-.24-.56-.24s-.61-.56-1-1a2.82,2.82,0,0,1-.42-.56,4.3,4.3,0,0,0-.23-1.31c-.24-.57,0-.8,0-.8a.61.61,0,0,1,.42,0,2.45,2.45,0,0,0,.47,1.26c.47.57,0,0,.61.43s0,0,.42.56.47.33.47,0v-.33c0-.33,0-.23.42-.56s0-.24-.28-1,0-.32-.42-.79,0-.42.65-.42h0v.32h0v.57c0,.6,0,.23.47,0s.28,0,.38,0a.33.33,0,0,0,.46.14l.15-.14v-1c0-.7-.47-.33-.47-.56s.42-.42.56-.61,0,0,.66-.28a3.22,3.22,0,0,1,1,0c.61,0,0-.38,0-.66s-.28-.42-.66-1-.56,0-1.07-.33,0-.84-.43-.42-.42,0-.7-.56-.89,0-1.26-.56,0-.8.28-.8.47-.28.7-.84.47-.47.37-.89a3,3,0,0,0-1-1.46c-.47-.33-.28-.47,0-1.22s0-.42-.37-.42-.43.8-.8.33,0-.47-.23-.61a1.1,1.1,0,0,1-1.08-.14c0-.51-.33-.42-.71-.51a2.9,2.9,0,0,0-.93,0c-.38,0,0-.29,0-.85s-.47-.61-.75-.89a1.2,1.2,0,0,1-.33-.89c0-.47,0,0,.66,0s.89.28.61-.42-.33-.75.46-.8.33-.28.24-1-.24,0-.66-.38,0-1-.51-.7-.38.33-.75,0,0,.33-.57,1-.42.42-.89,0-.46,0-.89,0a.84.84,0,0,1-.79-.47c0-.47.47-.47.56-.8s0-.47-.56-.8-.66-.56-.33-1.26.52.66.52.66a.84.84,0,0,1,.28-.8c.46,0,.28,0,.28-.56v-.43a1.29,1.29,0,0,0,.28-.56c0-.33,0,0,.65,0s.43.28.61,0,.28,0,0-.61,0,0,0-.37v-.8c0-.47-.42-.47-.56-.61s0-.56,0-.56h1.31c1,0,.57.47,1.27.47s0,0,0-.66-.33-.7,0-1.12,1,0,.79-.33.33-.47,0-.66-.56,0-.65-.65-.66.47-1.31,0-.42,0-.57.56a.93.93,0,0,1-1.07.66c-.05,0-.1-.05-.14-.05-.61,0,0-.33.37-.56s0-.42-.65-.61-1.32,0-2.35-.38,0-.32.56-.32.47-.43,1.18-.89,1.4.79,1.4.79a.62.62,0,0,0,0-.79,1.36,1.36,0,0,0-.7-.75c-.42,0-.28-.89,0-1.41s-.47-1.12-1.31-1.12,0-.89-.75-.85-.52-.42-.94-.51-.66,0-1.55.51-.42,0-.89,0-.42,0-.65,1.08-.66,0-.7.52-.85,1.26-1.27,1.07-1.5-.65-1.78-1.21,1,.42,1.55.42.32-.57,0-1.27,0,0,0-.42a3.06,3.06,0,0,0,.46-1.31c.29-1-1-.7-1.07-.89s0-.47,0-.8.56-.28,1-.28.33,0,1.13-.56.65.28,1.17.65.47,0,1.17,0-.28-.46-.42-1,.7-.84,1.21-1.26a.63.63,0,0,0-.14-.94.74.74,0,0,0-.46-.14c-.57,0-.61,0-.61-.47s-.94,0-.38-.84-.33,0-.7-.33-.38-.56-.56-1.08-.71.42-1.46.47-.46-.7-.46-1.55-.61-.33-.71,0-.89,0-1.26,0-.47.38-.61.66a1.39,1.39,0,0,0-.47.7c-.38.56,0,0,1,0s0,.33-.37.7-1,0-1.78,0h-.7c-.33,0-.43,0-.66-.56s0,0-.47.89S86.7,15,86,15a1,1,0,0,0-1.32.66s0,.09,0,.14c0,.23.47.33.65.79a1.49,1.49,0,0,0,.57.66c.32.24.42.24.42.52s0,.37.61.93,0,.43,0,.71h.37s0-.33.28-.33h0v.42c0,.14,0,.28.33.37s0,0,0-.37h.42v.37c0,.33-.28.33-.42.33a.47.47,0,0,0-.33,0h0v.38h0s0,.28-.42.28v-.61a.31.31,0,0,1-.33-.28h0a2,2,0,0,1-.89.37c-.56.1-.79,0-1.07-.65s.37-.66.37-1.46-.37-.42-.84-.46-.8-.57-1-.47a2.51,2.51,0,0,0-.43,1.17c0,.61-.37.42-1.17,0s-.33-.66-.89-.28-.56.28-.56.56v.66c0,.42-.42.42-1,.46s0,0,0,.33.89.47.79,1.08-.56.23-1.45,0-.33-.33-.8-.61-.46-.42-.37-1.26.66,0,.94-.52,0-.47-.28-1.17,0-1-.33-1.31-.57,0-.75-.66,0-.56-.42,0a3.83,3.83,0,0,1-.8.94,3.78,3.78,0,0,1-1.55,1.17c-.61.33-1.07-.23-1.31-.47s.42,0,.66-.42-.28-.33-.28-.66a.91.91,0,0,1,.42-.79c.37-.33,1,0,1.4,0s0-.47-.32-1.13a3.93,3.93,0,0,0-.47-1.4A8.51,8.51,0,0,1,74,11.78c0-.29.56,0,1,0s0-1.08.61-1.46,0-.32-.33-.32h7.87c48.73.46,58.52,34.62,58.52,55.14.38,33.22-15.74,56.79-52,56.79ZM88.76,20.44H89a.31.31,0,0,0-.47,0c-.37.1,0-.09.19,0Zm2,50.47a2.47,2.47,0,0,1,.23.46C91,71.56,90.78,71.05,90.78,70.91ZM93,33c-.32,0,0-.46-.46-.56.46,0,0-1.08.56-.89s.42,0,0,.47.79,1.08.09,1Zm5.39-2.1c.38,0,.66,0,.38.46s-.28.71-.75.24c.75-.33.19-.66.56-.66h-.19Zm1.64,38c-.47,0-2.43-.79-2.06-1.21,0,.42.66.23.89.32s1.83.8,1.36.89Zm-1-19.58c.28-.24.47.47,0,.47s0-.38.19-.47Zm1.78,1c-.42,0-1,.28-1-.42a1.9,1.9,0,0,1,.46-1s1.08,0,.85.37a1.55,1.55,0,0,0-.19,1Zm-.33,16c.42,0,1.31,1.83.24,1.45V67.2c0-1.31-1.46.94-1.41,0s1.08-.32,1.36-1Zm2.58,17.85a7.52,7.52,0,0,1,.42.66c.09.18-.56,0-.84,0s-.24,0,0-.38.65.38.61-.14Zm0-18.83a.8.8,0,0,1,.47.56s-.57-.24-.47-.42Zm-.33,1.07h0c0,.28-.19.57,0,.19Zm0-16.07c.23,0,.23,0,.23.42s-1.17-.23-.42-.23Zm0,18.51s-.33,0-.33-.28.14.19,0,.47Zm0,1.31c.56,0-.23.56-.33.89s-.47,0-.75,0-.47-.33,0-.33.47-.37.8-.28-.33-.14,0-.14Zm-.89,18.65c0,.56-.42,0-.33,0s.14,0,0,.19ZM100.8,82s-.33,0,0-.28a.92.92,0,0,1-.28.47ZM99.68,70.81a2.79,2.79,0,0,1-1.45-1.64C98.6,69.36,99.16,70.34,99.68,70.81ZM98.51,50h0c0-.33-.14-.47-.14,0Zm.37,16.54c.28,0-.47,1.08-.56.89-.33-.89-1.41-.24-1.45.37s-.61,0-.8-.28.42-.33,0-.7a17.37,17.37,0,0,0,2.72-.47ZM97,84.77c-.33.57-.28,0,0-.28S97.15,84.26,97,84.77Zm-.47-33.4c-1.26,0,0-1.5.7,0-.14.51-.42-.24-.7-.24ZM94.85,70.58c-1.31,0,.28-.47.56-.66s.29,0,.43,0-.57.52-1,.47Zm.75,2.25s-.37.47-.56.42-.23-.56,0-.47.56-.33.56-.14Zm-1.08,14.9c.57,0,.71-.71,1.32-.52,1.54,0,.75,1.22,1.87,1.5s1.64.42.42.56-1-.65-1.68-.65a13.47,13.47,0,0,1-3-.47c.19-.66.75-.66,1.17-.66ZM92.84,72.12v.61c0,.24,0,.33-.28.42s.56.75.7,1.08c-.33,1.22-1.88-.89-1.88-1.45.94.47.57-.89-.32-1.08,1.17,0,.84-.33,1.73.24v.18ZM105.63,83.7c.42.23-.47.89.79,1.17.33.51-.28,0-.46,0s-1.27,0-1.08-.61.47.51.75-.75ZM109.52,79V78.4c0-.19.47.28,0,.38Zm.89,2.25c0,.28-.52.28-.8.47s0,.47,0,0,0-1.92.8-.7Zm-.89-13.68c-.24.38-.47,0-.8.28a12.32,12.32,0,0,1-1.4,1.13c-.29,0-.33-.47-.66-.42s0-.47,0-.71-.42-1.07,0-1.54.8.42,1.12,0,.8-1,1.32.28.7-.89.46.79Zm-2.3,15.28c2.06.7.47-.47,1.88,0,0,0,.28.23,0,.32s-.8.47-1.18.61c.66-1-2-.84-.7-1.17Zm0,3.56s.52,0,.61-.33-1,.47-.84.09Zm-.33-14.11h.28a1.42,1.42,0,0,1-.46-.23Zm-.51,15.19v-.33c0-.1-.14.09-.24.09Zm-.61-.9c0-.28,0-.42.33,0s-.61.29-.52-.23Zm7.07-7.68v.38s-.32-.57-.23-.57ZM102.68,30.38s-.47.42-.43,0S102.77,30.1,102.68,30.38Z"/><path class="cls-1" d="M249.08,24.76a17.27,17.27,0,0,0-17.85,16.68v.84A16.7,16.7,0,0,0,247.72,59.2a11.92,11.92,0,0,0,1.36-.05,17,17,0,0,0,17.29-16.63v-.71a16.46,16.46,0,0,0-15.89-17Zm.61,32.89c-9.89,0-13.4-9.56-13.4-17,0-10.87,6.74-14.48,11.9-14.48,9.46,0,13.12,8.95,13.12,17.06C261.31,53.15,255.68,57.65,249.69,57.65Zm51.63-32.14c.42,0,.33.89,0,1.22h-1.17a2.8,2.8,0,0,0-2.44,1.21,45.83,45.83,0,0,0-.65,10.13v5.71a17.54,17.54,0,0,1-3.47,11.81A13.09,13.09,0,0,1,284,59.15a13.91,13.91,0,0,1-9.23-2.67,14,14,0,0,1-3.89-11.76V33c0-5.2,0-6.05-3-6.28h-1.31c-.38,0-.28-1,0-1.22h12.27c.28,0,.47,1,0,1.22h-1.26c-2.86.28-3,1.08-3,6.28V43.73c0,8,2.43,13.4,10,13.4s9.94-5.71,10-13.4V38.11a38.73,38.73,0,0,0-1-10.35,3.33,3.33,0,0,0-2.53-1H290a.86.86,0,0,1,0-1.21h5.71C297.76,25.6,299.63,25.65,301.32,25.51Zm20.9,15.27c-.57,0-1-.28-1-.75a7.23,7.23,0,0,0,5.16-6.79,6.46,6.46,0,0,0-3.75-6.14,18.47,18.47,0,0,0-8.39-1.4,74.1,74.1,0,0,0-10.73.46.8.8,0,0,0-.14,1.08l.14.14h1.55c2.2.24,2.43,1.13,2.43,4.88v19c0,5.2,0,5.76-2.67,6.14h-.89c-.37.33-.28,1.17,0,1.22h11.72c8.95,0,13.4-3.75,13.4-9.51A8.3,8.3,0,0,0,322.22,40.78ZM311.58,28.69c0-.89.28-1.12.75-1.31a6.35,6.35,0,0,1,2.3-.28c3.84,0,7.4,1.83,7.31,6.7s-2.67,6.19-7.83,6.37c-2.53,0-2.62,0-2.62-1.45Zm4.92,28.49a5.13,5.13,0,0,1-3.94-1.4,10.63,10.63,0,0,1-1.07-5.49V43.13c0-1.08.28-1.32,2.86-1.32,8,0,9.93,4.45,9.93,8.48C324.14,55.12,321,57.18,316.5,57.18Zm41.61-5.39A41,41,0,0,1,356,58.73H332.57c-.33,0-.42-.89,0-1.22h1.55c2.86,0,2.95-1,2.95-6.14V33.52c0-5.2,0-6-3.23-6.23h-1.22c-.28-.28,0-1.17,0-1.27h12.56c.32,0,.42,1.08,0,1.27H344c-2.95,0-3,1-3,6.23V50.86c0,3.18,0,4.45,1,5.34s1.45,1.26,5.43,1.26,5.3-.28,6-.75a10.32,10.32,0,0,0,3.33-4.87C357.12,51.18,358.11,51.47,358.11,51.79Zm28.53.24a35.19,35.19,0,0,1-2.2,6.84h-24.6c-.33,0-.42-.89,0-1.22h1.64c2.86,0,3.09-1,3.09-6.14V33.66c0-5.15,0-5.86-3-6.23h-.84c-.33-.28,0-1.17,0-1.27H376a53.49,53.49,0,0,0,6.7,0c.32.85.51,4.46.79,6.61-.28.28-1,.47-1.26,0-.71-2.34-1.13-4.08-3.75-4.73a26.5,26.5,0,0,0-4.78-.33H370.1c-1.45,0-1.45,0-1.45,2v9.93c0,1.41,0,1.41,1.64,1.41h2.95a22.55,22.55,0,0,0,4.26-.28c.57,0,.89-.47,1.22-1.69l.42-2.06h1.36v9.79c0,1-1.07.38-1.36,0l-.42-1.87a2.32,2.32,0,0,0-1.5-1.93,18.35,18.35,0,0,0-3.84-.28h-2.86c-1.45,0-1.64,0-1.64,1.41v7c0,2.62,0,4.45,1,5.15s1.64,1.27,6,1.27a13.27,13.27,0,0,0,6.33-1,11.54,11.54,0,0,0,3.56-4.78C385.84,51.28,386.64,51.47,386.64,52ZM215.34,21.1a36.62,36.62,0,0,0-12.84-1.78c-5,0-9.83,0-14.75.47a.86.86,0,0,0-.24,1.22.53.53,0,0,0,.24.23h1.31c2.43.38,2.76,1.55,2.76,5.63v22.3c0,6.18,0,6.84-3.56,7.4h-1.4a1.33,1.33,0,0,0,0,1.46h7.3c2.44,0,5.81.46,9.56.46A28.83,28.83,0,0,0,217,56.1,19.19,19.19,0,0,0,227.1,38.58,17.35,17.35,0,0,0,215.34,21.1ZM204.85,56.81c-3.7,0-6-.61-7.17-2.44a11,11,0,0,1-1.17-6.32V26.45c0-2.63,0-4.17.65-4.46A12.91,12.91,0,0,1,203,21.2c15.42-.05,18.46,10.87,18.46,17.47,0,10.87-5.2,18.37-16.58,18.28ZM395.59,19.89h29c0,2.34-.43,5.52-.43,7.4,0,.47-1.26.42-1.45,0a7,7,0,0,0-1.45-4.45,11.53,11.53,0,0,0-6.84-1.45h-4.22c-1.78,0-1.68,0-1.68,2V49.4c0,6.19,0,7.08,3.51,7.45h1.87c.33.28,0,1.36,0,1.46h-16a.84.84,0,0,1-.24-1.18.66.66,0,0,1,.24-.23H400c3.32-.33,3.65-1.22,3.65-7.4V23.31c0-1.88,0-1.88-1.78-1.88h-3.28a12.54,12.54,0,0,0-7.26,1.41A10.75,10.75,0,0,0,388.94,27c-.42.37-1.6,0-1.5-.42.47-2.67.51-4.46.89-6.94C388.37,19.75,392.83,19.89,395.59,19.89ZM484.43,51.7A12.85,12.85,0,0,1,481,56.53a13.24,13.24,0,0,1-6.33.79c-4.45,0-5.43-.61-6-1.22a9,9,0,0,1-1-5.15v-7c0-1.31,0-1.4,1.69-1.4h2.86a24.61,24.61,0,0,1,3.84,0,2.16,2.16,0,0,1,1.55,2l.42,1.88a1,1,0,0,0,1.31,0V41.67c0-1.68.28-3.84.28-5.06a1,1,0,0,0-1.31,0l-.42,2.06c-.28,1.22-.56,1.5-1.17,1.69a17.4,17.4,0,0,1-4.45.28h-2.86c-1.45,0-1.69,0-1.69-1.4v-9.8c0-1.87,0-2,1.5-2h3.61a23.68,23.68,0,0,1,4.82.32c2.49.66,3,2.35,3.75,4.74,0,.32,1,0,1.22,0a39.53,39.53,0,0,0-.7-6.61,55.1,55.1,0,0,1-6.8,0H459.92c-.33,0-.42,1.08,0,1.27h.84c2.91.37,2.91,1.07,2.91,6.27V51.33c0,5.2,0,6.13-3.09,6.27h-2a5.11,5.11,0,0,1-3.42-.84,50.52,50.52,0,0,1-9.93-13.4c-.24-.33-.47-.89-.24-1.22a9.22,9.22,0,0,0,6.14-8A7.71,7.71,0,0,0,447,27.05a18,18,0,0,0-8.3-1.45,72.71,72.71,0,0,0-11.05.47.8.8,0,0,0-.15,1.08l.15.14h1.59c2.06,0,2.25,1.12,2.25,5.86V51c0,5.2,0,5.76-3,6.13h-1.22c-.28.43,0,1.18,0,1.22h12c.33,0,.43-.93,0-1.22h-1.07c-2.86-.42-3.05-1-3-6.13V44.86c0-1.08,0-1.08,2.34-1.08a3.5,3.5,0,0,1,3.51,1.55c1.5,2.2,3.56,5.62,4.88,7.49,3.51,5.06,5.9,6.28,10.12,6.28a18.82,18.82,0,0,0,2.85-.47h24.37A42.3,42.3,0,0,0,485.6,52a1.13,1.13,0,0,0-1.17-.28ZM439,42.42a9.35,9.35,0,0,1-3.42-.23V28.88c0-1.4,0-1.54,3.28-1.54a7.3,7.3,0,0,1,7.87,6.7,4,4,0,0,1,0,1,7.29,7.29,0,0,1-2.39,6.14A9,9,0,0,1,439,42.42ZM515.72,52a51.09,51.09,0,0,1-2.2,6.89h-24.6c-.28,0-.42-.89,0-1.22h1.69c2.86-.28,3.14-1.08,3.14-6.19V33.66c0-5.15,0-5.9-3.05-6.28h-.79V26.16h15a54.13,54.13,0,0,0,6.74,0c.29.8.57,4.46.85,6.61-.28,0-1,.42-1.27,0-.7-2.34-1.12-4.12-3.75-4.73a23.52,23.52,0,0,0-4.82-.47h-3.56c-1.45,0-1.45,0-1.45,1.92v9.93c0,1.41,0,1.41,1.63,1.41h2.86a20.6,20.6,0,0,0,4.45-.23c.52,0,.89-.47,1.22-1.74l.42-2a1,1,0,0,1,1.32,0v9.79c0,.33-1,.33-1.36,0l-.42-1.87a2.36,2.36,0,0,0-1.55-2,21.1,21.1,0,0,0-3.8-.24h-2.85c-1.46,0-1.64,0-1.64,1.41v7c0,2.57,0,4.45,1,5.15s1.64,1.22,5.95,1.22a14.31,14.31,0,0,0,6.14-.8,11.18,11.18,0,0,0,3.47-4.82A.86.86,0,0,1,515.72,52ZM288.11,83.61a7.66,7.66,0,0,0-5.2,2.2V76.63h-5.72v1l1.41.28V99.07l-1.41.28v1h5.72v-.89a7.14,7.14,0,0,0,4.12,1.27c5,0,7.73-3.24,7.73-9C294.71,86.89,292,83.61,288.11,83.61ZM286.51,99a5.63,5.63,0,0,1-3.6-1.4V87.17a6.89,6.89,0,0,1,2.85-.8c2.77,0,4.46,2.34,4.46,6.19S288.86,99,286.51,99Zm21.23-15.18h4.73V85h-1.36l-6.6,16.17c-1.46,3.7-2.86,6.7-5.95,6.7a11.11,11.11,0,0,1-2.77-.33V104h1l.56,1.64a2.53,2.53,0,0,0,1.4.47c2,0,3.33-2.95,4.13-4.83v-.42l-6.66-15.27-1.36-.29V84.17h7.27v1.22l-1.46.28,4.27,10,4-10.12-1.46-.29V84Zm27-6.6h7.78v1.17l-1.54.23V98.83l1.54.29v1.17h-7.78V99.12l1.64-.29V89.65h-9.93v9.18l1.55.29v1.17h-7.59V99.12l1.5-.29v-20l-1.5-.24V77.42H328v1.17l-1.55.24V87.5h9.93V78.83l-1.64-.24Zm16.82,21.69,1.46.28v1.08h-7.17V99.21l1.45-.28V85.15h-1.45V84.08h5.71Zm-4.45-20.15a2.45,2.45,0,0,1,4.88-.37v.28a2.52,2.52,0,0,1-2.3,2.67h-.14a2.4,2.4,0,0,1-2.48-2.3.81.81,0,0,1,0-.28Zm14.67,20.15,1.45.28v1.08h-7.21V99.21l1.45-.28V77.8l-1.45-.24v-1h5.71Zm12.93-.52a17.65,17.65,0,0,0,2.3,0v1.13a15.63,15.63,0,0,1-5.2,1.08c-3.28,0-4.08-1.46-4.08-4.46V85.48h-3.05V83.94h3.1V80.52L372,79.3v4.45h3.8v1.54H372V95c-.05,2.63.46,3.42,2.76,3.42Zm11.9-15.13a8.3,8.3,0,0,0-8.95,7.64,7.17,7.17,0,0,0,0,1.31,7.46,7.46,0,0,0,6.23,8.48,9.41,9.41,0,0,0,2.25,0,8.13,8.13,0,0,0,8.9-7.26,10,10,0,0,0,.05-1.22,7.94,7.94,0,0,0-6.79-8.9A9.44,9.44,0,0,0,386.64,83.28Zm0,16c-2.34,0-3.93-2.11-3.93-7.31s1.54-7.41,3.93-7.41,4,2.3,4,7.41-1.78,7.45-4.4,7.45Zm27.6-.47,1.45.28v1.08h-7.5V99.07l1.41-.28V89.65c0-2.58-1-3.75-2.86-3.75a6.62,6.62,0,0,0-3.33,1.41V99l1.46.28v1.07H397.7V99.26l1.45-.28V85.25H397.7V84.08h5.71v2.29a9,9,0,0,1,5.86-2.58c3.23,0,4.45,1.88,4.45,5.53V99ZM415.6,77h4.45v1h-.42v-.46h-1.78v4h.46v.32h-2.15V81.5h.56v-4H415.5v.47h-.42V77Zm10.59.47v4.12h.46v.33h-2v-.33h.47V78l-1.79,4.13h0l-1.73-4v3.61h.47v.37H420.7v-.37h.43V77.56h-.43v-.28h1.69l1.41,3.19,1.4-3.19h1.59v.33Z"/></g></g></svg>