<svg xmlns="http://www.w3.org/2000/svg" viewBox="0 0 550.77 358.18"><defs><style>.cls-1{fill:#94a3b7;fill-rule:evenodd;}</style></defs><g id="Layer_2" data-name="Layer 2"><g id="Layer_1-2" data-name="Layer 1"><path class="cls-1" d="M328.61,129.14a34.48,34.48,0,0,1-6.86,20.94h14.42V44.71H290V87.77c25,7.31,38.59,22.43,38.59,41.37Z"/><path class="cls-1" d="M248.83,84c10.42,0,20.11,2.3,27.53,4.17-15.72-2.61-40.07,1.15-52.63,10.55v51.36h46.15V91.63a60.46,60.46,0,0,1,22.18,8.48v50h10c-9.44,10.08-27.09,16.22-42.33,14v2.11c43.91,3.27,62.5-16.4,62.5-38.54,0-26.06-25.89-41.33-52.37-44.42V44.71H223.73V83.62c-29.9,5.67-59.14,22.48-59.14,50.27,0,42.8,63.25,69.3,118.37,69.3C366.63,203.19,431,165,431,111.31,431,46.34,338,0,265,0,181.34,0,119.73,50.24,119.73,103.92c0,27.78,16.5,51.08,37.33,67.29l1.56-1c-16.48-13-31.34-33.12-31.34-60.85,4.34-58.74,80.94-91.82,149.1-91.82,48.19,0,134.83,10.51,134.83,86.68,0,39.75-44.93,91.45-139.31,91.45-48.32,0-85.84-24.49-85.84-59.63,0-30.42,25.21-52.07,62.77-52.07Z"/><polygon class="cls-1" points="70.06 356.05 70.06 350.06 86.23 350.06 86.23 298.2 43.01 298.2 43.01 350.06 59.6 350.06 59.6 356.05 0 356.05 0 350.06 15.16 350.06 15.16 244.38 0 244.38 0 238.38 59.6 238.38 59.6 244.38 43.01 244.38 43.01 291.23 86.23 291.23 86.23 244.38 70.06 244.38 70.06 238.38 129.05 238.38 129.05 244.38 113.9 244.38 113.9 350.06 129.05 350.06 129.05 356.05 70.06 356.05 70.06 356.05"/><path class="cls-1" d="M151.92,238.37h27v14h-27v-14ZM138.6,356.05v-6h14.54V277.65H138.6v-6H180v78.37h13.51v6Z"/><polygon class="cls-1" points="199.32 356.05 199.32 350.06 214.27 350.06 214.27 228.89 199.32 228.89 199.32 222.9 241.31 222.9 241.31 350.06 255.45 350.06 255.45 356.05 199.32 356.05 199.32 356.05"/><path class="cls-1" d="M297.54,356.05c-14.76,0-22.74-7.14-22.74-18.19V277.65H260.26v-6H274.8V238.18c8.19,0,16.79.19,25.19,0v33.51h20.89v6H300v72.41h21.3v6Z"/><path class="cls-1" d="M422.66,330.71c-3.06,7.91-15.76,27.47-46.69,27.47-34.41,0-52-22.27-52-44.9,0-31.36,29.49-44.32,51.43-44.32,19.45,0,47.71,11,50,43,.4,6.21-.23,13-2.67,18.79ZM393.38,285.2c-3.48-7.33-9.85-10.66-18.23-10.66-21.1,0-21.51,20.55-21.51,38.36,0,24,2.25,28.26,3.88,31.16,2.68,4.85,8.41,9.29,17.85,9.29,21.08,0,21.08-21.51,20.88-41.23-.23-21.5-1.63-24.21-2.87-26.92Z"/><path class="cls-1" d="M497.51,356.05v-6h11.87V300.3c0-11.21,0-22.24-13.11-22.24-7.36,0-19.45,7-22.31,18.37-1,3.48-.83,7.16-.83,16.47v37.16h13.52v6H431.76v-6H446.3V277.65H431.76v-6h41.37v12.74c4.5-5.41,8.22-9.29,17-12.57a43.58,43.58,0,0,1,16.16-3.11,46.18,46.18,0,0,1,12.3,1.57c17.22,4.82,18,17.21,18,26.11v53.63h14.15v6Z"/><path class="cls-1" d="M407.53,183.78h-4.36v-1.55H414v1.55h-4.4v14.93h-2.07V183.78Zm18.78,11.92h.08l5.37-13.47h2.77v16.48h-2.09V186.32h-.1l-5.12,12.39h-1.91L420,186.32H420v12.39h-2.1V182.23h2.94l5.52,13.47Z"/></g></g></svg>