<svg xmlns="http://www.w3.org/2000/svg" viewBox="0 0 570.87 216.51"><defs><style>.cls-1{fill:#94a3b7;}</style></defs><g id="Layer_2" data-name="Layer 2"><g id="Layer_1-2" data-name="Layer 1"><path class="cls-1" d="M299.78,128.79c-4,0-7.84,3.62-7.84,7.67a4.88,4.88,0,0,0,5.07,5.08c4,0,7.93-3.61,7.93-7.66A5,5,0,0,0,299.78,128.79Z"/><path class="cls-1" d="M272.71,132.35c-2.22,10.84-9.29,45-9.29,45-.44,1.88-3,11.7,7.3,11.7h1.56l13.51-65.46S274.92,121.59,272.71,132.35Z"/><path class="cls-1" d="M288.77,155.13c-2.28,10.61-4.59,22.23-4.59,22.23-.42,1.88-3,11.7,7.33,11.7H293l8.78-42.55C301.41,146.46,291,144.69,288.77,155.13Z"/><path class="cls-1" d="M242.46,145.77a23.86,23.86,0,0,0-15.41,5.34c-6.37,5.16-10.08,13.68-10.08,22.71,0,10.07,6.89,15.24,16.45,15.24a23.83,23.83,0,0,0,15.4-5.34c6.37-5.16,10.07-13.76,10.07-22.81C258.89,150.84,252,145.77,242.46,145.77ZM242,177.43c-1.89,2.42-4.29,4.06-7.13,4.06-4.57,0-6.38-3.19-6.38-7.67,0-4.82,1.81-12,5.35-16.43,1.88-2.41,4.39-4,7.24-4,4.55,0,6.26,3.19,6.26,7.66C247.35,165.83,245.56,173,242,177.43Z"/><path class="cls-1" d="M462.75,129.52c-1.7,8-9.87,47.83-9.87,47.83-.52,2.29-2.78,11.71,7.31,11.71h1.56l14-67.95C473.08,120.64,464.64,120.69,462.75,129.52Z"/><path class="cls-1" d="M503,145.77a17.7,17.7,0,0,0-13.1,5.76s-.39-8.27-11.32-5c2,5.79.89,7.83-1.32,19.51l-2.32,11.3c-.4,1.94-3,11.7,7.33,11.7h1.52l4.06-19.62c1.13-5.26,3.23-15.25,11.19-15.25,4,0,6,2.47,4.74,8.51l-3,14.64c-.43,1.88-3,11.72,7.32,11.72h1.52l5.54-26.8C517.58,150.79,511.62,145.77,503,145.77Z"/><path class="cls-1" d="M206.69,130c-.51,2.48-1.65,7.91-3.49,16.81l-19,3.78,5.57-27c-1.72-.31-11.14-1.06-13.07,8.75-.6,3.06-9.32,45-9.32,45-.44,2.18-3,11.7,7.3,11.7h1.57l5.49-26.53,19-3.78-3.86,18.61c-.42,1.88-3,11.7,7.33,11.7h1.54l14-67.95S208.92,119.16,206.69,130Z"/><path class="cls-1" d="M549.61,145.77a17.69,17.69,0,0,0-13.09,5.76s-.4-8.27-11.33-5c2,5.79.9,7.83-1.32,19.51l-2.31,11.3c-.4,1.94-3,11.7,7.33,11.7h1.52l4.06-19.62c1.13-5.26,3.23-15.25,11.19-15.25,4,0,6,2.47,4.74,8.51l-3,14.64c-.43,1.88-3,11.72,7.31,11.72h1.53l5.54-26.8C564.21,150.79,558.26,145.77,549.61,145.77Z"/><path class="cls-1" d="M331.18,171a17.68,17.68,0,0,1-3.26,7.57,7.87,7.87,0,0,1-6.21,2.75c-3.87,0-6.17-2.66-6.17-7.57,0-10,7.11-20.73,15.89-20.73a8.15,8.15,0,0,1,3.35.65Zm8-38.45c-1,5.13-2.92,14.12-2.81,13.61a20.43,20.43,0,0,0-4.3-.38,28.07,28.07,0,0,0-28.13,28.32c0,9.21,5.66,15,14.28,15,5.17,0,9.18-1.88,11.58-4.38,1,3.13,4,4.38,7.45,4.38h1.53l13.51-65.46C351.34,123.48,341.22,122,339.14,132.54Z"/><path class="cls-1" d="M377.77,145.77a28.15,28.15,0,0,0-28.13,28.4c0,9.22,5.25,14.89,13.86,14.89,5.16,0,9.24-1.91,11.57-4.41,1,3.21,4,4.41,7.47,4.41h1.52l8.13-39.34A29.45,29.45,0,0,0,377.77,145.77ZM376.48,171a17.4,17.4,0,0,1-3.17,7.57,8,8,0,0,1-6.3,2.75c-3.87,0-5.77-2.58-5.77-7.49,0-8.77,6.3-20.81,16.29-20.81a5.6,5.6,0,0,1,2.57.63Z"/><path class="cls-1" d="M424.05,165.34c-1.11,5.23-3,15.21-11,15.21-7.17,0-4.89-7.92-4.46-10l5.08-24s-10.88-2.2-13.44,9.76-3,13.94-3,13.94a38.31,38.31,0,0,0-1,7.24,10.84,10.84,0,0,0,2.84,7.48c-6.62,1.63-9.71,5.05-9.71,10,0,7.23,7.14,11.52,16.66,11.52,8.17,0,14.63-2.75,18.74-7.4,3.36-3.77,5.43-8.94,7-16.24l7.73-36.26s-11-1.85-13.29,9ZM419,188.11a18.08,18.08,0,0,1-4.63,8.53,11.87,11.87,0,0,1-8.26,3.16c-3.95,0-7.22-1.89-7.22-5.25,0-4.28,4.22-5.32,10.41-6,4.39-.49,8.25-1.54,10.47-3.51Z"/><path class="cls-1" d="M568.39,148.29c0,.39-.18.66-.72.66h-.51v-1.26h.43c.54,0,.8.14.8.6m.77,1.88a.52.52,0,0,1-.26.08c-.06,0-.11,0-.19-.15l-.45-.8a1,1,0,0,0,.72-1c0-.7-.53-1-1.31-1H566.3v.44h.28v3h.58v-1.28h.53l.55,1a.55.55,0,0,0,.56.34.64.64,0,0,0,.33-.1Zm1.18-1.22a2.65,2.65,0,1,1-2.64-2.75,2.51,2.51,0,0,1,2.64,2.75m.53,0a3.18,3.18,0,1,0-3.17,3.19,3,3,0,0,0,3.17-3.19"/><path class="cls-1" d="M206.35,67.27c-4.11-21.85-26.74-17.84-33-16.53q-17.22,3.63-32.8,7.8C146,41.15,152.3,24.25,161.93,1.34A35.32,35.32,0,0,0,148.35.24a20.4,20.4,0,0,0-16,11c-6.16,11.7-12.82,30.07-20.16,55.73C97,71.85,83.08,77.16,70.25,82.77A477.06,477.06,0,0,1,95.18,14.13a33.12,33.12,0,0,0-8.45-1.26C76.35,12.87,70.31,16.79,65.6,27,58.25,42.84,49.54,69.56,43,95.91a352.3,352.3,0,0,0-34.51,21,19.16,19.16,0,0,0-8.43,13A15.9,15.9,0,0,0,1.44,138c7.06-4.22,19.7-11.35,36.58-19.56-3.38,16.74-7.31,40-7.39,57.68,0,9,5.53,14.35,13.5,14.35,2.2,0,6.53-.63,7-1.13,2.3-31,8.51-62.45,13.19-82.92C76.9,101,90.81,95.59,105.78,90.48l-1.09,4.2C93.14,139.83,85.4,188.49,86,201.7c.51,10.7,8.39,14.81,15.07,14.81a27.88,27.88,0,0,0,7.85-1.25c2.82-33.09,12-83.23,16.87-102.64,2.91-11.58,5.49-21.62,8-30.89A456.19,456.19,0,0,1,206.35,67.27Z"/><path class="cls-1" d="M144.45,93c0,.39-.18.65-.72.65h-.51V92.4h.43c.54,0,.8.15.8.61m.77,1.88A.63.63,0,0,1,145,95c-.07,0-.12,0-.2-.15l-.45-.8a1,1,0,0,0,.72-1c0-.71-.52-1-1.31-1h-1.37v.44h.28v3h.58V94.09h.53l.55,1a.55.55,0,0,0,.56.34.61.61,0,0,0,.33-.1Zm1.19-1.23a2.65,2.65,0,1,1-2.65-2.75,2.52,2.52,0,0,1,2.65,2.75m.52,0a3.18,3.18,0,1,0-3.17,3.19,3,3,0,0,0,3.17-3.19"/></g></g></svg>