<svg xmlns="http://www.w3.org/2000/svg" viewBox="0 0 966.77 413.39"><defs><style>.cls-1{fill:#94a3b7;}</style></defs><g id="Layer_2" data-name="Layer 2"><g id="Layer_1-2" data-name="Layer 1"><path class="cls-1" d="M243,148.54c0-12.89-.24-15.24-15.59-17.45v-1.77h40.33v1.77c-14.07,1.86-14.43,5.38-14.43,17.45v42c.12,22.75-2.57,27.78-28,38.67l-.94-2C241.61,219.1,243,206.45,243,185.35Z"/><path class="cls-1" d="M287.37,175.61c-2,5.87-7.16,18.07-7.16,23.68,0,7.15,8.08,7.15,13.36,8V209H261.46v-1.75c10.44-2.82,11.49-5.16,15.12-14.31l13.24-34.58,7-19.1c1.05-3.05,2.57-5.86,1.29-8.08a22.16,22.16,0,0,0,8.55-6.33l25.79,68.68c3.16,8.56,5.16,12,14.53,13.72V209H312.57v-1.75c4.1-.94,9-2.24,9-7.5,0-4.93-4.47-16-7.51-24.16Zm13-35.86-11,30.47h23.22Z"/><path class="cls-1" d="M403.74,191.91,425,145.26c2.93-6.43,4.57-12.31,2-14.06l.24-1.88H453v1.76c-7.49,1.52-12.06,4.34-11.6,12.54l2.58,42.66c1.29,16.29,1.29,18.88,13.82,21V209H419.22v-1.75c9-1.41,14.76-2.46,14.18-12.78l-3.17-51.21H430L400.12,209h-1.29L371.05,146h-.23c-1.88,17.93-2.82,30.94-3.64,49.09-.23,4.58-.11,9.86,14.07,12.21V209H348.56v-1.75C359,205.51,360,200.46,361.68,191L366,158l1.53-15.94c.71-7.74-6-10.44-12.89-11v-1.76H380l.12,1.29c-2.59,2.69.57,9.73,1.4,11.61Z"/><path class="cls-1" d="M462.6,207.27c14.07-1.89,14.18-5.4,14.51-17.47V148.54c-.33-12.07-.44-15.59-14.51-17.45v-1.77h62.93l-1.41,18h-1.75c-.83-15.11-11.73-15.23-23.55-15.23H487.45v33.4h12.18c8.79,0,15.47-.7,16.75-10.77h1.77v26.13h-1.77c-1.52-10.3-8-10.44-16.75-10.44H487.45v19.23c0,6.91-1.65,16.52,17.57,16.52,14.77,0,22-5.61,25-20.39h1.75a73.8,73.8,0,0,1-4,23.21H462.6Z"/><path class="cls-1" d="M585.43,150h-1.87c-1.88-9.49-4.93-18.64-16.53-18.64-7.51,0-13.72,5.15-13.72,12.9,0,20.27,36.92,19.57,36.92,43.25,0,15.11-15,23-28.47,23a38.7,38.7,0,0,1-20.63-6l-3.41-19.92h2.1c2.93,11.25,10.79,22.38,23.69,22.38,8.66,0,15.47-5.15,15.47-14.3,0-20.86-35.85-19-35.85-42.43,0-13.72,13.59-22.38,26.12-22.38a36.23,36.23,0,0,1,17.12,4.57Z"/><path class="cls-1" d="M689.17,153.46h-1.76c-2.23-13.24-10-22.73-24-22.73-21.46,0-33.54,17.57-33.54,37.74,0,23.1,17.7,39.14,34.71,39.14,15.33,0,21.43-11.25,26.71-23.9l1.66.7a112,112,0,0,1-6.46,21,54.2,54.2,0,0,1-23.92,5c-24.5,0-46.29-14.07-46.29-40.56,0-20.86,16.29-42,47.23-42,8.92,0,17.94,1.77,25.68,6.33Z"/><path class="cls-1" d="M784.82,169.17c0,25.2-18.28,41.25-42.9,41.25s-42.9-16-42.9-41.36c0-25,18.3-41.15,42.79-41.15,30,0,43,20.4,43,41.26m-72.19-2.93c0,18.17,9.6,41.37,30.7,41.37,19.33,0,27.91-19.69,27.91-36.44-.37-20.76-12.44-40.44-30.37-40.44-20.16,0-28.24,19.68-28.24,35.51"/><path class="cls-1" d="M879,169.17c0,25.2-18.27,41.25-42.89,41.25s-42.9-16-42.9-41.36c0-25,18.29-41.15,42.79-41.15,30,0,43,20.4,43,41.26m-72.2-2.93c0,18.17,9.62,41.37,30.71,41.37,19.35,0,27.91-19.69,27.91-36.44-.36-20.76-12.43-40.44-30.37-40.44-20.14,0-28.25,19.68-28.25,35.51"/><path class="cls-1" d="M906,189.8c.35,12.07.47,15.59,15.59,17.47V209H881.09v-1.75c14.08-1.88,14.19-5.4,14.54-17.47V148.54c-.35-12.07-.46-15.59-14.54-17.45v-1.77h37.28v1.77c-12,1.86-12.07,5.38-12.42,17.45Zm53-60.48v1.77c-13.36,1.4-22.27,12.77-30.95,21.79L917,164.6l23.8,26.25c7.16,7.86,15.6,14.88,26,17.81l-.58,1.77c-20.39-1.64-23.67-2.23-34.7-14.3l-23.9-26,18.87-20.5c12.31-13.83,10-17.7,2.1-18.51v-1.77Z"/><path class="cls-1" d="M319,239.33v1.75c-10.67,1.17-11.37,7.75-11.83,23.21L306.42,290c-.34,15.14-6.79,30.48-32.81,30.48-36.32,0-32.58-26.26-32.58-35.62V258.55c-.36-12.08-.47-15.59-14.54-17.47v-1.75h40.44v1.75c-15.36,2.23-15.59,4.57-15.59,17.47v24c0,2.24-3.75,32.48,28.36,32.48,25.32,0,22.86-24.15,22.86-38.45V264.29c0-14.88-1.16-21.68-17.57-23.21v-1.75Z"/><path class="cls-1" d="M400.53,300.62l-.59-42.78c-.12-11.14-3.16-14.42-16.4-16.76v-1.76h32v1.76c-8.08,1.06-9.6,5.52-10.53,13.13-1.65,12.88-1.06,41.14-.48,66.69l-1.51.36c-18.76-22.15-39.61-42.67-59.42-64v21.58c0,29.06-.71,35,16.29,38.43V319h-35v-1.78c15.82-1.63,15.23-12.42,15.23-39V260.66c0-11.72-1.87-16.3-16.76-19.58v-1.76h19.34Z"/><path class="cls-1" d="M445.36,299.81c.36,12.07.48,15.59,14.54,17.46V319H420.53v-1.77c14.05-1.87,14.18-5.39,14.53-17.46V258.55c-.35-12.09-.48-15.59-14.53-17.47v-1.75H459.9v1.75c-14.06,1.88-14.18,5.38-14.54,17.47Z"/><path class="cls-1" d="M550.5,239.33v1.75c-11,.95-14.41,10.2-21.68,27.19l-22.4,53.45h-1.63l-26.48-63.4c-3.53-8.57-6.22-16.07-16.65-17.24v-1.75h37.15v1.75c-16.52,1.64-11.14,11-8.09,18.41l18.75,45.24,13.84-33.17c10.07-24,11.94-27.9-5.86-30.48v-1.75Z"/><path class="cls-1" d="M551.55,317.26c14.08-1.86,14.2-5.38,14.54-17.45V258.55c-.34-12.08-.46-15.59-14.54-17.48v-1.74h63l-1.4,18h-1.76c-.83-15.12-11.73-15.23-23.57-15.23H576.42v33.4H588.6c8.78,0,15.47-.7,16.75-10.78h1.77V290.9h-1.77c-1.52-10.31-8-10.43-16.75-10.43H576.42V299.7c0,6.9-1.65,16.51,17.58,16.51,14.75,0,22-5.62,25-20.39h1.76a73.79,73.79,0,0,1-4,23.21H551.55Z"/><path class="cls-1" d="M639.8,263.47c0-17.94-.59-20.62-13.72-21.81V240l28.6-.94c29.54-.94,31.88,13.48,31.88,19.11,0,9.84-6.09,15.47-14.52,19.23l.58.82c9,15.81,20.27,36,39.62,40l-.36,1.74c-12.43-.58-21.57-.22-28.36-7.26a102.76,102.76,0,0,1-16.29-23.45c-4.69-9.72-8.91-6.9-17.12-8.32v18.88c0,12.89.23,15.23,16.29,17.45V319H625.27v-1.77c14.05-1.86,14.17-5.38,14.53-17.45ZM650.11,279c11.25-.12,24.39-5.28,24.39-18.29,0-13.72-12.08-19.23-24.39-19.11Z"/><path class="cls-1" d="M756.59,260h-1.87c-1.88-9.5-4.93-18.65-16.53-18.65-7.5,0-13.71,5.15-13.71,12.9,0,20.28,36.92,19.57,36.92,43.26,0,15.1-15,23-28.48,23a38.74,38.74,0,0,1-20.64-6l-3.39-19.91H711c2.94,11.25,10.79,22.38,23.69,22.38,8.67,0,15.45-5.15,15.45-14.29,0-20.87-35.85-19-35.85-42.44,0-13.73,13.59-22.38,26.12-22.38a36.31,36.31,0,0,1,17.13,4.56Z"/><path class="cls-1" d="M790.86,299.81c.35,12.07.48,15.59,14.54,17.46V319H766v-1.77c14.09-1.87,14.19-5.39,14.56-17.46V258.55c-.37-12.09-.47-15.59-14.56-17.47v-1.75h39.4v1.75c-14.06,1.88-14.19,5.38-14.54,17.47Z"/><path class="cls-1" d="M882.8,235.7h.92l1.65,21.92-1.65.34c-4.1-14.54-10.53-15.11-24-15.11h-7.05V297c0,14.52.71,18.39,16.43,20.26V319H826v-1.78c15.7-1.87,16.4-5.74,16.4-20.26V242.85h-7c-13.49,0-19.94.57-24,15.11l-1.63-.34,1.63-21.92h.94l1.18,1.05c2.93,2.69,3.4,2.58,7.26,2.58h53.7c3.86,0,4.32.11,7.25-2.58Z"/><path class="cls-1" d="M962.76,239.33v1.75c-10.2.82-15.23,6.44-20.16,14.89l-13.83,27.42v13.27c.24,13.46.46,18.27,15.47,20.6V319H903v-1.78c15-2.33,15.24-7.14,15.46-20.6v-9.4l-12.18-26.6c-4.45-9.84-7.62-18.17-19.46-19.58v-1.75h32.35v1.75c-9.61,1.3-8.32,5.16-4.56,13.36l11.71,25.32,10.2-19.34c7.26-13.59,6.33-18-3.85-19.34v-1.75Z"/><path class="cls-1" d="M240.51,342.16h714.8v2.39H240.51Z"/><path class="cls-1" d="M252.62,368.82h7.08l19.17,43.89h-8.08l-4.42-10.53H245.76l-4.47,10.53h-7.84Zm10.94,26.59L256,378l-7.47,17.43Z"/><path class="cls-1" d="M285.36,394.21V369.14H293v24.77c0,8.09,4.16,12.45,11,12.45s11-4.11,11-12.15V369.14h7.65v24.7c0,13-7.35,19.55-18.73,19.55s-18.54-6.53-18.54-19.18"/><path class="cls-1" d="M331.47,406.36l4.62-5.47c4.16,3.58,8.34,5.65,13.75,5.65,4.72,0,7.7-2.18,7.7-5.48v-.12c0-3.11-1.73-4.8-9.83-6.65-9.27-2.25-14.49-5-14.49-13v-.13c0-7.47,6.22-12.62,14.87-12.62A24.11,24.11,0,0,1,363.9,374l-4.11,5.79c-3.92-2.93-7.84-4.49-11.83-4.49-4.48,0-7.09,2.3-7.09,5.17v.1c0,3.38,2,4.88,10.33,6.87,9.22,2.24,14,5.54,14,12.75v.14c0,8.15-6.42,13-15.56,13a26.88,26.88,0,0,1-18.17-7"/><path class="cls-1" d="M385.25,376.23H371.42v-7.09h35.36v7.09H393v36.48h-7.72Z"/><path class="cls-1" d="M416.12,369.14h19.41c5.48,0,9.78,1.62,12.58,4.35a13.22,13.22,0,0,1,3.61,9.4V383c0,7.15-4.29,11.45-10.39,13.2l11.76,16.49h-9l-10.71-15.19h-9.6v15.19h-7.64ZM435,390.75c5.49,0,9-2.89,9-7.3v-.13c0-4.67-3.37-7.22-9-7.22H423.76v14.65Z"/><path class="cls-1" d="M477.79,368.82h7.09l19.18,43.89H496l-4.42-10.53H471l-4.48,10.53h-7.84Zm11,26.59L481.22,378l-7.47,17.43Z"/><path class="cls-1" d="M512.77,369.14h7.66v36.59h22.9v7H512.77Z"/><path class="cls-1" d="M553,369.15h7.66v43.57H553Z"/><path class="cls-1" d="M589,368.82h7.1l19.16,43.89h-8.07l-4.43-10.53h-20.6l-4.48,10.53h-7.84Zm10.95,26.59L592.38,378l-7.47,17.43Z"/><path class="cls-1" d="M166.6,196.06c-5.83,3.37-14.17,5.46-23.43,5.46s-17.6-2.09-23.43-5.45-14.18-5.46-23.43-5.46-17.61,2.09-23.42,5.46-14.18,5.45-23.45,5.45S31.85,199.43,26,196.07s-14.17-5.46-23.44-5.46c-.87,0-1.73,0-2.59.06v21.69c0,3.28.12,6.44.31,9.55.75,0,1.51-.07,2.28-.07,9.27,0,17.6,2.1,23.44,5.48s14.16,5.45,23.41,5.45,17.61-2.1,23.45-5.45,14.17-5.48,23.42-5.48,17.6,2.1,23.43,5.48,14.16,5.45,23.43,5.45,17.6-2.1,23.43-5.46,14.16-5.47,23.42-5.47c.78,0,1.53,0,2.29.07.19-3.11.3-6.27.3-9.55V190.67c-.85,0-1.7-.06-2.59-.06-9.26,0-17.59,2.09-23.42,5.45"/><path class="cls-1" d="M143.17,264c-9.26,0-17.6-2.1-23.43-5.46s-14.17-5.48-23.42-5.48-17.61,2.12-23.44,5.48S58.71,264,49.45,264s-17.6-2.1-23.42-5.46c-5.19-3-12.36-5-20.37-5.38A114.53,114.53,0,0,0,23,288.31a32.87,32.87,0,0,1,3,1.5c5.82,3.35,14.16,5.47,23.42,5.46s17.59-2.11,23.43-5.46,14.18-5.48,23.44-5.48,17.59,2.1,23.42,5.48,14.17,5.46,23.43,5.46,17.59-2.11,23.43-5.46a28.48,28.48,0,0,1,3-1.5A115,115,0,0,0,187,253.18c-8,.4-15.18,2.38-20.36,5.38-5.84,3.36-14.17,5.46-23.43,5.46"/><path class="cls-1" d="M119.74,321.05c-5.83-3.35-14.17-5.47-23.42-5.47s-17.61,2.12-23.44,5.47a38.75,38.75,0,0,1-10,3.87c13.43,9,25.85,15.59,33.42,21.91,7.56-6.32,20-12.93,33.41-21.91a38.82,38.82,0,0,1-10-3.87"/><path class="cls-1" d="M166.6,133.56c-5.83,3.36-14.17,5.49-23.43,5.49s-17.6-2.13-23.43-5.49-14.18-5.45-23.43-5.45-17.61,2.1-23.42,5.45-14.18,5.49-23.45,5.49S31.85,136.92,26,133.56s-14.17-5.45-23.44-5.45c-.87,0-1.73,0-2.59.07v31.24c.86,0,1.72-.06,2.59-.06,9.27,0,17.6,2.1,23.44,5.46s14.16,5.46,23.41,5.46,17.61-2.09,23.45-5.46,14.17-5.46,23.42-5.46,17.6,2.1,23.43,5.46,14.16,5.46,23.43,5.46,17.6-2.09,23.43-5.46,14.16-5.46,23.42-5.46c.89,0,1.74,0,2.59.07V128.18c-.85,0-1.7-.07-2.59-.07-9.26,0-17.59,2.1-23.42,5.45"/><path class="cls-1" d="M96.31,69.4A31.57,31.57,0,0,0,64.74,101a32,32,0,0,0,.38,4.63,37.89,37.89,0,0,0,7.77-3.27C78.7,99,87.06,96.86,96.31,96.86s17.6,2.11,23.43,5.46a37.66,37.66,0,0,0,7.77,3.27,32,32,0,0,0,.37-4.63A31.56,31.56,0,0,0,96.31,69.4m-43,9.27c-.63.09-1.25.27-1.89.38a22.82,22.82,0,0,1-4.85.27,10.1,10.1,0,0,1-4.65-1.15c-.28,1.64,1.75,3.81,3.47,5a14.83,14.83,0,0,0,3.75,1.93c.51.19,1,.28,1.54.47A13.64,13.64,0,0,1,55,88.2,32.91,32.91,0,0,1,59.15,93a37.54,37.54,0,0,1,5.33-12.76,28.71,28.71,0,0,0-5.43-1.54,19.56,19.56,0,0,0-5.77,0M168.43,101l-34.66-6.21a34.11,34.11,0,0,1,0,12.42ZM58.82,94.76,24.18,101l34.66,6.21a39.83,39.83,0,0,1-.56-6.21,42.29,42.29,0,0,1,.54-6.21m83.69-8.45c.38-.53.69-1.09,1.08-1.6a22.44,22.44,0,0,1,3.21-3.62,10.38,10.38,0,0,1,4.14-2.49c-1-1.34-4-1.46-6-1.06a16,16,0,0,0-4,1.28c-.5.24-.93.54-1.43.78a14,14,0,0,1-5,1.2,33.35,33.35,0,0,1-6.29-.46h0a37.75,37.75,0,0,1,5.3,12.79,29.8,29.8,0,0,0,4.91-2.74,19.27,19.27,0,0,0,4.09-4.08M74.68,69.73,52.89,57.53,65.05,79.34a38.08,38.08,0,0,1,9.63-9.61m52.89,9.61,12.16-21.81-21.79,12.2a38.08,38.08,0,0,1,9.63,9.61M102.71,63.52,96.31,0,89.92,63.52A39.44,39.44,0,0,1,96.31,63a39.86,39.86,0,0,1,6.4.56M74.16,56.36c.24.48.55.92.78,1.42a13.78,13.78,0,0,1,1.2,4.95,33.34,33.34,0,0,1-.45,6.3v0a37.31,37.31,0,0,1,12.79-5.3,27.76,27.76,0,0,0-2.75-4.91,18.91,18.91,0,0,0-4.07-4.07c-.53-.39-1.09-.71-1.62-1.08a24.52,24.52,0,0,1-3.62-3.22A10.3,10.3,0,0,1,74,46.34c-1.35,1-1.46,3.95-1.06,6a16.11,16.11,0,0,0,1.27,4m44.46,7.36a20,20,0,0,0,0-5.79c-.09-.63-.29-1.24-.4-1.88a24.17,24.17,0,0,1-.28-4.84,10.14,10.14,0,0,1,1.18-4.68c-1.64-.25-3.81,1.76-5,3.49a14.83,14.83,0,0,0-1.93,3.75c-.19.49-.29,1-.46,1.53a14.34,14.34,0,0,1-2.66,4.39,33.42,33.42,0,0,1-4.8,4.1h0a37.93,37.93,0,0,1,12.79,5.35,33.11,33.11,0,0,0,1.54-5.43"/></g></g></svg>