<svg xmlns="http://www.w3.org/2000/svg" viewBox="0 0 745.51 264.96"><defs><style>.cls-1{fill:#94a3b7;}</style></defs><g id="Layer_2" data-name="Layer 2"><g id="Layer_1-2" data-name="Layer 1"><path class="cls-1" d="M338.39,120.15a100.69,100.69,0,0,0-7.67-30c-8.23-19.32-20.89-35.32-37.07-48.54C266,19,234,6.77,199,1.9A209.33,209.33,0,0,0,165.41.06a213.45,213.45,0,0,0-33.2,3.23A198,198,0,0,0,74.29,23c-19,10.07-35.94,22.84-49.37,39.85C8.39,83.79-.54,107.38,0,134.3a106.47,106.47,0,0,0,5.21,31.29c6.69,20.31,18.6,37.22,34,51.82A161.73,161.73,0,0,0,79.71,245a192.55,192.55,0,0,0,68.4,19c8.86.79,17.8.91,26.71,1a189.18,189.18,0,0,0,33.48-3,187.91,187.91,0,0,0,59-20.59c20.53-11.27,38-26,51.46-45.32,13.24-19,20.36-39.9,20.56-63.14C339,128.62,338.8,124.38,338.39,120.15Zm-37.87,21.11c-.57,15.07-2.87,29.85-8.49,44a107.29,107.29,0,0,1-22.31,35.09c-12,12.46-26.48,21-42.52,27.11a157.09,157.09,0,0,1-33,8.14,154.61,154.61,0,0,1-24.31,1.71c-20.12-.07-39.73-3.09-58.55-10.39A115.06,115.06,0,0,1,71.73,221.5c-14.21-14-23.47-31-28.62-50.18a145,145,0,0,1-4.55-32.13,187.45,187.45,0,0,1,.68-23.94c2.18-24.54,10.64-46.54,26.61-65.49C74.08,40,84,32.36,95.1,26.07a133.43,133.43,0,0,1,44-15.43A188.91,188.91,0,0,1,167.9,7.83a163.52,163.52,0,0,1,41.39,5c9.64,2.37,19.18,5.06,28.18,9.36a106.72,106.72,0,0,1,28.16,19.69c7.56,7.26,14.42,15.11,19.7,24.23a108.7,108.7,0,0,1,12.24,33.66A177.79,177.79,0,0,1,300.52,141.26Z"/><path class="cls-1" d="M471.42,179.68a15.08,15.08,0,0,0-1.79-.21c-2.92-.32-5.72-.92-8.09-2.86a27.55,27.55,0,0,1-6.85-9q-19.59-38.12-39.05-76.31c-1.26-2.48-2.55-3.82-5.35-3.27a8,8,0,0,1-1.39,0c-1.66,0-3.67-.51-4.88.23s-1.61,2.79-2.37,4.26c0,0,0,.08,0,.13q-14.42,30.07-28.84,60.15c-2.68,5.57-5.3,11.18-8.17,16.65-2,3.87-4.93,7.1-9.2,8.63-2,.7-4.11.95-6.16,1.47a3.64,3.64,0,0,0-1.06.74,3.24,3.24,0,0,0,1.12.46q14.7,0,29.42,0c.41,0,.82-.4,1.24-.61a5.9,5.9,0,0,0-1.21-.54c-2-.36-4.13-.5-6.11-1-2.43-.66-3.42-2.2-3.55-4.68a15,15,0,0,1,1.82-7.18c3.44-7.35,6.94-14.68,10.36-22a1.74,1.74,0,0,1,1.87-1.16c7.27,0,14.53,0,21.79,0H427a1.48,1.48,0,0,1,1.64.88c3,6.23,6.13,12.41,9.11,18.66a82.08,82.08,0,0,1,4.18,9.76c1,3.14-.63,5.53-3.91,6-2.82.42-5.69.51-8.54.79a5.55,5.55,0,0,0-1.36.53c.43.21.85.58,1.28.59q20.67,0,41.35,0a1.7,1.7,0,0,0,.68,0,3,3,0,0,0,.62-.56C471.83,180,471.65,179.73,471.42,179.68ZM383.58,140c6.75-14.44,13.42-28.73,20.28-43.39l22,43.39Z"/><path class="cls-1" d="M494.89,182.42v-22.8c.89-.23,1.51-.25,1.87.78,3,8.55,9.26,13.79,17.55,16.64a51.75,51.75,0,0,0,32.79.7c4.53-1.4,8.47-3.88,10.68-8.43,3-6.12,1.19-13.16-4.68-17.6-5-3.77-10.65-6.26-16.4-8.55-6.21-2.48-12.49-4.79-18.69-7.28a47.55,47.55,0,0,1-13.08-7.72c-4.82-4.09-7.71-9.15-7.51-15.66.16-5.12,2.45-9.31,5.9-12.92,5.53-5.79,12.55-8.85,20.19-10.57,10.88-2.45,21.74-1.69,32.57.56a13.23,13.23,0,0,0,4.39.19,4.38,4.38,0,0,0,2.44-1.58,1.68,1.68,0,0,1,2.13-.73v19.74c-.77-.48-1.58-.68-1.7-1.09-2-6.72-6.89-10.66-13-13.38a32.19,32.19,0,0,0-11.44-2.43,38.29,38.29,0,0,0-15.68,2A22.09,22.09,0,0,0,513,99.54a15.65,15.65,0,0,0,3.17,22c4.48,3.45,9.65,5.56,14.84,7.66,7.31,2.95,14.67,5.79,21.88,9A80.13,80.13,0,0,1,563.28,144c9.72,6.1,11.4,19,2.86,27.66-4.68,4.75-10.48,7.48-16.81,9.18-8.17,2.2-16.51,2.32-24.89,1.76a80.63,80.63,0,0,1-19.85-4.13,21.14,21.14,0,0,0-3.8-.76c-1.76-.24-2.54.25-3.24,1.87a11.4,11.4,0,0,0-.69,1.81C496.61,182.43,496.06,182.85,494.89,182.42Z"/><path class="cls-1" d="M738.82,87.43v19.28h-1.44C735,99,729.55,94.35,722.17,92a37.83,37.83,0,0,0-27.06,1.1,19.05,19.05,0,0,0-9.55,8.33,15.5,15.5,0,0,0,4.25,20c4.09,3.19,8.77,5.26,13.53,7.2,7.77,3.16,15.6,6.19,23.3,9.51a48.31,48.31,0,0,1,12.72,7.51A17,17,0,0,1,742.1,169c-3.66,5.13-8.83,8.16-14.56,10.39a55,55,0,0,1-17.32,3.33,84.42,84.42,0,0,1-32-4.34,19.56,19.56,0,0,0-4.48-.69,2.2,2.2,0,0,0-2.29,1.66,13.67,13.67,0,0,0-.71,1.94c-.24,1.06-.77,1.52-2,1.15V159.59c.72-.11,1.42-.37,1.79.71,3,8.55,9.2,13.82,17.5,16.7a52.09,52.09,0,0,0,32.92.75,17.26,17.26,0,0,0,9.47-6.44c4.58-6.56,3-14.78-3.74-19.79-4.94-3.66-10.52-6.12-16.19-8.38-6.39-2.53-12.83-4.92-19.2-7.5a46.55,46.55,0,0,1-12.68-7.58c-9.38-8-9.91-20-1.27-28.72,5.54-5.62,12.47-8.64,20-10.34,10.83-2.43,21.65-1.68,32.43.55a13.78,13.78,0,0,0,4.39.22,4.26,4.26,0,0,0,2.48-1.5C737.26,87.53,737.75,87.1,738.82,87.43Z"/><path class="cls-1" d="M641.08,89.33c.42,1.27-.49,1.12-1.12,1.22a49.57,49.57,0,0,0-6,1c-3.33,1-6.1,2.72-6.79,6.51a13.11,13.11,0,0,0-.18,2.34c0,22.48.11,45-.06,67.43-.06,6.95,2.61,9.21,8.54,11,1.48.45,3.09.51,4.62.81a4.17,4.17,0,0,1,1.1.62c-.4.17-.8.5-1.2.5q-10.49,0-21,0H598.94c-.52-.93-.12-1.15.72-1.17a21,21,0,0,0,8.31-1.88,7.91,7.91,0,0,0,4.95-7.66q0-35,0-70.06c0-4.27-1.6-6.71-5.64-8A58.6,58.6,0,0,0,600,90.55c-.65-.12-1.62.06-1.14-1.22Z"/></g></g></svg>