<svg xmlns="http://www.w3.org/2000/svg" viewBox="0 0 792 137.3"><defs><style>.cls-1{fill:#94a3b7;fill-rule:evenodd;}</style></defs><g id="Layer_2" data-name="Layer 2"><g id="Layer_1-2" data-name="Layer 1"><path class="cls-1" d="M36.35,64.4S21.49,80.65,20.1,80.65s-7,1.4-1.39-4.17S34.49,54.65,39.6,47.22c5.57-7.43,16.25-25.07,18.11-27.86s2.79-4.64,7.43-4.64,2.78,5.57-2.32,11.61-20.9,29.25-20.9,29.25,9.29,0,39-18.11C110.18,19.36,106,10.08,101.36,8.22c-5.11-1.86-33-1.86-57.58,10.68C18.71,31.44,15.92,35.15,6.63,40.26c0,0-5.1,3.25-6.5.46-1.39-2.32,8.36-8.82,20-15.32S56.78,6.83,71.17,3.11s39.94-6,42.26,4.65C114.82,18,98.11,43,36.35,64.4Zm52,.47S76.75,76,70.25,74.62s4.18-15.79,7.89-19,14.39-12.07,20.43-9.75,4.18,9.75-.93,15.79c0,0,21.36-14.4,26.93-18.58,5.57-4.64,7.9,4.65.47,10.22,0,0,22.28-12.07,30.64-13.47C164,37.94,165.9,41.65,164,44s-7.43,3.72-18.57,7.9c-11.15,4.64-24.61,15.32-26.93,16.71s-7.9,2.79-5.58-2.32,5.11-8.82,3.72-9.29-9.29,5.58-14.4,10.22c-5.1,4.18-7.89,5.11-10.67,4.64-3.72-.46-1.4-5.57-3.26-7Zm0-7.9s-2.32,7.9-7.42,7.9c-4.65,0,8.82-13.47,7.42-7.9ZM139.89,72.3c-.46,0-5.57-5.58,2.79-12.08,8.36-6,23.68-15.78,26.93-11.14s-6.5,11.14-6.5,11.14c0,.93,3.72,6.5,22.29-6,0,0,17.18-15.32,31.11-10.22,0,0,13-11.14,17.18-11.61,3.25,0,8.36,0,3.71,4.65-5.1,4.18-25.07,22.29-26.46,23.68s-1.4,4.18,1.85,4.64,25.54-13.93,29.72-16.25,7.89-4.18,9.29-2.79-.93,4.65-6,9.29-4.64,5.57-2.78,6,7.89-4.18,14.39-7.9,20-11.6,20.43-12.07a18.49,18.49,0,0,0,1.39-1.86h12.54s1.86,8.36-1.86,11.61c0,0,13.93-11.61,19.5-11.61,5.58.47,7.43,6.5,3.25,10.22-4.17,4.18-12.07,12.07-19,11.14,0,0,.46,3.72,8.82,3.72,0,0,14.39,0,32.5-10.68,0,0,7.9-3.72,1.86,4.64,0,0-41.33,31.11-56.18,4.18,0,0-18.11,18.57-30.65,2.32,0,0-19.5,12.07-20.89,0,0,0-33,20-31.11,0,0,0-26.47,19.5-25.08.93,0,0-15.78,7.43-14.39-1.86-.47.93-11.61,8.83-18.58,7.9Zm18.58-16.25c2.32,1.39-8.36,11.14-11.15,8.82-1.85-1.86,10.22-9.75,11.15-8.82ZM185.4,65.8S184,63,190.51,57.9c6-5.11,9.75-5.11,10.21-4.18,0,.93.47,1.86-6,7-7,4.64-7.9,5.11-9.29,5.11Zm73.36-4.18V59.3L275,50s1.86,7.89-6.5,11.61Zm45.51-12.54s.92,2.32-3.72,5.11-8.82,4.64-4.18-1.4c4.65-5.57,7.9-3.71,7.9-3.71ZM252.26,37c2.32,0,4.65,1.39,4.65,2.78s-1.86,2.79-4.65,2.79c-2.32,0-4.64-1.39-4.64-2.79S249.48,37,252.26,37Zm152.3-22.29s3.25-.93,3.72.46-4.65,3.25-10.68,7c-6.5,3.71-14.86,12.07-16.72,14.86-1.86,3.25,2.79,4.18,7.43-.47,4.64-4.18,26.93-18.57,31.57-20s9.75,1.39,6,9.75c-4.18,8.36-48.29,54.32-68.26,52.47-20.43-1.86-1.85-26.47,7.43-35.76,8.83-9.75,28.33-26.46,39.47-28.32Zm4.18-7s6.5.46,7.43,3.71,6.5-1.39,10.68-1.39c3.71-.47,14.86,3.71,7.89,18.57-7,14.39-56.18,60.83-78,59-21.36-1.86-22.29-25.07,1.85-46.9,23.22-21.82,31.11-29.25,50.15-33Zm7.89,46s2.32-1.85,3.25-.93.47,2.33-2.78,5.58c-2.79,3.71-3.25,6.5,1.39,2.78S429.17,51.4,432,52.33s2.78,4.18-.47,8.82.47,4.65,5.57,1.4c5.11-3.72,8.83-6.5,10.68-3.72S439.85,68.12,436.6,70s-13,3.26-10.22-4.64-3.25-4.18-7.43.47-9.28,7.43-11.14,5.1,1.86-10.68,8.82-17.18ZM484.42,30s1.86-3.71,5.11-3.71c3.25.46,2.32,2.78-1.39,9.75a1.69,1.69,0,0,0-.47,1.39,22.56,22.56,0,0,0,3.26-1.39c5.57-1.86,8.82-3.72,9.75,1.39s-10.22,23.22-6,22.29,11.61-7.89,16.25-10.22,8.36,1.4,8.82,5.58c0,3.71,3.72,2.78,3.72,2.78s1.86-4.64,7.43-10.21,14.39-6,12.07,2.32c-2.79,8.36-11.14,9.75-11.14,9.75-1.4,5.57,9.28,2.79,15.78-1.86,6.5-5.11,9.75-3.71,7.9-.93s-13,11.61-21.36,13-10.22-5.1-10.22-5.1,0,.46-3.25,1.85-7.43,1.4-8.82-3.71-3.25-4.64-5.57-4.64-6.5,6.5-13.47,11.14-8.82,1.39-9.28-.93c0-2.32,2.78-11.61,4.64-16.25S491.39,43,490,43c-.47,0-2.79.93-5.58,1.86-4.64,9.75-10.21,23.68-12.53,24.15-2.79,1.39-8.36,4.64-4.65-5.11a70,70,0,0,1,7-14.86c-3.72,1.39-7.43,2.79-9.75,3.71-6,1.86-6-2.78-6-2.78,5.11-2.32,13-5.57,19.5-8.36,2.33-4.64,4.65-8.36,6.5-11.61ZM529,54.19s-.46,1.86,2.32,1.39,6.5-5.11,5.11-6.5c-1.39-.46-4.64.93-7.43,5.11Zm37.15-11.61S562,45.83,560.57,44s.93-8.82,25.08-16.25c24.61-7.43,35.75-7.89,42.72-7.43,7.42.93,14.85,8.36-3.72,20,0,0,31.58-.47,11.14,25.07,0,0-43.18,40.86-98,38.54,0,0-22.29.47-19.5-8.82,0,0,2.32-11.15,26.47-20.43,0,0,4.64.93-5.11,7,0,0-15.79,9.75-13.47,13.47S575,97.37,614.44,72.3c0,0,22.75-13.47,18.1-21.36s-33.89,2.32-33.89,2.32S588.43,64.4,584.25,64.4s-6-4.18.47-13.93A164.78,164.78,0,0,0,595.4,31.9s-11.61,2.79-29.25,10.68Zm32,2.79s5.11-13.47,6-14.86,19-4.65,20.9-2.79c2.32,1.86,0,7.89-13,13.93-12.07,5.57-13.93,6-13.93,3.72Zm52.47,20.89s18.58-10.21,19.51-19c1.39-8.82-16.26-1.85-22.76,7s-15.32,32.5,18.11,15.32c0,0,4.65,4.18,12.54-4.64,0,0,6,12.07,19.5,0,0,0-2.32,8.36,6.5,8.82s21.82-13,21.82-13-.46,7.89,4.65,7.43,6-6,12.53-6,13-1.86,18.11,0c5.11,2.32,6.5,3.25,13.47,2.79s19-8.82,17.18-12.54-9.29,3.72-16.25,4.64S770,56.51,764,53.26c-6-2.79-12.54.93-18.11,3.25-5.57,1.86-11.61,1.39-4.64-5.57s16.71-15.33,16.25-18.58c-.93-3.25-8.82-1.39-17.18,7-7.9,8.36-25.54,22.75-27.86,23.22s-8.82,0,0-6S724,53.26,724,48.62s-13.93,1.85-17.65,5.57-10.21,7-13,7,1.86-3.71,4.64-7.89-2.78-7-7.42-7-15.33.47-23.22,14.86c-1.39-.46-9.29,10.68-16.72,5.11Zm12.54-18.11s.46,2.79-2.79,5.57-6,3.72-6,1.4c0-2.79,8.36-10.22,8.82-7ZM685,51.4s.93,1.86-2.78,5.11-5.57,4.18-6,2.32c-.93-1.39,7.43-10.68,8.82-7.43ZM353.48,115.94a6.5,6.5,0,1,1-6.5,6.5,6.64,6.64,0,0,1,6.5-6.5ZM153.82,136.37V107.12H165c2.78,0,4.64.47,6,1.86a8,8,0,0,1,2.33,6,8.79,8.79,0,0,1-2.33,6c-.46.47-.92.93-1.39.93h0l.47.46a8,8,0,0,1,2.32,6v6a1,1,0,0,0,.93.92v.93h-5.58a20,20,0,0,1-.46-2.32v-4.64c0-1.39,0-2.79-.93-3.25-.46-.93-1.39-.93-2.78-.93H158v11.14h-4.18Zm5.11-16.25h5.57a3.29,3.29,0,0,0,3.72-3.71,3.29,3.29,0,0,0-3.72-3.72h-6v7.43Zm25.54,16.25h0V107.12h17.64v5.57H189.58v6h11.61v5.57H189.58v7.43h13v5.57H184.47Zm41.79-20.43h0a4.75,4.75,0,0,0-4.64-4.64,6.6,6.6,0,0,0-3.25.93A2.8,2.8,0,0,0,217,115a2.42,2.42,0,0,0,.93,1.86,13.8,13.8,0,0,0,4.18,1.39c3.72.93,6,1.86,7.43,3.26s1.86,3.25,1.86,5.57a9.45,9.45,0,0,1-2.79,7c-1.86,1.86-4.18,2.32-7,2.32a11.82,11.82,0,0,1-7.43-2.32,9.8,9.8,0,0,1-2.79-7.43H216a4.8,4.8,0,0,0,5.11,5.11,8.67,8.67,0,0,0,3.72-.93,2.79,2.79,0,0,0,1.39-2.78,2.57,2.57,0,0,0-1.39-2.33,14.78,14.78,0,0,0-5.11-1.85c-3.25-.93-5.57-1.86-6.5-3.25-1.39-1.4-1.86-3.25-1.86-5.58a8.06,8.06,0,0,1,8.82-8.82,11.44,11.44,0,0,1,7,2.32,15.72,15.72,0,0,1,2.78,7h-3.71Zm26,21.36a9.38,9.38,0,0,1-8.36-4.18A19.85,19.85,0,0,1,240.65,122c0-4.64.93-8.36,3.25-11.14a10.45,10.45,0,0,1,16.72,0A19.77,19.77,0,0,1,263.87,122c0,4.64-.93,8.36-3.25,11.14a9.37,9.37,0,0,1-8.36,4.18Zm0-5.11a5.1,5.1,0,0,0,4.65-2.78,16,16,0,0,0,1.85-7.43c0-3.25-.46-5.57-1.85-7.43a5.26,5.26,0,0,0-9.29,0,15.82,15.82,0,0,0-1.86,7.43c0,3.25.47,5.57,1.86,7.43s2.78,2.78,4.64,2.78Zm22.29,4.18V107.12h11.14c2.79,0,4.65.47,6,1.86a8,8,0,0,1,2.32,6,8.83,8.83,0,0,1-2.32,6c-.46.47-.93.93-1.39.93h0a.45.45,0,0,1,.46.46,8,8,0,0,1,2.32,6v6a1,1,0,0,0,.93.92v.93h-5.57a19.61,19.61,0,0,1-.47-2.32v-4.64a5.44,5.44,0,0,0-.92-3.25c0-.47-.93-.93-2.33-.93h-5.57v11.14h-4.64Zm4.64-16.25h5.57a3.29,3.29,0,0,0,3.72-3.71,3.29,3.29,0,0,0-3.72-3.72h-6v7.43Zm31.11,16.25V112.23h-7.43v-5.57h19.51v5.57H315v24.14H310.3Zm77.54,0V107.12h10.68a8.83,8.83,0,0,1,6,2.32c1.39,1.4,1.86,3.72,1.86,7a15.34,15.34,0,0,1-1.86,7c-1.39,1.86-3.25,2.32-5.57,2.32h-5.57v10.68h-5.58ZM393,121.05h5.11a2.71,2.71,0,0,0,2.32-.93,5.37,5.37,0,0,0,.93-3.25,6.66,6.66,0,0,0-.93-3.25c-.46-.93-1.39-.93-2.78-.93H393v8.36Zm23.22,15.32,8.36-29.25h5.57l8.36,29.25h-5.58l-1.39-6h-8.82l-1.39,6h-5.11Zm11.14-22.28-2.78,11.14h6l-3.25-11.14Zm22.29,22.28h0V107.12h4.64v24.15h12.08v5.57H449.6Zm33,0h-4.65V107.12h7.43l4.18,23.22h0l4.18-23.22h7.43v29.25H496V112.23h0l-4.64,24.14h-4.64l-4.65-24.61h0v24.61Zm60.36-9.75h0c-.46,3.25-1.39,6-3.25,7.9a9.48,9.48,0,0,1-7,2.78,9.11,9.11,0,0,1-7.89-4.18Q522,129,522,122t2.78-11.14a9.11,9.11,0,0,1,7.89-4.18,9.48,9.48,0,0,1,7,2.78c1.86,1.86,2.79,4.18,3.25,7.43h-5.11a5.73,5.73,0,0,0-1.86-3.71,5.25,5.25,0,0,0-3.71-1.4c-1.86,0-3.25.93-4.64,2.79a16.27,16.27,0,0,0-1.4,7.43,16.27,16.27,0,0,0,1.4,7.43,5.09,5.09,0,0,0,4.64,2.78A6.15,6.15,0,0,0,536,130.8a8.69,8.69,0,0,0,1.86-4.18h5.11Zm22.29,10.68a9.37,9.37,0,0,1-8.36-4.18A19.77,19.77,0,0,1,553.61,122c0-4.64.93-8.36,3.25-11.14a10.45,10.45,0,0,1,16.72,0A19.85,19.85,0,0,1,576.83,122c0,4.64-.93,8.36-3.25,11.14a10.55,10.55,0,0,1-8.36,4.18Zm0-5.11a5.1,5.1,0,0,0,4.64-2.78c1.39-1.86,1.86-4.18,1.86-7.43s-.47-5.57-1.86-7.43a5.26,5.26,0,0,0-9.29,0,16,16,0,0,0-1.85,7.43c0,3.25.46,5.57,1.85,7.43a4.67,4.67,0,0,0,4.65,2.78Zm21.36-25.07h5.57l5.11,22.29h0l5.1-22.29h5.11l-7.89,29.25h-4.65l-8.35-29.25Zm32,29.25h0V107.12h17.65v5.57H623.72v6h11.61v5.57H623.72v7.43h13v5.57H618.61Z"/></g></g></svg>