<?xml version="1.0" encoding="UTF-8"?><svg id="Layer_2" xmlns="http://www.w3.org/2000/svg" viewBox="0 0 732.68 186.15"><defs><style>.cls-1{fill:#94a3b7;}</style></defs><g id="Layer_1-2"><g><path class="cls-1" d="M660.24,82.53v18.34c10.09,5.5,22.01,8.25,33.01,8.25,19.26,0,39.43-12.84,39.43-31.18,0-8.25-3.67-16.51-10.09-21.09-3.67-2.75-7.34-4.58-11-6.42-3.67-1.83-8.25-3.67-12.84-5.5-17.42-7.34-25.68-11-25.68-22.01,0-7.34,5.5-18.34,21.09-18.34,11.92,0,22.92,6.42,28.43,16.51l-.92-15.59c-8.25-3.67-16.51-5.5-25.68-5.5-17.42,0-36.68,9.17-36.68,27.51,0,12.84,8.25,20.17,26.59,28.43,4.58,1.83,8.25,3.67,11.92,5.5,3.67,1.83,6.42,2.75,10.09,5.5,6.42,3.67,10.09,10.09,9.17,16.51,0,8.25-5.5,22.01-25.68,22.01-13.75-.92-26.59-10.09-31.18-22.92M19.26,57.77c11.92,3.67,25.68,2.75,37.6-.92,5.5-1.83,22.01-11,22.01-27.51,0-11.92-8.25-28.43-45.85-28.43H0c1.83,1.83,3.67,4.58,3.67,7.34V100.87c0,2.75-.92,5.5-3.67,7.34H22.01c-1.83-1.83-3.67-4.58-3.67-7.34V57.77h.92Zm-.92-52.27h13.75c20.17,0,30.26,9.17,30.26,24.76,0,22.92-23.84,25.68-33.93,25.68-3.67,0-6.42,0-10.09-.92h-.92l.92-49.52ZM618.97,108.21h-12.84c-3.67,0-8.25-1.83-10.09-5.5-6.42-8.25-11-14.67-15.59-20.17-3.67-4.58-6.42-9.17-12.84-9.17h-7.34v29.34c0,1.83,1.83,3.67,3.67,4.58h-19.26c1.83-.92,3.67-2.75,3.67-4.58V40.35c0-1.83-1.83-3.67-3.67-4.58h23.84c25.68,0,31.18,11,31.18,17.42,0,11.92-11.92,17.42-20.17,18.34,4.58,.92,9.17,3.67,11.92,8.25,5.5,8.25,11.92,16.51,19.26,24.76,2.75,1.83,5.5,2.75,8.25,3.67Zm-32.09-54.1c0-4.58-3.67-13.75-17.42-13.75h-9.17v29.34h7.34c9.17,0,18.34-4.59,19.26-15.59h0Zm-94.45,54.1l2.75-11c-4.58,6.42-9.17,6.42-22.92,6.42-6.42,0-11.92,0-14.67-.92v-30.26h22.92c1.83,0,3.67,.92,4.58,2.75v-10.09c-.92,1.83-2.75,2.75-4.58,2.75h-22.92v-27.51h22.01c3.67,0,8.25,.92,11,3.67v-8.25h-47.68c1.83,.92,3.67,2.75,3.67,4.58v62.36c0,2.75-1.83,3.67-3.67,4.58l49.52,.92Zm-100.87-52.27c-.92,9.17-7.34,16.51-15.59,18.34-8.25,2.75-17.42,2.75-25.68,.92v28.43c0,1.83,1.83,4.58,3.67,4.58h-19.26c1.83-.92,3.67-2.75,3.67-4.58V41.27c0-1.83-1.83-4.58-3.67-4.58h24.76c25.68-.92,32.09,11,32.09,19.26Zm-12.84,0c0-10.09-6.42-15.59-19.26-15.59h-8.25v31.18c1.83,.92,4.58,.92,6.42,.92,6.42,0,21.09-1.83,21.09-16.51h0Zm-93.53,0c-.92,9.17-7.34,16.51-15.59,18.34-8.25,2.75-17.42,2.75-25.68,.92v28.43c0,1.83,1.83,4.58,3.67,4.58h-19.26c1.83-.92,3.67-2.75,3.67-4.58V41.27c0-1.83-1.83-3.67-3.67-4.58h24.76c25.68-.92,32.09,11,32.09,19.26h0Zm-12.84,0c0-10.09-6.42-15.59-19.26-15.59h-8.25v31.18c1.83,.92,4.58,.92,6.42,.92,5.5,0,21.09-1.83,21.09-16.51h0Zm-95.37,52.27h-51.35c1.83-.92,3.67-1.83,3.67-4.58V41.27c0-1.83-1.83-4.58-3.67-4.58h47.68v8.25c-2.75-2.75-6.42-4.58-11-3.67h-22.01v27.51h22.92c1.83,0,3.67-.92,4.58-2.75v10.09c-.92-1.83-2.75-2.75-4.58-2.75h-22.92v30.26c2.75,0,9.17,.92,14.67,.92,13.75,0,18.34,0,22.92-6.42l-.92,10.09Z"/><path class="cls-1" d="M66.02,127.46s122.88,48.6,298.02,48.6,298.02-48.6,298.02-48.6c0,0-112.79,58.69-298.02,58.69S66.02,127.46,66.02,127.46"/></g></g></svg>