<svg xmlns="http://www.w3.org/2000/svg" viewBox="0 0 684.5 190.94"><defs><style>.cls-1{fill:#94a3b7;}</style></defs><g id="Layer_2" data-name="Layer 2"><g id="Layer_1-2" data-name="Layer 1"><path class="cls-1" d="M679.66,167.54c0-13.64-8.07-24.45-21.87-24.45-13,0-22.43,10.65-22.43,23.88,0,14.13,9.68,23.89,23.16,23.89,7.43,0,13.56-2.42,18.08-6.94l-3.39-4.6a19.72,19.72,0,0,1-14,5.73c-9.77,0-15.82-7.18-16.39-15.74h36.88Zm-36.88-3.47c.41-6.94,5.17-15.17,14.93-15.17,10.33,0,14.85,8.39,14.93,15.17Z"/><path class="cls-1" d="M616,189.73V157.45c2.1-3.71,8-7.26,12.34-7.26a9.85,9.85,0,0,1,2.83.32v-7.26c-6.21,0-11.46,3.47-15.17,8.31v-7.34h-7.1v45.51Z"/><path class="cls-1" d="M580.88,143.09c-7.42,0-13.31,2.42-18.15,7.5l3.3,4.92a18,18,0,0,1,14-6.29c6.61,0,11.54,3.47,11.54,9.6v8.24c-3.72-4.28-8.88-6.22-15.1-6.22-7.74,0-15.89,4.84-15.89,15,0,9.93,8.23,15.09,15.89,15.09a19.87,19.87,0,0,0,15.1-6.29v5.16h6.94V158.42C598.48,147.36,590.49,143.09,580.88,143.09Zm10.49,37c-2.74,3.71-7.5,5.65-12.5,5.65-6.62,0-11.22-4.12-11.22-9.93s4.6-10,11.22-10c5,0,9.84,1.86,12.5,5.65Z"/><path class="cls-1" d="M529.71,190.86c11.14,0,18.65-5.24,24-12.43L547,174.72a20.84,20.84,0,0,1-17.28,9.12c-13.72,0-24.21-10.65-24.21-25.58s10.49-25.58,24.21-25.58A21.39,21.39,0,0,1,547,141.79l6.61-3.71a28.1,28.1,0,0,0-23.89-12.43c-18.07,0-32.36,13.24-32.36,32.53.08,19.45,14.29,32.68,32.36,32.68Z"/><path class="cls-1" d="M470.64,189.73v-32.2c0-9.92-5-14.52-14.53-14.52-6.86,0-13.07,4-16.3,7.74V126.86h-7.1v62.87h7.1V156.48c2.74-3.71,8-7.1,13.48-7.1,6.13,0,10.25,2.34,10.25,10.33v29.94h7.1Z"/><path class="cls-1" d="M416.65,190.86c4.11,0,6.7-1.21,8.47-2.9l-2.1-5.25a6.79,6.79,0,0,1-4.84,1.86c-3.06,0-4.6-2.42-4.6-5.81V150.51h9.2V144.3h-9.2V131.71h-7.1v12.43H399v6.21h7.51v29.78c.08,6.86,3.47,10.73,10.17,10.73Z"/><rect class="cls-1" x="384.21" y="126.86" width="7.1" height="62.87"/><path class="cls-1" d="M353.38,143.09c-7.43,0-13.32,2.42-18.16,7.5l3.31,4.92a18,18,0,0,1,14-6.29c6.62,0,11.54,3.47,11.54,9.6v8.24c-3.71-4.28-8.88-6.22-15.09-6.22-7.75,0-15.9,4.84-15.9,15,0,9.93,8.23,15.09,15.9,15.09A19.85,19.85,0,0,0,364,184.65v5.16H371V158.42C371,147.36,363,143.09,353.38,143.09Zm10.49,37c-2.74,3.71-7.5,5.65-12.51,5.65-6.62,0-11.22-4.12-11.22-9.93s4.6-10,11.22-10c5,0,9.77,1.86,12.51,5.65Z"/><path class="cls-1" d="M325,167.54c0-13.64-8.07-24.45-21.87-24.45-13,0-22.43,10.65-22.43,23.88,0,14.13,9.68,23.89,23.16,23.89,7.42,0,13.56-2.42,18.07-6.94l-3.38-4.6a19.74,19.74,0,0,1-14,5.73c-9.76,0-15.82-7.18-16.38-15.74H325Zm-36.8-3.47c.4-6.94,5.17-15.17,14.93-15.17,10.25,0,14.85,8.39,14.93,15.17Z"/><polygon class="cls-1" points="269.04 189.73 269.04 126.86 261.21 126.86 261.21 153.9 224.41 153.9 224.41 126.86 216.58 126.86 216.58 189.73 224.41 189.73 224.41 160.92 261.21 160.92 261.21 189.73 269.04 189.73"/><path class="cls-1" d="M620.26,116.45a45.2,45.2,0,0,0,8.56,1c11.3-.24,20-3.55,24.86-15.9L684.5,25.1H665.86L648.75,70.78,631.64,25.1H613.16l26.63,66.66-2.42,5.57c-1.61,3.55-4.6,4.76-9.12,4.76a15.44,15.44,0,0,1-5.4-1Z"/><path class="cls-1" d="M580.72,23.4c-10.33,0-20.66,3.23-28.65,10.33l6.54,11.54a27.66,27.66,0,0,1,19.21-7.74c8.71,0,14.44,4.35,14.44,11v8.88c-4.36-5.17-12.1-8-20.82-8-10.49,0-22.84,5.81-22.84,21.22C548.6,85.3,561,92.4,571.44,92.4c8.56,0,16.3-3.14,20.82-8.39v6.78h17.11V48.26C609.37,29.37,595.65,23.4,580.72,23.4ZM592.1,75c-2.82,3.8-8.31,5.73-13.88,5.73-6.78,0-12.35-3.55-12.35-9.68,0-6.38,5.57-9.93,12.35-9.93,5.57,0,11,1.94,13.88,5.73Z"/><path class="cls-1" d="M512.77,92.4c18.24,0,28.4-9.12,28.4-21.06,0-26.55-38.89-18.32-38.89-28.17,0-3.63,4-6.53,10.33-6.53,8,0,15.49,3.39,19.45,7.58L539,32.36a42,42,0,0,0-26.56-9c-17.27,0-27,9.69-27,20.66,0,25.83,39.06,17,39.06,27.85,0,4-3.55,7.1-11,7.1-8.15,0-17.91-4.52-22.67-9l-7.51,12.1c6.94,6.38,17.92,10.25,29.38,10.25Z"/><path class="cls-1" d="M473.46,90.71V43.26c0-13.48-7.18-19.86-19.28-19.86-10.09,0-18.81,6-22.6,12-2.42-7.51-8.56-12-18.24-12-10.09,0-18.8,6.22-21.47,10.17V25H374.6V90.71h17.27V46.56c2.58-3.71,7.59-7.74,13.56-7.74,7.1,0,9.77,4.35,9.77,10.49V90.79h17.43V46.48c2.42-3.55,7.5-7.58,13.56-7.58,7.1,0,9.76,4.36,9.76,10.49V90.87h17.51Z"/><path class="cls-1" d="M331,23.4c-10.33,0-20.66,3.23-28.65,10.33l6.54,11.54a27.68,27.68,0,0,1,19.21-7.74c8.71,0,14.44,4.35,14.44,11v8.88c-4.35-5.17-12.1-8-20.82-8-10.49,0-22.84,5.81-22.84,21.22,0,14.69,12.35,21.79,22.84,21.79,8.56,0,16.31-3.14,20.82-8.39v6.78h17.11V48.26C359.67,29.37,346,23.4,331,23.4ZM342.4,75c-2.9,3.8-8.31,5.73-13.88,5.73-6.78,0-12.35-3.55-12.35-9.68,0-6.38,5.57-9.93,12.35-9.93,5.57,0,11,1.94,13.88,5.73Z"/><path class="cls-1" d="M271.38,56.17c9.77-2.34,19.86-10.9,19.86-27C291.24,12.35,279.7,0,260.81,0H218.44V90.71h19.29V58.51h14.12l17.84,32.2H291.8ZM258,41.56H237.73V17.11H258c7.74,0,13.56,4.6,13.56,12.26S265.73,41.56,258,41.56Z"/><polygon class="cls-1" points="76.91 13.88 0 13.88 0 90.71 76.83 90.71 76.83 13.88 76.91 13.88"/><rect class="cls-1" x="86.35" y="13.88" width="76.83" height="76.83"/><polygon class="cls-1" points="76.91 100.15 0 100.15 0 176.98 76.83 176.98 76.83 100.15 76.91 100.15"/><polygon class="cls-1" points="86.27 106.85 86.27 177.06 156.49 177.06 86.27 106.85"/><polygon class="cls-1" points="163.18 170.36 163.18 100.15 92.97 100.15 163.18 170.36"/></g></g></svg>