<svg xmlns="http://www.w3.org/2000/svg" viewBox="0 0 776.42 223.95"><defs><style>.cls-1,.cls-2{fill:#94a3b7;}.cls-2{fill-rule:evenodd;}</style></defs><g id="Layer_2" data-name="Layer 2"><g id="Layer_1-2" data-name="Layer 1"><path class="cls-1" d="M96.2,47.48a28.57,28.57,0,0,0,19.11,6.77c5.42,0,18.52-1.35,18.52-8.88a10.52,10.52,0,0,0-.75-4.82c-1.81-4.21-5.72-7.83-11.14-7.83-9.33,0-17.46,5-25.14,9.79-1.66-1.66-6.93-6.77-9.18-6.77-.46,0-.91,1.2-.91,1.5,0,2.56,4.52,5.87,6.33,7.53-6.18,3.46-14.15,8.28-18.23,14A75.82,75.82,0,0,0,61.72,90.84c-.6,4.36-.9,8.88-1.65,13.24-2.71,15.8-13.71,44.41-32.52,45.46-2.71.15-5.27.15-8,.15-5.12,0-14.6-6.77-14.6-12.19,0-12.8,8.28-23.63,20.17-28.15,1.81-.75,12.5-3.61,12.5-5.42a1.91,1.91,0,0,0-1.81-2.11c-4.22,0-19.57,5.88-22.89,8.74C7.53,115.23,0,125.76,0,133.13c0,18.07,12.34,21.38,27.7,21.38,7.23,0,17.91-7.23,22.88-12.34,14.6-15.36,18.67-35.23,21.83-55.4,1-6.47,2.26-13.09,5.11-19.12,3-6.32,12.8-16.41,18.68-20.17Zm414.6,11c-5.57,0-10.84,2.11-16.26,3-9,1.66-18.21,2.56-27.25,3.77-9.93,1.35-20,2.7-30.1,3.15-10.54.46-20.93.16-31.46,1-13.55,1.21-27,3.93-40.5,3.93-10.39,0-20.63-2.26-31-2.56,6.32-4.22,35.37-18.67,35.37-25.75,0-2.25-3.91-3-5.57-3-11.13,0-19.42,10.69-27.69,16.87C330.91,63,325,66.3,320.07,70.66c-10.39-1.2-20.47-4.66-31-4.66-12.94,0-25.74-1.8-38.54-1.8h-7.37c-8.28,0-16.41.29-24.54,2-3.62.75-19.57,3.46-19.57,8,0,3.76,13,8.73,16.26,8.73a2.56,2.56,0,0,0,1.95-1c-.75-3.31-6.77-3-6.77-6.33,0-8.13,36-8.43,42.45-8.43,8,0,15.81,1.81,23.78,1.81,13,0,25.6,2.86,38.09,6-6.93,7.83-12.49,17-19.42,24.84-2.56,2.86-5.72,5.27-8.43,8-3.61,3.61-8.43,10.53-12.95,13.24-6,3.61-10.84,9-16.25,13.71-2,1.65-3.62,3.31-3.62,6.16,0,1.81,1.36,2.56,3,2.56,4.66,0,19.11-16.1,23.47-19.87a201,201,0,0,0,18.52-17.31c9.94-10.69,18.37-24.39,31.32-31.76,12,.9,24.08,2.86,36.12,2.86,23.48,0,46.67-5.12,70.15-6a517.8,517.8,0,0,0,60.82-5.72c4.82-.76,9.63-1.81,14.46-2.41,1.19-.15,2.85-.91,3.3-2.11.6-2-2.56-2.56-4.51-2.56ZM266.49,118.69a2.47,2.47,0,0,0,.45-1.36l-.15-.15-.91.45a29.36,29.36,0,0,1-15.95,4.52,20.77,20.77,0,0,1-4.36-.46l-.61-1c.3-2.71,4.67-5.87,4.67-11,0-3-1.36-3.16-3.92-3.16-7.82,0-19,11.29-24.53,11.29-1.36,0-1.81-1.36-1.81-2.41,0-1.8,5.27-6,5.27-8.58,0-2.71-4.22-3-6.17-3-7.37,0-17.92,9.54-24.74,13.77a11.49,11.49,0,0,0-1.5.86,19,19,0,0,0-2.65,1.54,6.46,6.46,0,0,1-2.57.53,5.61,5.61,0,0,1-5.87-5.87c0-4.52,8.73-10.69,8.73-13.69,0-1.66-2.11-1.66-3.31-1.66-2.41,0-4.82,3-7.83,3-2.11,0-2.26-2.41-6.63-2.41a11.45,11.45,0,0,0-2.26.15c-3.64.71-17.43,12.1-23.26,19.12-2.29,1-5,2.31-7.73,3.61-5.42,2.56-11,5.12-14,5.12a5.84,5.84,0,0,1-4.67-2.71c.15-3.31,13.4-10.39,13.4-23.18,0-.75.15-1.65-.45-2.25a4.14,4.14,0,0,0-3-.76c-3.76,0-7.07,2.26-10.83,2.26-.3,0-.15.15-.9-.9.44-5.28,31.45-26,37.33-30.87,5.11-4.36,9.48-9.48,14.75-13.69,3.76-3,8.28-5.42,11.74-9a2.43,2.43,0,0,0,.91-1.95c0-1.36-1.52-2.26-2.72-2.26-7.07,0-24.23,15.5-30.1,20.47-4.22,3.46-7.53,7.83-11.74,11.44A172.24,172.24,0,0,0,124.1,87.84c-1.66,1.8-3.17,3.75-5,5.56-4.52,4.37-10.54,6.93-15.21,11.29a80.07,80.07,0,0,1-16.41,11.9c-1.65.9-3.46,1.65-5.11,2.55-1.06.61-2.72,1.35-2.87,2.71,0,.46.9.46,1.36.46a120.38,120.38,0,0,0,18.51-11c-1.51,2.26-11.14,14.75-11.14,16.1,0,.61.15,2.11,1.06,2.11,3.76,0,11-11.59,13.54-14.6,3.32-4.22,9.19-8.73,14.31-10.38,2.11-.61,4.36,0,6.32-.91,1.2.6,2.41,1.65,2.41,3,0,5-10.84,12.64-10.84,18.66a5,5,0,0,0,2.11,4.22,11,11,0,0,0,5.57,2.11c2.71,0,5-2.11,7.37-3.31,2.22-1.12,9-3.11,14-5.47a2.44,2.44,0,0,0-.18.8c0,5.72,5.42,6.32,9.94,6.32,9.33,0,13.25-9.17,19-9.17.9,0,1.35.6,2,1.2,1.8,1.5,7.67,2.4,10.08,2.4,1.79,0,7.9-3.14,9.9-5.47,3.86-2.47,6.4-4.3,11.92-4.3.6,0,1.36-.16,1.65.29.46.75.16,1.66.16,2.41,0,5.57-8.88,8.43-8.88,14.45a2.45,2.45,0,0,0,2.55,2.56c3.32,0,25.14-17.16,31.16-17.16,4.37,0,.46,10.09,5.73,10.09,1.65,0,3.31.45,5,.45a19.29,19.29,0,0,0,5.12-.9c3.61-.91,14.75-4.07,17.32-8.13Zm163.3,1.8a5.61,5.61,0,0,1-5.87-5.87c0-4.51,8.73-10.69,8.73-13.69,0-1.66-2.1-1.66-3.3-1.66-2.41,0-4.83,3-7.84,3-2.1,0-2.25-2.41-6.62-2.41a10.8,10.8,0,0,0-2.26.16c-3.31.64-14.91,10-21.41,17a27.41,27.41,0,0,0-3.87,2.24c-4.82,2.86-10.84,6.17-16.71,6.17a7.16,7.16,0,0,1-2.56-.15c-.45-.14,0-1.5,0-1.5,0-4.07,9.33-11.74,9.33-19.57a4.38,4.38,0,0,0-4.06-4.21c-9.34,0-14.15,9.93-20.63,15-2.2,1.78-4.52,3.2-6.74,4.81a6.47,6.47,0,0,1-2.73.6,5.61,5.61,0,0,1-5.88-5.87c0-4.51,8.74-10.69,8.74-13.69,0-1.66-2.11-1.66-3.31-1.66-2.41,0-4.82,3-7.83,3-2.11,0-2.26-2.41-6.63-2.41a10.8,10.8,0,0,0-2.26.16c-4.66.9-25.89,19.26-25.89,23.62,0,5.73,5.42,6.33,9.94,6.33,9.34,0,13.25-9.18,19-9.18.9,0,1.35.6,2,1.2,1.8,1.5,7.67,2.41,10.08,2.41,1.75,0,7.6-3,9.74-5.3,4.77-3.76,9.39-9.76,12.53-9.76a3.61,3.61,0,0,1,3.47,3.46l-.31,1.06c-1.95,2.41-11.43,14.91-11.43,16.41a2.59,2.59,0,0,0,2.4,2.41c6.32,0,11.74-3.47,17.62-5.57,2.1-.75,4.36-.6,6.31-1.66,1-.54,3.37-1.72,5.65-3.07a3.35,3.35,0,0,0-.38,1.26c0,5.73,5.42,6.33,9.93,6.33,9.34,0,13.25-9.18,19-9.18.91,0,1.36.6,2,1.2,1.81,1.5,7.68,2.41,10.09,2.41,2.1,0,10.24-4.37,10.53-6.63l-.75-.6c-2.85.9-4.21,3.31-7.68,3.31Zm-116.65,3.92c-1.66,0-3.31-.61-3.31-2.57a8.6,8.6,0,0,1,.45-2.71c.15-.59,16.26-14,17.16-14.29a5.85,5.85,0,0,1,1.66-.16c1.35,0,3.16.76,3.16,2.41,0,3.92-15.2,17.31-19.12,17.31Zm86.55,0c-1.66,0-3.32-.61-3.32-2.57a8.34,8.34,0,0,1,.46-2.71c.15-.59,16.26-14,17.16-14.29a5.78,5.78,0,0,1,1.65-.16c1.36,0,3.17.76,3.17,2.41,0,3.92-15.21,17.31-19.12,17.31Zm-242.78,0c-1.66,0-3.31-.6-3.31-2.55a8.55,8.55,0,0,1,.45-2.71c.15-.6,16.25-14,17.16-14.3a5.78,5.78,0,0,1,1.65-.16c1.35,0,3.17.76,3.17,2.41,0,3.92-15.21,17.31-19.12,17.31ZM117.42,38.75c2.71,0,12.65,2.41,12.65,5.87,0,5.57-10.09,5.57-13.86,5.57a27.89,27.89,0,0,1-16.4-5.12c6-3.61,10.39-6.32,17.61-6.32Z"/><path class="cls-1" d="M463.41,217.9V198.37l-3.19,9.74H450l8.3,6-3.19,9.8Zm-142.93-9.79-8.31,6,3.2,9.8-8.33-6-8.34,6,3.19-9.8-8.29-6h10.25l3.19-9.76,3.17,9.76Zm117.28,0-8.31,6,3.2,9.8-8.33-6L416,224l3.2-9.8-8.3-6h10.25l3.19-9.76,3.18,9.76Zm-78.19,0-8.3,6,3.19,9.8-8.33-6-8.34,6,3.2-9.8-8.29-6h10.24l3.19-9.76,3.18,9.76Zm39.09,0-8.3,6,3.19,9.8-8.32-6-8.34,6,3.19-9.8-8.29-6H382l3.19-9.76,3.17,9.76Zm41.35-36v-1.72h7.27V182h-1.59v-3.75h-.06a5.32,5.32,0,0,1-5,4.13c-4.63,0-7.24-3.59-7.24-11.72S436,159,440.65,159c4.31,0,6.25,2.82,6.5,6.73h-2c0-2.73-1.49-5-4.47-5-3.24,0-5.21,2.67-5.21,10s2,10,5.21,10c3.05,0,4.73-2.73,4.73-8v-.47ZM268.67,159c4.63,0,7.24,3.59,7.24,11.71s-2.61,11.72-7.24,11.72-7.24-3.59-7.24-11.72S264,159,268.67,159Zm119.4,0c4.63,0,7.23,3.59,7.23,11.71s-2.6,11.72-7.23,11.72-7.25-3.59-7.25-11.72S383.43,159,388.07,159Zm19.82.38h2v16.29c0,3.4,1.45,5,4.44,5s4.45-1.64,4.45-5V159.33h2v16.32c0,4.76-2.32,6.73-6.48,6.73s-6.48-2-6.48-6.73Zm110.69,5.81c0-2.79-1.3-4.48-4.07-4.48a3.94,3.94,0,0,0-4.28,4.07c0,6.76,11,3.05,11,11,0,4.38-2.72,6.64-6.85,6.64s-6.61-2.29-6.61-6.73V175h2v.86c0,2.89,1.52,4.83,4.51,4.83s4.89-1.43,4.89-4.61c0-6.73-11-2.88-11-11.11,0-3.56,2.32-6,6.25-6,4.23,0,6.17,2.16,6.17,6.19Zm-229.76-5.81h6.76c3.78,0,5.87,2.16,5.87,5.68,0,2.74-1.08,5.18-4.09,5.75v.07c2.82.25,3.77,1.87,3.87,5.36l.06,2.47a5,5,0,0,0,1,3.34h-2.38a6.89,6.89,0,0,1-.61-3.18l-.06-1.9c-.13-4-.86-5.27-4.51-5.27h-3.84V182h-2Zm65.61,0h5.45c6.61,0,8.23,3.94,8.23,11.33S366.49,182,359.88,182h-5.45ZM317.89,161h-5.84v-1.71h13.71V161h-5.85v21h-2Zm170.26-1.71h2.54L497.38,182h-2.16l-1.83-6.6h-7.94L483.6,182h-2.15Zm-251.31,0H243c4.37,0,6.22,2.57,6.22,6.41,0,3.49-1.75,6.42-6.92,6.42h-3.4V182h-2Zm223.35,0h2v20.95h9.4V182H460.19Zm-72.12,21.34c3.23,0,5.2-2.67,5.2-10s-2-10-5.2-10-5.21,2.67-5.21,10S384.83,180.67,388.07,180.67Zm-119.4,0c3.24,0,5.2-2.67,5.2-10s-2-10-5.2-10-5.21,2.67-5.21,10S265.43,180.67,268.67,180.67Zm87.78-.39h3.31c4.44,0,6.31-2.22,6.31-9.58s-1.86-9.66-6.31-9.66h-3.31Zm136.49-6.6-3.49-12.76h-.06l-3.5,12.76Zm-254.07-3.24h3.46c2.7,0,4.83-1.21,4.83-4.7s-1.72-4.7-4.83-4.7h-3.46Zm52-.51h3.49c3.21,0,5.08-1.46,5.08-4.44,0-2.77-1.17-4.45-4.86-4.45h-3.71Z"/><path class="cls-1" d="M677.41,142.06a31.75,31.75,0,0,0,9.6,1.31h.8c9.43-.17,22.55-1.84,31.23-6.43,8.44-4.46,26.58-16.87,57.38-28.19-3.21.18-8.4.39-15.44.41-8.9,0-20.75-.35-35.25-1.53h-.09l-.06,0a39.7,39.7,0,0,0-13.08-2.38,28.73,28.73,0,0,0-3.8.24c-8.8,1.15-25.42,4-34.4,10.23-8.4,5.8-25.28,17-38.92,21.87,1.4,0,3.12-.06,5.09-.06,8.76,0,22.4.5,33.82,3.22h.09l.08.06a12.47,12.47,0,0,0,2.95,1.26Z"/><path class="cls-1" d="M699.46,65.6l-.07,0-.08,0s-8.77,1.28-15.69,6.6-20,16.19-24.65,26.06c-4.38,9.23-13.37,27.41-22.75,38.41,6.48-3.94,21.52-12.6,35.25-16.74l.09,0h.3c1,0,5.62-.25,12.64-4.46,8.09-4.85,18.59-12.86,23.82-21.18,5.07-8.08,14.58-27.9,35.58-53.13C737.82,45.23,723,54.44,699.46,65.6Z"/><path class="cls-1" d="M655,43.57s-6.93,5.51-10.24,13.59c-3.12,7.6-8.32,21.76-8.31,32.47q0,1.26.12,2.46c.48,5.77,1.13,14.83,1.13,24.15a119.85,119.85,0,0,1-1.48,20.49c3.61-6.67,12.26-21.72,22.06-32.2l.06-.07.09,0a14,14,0,0,0,2.7-2,33.07,33.07,0,0,0,6.17-8.26c4.53-8.26,9.61-20.46,9.93-30.28,0-1,0-2,0-3.27,0-2.95-.07-6.64-.07-11A289.94,289.94,0,0,1,681.28,0C678,6.54,669.82,22,655,43.56Z"/><path class="cls-2" d="M555,136.65c8.69,4.6,21.79,6.28,31.22,6.44h.8a31.66,31.66,0,0,0,9.61-1.32,12.73,12.73,0,0,0,2.95-1.26l.08-.06.08,0c11.4-2.71,25.06-3.21,33.82-3.21,2,0,3.69,0,5.1.06C625,132.45,608.1,121.2,599.7,115.4c-9-6.21-25.61-9.08-34.39-10.23a29.24,29.24,0,0,0-3.82-.24,39,39,0,0,0-13.08,2.38l-.06,0h-.09c-14.51,1.17-26.35,1.51-35.25,1.51-7,0-12.23-.21-15.44-.39,30.81,11.31,48.94,23.72,57.39,28.18Z"/><path class="cls-1" d="M602.09,119.71c13.73,4.14,28.78,12.8,35.25,16.74C628,125.45,619,107.27,614.59,98,609.92,88.17,597,77.38,589.93,72a37.68,37.68,0,0,0-15.67-6.6l-.08,0-.07,0c-23.53-11.18-38.36-20.39-44.44-24.41,21,25.23,30.5,45.05,35.57,53.13,5.21,8.32,15.73,16.33,23.82,21.18,7,4.21,11.62,4.46,12.63,4.46H602Z"/><path class="cls-1" d="M596.54,49.83c0,4.39-.08,8.08-.08,11,0,1.21,0,2.3,0,3.26.34,9.81,5.39,22,9.94,30.29a32.58,32.58,0,0,0,6.15,8.25,12.89,12.89,0,0,0,2.71,2.06l.09,0,.06.07c9.8,10.48,18.44,25.49,22,32.19A118.57,118.57,0,0,1,636,116.56c0-9.33.65-18.38,1.15-24.16.06-.8.1-1.62.1-2.47,0-10.7-5.19-24.87-8.31-32.47-3.3-8.08-10.21-13.58-10.33-13.71C603.89,22.25,595.7,6.83,592.45.31a289.15,289.15,0,0,1,4.08,49.53Z"/></g></g></svg>