<svg xmlns="http://www.w3.org/2000/svg" viewBox="0 0 757.59 301.83"><defs><style>.cls-1,.cls-2{fill:#94a3b7;}.cls-1{fill-rule:evenodd;}</style></defs><g id="Layer_2" data-name="Layer 2"><g id="Layer_1-2" data-name="Layer 1"><path class="cls-1" d="M739,150.23a1.71,1.71,0,0,0-.22-1c-.14-.15-.49-.21-1.08-.21h-.76V147.3h8.37a7,7,0,0,1,3.83.83,2.86,2.86,0,0,1,1.23,2.57,2.76,2.76,0,0,1-.81,2,5,5,0,0,1-2.42,1.19,3.15,3.15,0,0,1,1.76.88,3,3,0,0,1,.56,1.84l.05,1.42a3,3,0,0,0,.14,1.07.46.46,0,0,0,.43.26.63.63,0,0,0,.5-.36,2.38,2.38,0,0,0,.25-1.25h1.35a4.17,4.17,0,0,1-.75,2.68,2.69,2.69,0,0,1-2.21.93,2.81,2.81,0,0,1-2.23-.78,3.92,3.92,0,0,1-.76-2.59v-1.39a2.2,2.2,0,0,0-.49-1.51,2,2,0,0,0-1.48-.49h-2V158a1.66,1.66,0,0,0,.21,1.05c.14.15.51.21,1.08.21h.91V161h-7.56V159.3h.76c.59,0,.94-.06,1.08-.21A1.64,1.64,0,0,0,739,158v-7.81Zm3.3,2.75h1.22a5.49,5.49,0,0,0,2.74-.45,1.81,1.81,0,0,0,.66-1.62,1.66,1.66,0,0,0-.66-1.5,5.29,5.29,0,0,0-2.64-.44h-1.32v4Z"/><path class="cls-1" d="M21.26,234.08v23.33h2.4a29,29,0,0,0,8.74-1,8.57,8.57,0,0,0,4.54-3.62A12.5,12.5,0,0,0,38.62,246q0-6.09-3.06-9t-9.8-2.9h-4.5m0,26.11v14.93c0,2.88.19,4.7.55,5.45a4.21,4.21,0,0,0,2,1.78,14.41,14.41,0,0,0,5.33.67v1.45H0V283a14.16,14.16,0,0,0,5.33-.67,4.06,4.06,0,0,0,2-1.81q.59-1.1.59-5.42V240.55q0-4.31-.59-5.41a3.89,3.89,0,0,0-2-1.81A14.36,14.36,0,0,0,0,232.67v-1.46H26.47q10.35,0,15.14,1.34a15.26,15.26,0,0,1,7.82,4.95,12.61,12.61,0,0,1,3,8.4,12.25,12.25,0,0,1-4.53,9.75,19.57,19.57,0,0,1-8.12,3.65l13.71,18a26.71,26.71,0,0,0,3.82,4.36,7.36,7.36,0,0,0,4,1.34v1.45h-18L25,260.19Z"/><path class="cls-1" d="M84.3,276.18V263.89a24.51,24.51,0,0,0-7.58,6,7.09,7.09,0,0,0-1.63,4.29,4.37,4.37,0,0,0,1.38,3.18,4,4,0,0,0,3,1.06q2.1,0,4.88-2.2m0,2.87Q77.12,285,71.39,285a8,8,0,0,1-5.59-2,6.8,6.8,0,0,1-2.23-5.19q0-4.2,3.87-7.54t16.85-8.95v-3.69c0-2.77-.17-4.52-.5-5.23A4.06,4.06,0,0,0,82,250.46a5.69,5.69,0,0,0-3-.83,8.14,8.14,0,0,0-4.5,1.15,2,2,0,0,0-1.1,1.64,3.34,3.34,0,0,0,1.18,2.05,4.85,4.85,0,0,1,1.6,3.25A4.25,4.25,0,0,1,74.58,261a5.78,5.78,0,0,1-4,1.33,6.78,6.78,0,0,1-4.45-1.49,4.47,4.47,0,0,1-1.77-3.5,7.78,7.78,0,0,1,2.4-5.38,15.21,15.21,0,0,1,6.68-4,29.28,29.28,0,0,1,8.92-1.37q5.58,0,8.82,2.24a10.51,10.51,0,0,1,4.24,4.79c.4,1.1.59,3.63.59,7.58v14.26a14.79,14.79,0,0,0,.21,3.18,1.82,1.82,0,0,0,.63.94,1.57,1.57,0,0,0,1,.32,3.06,3.06,0,0,0,2.23-1.46l1.26.95A15.08,15.08,0,0,1,97,283.69a10,10,0,0,1-5.09,1.3,8.4,8.4,0,0,1-5.25-1.46,6.54,6.54,0,0,1-2.31-4.48"/><path class="cls-1" d="M120.13,247.75v29.1c0,2.59.33,4.26,1,5s1.91,1.12,3.79,1.22v1.42H103.65v-1.42a5.29,5.29,0,0,0,3.87-1.41c.55-.6.84-2.19.84-4.79V255.41c0-2.6-.33-4.25-1-4.95s-1.89-1.16-3.74-1.26v-1.45h16.48M114.25,230a6.44,6.44,0,0,1,4.62,1.8,5.76,5.76,0,0,1,0,8.57,6.88,6.88,0,0,1-9.17,0,5.82,5.82,0,0,1,0-8.57,6.37,6.37,0,0,1,4.59-1.8"/><path class="cls-2" d="M143.9,247.75v4.75a22.06,22.06,0,0,1,5.8-4.44,13,13,0,0,1,6-1.41,9.86,9.86,0,0,1,6.34,2,9.35,9.35,0,0,1,3.37,4.9c.45,1.5.67,4.36.67,8.61v14.3q0,4.23.8,5.3t3.45,1.29v1.41H150.42v-1.41a4.18,4.18,0,0,0,3.18-1.72c.46-.65.68-2.28.68-4.86V260.12a24.53,24.53,0,0,0-.38-5.7,3.54,3.54,0,0,0-3.27-2.47c-2.41,0-4.65,1.6-6.73,4.83v19.68q0,4.13.8,5.22a4.32,4.32,0,0,0,3.06,1.37v1.41H127.89v-1.41a5,5,0,0,0,3.53-1.49c.47-.56.7-2.27.71-5.09V255.72c0-2.78-.28-4.5-.84-5.18s-1.67-1.12-3.4-1.33v-1.46h16"/><path class="cls-2" d="M192.09,251.6v25.48c0,2.47.28,4,.84,4.64q1.35,1.45,5,1.33v1.42H174.73v-1.42a9.93,9.93,0,0,0,3.74-.54A3.11,3.11,0,0,0,180,281a11.7,11.7,0,0,0,.42-3.94V251.6h-5.72v-3.85h5.72V245l0-1.85a11.86,11.86,0,0,1,4.41-9.42q4.45-3.78,12-3.78c3.45,0,6,.6,7.64,1.81s2.53,2.54,2.53,4a3.9,3.9,0,0,1-1.55,3.07,6.22,6.22,0,0,1-4.12,1.3,5.44,5.44,0,0,1-3.49-1,3.1,3.1,0,0,1-1.26-2.37,8.06,8.06,0,0,1,.25-1.46A5.2,5.2,0,0,0,197,234a1.45,1.45,0,0,0-.51-1.22,2.41,2.41,0,0,0-1.64-.59,2.63,2.63,0,0,0-2.06,1,4.64,4.64,0,0,0-.79,3l.08,6.88v4.68h5.8v3.85h-5.8"/><path class="cls-1" d="M221.36,249.44a5.05,5.05,0,0,0-3.69,1.53c-1,1-1.68,3-2,6s-.47,7.08-.47,12.37a49.57,49.57,0,0,0,.6,7.85,7.33,7.33,0,0,0,2,4.24,4.85,4.85,0,0,0,3.45,1.46,5,5,0,0,0,3.15-1,6.57,6.57,0,0,0,2.19-3.73q.84-3.73.84-15.09,0-6.68-.8-9.14a7,7,0,0,0-2.35-3.67,4.7,4.7,0,0,0-2.87-.81m-.16-2.79a19.17,19.17,0,0,1,9.54,2.47,16,16,0,0,1,6.68,7,21.67,21.67,0,0,1,2.31,10,20.22,20.22,0,0,1-4.24,13.08q-5.13,6.36-14.16,6.36-8.87,0-13.66-5.81a20.55,20.55,0,0,1-4.79-13.48,20.79,20.79,0,0,1,4.87-13.74c3.28-3.94,7.76-5.89,13.45-5.89"/><path class="cls-2" d="M261.15,247.75v8.33q3.92-5.7,6.86-7.54a10.49,10.49,0,0,1,5.66-1.89,4.81,4.81,0,0,1,5.18,5.18,5.64,5.64,0,0,1-1.39,4.08,4.27,4.27,0,0,1-3.28,1.46,6,6,0,0,1-3.87-1.34,19.67,19.67,0,0,0-1.93-1.49,1.91,1.91,0,0,0-1-.24,3.61,3.61,0,0,0-2.3.87A7.93,7.93,0,0,0,262.5,259a25,25,0,0,0-1.35,8.4v8.44l.05,2.2a8.37,8.37,0,0,0,.29,2.87,3.38,3.38,0,0,0,1.47,1.58,9.93,9.93,0,0,0,3.36.58v1.41H245.1v-1.41c1.71-.12,2.86-.55,3.44-1.29s.93-2.74.93-5.93V255.52a14.31,14.31,0,0,0-.34-4,3.17,3.17,0,0,0-1.22-1.62,7,7,0,0,0-2.81-.7v-1.45h16"/><path class="cls-1" d="M305.14,262.16c0-4.21-.25-7.11-.75-8.68a6.92,6.92,0,0,0-2.27-3.57,3.69,3.69,0,0,0-2.36-.71,4.13,4.13,0,0,0-3.56,2c-1.67,2.33-2.49,5.53-2.49,9.59v1.37h11.43m10.34,2.63H293.92c.26,4.87,1.63,8.72,4.16,11.55a9,9,0,0,0,7,3.26,8.46,8.46,0,0,0,4.59-1.3,17.21,17.21,0,0,0,4.41-4.75l1.43.87q-3.19,6.09-7.06,8.63a16.11,16.11,0,0,1-8.95,2.52q-8.75,0-13.24-6.28a21.12,21.12,0,0,1-3.61-12.57q0-9.21,5.29-14.61a16.92,16.92,0,0,1,12.48-5.46,13.82,13.82,0,0,1,10.35,4.6q4.39,4.55,4.74,13.54"/><path class="cls-2" d="M344.38,246.73l.64,12.52h-1.44c-1.7-3.72-3.49-6.25-5.34-7.61a9.11,9.11,0,0,0-5.46-2,4.24,4.24,0,0,0-2.94,1.1,3.18,3.18,0,0,0-1.22,2.48,3.11,3.11,0,0,0,.84,2q1.35,1.62,7.52,5.54t8.12,6.64a10.08,10.08,0,0,1,2,6.07,12.16,12.16,0,0,1-1.64,6,11.12,11.12,0,0,1-4.62,4.52,14.16,14.16,0,0,1-6.6,1.57,24.22,24.22,0,0,1-7.52-1.65,6.51,6.51,0,0,0-1.73-.43c-.92,0-1.69.65-2.31,2h-1.39l-.67-13.2H322a17.05,17.05,0,0,0,5.17,7.78,10.37,10.37,0,0,0,6.27,2.59,4.73,4.73,0,0,0,3.27-1.13,3.71,3.71,0,0,0,1.31-2.83,4.67,4.67,0,0,0-1.27-3.26,33,33,0,0,0-5.63-4.17q-6.43-4.16-8.32-6.36a10.61,10.61,0,0,1-2.77-7.11,11.11,11.11,0,0,1,3.11-7.65q3.13-3.47,9.08-3.46a13.9,13.9,0,0,1,6.17,1.45,4.35,4.35,0,0,0,1.85.59,2.42,2.42,0,0,0,1.22-.27,8.7,8.7,0,0,0,1.47-1.69h1.43"/><path class="cls-2" d="M367.77,234.31v13.44h9.33v3.89h-9.33V274.3a17.74,17.74,0,0,0,.3,4.12,3.14,3.14,0,0,0,1.13,1.49,2.66,2.66,0,0,0,1.47.56q2.74,0,5.17-3.9l1.26.87Q373.69,285,366.05,285a10.39,10.39,0,0,1-6.35-1.94,8.75,8.75,0,0,1-3.27-4.35,34.41,34.41,0,0,1-.43-7.23V251.64h-5.12v-1.38a52.61,52.61,0,0,0,9-7.35,43.66,43.66,0,0,0,6.52-8.6h1.38"/><path class="cls-1" d="M455.2,230v18.47h-1.63a19.46,19.46,0,0,0-6.9-11.08,18.34,18.34,0,0,0-11.43-3.85,17.63,17.63,0,0,0-9.79,2.87,16.92,16.92,0,0,0-6.52,7.5,32.07,32.07,0,0,0-2.65,13.19,41.85,41.85,0,0,0,1.93,13,17.45,17.45,0,0,0,6.06,8.88q4.11,3,10.67,3a22,22,0,0,0,9.84-2.2,33.22,33.22,0,0,0,9.45-7.59v4.6a31.31,31.31,0,0,1-10,6.8,32.16,32.16,0,0,1-12.1,2.08,36.92,36.92,0,0,1-16.22-3.42A25.26,25.26,0,0,1,405,272.45a26,26,0,0,1-3.83-13.63,27,27,0,0,1,4.25-14.45,29.31,29.31,0,0,1,11.51-10.6A33,33,0,0,1,432.34,230,36.94,36.94,0,0,1,445,232.43a20.65,20.65,0,0,0,4.92,1.41,3.25,3.25,0,0,0,2.3-.9,4.87,4.87,0,0,0,1.32-2.95h1.63"/><path class="cls-1" d="M483.64,276.18V263.89a24.34,24.34,0,0,0-7.57,6,7.09,7.09,0,0,0-1.63,4.29,4.34,4.34,0,0,0,1.39,3.18,3.91,3.91,0,0,0,2.94,1.06q2.1,0,4.87-2.2m0,2.87Q476.46,285,470.73,285a8,8,0,0,1-5.58-2,6.8,6.8,0,0,1-2.23-5.19q0-4.2,3.87-7.54t16.85-8.95v-3.69c0-2.77-.16-4.52-.5-5.23a4.11,4.11,0,0,0-1.81-1.88,5.69,5.69,0,0,0-3-.83,8.14,8.14,0,0,0-4.5,1.15,2,2,0,0,0-1.1,1.64,3.34,3.34,0,0,0,1.18,2.05,4.89,4.89,0,0,1,1.6,3.25,4.28,4.28,0,0,1-1.56,3.31,5.81,5.81,0,0,1-4,1.33,6.82,6.82,0,0,1-4.46-1.49,4.49,4.49,0,0,1-1.76-3.5,7.77,7.77,0,0,1,2.39-5.38,15.25,15.25,0,0,1,6.69-4,29.21,29.21,0,0,1,8.91-1.37c3.72,0,6.67.75,8.82,2.24a10.48,10.48,0,0,1,4.25,4.79q.59,1.65.58,7.58v14.26a13.89,13.89,0,0,0,.22,3.18,1.82,1.82,0,0,0,.63.94,1.57,1.57,0,0,0,1,.32,3.06,3.06,0,0,0,2.22-1.46l1.26.95a15.08,15.08,0,0,1-4.37,4.24,10,10,0,0,1-5.08,1.3,8.45,8.45,0,0,1-5.26-1.46,6.62,6.62,0,0,1-2.31-4.48"/><path class="cls-1" d="M519.35,254.93v16.35a47.12,47.12,0,0,0,.25,6.36,6.54,6.54,0,0,0,2,3.77,6.53,6.53,0,0,0,7.74.27c1-.76,1.89-2.26,2.57-4.52S533,270.86,533,265q0-8.44-2.27-11.59a5.16,5.16,0,0,0-4.42-2.28c-2.41,0-4.71,1.27-6.93,3.81m0-23.72v20.23q4.95-4.8,10.84-4.79a14.05,14.05,0,0,1,7.61,2.24,15,15,0,0,1,5.59,6.28,21.1,21.1,0,0,1,2,9.43,23.19,23.19,0,0,1-2.57,10.91A18.57,18.57,0,0,1,536,283a18.82,18.82,0,0,1-9.8,2.55,14.7,14.7,0,0,1-10.55-4l-6.52,4h-1.42v-46.7a14.63,14.63,0,0,0-.3-3.93,2.93,2.93,0,0,0-1.35-1.61,6.41,6.41,0,0,0-3-.62v-1.46Z"/><path class="cls-2" d="M566.53,231.21v45.64c0,2.59.32,4.26,1,5s1.9,1.11,3.78,1.21v1.42H550.06v-1.42a5.26,5.26,0,0,0,3.86-1.41c.56-.6.84-2.19.84-4.79v-38c0-2.56-.32-4.2-1-4.91s-1.89-1.15-3.73-1.26v-1.45h16.47"/><path class="cls-1" d="M597.15,262.16c0-4.21-.25-7.11-.75-8.68a6.92,6.92,0,0,0-2.27-3.57,3.67,3.67,0,0,0-2.36-.71,4.18,4.18,0,0,0-3.57,2q-2.48,3.5-2.48,9.59v1.37h11.43m10.34,2.63H585.93q.38,7.31,4.16,11.55a9,9,0,0,0,7,3.26,8.46,8.46,0,0,0,4.58-1.3,17.53,17.53,0,0,0,4.42-4.75l1.42.87q-3.19,6.09-7,8.63a16.14,16.14,0,0,1-9,2.52q-8.75,0-13.24-6.28a21.12,21.12,0,0,1-3.61-12.57q0-9.21,5.3-14.61a16.88,16.88,0,0,1,12.47-5.46,13.82,13.82,0,0,1,10.35,4.6q4.41,4.55,4.74,13.54"/><path class="cls-2" d="M650.51,285.57l-10.76-26.94L629.2,285.57H627l-10.46-26.63c-1.58-4.05-2.9-6.7-4-7.93a5.88,5.88,0,0,0-3.19-1.81v-1.45H629.2v1.45a5,5,0,0,0-2.77.55,1.58,1.58,0,0,0-.76,1.26,18.81,18.81,0,0,0,1.35,4l5.76,14.33L638.32,255l-.41-1a10.45,10.45,0,0,0-2.23-3.72,5.54,5.54,0,0,0-2.9-1.15v-1.45h20.13v1.45a5.89,5.89,0,0,0-3,.64,1.59,1.59,0,0,0-.62,1.36,14.06,14.06,0,0,0,1.21,3.82l5.55,14.33,5.05-13.2a13.73,13.73,0,0,0,1.09-3.85,2.87,2.87,0,0,0-.8-2.24,5.44,5.44,0,0,0-3.11-.86v-1.45h11.64v1.45a5.22,5.22,0,0,0-3.06,1.3q-1.14,1-3,5.89l-11,29.18h-2.4"/><path class="cls-1" d="M694.54,276.18V263.89a24.4,24.4,0,0,0-7.56,6,7,7,0,0,0-1.64,4.29,4.34,4.34,0,0,0,1.39,3.18,3.92,3.92,0,0,0,2.94,1.06c1.4,0,3-.73,4.87-2.2m0,2.87q-7.18,5.94-12.9,5.93a8,8,0,0,1-5.59-2,6.8,6.8,0,0,1-2.23-5.19q0-4.2,3.87-7.54t16.85-8.95v-3.69c0-2.77-.16-4.52-.5-5.23a4.06,4.06,0,0,0-1.81-1.88,5.64,5.64,0,0,0-3-.83,8.17,8.17,0,0,0-4.5,1.15,2,2,0,0,0-1.09,1.64,3.37,3.37,0,0,0,1.17,2.05,4.85,4.85,0,0,1,1.6,3.25,4.3,4.3,0,0,1-1.55,3.31,5.82,5.82,0,0,1-4,1.33,6.76,6.76,0,0,1-4.45-1.49,4.47,4.47,0,0,1-1.77-3.5A7.78,7.78,0,0,1,677,252a15.21,15.21,0,0,1,6.68-4,29.26,29.26,0,0,1,8.91-1.37q5.6,0,8.83,2.24a10.39,10.39,0,0,1,4.24,4.79q.59,1.65.59,7.58v14.26a14.79,14.79,0,0,0,.21,3.18,1.89,1.89,0,0,0,.63.94,1.59,1.59,0,0,0,1,.32,3.06,3.06,0,0,0,2.23-1.46l1.26.95a15.08,15.08,0,0,1-4.37,4.24,10,10,0,0,1-5.09,1.3,8.42,8.42,0,0,1-5.25-1.46,6.63,6.63,0,0,1-2.32-4.48"/><path class="cls-2" d="M733.07,286l-12.69-27.22c-1.91-4.11-3.32-6.63-4.25-7.58a7.21,7.21,0,0,0-3.27-2v-1.45h20.88v1.45a5,5,0,0,0-2.9.75,2,2,0,0,0-.84,1.6c0,1,.7,3,2.1,5.9l6.73,14.38,4.58-11.12c1.66-4,2.48-6.71,2.48-8.25a2.86,2.86,0,0,0-1-2.32,6,6,0,0,0-3.62-.94v-1.45h13.15v1.45a5,5,0,0,0-3.14,1.42q-1.22,1.17-4.07,8.12L735.93,286q-4.24,10.21-6.3,12.57a9.29,9.29,0,0,1-7.27,3.3,8.42,8.42,0,0,1-5.68-1.88,5.74,5.74,0,0,1-2.14-4.48,5.1,5.1,0,0,1,1.47-3.76,5,5,0,0,1,3.7-1.51,4.64,4.64,0,0,1,3.37,1.26,5.35,5.35,0,0,1,1.33,3.89,3.8,3.8,0,0,0,.38,1.93,1.19,1.19,0,0,0,1,.43,3.2,3.2,0,0,0,2.14-1.14c1.11-1.1,2.43-3.62,4-7.54l1.21-3.07"/><path class="cls-1" d="M744,142.52a11.58,11.58,0,1,1-11.59,11.56A11.5,11.5,0,0,1,744,142.52m0-2A13.59,13.59,0,1,0,757.59,154,13.57,13.57,0,0,0,744,140.51"/><path class="cls-2" d="M117.16,55V0h-7.61c-1.27,4.81-2.53,8.62-8.36,8.62C93.83,8.62,81.92.25,61.64.25c-48.17,0-56,34.48-56,49.94,0,11.67,0,33.46,43.35,54.26l17,8.11c16.47,7.85,28.39,13.94,28.39,30.92,0,3.3-1.27,22.74-31.69,22.74-32.2,0-46.9-23-52-48.59H3.33v62.62h7.36c1-4.06,2.28-8.62,7.6-8.62,7.86,0,19.27,10,43.35,10,46.64,0,62.86-32.09,62.86-54.4,0-27.63-19.26-42.33-27.88-46.65L59.36,62.11C38.06,51.46,33.29,45.89,33.24,32.19c0-14.31,13.33-17,26.52-17,29.91,0,44.32,22,48.88,39.78h8.52"/><path class="cls-2" d="M258.21,58.56H204v5.83c12.17,1.77,16.9,2.67,14.95,7.35-.83,2-3,2.6-5.32,4.88l-32.45,29.63V4.06H133.74v6.08c12.17,0,12.17,11.91,12.17,14.7V154.13c0,6.09-2,15.21-12.17,15.21v6.09h60.59v-6.09c-12.16-1.77-13.18-4.06-13.18-15.21v-28.9l5.83-6.09,24.09,34c2.79,3.8,6.08,8.62,6.08,11.4,0,4.06-7.1,4.82-10.65,4.82v6.09h59.32v-6.09c-2,0-3.8-.25-6.33-3.8L210.31,97.6c6.59-7.86,20.27-20,25.85-24.59,7.1-5.83,11.92-6.85,22.06-8.62V58.56"/><path class="cls-2" d="M452.58,169.34c-15.46-.76-18.5-4.56-18.5-20V101.4c0-18.51,11.15-24.08,14.95-24.08,8.12,0,7.86,15,22.57,15,12.67,0,16.22-10.4,16.22-17,0-6.08-3.8-19.77-21-19.77-16.48,0-27.89,15.21-33.21,23.07h-.5v-20H385.15v6.08c7.61,1,13.69,2.28,13.69,15v74.53c0,12.68-5.58,13.69-13.69,15.21v6.09h67.43v-6.09"/><path class="cls-1" d="M557.6,150.07c-3.55,4.06-9.38,10.9-18,10.9-9.12,0-12.93-9.12-12.93-17,0-22.05,25.1-29.41,30.93-30.67v36.75m45.63,9.13-2.54,2.54a3.28,3.28,0,0,1-2.53,1c-5.58,0-5.58-4.82-5.58-6.34V90.25c0-23.83-22.56-34.73-50.7-34.73-31.43,0-47.4,15.46-47.4,31.43,0,17.24,13.69,17.24,16.73,17.24,13.18,0,17-9.63,17-14.2,0-9.88-7.6-11.91-7.6-17.24,0-4,5.83-9.12,14.95-9.12,18.76,0,22.31,9.38,22.31,22.31v18.51c-36,10.9-68.19,21-68.19,47.4,0,19.27,15.72,27.12,27.88,27.12,6.09,0,23.84-1.26,40.31-17.74,1.53,7.1,3.55,17.74,21.3,17.74,11.4,0,20.79-6.08,27.88-14.44Z"/><path class="cls-1" d="M618.23,20c0,10.9,8.11,19.51,19.77,19.51A19.21,19.21,0,0,0,657.53,20a19.65,19.65,0,1,0-39.3,0m49.44,149.31c-9.89-1-11.92-6.59-11.92-14.45V58.56H607.08v6.08c9.63,1.78,13.44,3.55,13.44,15v74.53c0,12.17-4.31,12.93-13.44,15.21v6.09h60.59Z"/><path class="cls-2" d="M731.4,169.34c-9.88,0-12.42-7.86-12.42-15.21V4.06H670.81v6.08c12.43,0,12.93,11.92,12.93,14.7V154.13c0,6.09-2.78,15.21-12.93,15.21v6.09H731.4v-6.09"/><path class="cls-2" d="M379.78,58.56H341.5v6.08C347.84,64.9,354,64.9,354,73c0,3.8-1.27,7.1-2.78,11.41L335.5,126.67,317.17,86.19c-2.28-5.58-5.07-12.17-5.07-14.7,0-6.09,6.84-6.34,13.43-6.85V58.56H262.15v6.08c6.34,1,7.61,1,10.65,6.85,1.52,3,9.13,18.76,14.71,32.45l29.1,70.25S301,207.75,301,206.49c0-1-6.6-17.25-18-17.25-15.21,0-20.81,14.83-20.81,18.38,0,8.12,6.85,19.77,23.33,19.77,23.83,0,30.57-14.44,43.24-48.16L366.49,78.58c4.82-12.67,7.71-13.18,13.29-13.94V58.56"/></g></g></svg>