<svg xmlns="http://www.w3.org/2000/svg" viewBox="0 0 682.85 234.28"><defs><style>.cls-1{fill:#94a3b7;}</style></defs><g id="Layer_2" data-name="Layer 2"><g id="Layer_1-2" data-name="Layer 1"><g id="g12"><g id="g14"><g id="g20"><path id="path22" class="cls-1" d="M495.19,191c-31.06,0-56-19.16-56-48.79,0-29.36,25-48.65,56-48.65s56,19.29,56,48.65c0,29.63-25,48.79-56,48.79m0-82.82c-11.34,0-20.27,12.29-20.27,31.11,0,18.57,5.1,36,20.27,36s20.42-17.38,20.42-36c0-18.82-9.08-31.11-20.42-31.11"/></g><g id="g24"><path id="path26" class="cls-1" d="M616.33,191c-31.07,0-56-19.16-56-48.79,0-29.36,25-48.65,56-48.65s56,19.29,56,48.65c0,29.63-25,48.79-56,48.79m0-82.82c-11.35,0-20.28,12.29-20.28,31.11,0,18.57,5.09,36,20.28,36s20.43-17.38,20.43-36c0-18.82-9.09-31.11-20.43-31.11"/></g><g id="g28"><path id="path30" class="cls-1" d="M432.81,170.08a3.15,3.15,0,0,0-2-.71H390.53c11.05-25.44,36.16-34.58,42.09-56.38a48.58,48.58,0,0,0,2-13.63,2.78,2.78,0,0,0-2.78-2.82H356.49a3.39,3.39,0,0,0-2.08.76c-1.81,1.45-3.06,4.73-3.06,8.52v.06c0,3.86,1.38,7.1,3.14,8.6a3.16,3.16,0,0,0,2,.69h39.09c-6.6,20.07-45.94,33.89-45.94,70.05a2.79,2.79,0,0,0,2.78,2.82l78.41,0a3.47,3.47,0,0,0,2.07-.79c1.81-1.46,3.06-4.73,3.06-8.53s-1.39-7.09-3.14-8.61"/></g><g id="g32"><path id="path34" class="cls-1" d="M497.09,82.05c-12.49,0-22.54-7.72-22.54-19.64s10.05-19.59,22.54-19.59,22.55,7.77,22.55,19.59-10.05,19.64-22.55,19.64m0-33.33c-4.57,0-8.15,4.94-8.15,12.52s2.05,14.47,8.15,14.47,8.22-7,8.22-14.47-3.63-12.52-8.22-12.52"/></g><g id="g36"><path id="path38" class="cls-1" d="M385,44.26a1.26,1.26,0,0,0-.77-.27h-31a1.26,1.26,0,0,0-.81.3,4.52,4.52,0,0,0-1.25,3.44,4.68,4.68,0,0,0,1.28,3.45,1.15,1.15,0,0,0,.78.28H362v28.2a1.14,1.14,0,0,0,1.13,1.14h11.07a1.15,1.15,0,0,0,1.14-1.14V51.46h8.85a1.23,1.23,0,0,0,.79-.3,4.47,4.47,0,0,0,1.24-3.43A4.69,4.69,0,0,0,385,44.26"/></g><g id="g40"><path id="path42" class="cls-1" d="M427.71,79.25,413.54,45.58A3.37,3.37,0,0,0,410.66,44H400.34a3.37,3.37,0,0,0-2.88,1.57L383.31,79.25a.82.82,0,0,0-.11.44,1.17,1.17,0,0,0,1.19,1.13h8.1a1.18,1.18,0,0,0,1.09-.69l3.35-8h12.95l3.15,8a1.21,1.21,0,0,0,1.1.69h12.49a1.14,1.14,0,0,0,1.17-1.13,1,1,0,0,0-.08-.44M399.06,66.74l4.89-13,4,13Z"/></g><g id="g44"><path id="path46" class="cls-1" d="M660.44,79.25,646.27,45.58A3.36,3.36,0,0,0,643.39,44H633.08a3.42,3.42,0,0,0-2.9,1.57L616,79.25a1,1,0,0,0-.09.44,1.16,1.16,0,0,0,1.18,1.13h8.1a1.18,1.18,0,0,0,1.09-.69l3.34-8h13l3.14,8a1.17,1.17,0,0,0,1.09.69h12.49a1.16,1.16,0,0,0,1.18-1.13.91.91,0,0,0-.09-.44M631.8,66.74l4.89-13,4,13Z"/></g><g id="g48"><path id="path50" class="cls-1" d="M613,74.93a3.34,3.34,0,0,1-1.53,2.76,27.61,27.61,0,0,1-14.81,4.36c-13,0-23.62-7.89-23.62-19.64s10.61-19.59,23.62-19.59a27.85,27.85,0,0,1,14.58,4.09c.53.34,1.1.85,1.1,1.41a3.6,3.6,0,0,1-1.11,2.08A5.13,5.13,0,0,1,607.54,52a3.15,3.15,0,0,1-1.84-.58,14,14,0,0,0-8-2.57c-5.93,0-10.05,3.42-10.05,13.53s4.06,13.81,10.67,13.81a8.4,8.4,0,0,0,3-.35V65.49l-4.55,0a.88.88,0,0,1-.61-.24,4.32,4.32,0,0,1-1-3,4.14,4.14,0,0,1,1-3,.88.88,0,0,1,.63-.28h15.12A1.13,1.13,0,0,1,613,60Z"/></g><g id="g52"><path id="path54" class="cls-1" d="M566.57,45.15A1.13,1.13,0,0,0,565.43,44h-8.95a1.13,1.13,0,0,0-1.14,1.13V66.29L542,46.3A4.73,4.73,0,0,0,537.89,44H527.35a1.12,1.12,0,0,0-1.13,1.13V79.69a1.13,1.13,0,0,0,1.13,1.13h9a1.13,1.13,0,0,0,1.13-1.13V61l12.49,18.36a3.24,3.24,0,0,0,2.68,1.47h12.82a1.14,1.14,0,0,0,1.14-1.13Z"/></g><g id="g56"><path id="path58" class="cls-1" d="M475.39,79.58c0-1-1.43-.86-5.54-6.28-4.69-6.23-7.15-7.74-12.32-9.37,0,0,10.82.11,10.82-10,0-7.21-6.77-9.94-17.6-9.94H435.58a3.22,3.22,0,0,0-3.24,3.22V79.69a1.14,1.14,0,0,0,1.14,1.13h11.07a1.13,1.13,0,0,0,1.13-1.13V49.63h3.07c.6,0,5.84.2,5.84,5.62,0,5.58-3.93,6.39-5.74,7-1.12.35-1.32,1.45,1,5.47A62.27,62.27,0,0,0,457.42,78a9.25,9.25,0,0,0,2.41,2c2,1.32,6.39,2,10,1.8,5.24-.22,5.57-1.73,5.57-2.26"/></g><g id="g60"><path id="path62" class="cls-1" d="M334,201.68c-3-1.41-13.75-4.58-22.91-9.31-11-5.68-29.82-22.05-29.82-22.05-9.66-8-17.47-3.43-17.75-3.25-5.62,2.68-7.36,7.49-7.51,12.12a31.85,31.85,0,0,0,2.55,12.27c.39.88.36,1.09.06,1.18-4.16.93-5.52,2-5.67,6.43-.08,15.17,36.46,33.31,53.72,35,8.2.81,15.65-.69,22.56-7,13.91-12.68,11.31-22.3,4.77-25.37"/></g><g id="g64"><path id="path66" class="cls-1" d="M247.38,187.33c-1.44,2.68-6.09,3-10.4.68s-6.61-6.36-5.18-9,6.1-3,10.39-.68,6.63,6.36,5.19,9.05"/></g><g id="g68"><path id="path70" class="cls-1" d="M232.46,206.48a98.21,98.21,0,0,1-57,18.15c-52.78,0-95.22-41.69-98.33-93.87a2,2,0,0,1,3-1.63c6,3.69,19.29,11.3,35.78,12.48,1.46.13,3.54,0,4.35,2.23s3.77,10.07,22.46,22.27c1,.63,1.24.92,1.06,1.55,0,0-.83,3.44-6.24,2.61-8.61-1.33-13.38-8.74-16-10.37a4.2,4.2,0,0,0-3-.42c-2.9.6-15.56,4.41-13.89,18.39.81,6.93,7.07,20.28,28.29,25.72,4.18,1.18,28.05,4.16,46.25-9.93,1.6-1.14,3.86-2.83,10.21.23A91,91,0,0,0,229.56,202l3.18-.12c1,0,1.84.35,2,1.31s-.58,2.15-2.25,3.32"/></g><g id="g72"><path id="path74" class="cls-1" d="M252.74,104.05c-.48,2.24-.42,2.84.79,4.47a75,75,0,0,1,12,19.76c.44,1.08,1.2.77,1.72.08,1.61-2.17,5.64-11,2.82-23.91-8.78-43-50.62-75.05-94.59-75.05-18.48,0-42.7,7.5-57.34,18.33-.8.58-1.58,1.18-2.31,1.78-1.76,1.47-3.48,3.05.53,3.42,5.78.47,14.32.71,22.87,1.33,17.16,1.22,36.09,5,48.27,9.58,20.15,7.56,27.8,14.32,32.77,18,1.17.88,1.58,1,1.92.72s.47-1.27,0-2.93-2.5-5.12-7.72-9.29c-2.72-2.2-2.32-2.94-.75-4.3a15.78,15.78,0,0,1,10.5-3.57c5.17,0,15.17,2,22.12,9.2,0,0,11.27,10.2,6.43,32.41"/></g><g id="g76"><path id="path78" class="cls-1" d="M154.58,62.76c-5.11-.76-10.3-1.34-15.33-1.7-8.2-.58-22.14-1.27-22.14-1.27-41.49-2.68-67-39.09-73.68-46.08C26.7-5.39,14.24-.17,7.78,3.76-.7,8.87-.43,17.66.37,22.44c3.4,21.15,20,34.15,33.64,41.45A121.63,121.63,0,0,0,64.94,75.07C79.4,77.87,80.19,85.7,80.21,85.75A18.83,18.83,0,0,0,85.11,97c1,1.2.46,1.69-1.15,1.12A31.39,31.39,0,0,1,68,85.85c-1.14-1.86-1.8-1.6-2.85-1.37-4.3,1.15-7.15,3.25-8.51,6.28-2.73,6.06.75,12.41,1.7,13.88,15.88,24,56.2,28,87.23,27.15a381.46,381.46,0,0,0,64-7.7c1.13-.22,1.46.48.52,1.27-3,2.49-18.08,7.92-32.8,12.36l-.88.25.85.33c44.43,17.45,74.09,1.06,74.42.89,1.6-.76,3.8-2,2.64-4.4-17.21-34.31-55.54-65.85-99.76-72Z"/></g><g id="g80"><path id="path82" class="cls-1" d="M680.94,187.81a6.52,6.52,0,0,1-9.2,0,6.51,6.51,0,0,1,4.6-11.11,6.51,6.51,0,0,1,4.6,11.11m-8.56-8.57a5.7,5.7,0,0,0,0,7.95,5.63,5.63,0,0,0,7.94,0,5.69,5.69,0,0,0,0-7.95,5.59,5.59,0,0,0-7.93,0m3.83.37a5.3,5.3,0,0,1,1.95.25,1.77,1.77,0,0,1,1.11,1.81,1.55,1.55,0,0,1-.7,1.41,3,3,0,0,1-1,.36,1.62,1.62,0,0,1,1.23.68,2,2,0,0,1,.39,1.11v.51a4.87,4.87,0,0,0,0,.54,1.26,1.26,0,0,0,.05.38l0,.09H678.1a.15.15,0,0,0,0-.08.14.14,0,0,0,0-.07l0-.24v-.55a1.77,1.77,0,0,0-.66-1.65,3.13,3.13,0,0,0-1.4-.22h-1v2.81h-1.27v-7.14Zm1.36,1.12a3.22,3.22,0,0,0-1.52-.27H675v2.59h1.13a3.61,3.61,0,0,0,1.2-.15,1.13,1.13,0,0,0,.74-1.13,1.08,1.08,0,0,0-.48-1"/></g></g></g></g></g></svg>