<svg xmlns="http://www.w3.org/2000/svg" xmlns:xlink="http://www.w3.org/1999/xlink" viewBox="0 0 785.2 237.35"><defs><style>.cls-1{fill:none;}.cls-2{fill:#94a3b7;}.cls-3{clip-path:url(#clip-path);}.cls-4{clip-path:url(#clip-path-2);}</style><clipPath id="clip-path"><path class="cls-1" d="M318.34,109.65a26.44,26.44,0,0,1-26.43,26.43H232.25a65.3,65.3,0,1,0,86.22-86.23v59.8Z"/></clipPath><clipPath id="clip-path-2"><path class="cls-1" d="M226.62,109.65a63.73,63.73,0,0,0,5.63,26.43h59.66a26.43,26.43,0,1,1,26.43-26.43V50a65.23,65.23,0,0,0-91.72,59.67"/></clipPath></defs><g id="Layer_2" data-name="Layer 2"><g id="Layer_1-2" data-name="Layer 1"><path class="cls-2" d="M194.57,196.92h4.57v39.65h-4.57Zm230.54,39.65h4.58V196.92h-4.58Z"/><path class="cls-2" d="M64.24,223.48l1.18-.13.13,3.53a44.86,44.86,0,0,1-8.63,1.05c-3.14,0-5.5-.92-6.81-2.62S48,220.73,48,216.94c0-7.59,3.14-11.38,9.29-11.38s9,3.27,9,9.81l-.26,3.4H52.73a5.42,5.42,0,0,0,1.18,3.93c.78.78,2.09,1.17,4.18,1.17l6.15-.39M61.63,215a7.58,7.58,0,0,0-1.05-4.45,4.29,4.29,0,0,0-3.4-1.31,4.34,4.34,0,0,0-3.53,1.31c-.79.91-1,2.35-1.18,4.32h9.16Zm15-4.32.66-.26a11.35,11.35,0,0,1,4.19-.92c1.57,0,2.61.52,3,1.44a11.17,11.17,0,0,1,.78,5v11.39h4.58V215.76c0-3.66-.52-6.41-1.57-8s-3-2.49-5.89-2.49a12.27,12.27,0,0,0-5.89,1.84v-1.31H72v21.46h4.71ZM112,223.48l1.18-.13.13,3.53a44.86,44.86,0,0,1-8.63,1.05c-3.15,0-5.5-.92-6.81-2.62s-2.09-4.58-2.09-8.37c0-7.59,3.14-11.38,9.29-11.38s9,3.27,9,9.81l-.27,3.4H100.49a5.42,5.42,0,0,0,1.18,3.93c.78.78,2.09,1.17,4.18,1.17l6.15-.39m-2.48-8.5a7.66,7.66,0,0,0-1-4.45,4.29,4.29,0,0,0-3.4-1.31,4.38,4.38,0,0,0-3.54,1.31c-.78.91-1,2.35-1.17,4.32h9.16Zm15,12.3V212.36l.92-.39a23.56,23.56,0,0,1,6.28-1.83v-4.71a21.67,21.67,0,0,0-7.33,3v-2.61h-4.58v21.46Zm30.62,3q0,7.07-10.2,7.06c-3.28,0-5.63-.39-7.2-1.31s-2.36-2.48-2.36-4.84a4.88,4.88,0,0,1,.79-2.75,11.07,11.07,0,0,1,2.48-2.48,3.65,3.65,0,0,1-1.43-3.14,6.19,6.19,0,0,1,1.17-2.75l.4-.65c-2.1-1.18-3.14-3.41-3.14-6.42,0-2.61.78-4.44,2.35-5.62a10.21,10.21,0,0,1,6.28-1.83A16.56,16.56,0,0,1,148,206l.66.13,6.67-.13v3.79l-3.53-.26A5.79,5.79,0,0,1,153,213c0,2.75-.66,4.71-2.1,5.76s-3.66,1.57-6.67,1.57a7,7,0,0,1-1.83-.13,6.76,6.76,0,0,0-.66,2.22,1,1,0,0,0,.79,1,16.18,16.18,0,0,0,3.79.39c3.41,0,5.76.53,6.94,1.31,1.44.92,2,2.62,2,5.11m-15.18.39a2.1,2.1,0,0,0,1.18,2.09,10,10,0,0,0,4.06.66c3.4,0,5.23-1.05,5.23-3,0-1.18-.26-1.84-.92-2.1a10.28,10.28,0,0,0-3.66-.52l-4.19-.26a5.93,5.93,0,0,0-1.3,1.44,3.5,3.5,0,0,0-.4,1.7m1.31-14.92a5.38,5.38,0,0,0,6,0,5,5,0,0,0,0-5.76,4.16,4.16,0,0,0-3-.91c-2.62,0-3.92,1.31-3.92,3.79a3.64,3.64,0,0,0,.91,2.88M164,227.28h3.66L165,236.44h4.58l8.12-30.62h-4.58l-4.45,17.53h-1.18L162.9,206h-4.58Zm62-21.85c-3.14,0-5.5.91-6.81,2.61s-2.09,4.58-2.09,8.51.65,6.93,2,8.63,3.67,2.62,6.94,2.62a39.81,39.81,0,0,0,6.54-.79l-.13-3.79-5,.39c-2.23,0-3.8-.52-4.45-1.57s-1.05-2.88-1.05-5.62.39-4.58,1.18-5.5,2.22-1.44,4.32-1.44a48.26,48.26,0,0,1,5,.39l.13-3.66-1-.26a31.88,31.88,0,0,0-5.49-.52m16.88,5.1.65-.26a10.88,10.88,0,0,1,4.06-.66,3.35,3.35,0,0,1,3.14,1.44,11.17,11.17,0,0,1,.78,5v11.39h4.71V215.89c0-3.66-.52-6.41-1.57-8s-3-2.48-5.89-2.48a13.16,13.16,0,0,0-5.88,1.57V196.92h-4.71v30.36h4.71Zm35.32,12.95,1.18-.13.13,3.53a44.86,44.86,0,0,1-8.63,1.05c-3.14,0-5.5-.92-6.81-2.62s-2.09-4.58-2.09-8.37c0-7.59,3.14-11.38,9.29-11.38s9,3.27,9,9.81l-.26,3.4H266.53a5.42,5.42,0,0,0,1.18,3.93c.78.78,2.09,1.17,4.18,1.17l6.28-.39m-2.61-8.5a7.58,7.58,0,0,0-1.05-4.45,4.29,4.29,0,0,0-3.4-1.31,4.34,4.34,0,0,0-3.53,1.31c-.79.91-1.05,2.35-1.18,4.32h9.16Zm15-4.32.66-.26a10.15,10.15,0,0,1,4.05-.92,3.09,3.09,0,0,1,3,1.44,15.05,15.05,0,0,1,.66,5.23v11h4.58V216q0-4.71-.39-5.49l.78-.26a12.59,12.59,0,0,1,4.19-.92,2.89,2.89,0,0,1,2.88,1.44,14.14,14.14,0,0,1,.65,5v11.39h4.58V215.63c0-3.79-.52-6.41-1.57-8s-2.88-2.36-5.5-2.36a15.62,15.62,0,0,0-7.72,2.1c-1.17-1.44-3-2.1-5.49-2.1a11.81,11.81,0,0,0-5.63,1.84v-1.31h-4.58v21.46h4.71V210.66Zm32.58-13.35h4.72v5h-4.72Zm0,8.51h4.72v21.46h-4.72Zm19.63-.39c-3.14,0-5.49.91-6.8,2.61s-2.1,4.58-2.1,8.51.66,6.93,2,8.63,3.66,2.62,6.93,2.62a39.69,39.69,0,0,0,6.54-.79l-.13-3.79-5,.39c-2.22,0-3.79-.52-4.45-1.57s-1-2.88-1-5.62.39-4.58,1-5.5,2.23-1.44,4.32-1.44a47.87,47.87,0,0,1,5,.39l.13-3.66-1-.26a28.67,28.67,0,0,0-5.37-.52m28.13,7.06v9.81a1.76,1.76,0,0,0,.53,1.44,2,2,0,0,0,1.44.53l-.14,3.53a9.37,9.37,0,0,1-5.75-1.57,16.23,16.23,0,0,1-6.94,1.57c-4.32,0-6.41-2.22-6.41-6.8,0-2.23.52-3.8,1.7-4.71a9.33,9.33,0,0,1,5.37-1.71l5.49-.52v-1.57a2.59,2.59,0,0,0-3-3c-1.83,0-4.05.13-6.8.39L355,210l-.13-3.27a36.05,36.05,0,0,1,8.63-1.17c2.62,0,4.45.52,5.63,1.7,1.18.91,1.83,2.74,1.83,5.23m-9.68,5.37a3,3,0,0,0-3,3.27c0,2,.92,3,2.62,3a20.47,20.47,0,0,0,4.58-.66l.78-.26v-5.76Zm17,9.42H383V196.92h-4.71Zm27-20.94-1.3-.26a49.69,49.69,0,0,0-6.68-.65,9.62,9.62,0,0,0-5.75,1.57c-1.57,1-2.23,2.74-2.23,5s.52,3.66,1.57,4.58a12,12,0,0,0,5.1,1.83,23.37,23.37,0,0,1,4.45,1.05,2.28,2.28,0,0,1,0,3.66,6.75,6.75,0,0,1-3.27.52c-1.57,0-3.92-.26-7.46-.65l-.13,3.92,1.31.27a35.16,35.16,0,0,0,6.67.78c2.75,0,4.85-.52,6.28-1.57a5.83,5.83,0,0,0,2.23-5c0-2.23-.52-3.8-1.44-4.71a10.34,10.34,0,0,0-5.1-2,27.81,27.81,0,0,1-4.58-1.05,1.58,1.58,0,0,1-.92-1.57,1.76,1.76,0,0,1,.92-1.7,6,6,0,0,1,3.14-.53c1.57,0,3.92.27,7.32.66Zm49.72,20.94V212.36l.92-.39a23.67,23.67,0,0,1,6.28-1.83v-4.71a21.75,21.75,0,0,0-7.33,3v-2.61h-4.58v21.46Zm27.22-3.8,1.18-.13.13,3.53a44.87,44.87,0,0,1-8.64,1.05c-3.14,0-5.49-.92-6.8-2.62s-2.09-4.58-2.09-8.37c0-7.59,3.14-11.38,9.29-11.38s9,3.27,9,9.81l-.26,3.4H470.65a5.46,5.46,0,0,0,1.17,3.93c.79.78,2.1,1.17,4.19,1.17l6.15-.39m-2.62-8.5a7.67,7.67,0,0,0-1-4.45,5.25,5.25,0,0,0-6.94,0c-.78.91-1,2.35-1.18,4.32h9.16Zm25.39-8.64-1.31-.26a47.7,47.7,0,0,0-6.67-.65,9.65,9.65,0,0,0-5.76,1.57c-1.57,1-2.23,2.74-2.23,5s.53,3.66,1.57,4.58a12,12,0,0,0,5.11,1.83,23.81,23.81,0,0,1,4.45,1.05,2.3,2.3,0,0,1,0,3.66,6.82,6.82,0,0,1-3.28.52c-1.57,0-3.92-.26-7.45-.65l-.13,3.92,1.3.27a35.25,35.25,0,0,0,6.68.78,10.56,10.56,0,0,0,6.28-1.57,5.83,5.83,0,0,0,2.22-5c0-2.23-.52-3.8-1.44-4.71a10.26,10.26,0,0,0-5.1-2,27.81,27.81,0,0,1-4.58-1.05,1.6,1.6,0,0,1-.92-1.57,1.78,1.78,0,0,1,.92-1.7,6,6,0,0,1,3.14-.53c1.57,0,3.93.27,7.33.66Zm7.59,1.83c1.44-1.83,3.92-2.74,7.32-2.74s5.89.91,7.33,2.74,2.22,4.58,2.22,8.38-.65,6.54-2.09,8.37-3.92,2.88-7.46,2.88-6-.92-7.45-2.88-2.1-4.71-2.1-8.37.79-6.55,2.23-8.38m3.53,14c.65,1.18,2,1.7,3.92,1.7s3.14-.52,3.8-1.7a11.89,11.89,0,0,0,1.05-5.62,11,11,0,0,0-1.05-5.5c-.66-1.05-2-1.57-3.8-1.57s-3.14.52-3.79,1.57a11,11,0,0,0-1,5.5,10.57,10.57,0,0,0,.92,5.62m32.32.4-.66.26a11.49,11.49,0,0,1-4.18.91c-1.57,0-2.62-.39-3-1.31a14.46,14.46,0,0,1-.66-5.23V206h-4.71V217.2c0,3.93.53,6.81,1.44,8.38s3,2.35,5.89,2.35a11.81,11.81,0,0,0,5.76-1.83v1.31h4.58V206h-4.58v16.62Zm16.22,4.71V212.36l.92-.39a23.56,23.56,0,0,1,6.28-1.83v-4.71a21.67,21.67,0,0,0-7.33,3v-2.61h-4.58v21.46Zm20-21.85c-3.14,0-5.49.91-6.8,2.61s-2.1,4.58-2.1,8.51.66,6.93,2,8.63,3.66,2.62,6.93,2.62a39.81,39.81,0,0,0,6.54-.79l-.13-3.79-5,.39c-2.22,0-3.79-.52-4.45-1.57s-1.05-2.88-1.05-5.62.4-4.58,1.05-5.5,2.23-1.44,4.32-1.44a47.87,47.87,0,0,1,5,.39l.13-3.66-1-.26a29.68,29.68,0,0,0-5.37-.52m27.22,18,1.17-.13.14,3.53a45,45,0,0,1-8.64,1.05c-3.14,0-5.5-.92-6.8-2.62s-2.1-4.58-2.1-8.37c0-7.59,3.14-11.38,9.29-11.38s9,3.27,9,9.81l-.26,3.4H600.31a5.42,5.42,0,0,0,1.18,3.93c.79.78,2.09,1.17,4.19,1.17l6.15-.39m-2.49-8.5a7.58,7.58,0,0,0-1.05-4.45,4.29,4.29,0,0,0-3.4-1.31,4.34,4.34,0,0,0-3.53,1.31c-.79.91-1.05,2.35-1.18,4.32h9.16Zm25.25-8.64-1.3-.26a47.83,47.83,0,0,0-6.68-.65,9.67,9.67,0,0,0-5.76,1.57c-1.57,1-2.22,2.74-2.22,5s.52,3.66,1.57,4.58a12,12,0,0,0,5.1,1.83,23.37,23.37,0,0,1,4.45,1.05,2.28,2.28,0,0,1,0,3.66,6.75,6.75,0,0,1-3.27.52c-1.57,0-3.92-.26-7.46-.65l-.13,3.92,1.31.27a35.16,35.16,0,0,0,6.67.78c2.75,0,4.85-.52,6.28-1.57a5.83,5.83,0,0,0,2.23-5c0-2.23-.52-3.8-1.44-4.71a10.34,10.34,0,0,0-5.1-2,27.81,27.81,0,0,1-4.58-1.05,1.58,1.58,0,0,1-.92-1.57,1.76,1.76,0,0,1,.92-1.7,6,6,0,0,1,3.14-.53c1.57,0,3.92.27,7.32.66ZM411.37,62.15a14.57,14.57,0,0,0-14.52-14.52H371.73v124.3h39.64V93.16c5.11-7.2,18.85-11.64,29.05-11.64a32.43,32.43,0,0,1,9.81,1.3V44.49c-14.91,0-30.61,8.76-38.86,18.84V62.15ZM484.25,171.8H504V.13H464.37v157a14.57,14.57,0,0,0,14.52,14.53h5.36ZM584.87,44.49c36.77,0,63.59,27.08,63.59,69.21v8.51H559.88c2.36,11.64,13.09,22.11,31.67,22.11,11.12,0,23.42-4.32,30.35-10.6l16.75,24.73c-12.3,11.12-33,16.49-51.95,16.49-38.33,0-67.9-25-67.9-65.42,0-36,27.21-65,66.07-65M559.36,96.43h51.16c-1-8.76-7.46-21.33-25.78-21.33-17.14,0-23.81,12.3-25.38,21.33M120.11,64.11l26,107.56H190.9L240.1,0h-36A14.45,14.45,0,0,0,190,11.12h0l-23.43,103.5L137.26.13H103.11L73.67,114.62,47.63,0H0L46.19,161.46a14.64,14.64,0,0,0,14,10.47H94L120.11,64.11Zm644-16.61h-10.6a14.75,14.75,0,0,0-13.74,9.68v.13L714.93,126.4l-28-78.77H645.19l49.46,126.13s-2,9.29-5.63,14.26c-3.53,4.71-8.63,9.55-17.66,9.69h-6.93v34.67h8.5c23.68-.52,42.53-6.67,52.6-33L785.2,47.63H764.13Z"/><g class="cls-3"><polygon class="cls-2" points="283.8 236.44 170.75 101.67 305.52 -11.38 418.57 123.39 283.8 236.44"/></g><g class="cls-4"><polygon class="cls-2" points="242.98 171.28 191.56 60.84 301.99 9.29 353.41 119.72 242.98 171.28"/></g></g></g></svg>