<svg xmlns="http://www.w3.org/2000/svg" viewBox="0 0 762.52 563.29"><defs><style>.cls-1{fill:#94a3b7;}</style></defs><g id="Layer_2" data-name="Layer 2"><g id="Layer_1-2" data-name="Layer 1"><path class="cls-1" d="M557.22,73.24h0Zm0,0h0Zm0,0h0Zm0,0h0Zm0,0h0Zm0,0h0Zm0,0h0Zm0,0h0Zm0,0h0Zm0,0h0Zm0,0h0Zm0,0h0Zm0,0h0Zm0,0h0Zm0,0h0Zm0,0h0Zm0,0h0Zm0,0h0Zm0,0h0Zm0,0h0Zm0,0h0Zm0,0h0Zm0,0h0Zm0,0h0Zm0,0h0Zm0,0h0Zm0,0h0Zm0,0h0Zm0,0h0Zm0,0h0Zm0,0h0Zm0,0h0Zm0,0h0Zm0,0h0Zm0,0h0Zm0,0h0Zm0,0h0Zm0,0h0Zm0,0h0Zm0,0h0Zm0,0h0Zm0,0h0Zm0,0h0ZM743.36,216.45a54.9,54.9,0,0,0-34.19-5.8c-11.26,1.74-22.27,4-33.38-.37a12.65,12.65,0,0,0-4.54-.37q-41.57,0-83.14,0a17.7,17.7,0,0,0-5.07.72c-2.2.68-4.28,1.71-6.41,2.59-.31-.67-.61-1.35-.92-2,14.08-5.26,24.08-14.57,29.35-28.74,2.09-5.61,3.11-13.32,7.26-16,4.6-3,12.22-1.45,18.53-1.7q40.3-1.59,80.62-3.06v-.3L611.4,158.93c1.47-6.28,2.45-11.58,4.08-16.66.38-1.18,3-2.26,4.58-2.32,14.59-.6,29.2-.9,43.79-1.41,15.13-.54,30.25-1.22,45.37-1.84,0-.37,0-.73,0-1.09l-91.78-2c1.49-6.21,2.78-11.63,4.23-17.68l115-4c0-.33,0-.65,0-1l-113.16-2.41C628.8,87,633.88,66.4,638.84,45.76c5.62-23.37-5.76-41.25-29.64-44C593.25-.13,577,.5,560.9.25A61,61,0,0,0,529,8.06c-1.53.87-4.37,1.23-5.72.4C506.42-2,488.73-1.55,472.5,3.24c-3.85-1.42-6-2.91-8.26-2.93Q441,0,417.77.31c-2.51,0-5,1.57-7.4,2.38C401.83,1.88,393,.37,384.21.32c-41-.26-82-.18-123.08,0-3.16,0-6.32,1.56-9.48,2.4-2.87.21-6-1-9.17-1.14C226.17,1,209.85.47,193.53.26a62.69,62.69,0,0,0-31.3,7.66c-1.75,1-4.68.53-6.78-.13-5.94-1.87-11.64-5.7-17.6-6.06C119.39.63,100.77-.49,82.37.76,57.91,2.43,42.69,15.18,37.07,37.38Q20,105,4.06,172.83c-4.3,18.24,5.65,34,23.87,39.11a68.94,68.94,0,0,0,17.31,2.5c20.84.3,41.69.12,62.53.12H257.35c-1,3.91-2.1,7-2.59,10.2-.91,5.91-3.91,8.17-10.07,8.22-25.29.21-50.58,1.16-75.87,1.35-34.19.26-68.39.06-102.58.06v2.07l183,6.3c-1.55,5.77-2.81,10.45-4.12,15.34l-133,2.95a2.81,2.81,0,0,0,0,.29L242,265.8c-1.23,17-3.29,19.09-18.92,19.47H155.13v2.07l127.22,4.38L183.88,410.05c-.18-5.88.79-11,1.31-16.1,1.2-11.6-3-17.19-14.32-19.21a56.86,56.86,0,0,0-9.76-.78c-14.94-.08-29.89,0-44.83,0-19.7,0-39.4,0-59.1,0a69.84,69.84,0,0,0-10.42.73c-11.26,1.74-16.4,6.44-18.83,17.67-1.64,7.61-3,15.31-3.9,23-.59,5.19-.11,10.51-.11,14.3C21.65,435.35,19,440,18,445,13,468.78,8.49,492.7,3.87,516.6,2.4,524.25-.4,532,.05,539.57c.8,13.35,6.83,22,22.61,22.86,19.47,1,39,.61,58.55.06,6.31-.18,12.41-.6,18.84-.21,19.11,1.16,38.34.47,57.53.34,3.94,0,7.88-1.17,11.82-1.15s8.16,1.16,12.25,1.2c20.25.2,40.47-.84,60.75-.09,19.37.71,38.78.15,58.18.15s19.86-.4,24.1-19.33c1.86-8.26,2-8.33,10.77-6.18,2.13,17.92,9.53,25.32,25.64,25.5,7,.07,14-.13,20.94,0,9.53.25,18.15-1.87,25.46-9.31,3.84,8.32,11.05,9.22,18.74,9.18,9.82,0,19.68.5,29.45-.19,6.36-.45,12.59-2.73,18.91-4a13.51,13.51,0,0,1,5.3.08c6.11,1.26,12.12,3.37,18.28,4,16.11,1.55,32.17-2.19,48.48-.19,12.88,1.58,26.15,1,39.17.14,14.61-1,29.58,3.45,43.86-2.78.64-.27,1.64.38,2.48.43,12.11.83,24.24,2.47,36.34,2.22,16-.34,26.52-10,29.2-24.65,4.23-23.24,9-46.4,13.72-69.54,2.25-10.95,4.71-21.75-3.78-32l8.75-.62q6.61-26.18,13.19-52.26c10.72-42.76,21.61-85.49,32-128.32C765.33,239.6,757.32,223.69,743.36,216.45ZM585.3,253.15q-17.73,69.42-35.81,138.74c-4.56,17.41-16.25,25.95-34.43,26q-21,.07-41.9,0c-18.06-.07-25-8.31-20.69-25.63q17.5-69.66,35.72-139.14c4.17-15.94,15.54-24.08,32.27-24.26,7.42-.08,14.84,0,22.25,0v0c8.08,0,16.16-.21,24.22.05C582.4,229.42,589.13,238.16,585.3,253.15ZM439.17,392.82c-4.23,16.13-16.45,25-33.23,25.07q-21.93.14-43.86,0c-16.95-.1-24.1-9-19.95-25.27q17.67-69.28,35.68-138.48c4.35-16.71,15.53-25.1,32.83-25.26,7.42-.07,14.84,0,22.26,0v0c8.07,0,16.16-.25,24.22.06,15.21.58,21.83,9.12,18.09,23.82Q457.42,322.87,439.17,392.82ZM445,427.08l-.21,2.22c-7.81-.15-14,2.44-17.07,10.62l-6.44-5.78c5.71-2.87,11.09-6,16.81-8.23C440,425.18,442.7,426.63,445,427.08ZM397.09,154.64c1.15,2.31,2.29,4.62,3.61,7.29,6.24-3.82,6.9,3.51,9.38,5-3,7.12-6.08,13.61-8.52,20.32-3.69,10.15-5.73,11.56-16.37,9.18,3.47-14.11,6.81-27.7,10.16-41.3Zm-36.34-45.2c-1.6,1.38-4.52,1.22-8.07,2.07,4.41-18,8.36-34.49,12.47-50.9,3.6-14.38,3.64-14.15,18.4-11.21,7.84,1.56,15.84,2.25,24.95,3.5-4,14.87-8,29.61-12.21,45C383.49,98.38,371.09,100.54,360.75,109.44Zm61.25,5c-1.58-6.36,1.72-9.65,5.43-13.48,2.25-2.32,3.68-5.41,5.55-8.09s3.81-5.16,5.67-7.77c4.58-6.41,9-12.94,13.8-19.19,1.22-1.6,3.59-2.31,5.43-3.43l1.4,2c-7.55,31-15.1,61.92-22.77,93.41-3.84-5.48-7.23-10.56-10.89-15.44a33,33,0,0,0-5.2-4.95c-5.32-4.51-5.3-7.54-1.35-13.22C421,121.56,422.73,117.35,422,114.45Zm57,76.41c-1.2,5.27-3.45,7-8.81,6.79-11-.42-22.11-.13-34.07-.13.83-4,1.33-6.87,2-9.73,9.88-40.11,19.87-80.21,29.59-120.37,1.14-4.71,2.65-5.64,7.51-4.73,10.83,2,21.84,3,33.72,4.58-5.44,22.44-10.8,44.56-16.19,66.67C488.19,152.91,483.36,171.83,479,190.86Zm15.31,20.92c2.19-.35,4.56.43,6.85.71L501,214.4c-7.69,1.75-14.76,12.64-23.68.16,3.33,0,6.45.37,9.44-.12C489.36,214,491.73,212.19,494.33,211.78Zm-76.41-32.1,1.64.37c0,5.52.6,11.17-.5,16.46-.22,1.06-6.91.78-10.61,1.11l-1-1.68Q412.69,187.81,417.92,179.68ZM605.41,99.56H564.26c1.69-7.13,3.15-14,5.12-20.73.31-1.08,3-2.27,4.43-2.09,11.75,1.48,23.47,3.28,35.9,5.08C608.23,87.92,606.87,93.55,605.41,99.56ZM534.58,69.14c-4-.71-8.09-1.21-13.79-2,6.11-15.25,3.33-33.5,19.3-43.62a35.24,35.24,0,0,1,16.58-4.95c14.57-.68,29.2-.29,43.81-.19a29.24,29.24,0,0,1,7.71,1.15c10.39,2.94,14.09,8.45,11.88,19.67-2.48,12.57-5.83,25-9.07,37.38-.37,1.39-2.64,3.45-3.77,3.29C595.09,78.14,583,76.07,570.45,74c2.73-11.07,5.34-21.37,7.75-31.73.57-2.41,2.81-5.82-2-6.62-3.89-.66-6.06,1.25-6.94,5.12-2.12,9.3-4.37,18.56-6.69,27.81a14.48,14.48,0,0,1-1,3.3,3.79,3.79,0,0,1-.44.66,2.5,2.5,0,0,1-.54.49,2.12,2.12,0,0,1-.36.21,2.35,2.35,0,0,1-.37.14h0a1.7,1.7,0,0,1-.34.07h-.11a2.73,2.73,0,0,1-.41,0,3.44,3.44,0,0,1-.54,0l-.34,0a5.4,5.4,0,0,1-.8-.19.2.2,0,0,1,.08,0c.17.06.33.13.48.2s0,0,0,0a.88.88,0,0,1,.2.09,2,2,0,0,1,.35.19,3.49,3.49,0,0,1,.49.33,3.42,3.42,0,0,1,.77.8,3,3,0,0,1,.3.52,2.74,2.74,0,0,1,.17.48,2.22,2.22,0,0,1,.09.37,3.47,3.47,0,0,1,.06.45,12.93,12.93,0,0,1-.54,3.87C558,87.76,556.58,95,554.37,102c-1.65,5.22.52,6.2,4.91,6.17,12.86-.09,25.73-.09,38.6-.13h5.42c-3.72,15.53-7.27,30.42-10.87,45.3q-2.07,8.55-4.32,17.06c-4.8,18.13-12,25.24-30.71,26.48a373.61,373.61,0,0,1-47.67-.42c-11.8-.73-17.53-9-15.17-20.44,2.45-11.92,5.59-23.7,8.77-35.45.48-1.75,2.83-4.21,4.37-4.25,12.39-.35,24.79-.2,38.14-.2-2.47,10.51-4.82,20.53-7.19,30.55-.7,2.95-1.82,5.87-2,8.85-.12,1.9,1.11,3.88,1.73,5.83,2.23-1.31,5.32-2.1,6.48-4,1.59-2.67,1.71-6.22,2.48-9.39,2.65-10.79,5.33-21.57,7.94-32.37.49-2,.72-4.12,1.25-7.19H506.18c3.72-15.36,7.06-29.73,10.71-44C522,64.23,518.47,70,537.37,71.5c6.68.52,13.34,1.23,20,1.86C549.78,72,542.19,70.48,534.58,69.14ZM428.83,20.46c.3-1.09,3.16-2.06,4.86-2.09,10.25-.2,20.51-.28,30.75,0,2.07.07,4.08,2.07,7.3,3.82,8.92-4.4,20.1-5.4,31.44-2.86,10.75,2.41,14.17,7.47,12.43,18.4A230.31,230.31,0,0,1,510,62.48c-.36,1.33-3.51,3-5.13,2.72-11.38-1.59-22.7-3.64-34.93-5.69,1.35-5.92,2.95-11.68,3.86-17.55.3-2-1.13-4.2-1.77-6.3-2.22,1.48-5.64,2.51-6.42,4.55-2.23,5.81-3.39,12-5.15,18.81L455.16,55c-.07.65-.15,1.29-.22,1.93l-34.42-3.83C423.35,41.69,425.87,31,428.83,20.46ZM413.69,80.19c1.55-6.78,3.34-13.51,4.95-20.28.73-3.11,2-5.18,5.73-4.59,9.16,1.46,18.33,2.8,28.7,4.38-12.35,15.7-22.23,32.07-39.79,44.3,4-7.33,5.42-13.13.35-18.8C412.8,84.27,413.31,81.82,413.69,80.19ZM326.87,41.3c9.58,1.61,19.32,2.28,29,3.35q-14.94-2.8-29.88-5.6c-1.66-.31-3.33-.51-6.09-.92,1.54-6.11,2.74-11.78,4.54-17.25.41-1.23,2.95-2.48,4.51-2.49,21.6-.12,43.21-.52,64.78.17,16.71.53,24.06,15.88,15.29,30.64a5.21,5.21,0,0,1-4.31,1.8c-11.53-1.79-23-3.87-34.9-5.92.2-2.81.39-5.53.61-8.56-4.86-1.63-8.39-1.62-10,4.29a1.36,1.36,0,0,1-.11.28,1.82,1.82,0,0,1-.15.27l0,0a2,2,0,0,1-.18.23,10.49,10.49,0,0,1-2.61,1.87c-.15.09-.3.17-.45.27-.3.17-.59.35-.87.53l-.31.22h0a5.61,5.61,0,0,1,1.88,1.15,3.79,3.79,0,0,1,.38.45,2.08,2.08,0,0,1,.22.38,1.36,1.36,0,0,1,.11.25,137155779399.82,137155779399.82,0,0,1,.06.16.07.07,0,0,1,0,.06,0,0,0,0,1,0,0,.38.38,0,0,1,0,.13,0,0,0,0,1,0,0s0,0,0,0a.26.26,0,0,1,0,.11.11.11,0,0,1,0,0,5,5,0,0,1,.07,1.29,10.31,10.31,0,0,1-.26,1.59c-.09.41-.2.84-.31,1.27l-.12.49c-6,24.45-12,48.91-17.72,73.42-.44,1.9.87,4.22,1.36,6.35,2.4-1.39,5.73-2.24,7-4.32,1.8-3,2.09-6.91,3.48-12.17l9.07,7.92c2.13-8.54,12.28-14.13,21.72-12.71.9,4.8,1.58,9.4,2.64,13.91,2.07,8.85.44,12.15-8.1,15.45-1.34.51-2.74.83-4.63,1.39,8.7,6.64,10.95,14.64,8.15,24.5-2.54,9-4.3,18.15-6.81,27.13-.51,1.8-2.82,4.37-4.36,4.41-12.36.36-24.75.21-38,.21,3.68-15.32,7.15-29.74,10.63-44.23-5.78-2.82-8.74-1.18-10,4.33-2.63,11.22-5.49,22.38-8,33.62-1,4.45-2.84,6.63-7.84,6.44-9.8-.36-19.62-.07-29.43-.13-1.86,0-3.73-.38-6.11-.64,5-20.45,9.68-40.27,14.55-60.06,7.32-29.78,14.89-59.5,22-89.34C318.81,41.64,321.18,40.34,326.87,41.3Zm-45.67-23h31c-1.29,5.56-2.24,10.66-3.77,15.57-.4,1.26-2.78,2.92-4,2.73-11.92-1.79-23.8-3.94-35.67-6C269.09,18.85,269.69,18.25,281.2,18.25Zm-93,.74c17.09,0,34.19-.36,51.25.22,5.37.18,11,2.37,13,9.54l-64.33-9.41ZM91.37,196.39c-17.58.93-35.28.85-52.88.08-11.2-.48-17-8.6-14.61-19.35,6-26.73,12.57-53.36,19-80,4.23-17.55,8.61-35.06,12.93-52.59,4.56-18.52,14-26.12,32.9-26.26,12.65-.09,25.3,0,38,0q2,0,3.93.12c15.49.94,21.47,8.84,17.86,24-4.3,18-8.82,35.86-13.24,53.79-1.92,7.78-3.71,15.6-5.83,23.34-.42,1.54-2,3.92-3.15,4-12.79.28-25.58.17-39.07.17C92.27,102.78,97.13,83,102,63.13c1.67-6.77,3.63-13.48,4.93-20.31.42-2.21-.22-6.33-1.45-6.82-4-1.57-6.31,1-7.28,5.07-3.45,14.34-7,28.65-10.53,43Q76.77,129,65.94,174c-.67,2.77-2.78,6.33,2,7.34,4.07.87,5.59-2,6.46-5.61,3-12.72,6.36-25.35,9.29-38.08.93-4,2.55-5.88,7-5.78,11.72.25,23.44.08,36.12.08-4.11,16-7.43,31.26-12.08,46.14C111.26,188.92,102.64,195.8,91.37,196.39Zm116.75,1.23c-11.3-.32-22.61-.1-34.89-.1,3.38-13.56,6.5-25.74,9.38-38,.59-2.5,3.57-6.18-1.61-7.34-4.5-1-6.15,2.11-7,5.82-2.64,11-5.54,21.92-7.8,33-1,5-3.2,6.77-8.31,6.62-11.47-.34-22.95-.11-35.35-.11,4.06-16.57,7.82-31.94,11.6-47.3,8.78-35.68,17.45-71.39,26.47-107a40.55,40.55,0,0,1,6.73-14.63c3.72-4.81,8.3-8.91,15.94-7.71,23.08,3.62,46.26,6.57,70.68,10-.5,4.18-.61,8.66-1.63,12.91C240.44,92.88,228.38,142,216.61,191.15,215.4,196.21,213.13,197.77,208.12,197.62Zm52.18,0c-10.84-.46-21.71-.13-33.46-.13,3-12.64,5.82-24.37,8.71-36.08Q250.3,101.59,265.1,41.75c2.14-8.65,2.16-8.63,10.83-7.46,10.29,1.4,20.58,2.75,31.47,4.21-4,16.77-8,33.4-12.06,50-8.2,33.69-16.64,67.33-24.52,101.1C269.33,196,266.57,197.92,260.3,197.65Zm62.49,75.18H262.27a23.8,23.8,0,0,1,.33-4.3c3.38-11.71,6.67-23.44,10.41-35,.61-1.88,3.28-4.39,5-4.41,30.52-.28,61-.22,91.58-.21.37,0,.74.4,1.65.92-3.43,13.26-6.63,26.77-10.57,40-1,3.3-4.28,5.94-6.64,8.77q-36.62,44-73.26,87.88a21.46,21.46,0,0,0-1.46,2.71H335c-1,3.91-1.76,7.14-2.59,10.37-2.84,11.16-5.49,22.37-8.71,33.42-.58,2-3.49,4.7-5.34,4.72-37.51.26-75,.17-112.54.13a15,15,0,0,1-2.66-.69Zm14.69,57.24c-1.64,6.38-3,12.84-5.13,19.06-.5,1.47-3.38,2.62-5.34,3-2.63.51-5.42.13-9.86.13l19.05-22.85ZM300.25,449c-1.53,8.28-3.28,16.52-5,25H270.11c1.29-8.07,2.88-15.74,3.66-23.49.64-6.47,3.73-8.51,9.85-7.78,3.65.44,7.4,0,11.1.14C298.62,442.91,301,444.77,300.25,449Zm-111-13.1h11.39c.61,6,.57,5.77-4.29,6.62C191.32,443.37,189,441.57,189.27,435.85ZM133,390.37c.29-1.49,2.82-3.59,4.34-3.62,9.77-.21,19.55,0,29.31.26,5.08.15,7.36,2.45,6.11,8.05-1.45,6.53-1.64,13.36-3.32,19.82-.68,2.61-3.72,6.44-5.86,6.56-11.62.64-23.29.3-35.81.3C129.5,410.81,131,400.54,133,390.37Zm13.2,59.42c-1.17,6.84-2.35,13.7-4.1,20.4A6.52,6.52,0,0,1,137.4,474c-6.47.45-13,.18-21.91.18,2.09-10.54,3.86-20,6-29.36.21-.91,2.34-1.92,3.62-2,5.21-.23,10.44-.23,15.65-.07C145.13,442.94,146.87,445.67,146.16,449.79Zm-59-60.88c.2-1,2.64-2.22,4-2.23,9.74-.07,19.49.13,29.24.29,5,.09,7.11,2.55,6.27,7.55-1.37,8.13-2.54,16.3-4.16,24.38a5.46,5.46,0,0,1-3.71,3.49c-4.71.44-9.49.17-15.53.17,1.67-10.83,3.14-20.39,4.61-29.95l-1.73-.38c-.93,4.33-1.89,8.65-2.77,13-.26,1.27-.23,2.6-.41,3.89-2,14.23-6,16.59-21.43,12.27C83.35,410.6,85.07,399.72,87.13,388.91Zm-46.3,2.69c.44-1.9,4.1-4.19,6.38-4.32,9.12-.53,18.28-.41,27.42-.24,4.94.09,6.9,2.88,6,7.85-1.38,7.48-2.68,15-3.79,22.52-.53,3.61-2,5.47-5.92,5.29-4.46-.2-8.93-.05-14-.05.45-3.93.69-6,1.06-9.17-3.88,3.16-1.78,10.39-8.78,9.3-4.19-.65-8.57-.12-14.06-.12C37.07,411.52,38.53,401.46,40.83,391.6ZM98.05,536.33c-2.27,11.64-7.88,16.35-19.76,16.41-4.8,0-9.62.29-14.38-.1-3.26-.27-6.44-1.5-10.85-2.6-10,4.62-21.48,3.71-32.67,1.2-5.76-1.28-7.87-8-6.28-16.7,3.08-16.69,6.37-33.33,9.61-50,2.36-12.17,4.93-24.31,7-36.52.72-4.14,2.59-5.53,6.53-5.35,4.14.2,8.29-.05,12.43.08,6.22.19,7.75,2.08,6.6,8q-8.57,44.32-17.15,88.64l1.49.72c.77-1.75,1.91-3.43,2.27-5.27,5.22-26.24,10.23-52.52,15.52-78.75,3.21-15.92.21-13.1,16.18-13.42,1.74,0,3.49,0,5.23,0,4.71.18,6.84,2.65,5.94,7.26q-8,40.92-16.09,81.82a15.71,15.71,0,0,0,.28,8.51c.86-2.21,2.08-4.35,2.53-6.64C77.93,506.15,83.4,478.6,88.42,451c1.14-6.26,3.38-9.47,10-8.27a15.27,15.27,0,0,0,2.62,0c15.13,0,15.3.19,12.38,15.07Q105.76,497.06,98.05,536.33Zm28.11,16.13h-24.9a100.79,100.79,0,0,1,.88-10.42c3.71-19.65,7.67-39.25,11.29-58.91.9-4.89,2.87-7.3,8.14-6.81,4.1.39,8.27,0,12.4.13,4.8.11,6.57,2.67,5.66,7.28C135.17,506.44,130.73,529.15,126.16,552.46Zm26.55.38c-5.84-.43-11.74-.1-19.88-.1,1-6.67,1.72-12.57,2.84-18.38,5.45-28.42,11.13-56.8,16.43-85.25.89-4.82,2.74-6.92,7.65-6.44,2.81.28,5.67,0,8.5.05,10,0,11.16,1.41,9.32,10.88q-9.1,46.65-18.19,93.31C158.66,550.66,157.43,553.19,152.71,552.84Zm49.41-.11c-3.49,0-7,0-10.46,0-3.71,0-7.42-.12-11.12,0-10.19.38-15.32-5.71-13.69-15.91,3.57-22.35,8.12-44.54,12.65-66.72,1.95-9.49,7.9-13.9,17.63-14.44a43.16,43.16,0,0,1,7.19,0c5.15.59,7.9-1.57,8.17-6.69s2.93-6.7,7.74-6.33c4.12.31,8.3-.16,12.42.17s6.84,1.81,5.78,7.11c-5.87,29.12-11.34,58.33-17.25,87.44C218.85,548.81,213.6,552.66,202.12,552.73Zm42.75-.2c-6.47.5-13,.2-21.29.2,1.49-8.85,2.65-16.7,4.15-24.5C232.78,502,238.05,475.77,243,449.5c.92-4.86,2.68-7.39,8-6.86,4.1.41,8.27,0,12.4.14,4.79.15,6.61,2.94,5.74,7.4-6.39,32.75-12.8,65.5-19.47,98.19C249.35,550.08,246.63,552.4,244.87,552.53Zm30.1.3c-6.07-.35-12.16-.09-19.93-.09.52-4.89.68-9,1.43-12.88,3.73-19.45,7.69-38.84,11.36-58.29.7-3.7,2.25-5.32,6-5.19,5,.17,10-.15,15,.16,3.72.23,5.77,1.74,4.82,6.39-4.36,21.43-8.45,42.93-12.42,64.44C280.55,551.25,279.23,553.07,275,552.83Zm55.71-95.47c-3.37,17.52-6.73,35-10.25,53.33h20.2c3.95,0,7.57.36,7.46,5.71-.14,7.6-1.77,9.77-7.83,9.84-5.89.07-11.78.18-17.66,0-3.82-.14-6,.71-6.56,5.06a150.55,150.55,0,0,1-3.54,17.82c-.35,1.41-2.22,3.41-3.48,3.47-6.9.34-13.82.16-21.15.16,0-3.72-.48-6.78.07-9.65q7.94-41.68,16.2-83.32c2.25-11.43,5.77-15.5,17-16.47a140.71,140.71,0,0,1,28,.77c7.3.85,11.46,8.38,10,15.55-2.88,14.68-5.87,29.33-8.42,44.07-.74,4.31-2.35,6.05-6.73,5.86-5.85-.26-11.73-.07-18.92-.07.63-17.92,6.67-34.55,8.21-51.7ZM419,460c-3,15.79-6.28,31.54-9.13,47.37-.65,3.62-2.18,4.72-5.58,4.65-6.54-.14-13.08.08-19.62-.06-3.35-.06-5,.83-5.51,4.6-1.08,7.77-2.87,15.44-4.37,23.16l2.42.55c1.09-4.61,2.2-9.22,3.27-13.84,3.28-14.24-.56-12.89,15.23-13a57.08,57.08,0,0,1,6.54,0c3.93.44,6.5,1.63,5.09,6.76-1.61,5.82-2.05,12-3.31,17.88-2,9.59-8.16,14.51-18,14.65-7.19.1-14.39,0-21.58,0-12.09,0-17.13-5.87-15-17.88,2.46-13.71,5.28-27.35,7.93-41,2.11-10.88,4.25-21.75,6.28-32.64,2.31-12.43,6.2-17.07,17.86-18a129.89,129.89,0,0,1,26.66.71C416.79,445,420.64,451.55,419,460Zm59.67,77.15c-2,10-9,15.19-19.76,15.54-5.45.17-10.91,0-16.37,0-5.24,0-10.5-.36-15.7.09-6.45.56-6.75-3-5.88-7.65q3.31-17.64,6.76-35.26c3.89-20.06,7.93-40.1,11.62-60.2,1-5.31,2.84-7.78,8.81-7.45,10,.57,20.07,0,30.11.2,11.5.19,17,6.24,15,17.31Q486.39,498.48,478.69,537.11Zm43.66,15a140,140,0,0,1-28.06.06c-9.3-.91-13.22-7.35-11.41-16.88,4.35-22.87,9.43-45.61,13.23-68.57,3.86-23.35,9.33-25.05,30.93-24.39h.66v.05c4.14,0,8.3-.24,12.42.05,10.09.7,15.15,6.55,13.4,16.47-3.81,21.61-8.12,43.12-12.23,64.67-.73,3.82-1.51,7.63-2.17,11.46C537.36,545.27,532.48,551.09,522.35,552.15Zm102.15-4.49c-.74,3.9-2.24,5.19-5.93,5.06a135.43,135.43,0,0,0-14.39,0c-6.15.44-7-2.66-6-7.66q4.74-23.67,9.3-47.37c2.63-13.6,5.18-27.2,7.77-40.81l-2.11-.29c-2,10.11-4,20.21-5.9,30.32-3.76,19.58-7.66,39.14-11.1,58.77-1,5.79-3.66,7.64-9.2,7a57.06,57.06,0,0,0-11.76,0c-6.15.62-7.06-2.52-6.09-7.47,2.7-13.67,5.35-27.35,8-41,2.79-14.07,5.66-28.13,8.39-42.21a7.66,7.66,0,0,0-1.17-5.61c-1.52,7.47-3.1,14.94-4.55,22.42q-6.66,34.22-13.18,68.45c-.72,3.81-2.26,5.65-6.48,5.44-6.5-.33-13-.09-20.83-.09.77-5.76,1.2-10.85,2.15-15.84,5.65-29.47,11.47-58.91,17.07-88.39.89-4.65,2.88-6.75,7.79-6.14,6.62.82,13.28,1.28,19.93,1.83a6.08,6.08,0,0,0,2.46-.35c8.32-3,15.84-1.6,22.78,4.37,8.06-6.51,16.56-8.34,25.71-2.33,4.37,2.88,5.83,6.91,4.86,11.84C636.23,487.67,630.2,517.63,624.5,547.66Zm78.2-88.28c-2.75,15.33-6.18,30.55-8.82,45.9-.85,4.91-3.09,6-7.45,5.75a119.34,119.34,0,0,0-17.64.16c-2.07.21-5.14,2.43-5.64,4.3-2,7.48-3.18,15.18-4.67,22.8l1.92.41c1.33-6.49,3.06-12.94,3.86-19.49.63-5.09,2.94-6.58,7.71-6.25s9.59.07,14.38.13c3.79,0,5.59,1.71,4.74,5.75-1.52,7.21-1.86,14.89-4.68,21.53-1.87,4.42-6.81,9.79-11.08,10.5A136.49,136.49,0,0,1,642.94,552c-9-.68-12.8-6.87-11-16.5q7.43-40.09,15.62-80c1.64-8.09,7.43-12.66,15.87-13s17-.38,25.5,0C699.28,443,704.5,449.31,702.7,459.38Zm37.42-207.51Q727.85,302.45,715.29,353c-4.89,19.83-10,39.61-14.64,59.49-1,4.27-2.61,5.73-6.93,5.64-11.72-.25-23.45-.09-35.31-.09,13.23-54,26.31-107.21,39.16-160.48.73-3.06,5.23-7.8-.89-9.67-6.54-2-7.12,3.89-8.19,8.23C675.22,309.78,662,363.5,648.66,417.58h-41c4-16.34,7.84-32.16,11.73-48q14-57,28.05-114.09c.68-2.76,3.54-6.67-1.8-7.86-4.68-1-6.33,2.05-7.35,6.21q-17.42,71.14-35,142.25c-1.41,5.69-2.47,11.48-4.3,17-.64,1.93-3.09,4.56-4.79,4.61-12,.4-23.94.22-36.68.22,9.3-37.82,18.51-74.76,27.45-111.76q8.58-35.5,16.42-71.17c1.06-4.81,3.14-6.31,7.92-6.17,11.1.31,22.22.1,33.66.1.1,2.06.18,3.69.21,4.19,8.5-1.37,16.93-3.53,25.43-3.89a27.58,27.58,0,0,1,22.57,10c10.34-9.06,21.87-12,34.94-9.21C738.36,232.64,743.09,239.6,740.12,251.87ZM557.23,73.25h0Zm0,0h0Zm0,0h0Zm0,0h0Zm0,0h0Zm0,0h0Zm0,0h0Zm0,0h0Zm0,0h0Zm0,0h0Zm0,0h0Zm0,0h0Zm0,0h0Zm0,0h0Zm0,0h0Zm0,0h0Zm0,0h0Zm0,0h0Zm0,0h0Zm0,0h0Zm0,0h0Zm0,0h0Zm0,0h0Zm0,0h0Zm0,0h0Zm0,0h0Zm0,0h0Zm0,0h0Zm0,0h0Zm0,0h0Zm0,0h0Zm0,0h0Zm0,0h0Zm0,0h0Zm0,0h0Zm0,0h0Zm0,0h0Zm0,0h0Zm0,0h0Zm0,0h0Zm0,0h0Zm0,0h0Zm0,0h0Z"/></g></g></svg>