
<svg {...props} viewBox="0 0 246.11 251.23"> 
  <g id="Layer_1-2" data-name="Layer 1">
    <path className="fill-[#f69623]" d="m242,148.08s-.01.01-.01.02l.03-.03s-.01.01-.02.01Zm3.88-16.56c-3.42,5.36-4.47,11.3-7.6,16.08-.98-.34-.14-1.22-.79-1.61-.65.37-.98.99-1.31,1.56-3.24,5.52-7.04,10.66-10.78,15.84-7.88,10.89-17.44,20.33-26.06,30.58-.8.95-1.17.4-1.72-.14-12.48-12.08-24.97-24.15-37.45-36.23-5.44-5.27-10.86-10.56-16.29-15.83-1.35-1.3-4.35-1.81-6.02-1.05-16.79,7.68-33.58,15.34-50.36,23.06-13.62,6.26-27.21,12.58-40.81,18.89-.89.42-1.57.66-2.44-.23-6.51-6.66-13.13-13.2-19.63-19.87-9.16-9.38-17.46-19.35-21.83-32.01-.14-.38-.15-1.03-.97-.96-.31,1.28-.19,2.57,0,3.84.47,3.08,1.59,5.98,2.66,8.88.1.18.21.36.31.53.08.13.16.27.24.4.07.13.14.27.2.41.08.18.15.38.18.59.02.13.03.27.02.41l-1.31-2.01c-1.17-1.58-1.94-3.44-3.37-4.87q-.94,1.42-.34,2.79c2.8,6.34,6.77,11.95,10.98,17.42,8.88,11.5,19.97,20.89,29.82,31.45,1.29,1.38,3.56,1.88,5.5.98,22.45-10.29,44.87-20.65,67.31-30.95,2.33-1.07,4.23-2.81,6.54-3.9,5.74-2.7,11.62-5.05,17.4-7.63,1.36-.61,2.24-.07,3.13.78,3.58,3.44,7.15,6.88,10.74,10.31,11.01,10.52,21.93,21.14,33.08,31.51,3.65,3.4,7.41,6.7,11.07,10.08.6.55,1.2.71,1.98.8,2.79.33,4.59-1.35,6.21-3.14,3.22-3.53,6.26-7.22,9.41-10.8,7.25-8.25,14.65-16.39,20.93-25.42,2.5-3.58,5.01-7.18,6.35-11.45.26-.82.07-2.01,1.14-2.53.19-.57.31-1.19.59-1.72,1.36-2.6,2.36-5.33,2.94-8.19.4-2.01.87-4.03.35-6.65ZM5.58,144.99c-.03-.08-.06-.16-.1-.25.08.02.16.05.23.07-.05.06-.09.12-.13.18Zm.42.76s-.09-.09-.08-.13c0-.04.06-.08.1-.11.03.04.06.08.09.13-.03.04-.07.07-.11.11Zm.38.72s-.09-.08-.08-.12c0-.04.06-.07.09-.11.03.04.07.08.1.13-.03.04-.07.07-.11.1Z"/>
    <path className="fill-[#f69623]" d="m229.47,89.57c-1.84-4.1-4.88-7.47-7.01-11.39.01-.15.02-.31.02-.46.09.06.18.13.28.19.44.12.88.23,1.52.4-.4-1.68-1.26-2.97-2.05-4.27-5.32-8.66-10.78-17.25-15.98-25.99-8.94-15.02-17.44-30.31-26.5-45.26-1.28-2.11-2.62-2.88-4.97-2.78-1.48.06-2.44.38-3.37,1.63-14.78,19.79-29.62,39.52-44.4,59.31-1,1.32-1.7,1.6-3.27.79-17.54-9-35.13-17.9-52.7-26.84-2.46-1.25-5.61-.58-7.38,1.58-8.8,10.76-17.65,21.48-26.4,32.28-5.5,6.8-11.1,13.54-15.98,20.81-.56.84-1.35,1.62-1.2,3.02,4.47-2.98,7.5-7.24,11.43-10.54-1.08,1.87-2.36,3.56-3.59,5.3-.28.4-.92,1.01-.28,1.4.48.29,1.31.43,1.83-.28.22-.3.49-.56.73-.85,12.3-15.03,25.32-29.46,37.33-44.73.84-1.07,1.48-1.09,2.61-.5,5.71,2.99,11.47,5.89,17.21,8.82,12.2,6.23,24.4,12.44,36.59,18.68,2.22,1.14,6.34-.17,7.12-2.48.22-.65.43-1.2.85-1.74,5.09-6.55,9.69-13.45,15.04-19.83,4.85-5.79,9.05-12.12,13.54-18.21,4.48-6.08,8.96-12.16,13.46-18.23.44-.59.88-1.88,1.83-.46,1.67,2.5,3.42,4.96,4.9,7.57,2.59,4.57,5.31,9.07,7.85,13.68,7.7,13.94,15.82,27.67,24.38,41.12,2.49,3.9,5.2,7.63,8.28,11.15,2.31,2.62,4.18,5.68,6.63,8.24.72.75,1.54,2.28,2.49,1.65.76-.51-.43-1.85-.84-2.78Zm-194.46-11.45c-.11.15-.22.29-.33.44h0c-.17.2-.34.4-.52.59-.25.71-.81,1.18-1.32,1.69-.15.07-.38.25-.43.2-.28-.21-.06-.39.11-.55.36-.61.8-1.14,1.4-1.53.19-.2.38-.4.57-.61.12-.12.24-.25.35-.38.18-.44.35-.89.97-.94,0,.59-.4.84-.8,1.09Z"/>
    <path className="fill-[#060606]" d="m245.6,127.15c-6.52-11.18-13.05-22.36-19.54-33.56-.46-.79-1.03-.9-1.83-.89-2.73.03-5.46.06-8.19-.01-1.02-.03-1.53.34-2.02,1.21-3.78,6.61-7.63,13.19-11.45,19.78-2.63,4.53-5.26,9.07-7.95,13.72-2.03-2.47-3.91-4.77-5.79-7.08-1.9-2.32-3.79-4.65-5.74-7.04,1.29-.39,2.31-.64,3.29-1,4.01-1.51,6.14-4.57,6.17-8.8.04-4.73-1.8-7.55-6.04-9.23-2.09-.83-4.28-1.26-6.52-1.36-9.24-.4-18.5-.06-27.74-.2-1.11-.02-1.34.39-1.34,1.4.03,10.81.03,21.61,0,32.42,0,1,.22,1.43,1.34,1.39,2.48-.08,4.96-.08,7.45,0,1.15.04,1.48-.3,1.46-1.46-.07-3.6.01-7.2-.05-10.8-.02-1.13.17-1.63,1.48-1.58,2.97.11,5.96.08,8.94.01,1.06-.03,1.66.37,2.27,1.19,2.9,3.87,5.9,7.67,8.81,11.53.57.77,1.15,1.12,2.15,1.11,6.39-.05,12.79-.05,19.18,0,.96.01,1.45-.32,1.85-1.14,1-2.06,2.12-4.07,3.09-6.14.43-.93.97-1.22,1.99-1.21,6.02.05,12.04.04,18.06,0,.95-.01,1.47.3,1.88,1.13,1.06,2.1,2.22,4.15,3.27,6.25.37.74.74,1.13,1.66,1.11,3.29-.06,6.58-.02,10.05-.02-.1-.39-.11-.58-.19-.73Zm-67.06-19.77c-2.57.5-5.18.44-7.78.43-2.73,0-5.46-.05-8.18.02-1.08.03-1.55-.14-1.48-1.38.12-2.04.08-4.09.01-6.14-.03-.95.23-1.29,1.23-1.26,2.48.07,4.96.02,7.87.02,2.54.08,5.53-.25,8.46.42,2.63.6,3.61,1.73,3.59,3.98-.03,2.12-1.22,3.41-3.72,3.91Zm34.37,5.6c2.26-4.35,4.44-8.55,6.8-13.09,2.43,4.48,4.72,8.7,7.1,13.09h-13.9Z"/>
    <path className="fill-[#060606]" d="m83.65,92.71c4.9,0,9.81.04,14.71-.03,1.13-.01,1.57.25,1.45,1.43-.17,1.59.65,3.64-.32,4.67-.89.95-2.94.26-4.47.27-7.57.07-15.14.09-22.71.16-1.26.01-2.44.39-3.5,1.09-1.33.88-1.73,2.19-1.59,3.71.12,1.42,1.03,2.21,2.25,2.69,1.4.55,2.89.66,4.38.67,5.46.02,10.92,0,16.38.08,2.11.03,4.19.4,6.2,1.1,3.14,1.09,5.11,3.2,5.54,6.56.5,3.89.02,7.45-3.52,9.92-2.31,1.61-4.97,2.29-7.69,2.49-10.41.76-20.84.18-31.26.36-.77.01-1.05-.21-1.12-1.04-.44-5.32-.46-5.3,4.79-5.32,7.57-.03,15.14-.07,22.7-.14,1.05,0,2.09-.18,3.11-.52,1.6-.54,2.5-1.6,2.51-3.29,0-1.73-.81-2.92-2.53-3.46-1.45-.45-2.93-.51-4.41-.52-5.15-.05-10.3-.05-15.44-.16-2.49-.05-4.91-.52-7.24-1.49-3.3-1.38-5.09-3.85-5.33-7.39-.27-3.88.63-7.29,4.26-9.42,3.5-2.06,7.4-2.33,11.31-2.41,3.85-.08,7.69-.02,11.54-.02Z"/>
    <path className="fill-[#060606]" d="m55.64,127.22c-6.52-11.18-13.05-22.34-19.55-33.53-.44-.76-.93-1.01-1.76-.99-2.8.04-5.59.05-8.38-.01-.94-.02-1.45.3-1.9,1.12-1.37,2.49-2.83,4.94-4.26,7.4-4.84,8.36-9.67,16.72-14.56,25.05-.83,1.42-.58,1.71.99,1.65,2.48-.11,4.97-.11,7.45,0,1.19.05,1.78-.41,2.25-1.41.93-1.96,2-3.85,2.91-5.81.42-.89.89-1.3,1.95-1.29,6.02.06,12.04.06,18.06.01,1.02-.01,1.56.32,2.01,1.22,1.04,2.11,2.2,4.16,3.28,6.25.29.56.52,1.03,1.32,1.02,3.4-.05,6.79-.02,10.32-.02-.08-.42-.07-.56-.13-.66Zm-32.77-14.2c2.29-4.38,4.49-8.62,6.84-13.14,2.44,4.52,4.73,8.76,7.1,13.14h-13.94Z"/>
    <path className="fill-[#060606]" d="m125.4,92.71c6.39,0,12.78.03,19.17-.03,1.21-.01,1.57.31,1.58,1.55.01,4.71.06,4.71-4.67,4.71-3.1,0-6.21.07-9.3-.03-1.34-.05-1.62.39-1.61,1.65.05,8.5,0,17,.06,25.5.01,1.44-.32,1.94-1.83,1.86-2.35-.14-4.72-.13-7.07,0-1.43.08-1.76-.38-1.74-1.75.06-8.37-.02-16.75.07-25.12.02-1.69-.41-2.2-2.13-2.14-3.97.14-7.94.01-11.91.06-1.04.01-1.63-.1-1.47-1.37.2-1.57-.67-3.69.37-4.6.89-.78,2.95-.27,4.49-.27,5.34-.02,10.67,0,16.01,0Z"/>
    <path className="fill-[#f69623]" d="m204.64,213.69c2.69.83,5.18.84,7.41,2.47-1.85.89-3.57.7-5.25.62-7.62-.4-15.2-1.25-22.79-2-.62-.06-1.49-.47-1.87.18-.32.55.41,1.09.74,1.59,5.48,8.28,10.45,16.87,15.66,25.32.51.83,1.05,1.64,1.78,2.78,1.73-3.75,3.34-7.21,4.9-10.68,1.42-3.17,2.73-6.38,4.2-9.52.24-.52.34-2.05,1.73-.94.34.27.54-.34.69-.65.48-.93.91-1.9,1.45-2.8.3-.51.71-1.3,1.34-1.08.65.23.44,1.05.31,1.66-.61,2.76-1.02,5.58-2.17,8.2-2.14,4.88-4.16,9.82-6.54,14.58-1.05,2.1-1.94,4.24-2.78,6.41-.69,1.79-2.3.99-3.49,1.33-.87.24-1.52.04-2.12-.9-7.64-12.09-15.34-24.15-23.05-36.19-.54-.85-.96-1.58-.14-2.45.97-1.02.9-3.01,3.16-2.79,10.18.97,20.36,2,30.5,3.35.67.09,1.09.31,1.11.95.03.81-.68.56-1.1.58-1.05.05-2.1.02-3.68.02Z"/>
    <path className="fill-[#060606]" d="m48.13,218.33c.04-.14.09-.28.13-.42.68,0,1.36.04,2.04,0,2.74-.19,3.57-1.09,3.59-3.87v-2.79c-.01-3.28-.92-4.25-4.16-4.27-4.72-.03-9.44.04-14.16-.03-1.23-.02-1.55.33-1.53,1.53.07,4.6.13,9.19-.02,13.78-.06,1.86.41,2.34,2.28,2.32,1.77-.01,2.25-.57,2.02-2.17-.08-.49-.02-.99-.02-1.49,0-3.29,0-3.27,3.24-3.02.7.06,1.13.41,1.59.82,1.79,1.63,3.58,3.26,5.38,4.87.45.4.84.92,1.55.91,1.77,0,3.53,0,5.74,0-2.8-2.25-5.24-4.21-7.67-6.17Zm-4.39-3.53c-.81,0-1.61.05-2.41-.01-.97-.07-2.44.49-2.78-.26-.49-1.09-.23-2.52-.22-3.81,0-.75.64-.61,1.11-.61,2.84-.01,5.69.02,8.53-.01,1.94-.03,1.86,1.24,1.9,2.63.05,1.52-.54,2.15-2.05,2.08-1.36-.06-2.72,0-4.08,0Z"/>
    <path className="fill-[#060606]" d="m79.78,210.01c-.1-1.86-1.17-2.84-2.97-2.91-5.51-.21-11.03-.23-16.54,0-1.94.09-2.93,1.26-2.96,3.14-.05,3.65-.09,7.31,0,10.97.06,2.21,1.05,3.13,3.26,3.21,2.66.08,5.33.02,8,.02s5.33.06,7.99-.02c2.05-.07,3.01-.88,3.18-2.9.32-3.83.24-7.67.03-11.51Zm-4.27,10.03c.01.79-.2,1.06-1.03,1.05-3.97-.04-7.93-.03-11.89,0-.73,0-.96-.23-.95-.95.03-2.97.05-5.95-.01-8.92,0-.92.44-.96,1.14-.95,1.98.03,3.96.01,5.94.01s3.84.04,5.76-.02c.82-.02,1.05.24,1.04,1.05-.05,2.91-.05,5.82,0,8.73Z"/>
    <path className="fill-[#060606]" d="m19.13,224.46c-2.29,0-4.59.06-6.88-.01-3.04-.09-3.87-.96-3.88-3.93-.02-3.16-.02-6.33,0-9.49.01-3.01.93-3.99,4.02-4.04,3.66-.06,7.32-.01,10.98-.01.81,0,1.62-.04,2.42.01.74.05,1.49.12,2.2.32,1.4.4,2.49,2.43,2.06,3.72-.12.37-3.46,1.28-3.93,1.06-.14-.07-.34-.26-.33-.37.26-1.97-1.19-1.41-2.16-1.42-3.23-.03-6.45.03-9.68-.03-1.03-.02-1.4.24-1.37,1.33.08,2.73.05,5.46,0,8.19-.01.87.08,1.35,1.17,1.33,3.66-.07,7.32-.07,10.98,0,1.45.03,1.05-.96.98-1.62-.09-.74.73-2.05-.98-2.05-1.61,0-3.23-.07-4.84.02-1.45.08-.99-.91-1.02-1.61-.03-.75-.31-1.6,1.08-1.56,2.97.09,5.95.05,8.93.01.83-.01,1.23.12,1.19,1.1-.08,1.86.03,3.72-.05,5.58-.1,2.41-1.04,3.37-3.45,3.45-2.48.08-4.96.02-7.44.02,0,0,0,.01,0,.02Z"/>
    <path className="fill-[#060606]" d="m163.72,250.14c-2.05,0-4.1,0-6.14,0-.68,0-1.35-.03-2.01-.26-1.49-.53-2.67-2.42-2.09-3.85.57-1.39,2.14-.75,3.24-1.12.34-.12.63.14.57.51-.29,1.7.91,1.36,1.84,1.37,3.17,0,6.34-.11,9.49.05,1.79.09,1.44-.95,1.46-1.96.02-1.06.21-1.99-1.53-1.92-3.59.14-7.2.08-10.79-.1-2.78-.14-3.54-1.11-3.58-3.89-.1-5.83.34-6.28,6.1-6.28,3.23,0,6.46-.04,9.68.01,2.49.04,3.66,1.14,3.74,3.2.07,1.87-1.52,1.19-2.39,1.56-.71.3-1.5.42-1.38-.85.07-.76-.53-.68-1.03-.68-3.23,0-6.46.05-9.68-.02-1.61-.04-1,1.08-1.03,1.78-.03.74-.47,1.77,1.08,1.73,3.22-.09,6.45-.05,9.68-.02,4.13.04,4.92.84,4.92,4.86,0,5.58-.31,5.88-5.86,5.88h-4.28Z"/>
    <path className="fill-[#060606]" d="m24.82,237.76c.37-1.73-.5-1.9-1.82-1.87-2.98.09-5.96.1-8.94,0-1.72-.06-1.08,1.1-1.13,1.87-.06.8-.34,1.71,1.16,1.66,3.29-.12,6.58-.08,9.87-.02,4.02.06,4.78.86,4.79,4.84,0,5.51-.39,5.91-5.9,5.91-3.42,0-6.83,0-10.25,0-.81,0-1.61-.02-2.38-.32-1.4-.54-2.63-2.82-1.87-3.97.72-1.09,2.22-.73,3.37-1,.32-.08.47.18.43.44-.33,1.92,1.03,1.48,2.06,1.48,3.1.01,6.21-.1,9.31.04,1.75.08,1.32-1.02,1.29-1.9-.02-.85.53-1.99-1.25-1.95-3.66.09-7.33.07-10.98-.11-2.7-.13-3.31-.9-3.55-3.55-.52-5.65.35-6.62,5.94-6.62,3.23,0,6.46-.02,9.69,0,1.7.02,3.25.38,3.77,2.33.31,1.17.34,2.2-1.33,2.28-.67.03-1.33.27-2.27.46Z"/>
    <path className="fill-[#060606]" d="m68.53,243.77c1.19-.11,2.03-.17,2.86-.27,2.45-.27,3.13-1,3.18-3.43.02-1.18.01-2.36,0-3.54-.02-2.79-1-3.82-3.81-3.84-4.84-.03-9.68.03-14.51-.03-1.16-.02-1.48.31-1.47,1.45.06,4.66.11,9.31-.02,13.96-.04,1.71.43,2.11,2.11,2.15,1.89.05,2.58-.47,2.25-2.32-.09-.48-.02-.99-.02-1.49,0-2.86.71-3.39,3.56-2.75.67.14,1.05.63,1.51,1.03,1.2,1.07,2.57,2.02,3.54,3.28,2.33,2.99,5.39,2.13,8.65,2.08-2.69-2.16-5.13-4.11-7.83-6.28Zm-8.33-3.3c-.93.02-1.09-.31-1.12-1.16-.1-3.51-.13-3.5,3.43-3.5h2.05c1.48.01,2.97-.02,4.45.02,1.8.03,1.55,1.37,1.58,2.54.02,1.17-.15,2.1-1.66,2.09-2.91-.03-5.82-.05-8.73.01Z"/>
    <path className="fill-[#060606]" d="m118.15,250.14c-2.11,0-4.22.05-6.33-.01-2.52-.07-3.53-1.03-3.58-3.52-.07-3.48-.07-6.95,0-10.43.05-2.39,1.04-3.42,3.44-3.47,4.34-.09,8.69-.1,13.04,0,2.78.06,4.65,3.04,3.43,5.46-.47.93-1.76.57-2.67.81-1.27.34-1.86-.05-1.62-1.41.23-1.3-.32-1.66-1.61-1.61-2.79.1-5.59.08-8.38,0-1.08-.03-1.35.31-1.32,1.35.07,2.61.1,5.22,0,7.82-.05,1.36.46,1.65,1.7,1.61,2.67-.09,5.34-.1,8.01,0,1.35.05,1.78-.43,1.61-1.69-.21-1.47-.03-2.24,1.89-1.73,1.66.44,2.75.73,2.52,2.85-.28,2.62-.86,3.74-3.05,3.88-2.35.16-4.71.04-7.07.04,0,.02,0,.03,0,.05Z"/>
    <path className="fill-[#060606]" d="m42.37,250.14c-2.73,0-5.46-.04-8.19.02-1.02.02-1.4-.21-1.38-1.31.06-4.9.05-9.8,0-14.7-.01-1.09.22-1.51,1.43-1.49,5.33.07,10.67.09,16.01,0,1.4-.03,1.47.58,1.44,1.64-.03.98.1,1.74-1.39,1.69-3.9-.13-7.82.04-11.72-.08-1.47-.04-1.44.69-1.37,1.68.06.91-.41,2.06,1.32,1.96,1.98-.11,3.97.05,5.95-.05,1.48-.07,1.12.9,1.18,1.71.07.93-.06,1.52-1.25,1.46-1.92-.1-3.85.04-5.77-.05-1.12-.05-1.63.25-1.44,1.42.07.42.07.88,0,1.3-.23,1.32.44,1.49,1.55,1.47,3.85-.06,7.69.04,11.54-.06,1.35-.03,1.62.4,1.63,1.66,0,1.32-.23,1.85-1.71,1.77-2.6-.14-5.21-.04-7.81-.04Z"/>
    <path className="fill-[#060606]" d="m141.48,250.14c-2.73,0-5.46-.04-8.19.02-.96.02-1.26-.22-1.25-1.22.05-5.03.05-10.05,0-15.08-.01-1.03.37-1.21,1.29-1.2,5.4.04,10.8.08,16.19-.02,1.62-.03,1.16.97,1.25,1.81.12,1.06-.13,1.53-1.37,1.5-3.91-.09-7.82.04-11.73-.07-1.46-.04-1.46.68-1.38,1.68.07.9-.42,2.07,1.31,1.97,1.98-.11,3.97.05,5.95-.05,1.47-.07,1.13.89,1.19,1.71.06.93-.04,1.52-1.25,1.46-1.92-.1-3.85.04-5.77-.05-1.11-.05-1.63.23-1.45,1.42.07.49.07,1,0,1.49-.17,1.13.38,1.3,1.36,1.29,3.91-.05,7.82.04,11.73-.05,1.34-.03,1.63.39,1.63,1.66,0,1.32-.23,1.86-1.71,1.78-2.6-.14-5.21-.04-7.82-.04Z"/>
    <path className="fill-[#060606]" d="m94.3,224.43c-2.29,0-4.59.06-6.88-.02-2.42-.08-3.36-1.03-3.4-3.46-.06-4.28.01-8.56-.05-12.84-.02-1.1.47-1.15,1.33-1.17,3.06-.05,3.06-.07,3.06,2.98,0,3.29.04,6.57-.02,9.86-.02,1.05.27,1.38,1.33,1.36,3.1-.07,6.2-.07,9.3,0,1.1.03,1.33-.36,1.31-1.38-.06-3.72.03-7.44-.05-11.16-.03-1.27.28-1.85,1.63-1.66.55.08,1.12.05,1.67,0,.75-.06,1.12.12,1.11.99-.04,4.46.02,8.93-.06,13.39-.04,2.03-1.08,2.98-3.22,3.06-2.35.09-4.71.02-7.07.02Z"/>
    <path className="fill-[#060606]" d="m129.08,210.86c-.09-2.79-1.05-3.83-3.85-3.87-4.9-.06-9.8.02-14.7-.04-1.1-.01-1.37.37-1.35,1.39.06,2.48.02,4.96.02,7.44s.04,4.97-.02,7.45c-.02.92.17,1.41,1.21,1.28.55-.07,1.12-.06,1.67,0,1.08.14,1.59-.14,1.47-1.37-.13-1.29.05-2.61-.05-3.91-.1-1.21.28-1.56,1.51-1.53,3.41.09,6.82.07,10.23.01,2.79-.04,3.78-1.08,3.86-3.87.03-.99.04-1.98,0-2.98Zm-4.09,1.28c-.04,1.13.18,2.41-1.47,2.45-3.08.09-6.17.06-9.26.09-.57.01-.79-.24-.76-.77,0-.06,0-.13,0-.19q-.35-3.62,3.28-3.62h2.04v.03c1.54,0,3.09-.02,4.63.01,1.33.02,1.59.86,1.54,2Z"/>
    <path className="fill-[#060606]" d="m97.98,232.93c-2.59,4.5-5.15,8.93-7.71,13.36-.43.75-.88,1.49-1.32,2.24-1.39,2.38-3.51,2.37-4.95-.02-2.82-4.66-5.65-9.31-8.46-13.98-.31-.51-.78-.96-.77-1.85,1.28,0,2.55.04,3.81-.02.89-.04,1.13.58,1.47,1.17,2.15,3.68,4.3,7.35,6.63,11.33,1.24-2.25,2.35-4.27,3.46-6.28.54-.97,1.26-1.88,1.61-2.92,1-3,3-3.97,6.22-3.04Z"/>
    <path className="fill-[#060606]" d="m104.13,241.38c0,2.47-.05,4.95.02,7.42.03,1.03-.24,1.36-1.32,1.37-3.12.02-3.12.07-3.12-3.04,0-4.27.07-8.54-.04-12.8-.04-1.46.44-1.87,1.77-1.66.42.06.87.06,1.3,0,1.2-.18,1.45.38,1.42,1.47-.07,2.41-.02,4.82-.02,7.24Z"/>
    <path className="fill-[#f69623]" d="m242,148.1c.08.03.15.05.23.08-.03,0-.07.01-.09,0-.04-.03-.07-.07-.11-.11,0,0-.03.03-.03.03Z"/>
    <path className="fill-[#fefefe]" d="m5.46,144.68l-.03.04v-.06s.02.01.03.02Z"/>
    <path className="fill-[#fefefe]" d="m5.48,144.74s-.03-.01-.05-.02l.03-.04s.02.04.02.06Z"/>
    <path className="fill-[#fefefe]" d="m34.69,78.57c-.18.19-.35.39-.53.58.18-.19.35-.39.52-.58h0Z"/>
    <path className="fill-[#fefefe]" d="m222.46,78.18l.03-.46c.09.06.18.13.27.19-.1.09-.2.18-.3.27Z"/>
  </g>
</svg>